<?xml version="1.0" encoding="UTF-8"?>
<svg width="840px" height="480px" viewBox="0 0 840 480" version="1.1" xmlns="http://www.w3.org/2000/svg" xmlns:xlink="http://www.w3.org/1999/xlink">
    <!-- Generator: Sketch 49 (51002) - http://www.bohemiancoding.com/sketch -->
    <title>2-blocks-template-featured</title>
    <desc>Created with Sketch.</desc>
    <defs>
        <path d="M6,0 L184,0 C187.313708,-6.08718376e-16 190,2.6862915 190,6 L190,322 L0,322 L0,6 C-4.05812251e-16,2.6862915 2.6862915,6.08718376e-16 6,0 Z" id="path-1"></path>
        <filter x="-18.9%" y="-9.9%" width="133.7%" height="119.9%" filterUnits="objectBoundingBox" id="filter-2">
            <feOffset dx="-4" dy="0" in="SourceAlpha" result="shadowOffsetOuter1"></feOffset>
            <feGaussianBlur stdDeviation="10" in="shadowOffsetOuter1" result="shadowBlurOuter1"></feGaussianBlur>
            <feColorMatrix values="0 0 0 0 0   0 0 0 0 0   0 0 0 0 0  0 0 0 0.198086504 0" type="matrix" in="shadowBlurOuter1"></feColorMatrix>
        </filter>
        <polygon id="path-3" points="11.6404051 19.365 15.14 27.815 15.1416667 27.8166667 9.13166667 30.3733333 5.37434793 21.4724772 0 26.6916667 0 0 19.3183333 19.365"></polygon>
        <filter x="-160.5%" y="-95.5%" width="420.9%" height="304.1%" filterUnits="objectBoundingBox" id="filter-4">
            <feOffset dx="0" dy="2" in="SourceAlpha" result="shadowOffsetOuter1"></feOffset>
            <feGaussianBlur stdDeviation="10" in="shadowOffsetOuter1" result="shadowBlurOuter1"></feGaussianBlur>
            <feColorMatrix values="0 0 0 0 0   0 0 0 0 0   0 0 0 0 0  0 0 0 0.201681386 0" type="matrix" in="shadowBlurOuter1"></feColorMatrix>
        </filter>
    </defs>
    <g id="2-blocks-template-featured" stroke="none" stroke-width="1" fill="none" fill-rule="evenodd">
        <polygon id="bg" fill="#343642" points="0 480 840 480 840 0 0 0"></polygon>
        <g id="desktop" transform="translate(20.000000, 26.000000)">
            <path d="M726,454 L0,454 L0,6 C0,2.687 2.687,0 6,0 L720,0 C723.313,0 726,2.687 726,6 L726,454 Z" id="container_bg" fill="#ECECEC"></path>
            <polygon id="Combined-Shape" fill="#979C9C" points="0 24 726 24 726 454 0 454"></polygon>
            <rect id="Rectangle" fill="#D8D8D8" x="35" y="59" width="140" height="20" rx="2"></rect>
            <rect id="Rectangle-2" fill="#494B4B" x="0" y="412" width="363" height="42"></rect>
            <rect id="Rectangle-2-Copy" fill="#383A3A" x="0" y="412" width="182" height="42"></rect>
            <rect id="Rectangle-3" fill="#F6F6F7" x="80" y="429" width="50" height="10" rx="2"></rect>
            <g id="minimal-left" transform="translate(56.000000, 425.000000)" fill="#FFFFFF" fill-rule="nonzero">
                <polygon id="Shape" points="8.1 15.7 0.4 8 8.1 0.3 9.6 1.7 3.3 8 9.6 14.3"></polygon>
            </g>
            <g id="minimal-left-copy" transform="translate(302.000000, 433.000000) rotate(-180.000000) translate(-302.000000, -433.000000) translate(297.000000, 425.000000)" fill="#FFFFFF" fill-rule="nonzero">
                <polygon id="Shape" points="8.1 15.7 0.4 8 8.1 0.3 9.6 1.7 3.3 8 9.6 14.3"></polygon>
            </g>
            <rect id="Rectangle-3-Copy" fill="#F6F6F7" x="233" y="429" width="50" height="10" rx="2"></rect>
            <polygon id="Combined-Shape-Copy" fill="#FFFFFF" points="363 24 726 24 726 454 363 454"></polygon>
            <rect id="Rectangle" fill="#343642" x="405" y="59" width="140" height="20" rx="2"></rect>
            <g id="Group" transform="translate(405.000000, 113.000000)" fill="#ECECEC">
                <rect id="Rectangle-Copy" x="0" y="0" width="282" height="12" rx="2"></rect>
                <rect id="Rectangle-Copy-2" x="0" y="26" width="282" height="12" rx="2"></rect>
                <rect id="Rectangle-Copy-6" x="0" y="162" width="282" height="12" rx="2"></rect>
                <rect id="Rectangle-Copy-3" x="0" y="52" width="282" height="12" rx="2"></rect>
                <rect id="Rectangle-Copy-7" x="0" y="188" width="282" height="12" rx="2"></rect>
                <rect id="Rectangle-Copy-4" x="0" y="78" width="282" height="12" rx="2"></rect>
                <rect id="Rectangle-Copy-8" x="0" y="214" width="282" height="12" rx="2"></rect>
                <rect id="Rectangle-Copy-5" x="0" y="104" width="282" height="12" rx="2"></rect>
                <rect id="Rectangle-Copy-9" x="0" y="240" width="282" height="12" rx="2"></rect>
                <rect id="Rectangle-Copy-10" x="0" y="266" width="282" height="12" rx="2"></rect>
            </g>
            <g id="dots" transform="translate(15.000000, 8.000000)" fill="#979C9C">
                <path d="M8,4 C8,6.209 6.209,8 4,8 C1.791,8 0,6.209 0,4 C0,1.791 1.791,0 4,0 C6.209,0 8,1.791 8,4" id="Fill-6"></path>
                <path d="M24,4 C24,6.209 22.209,8 20,8 C17.791,8 16,6.209 16,4 C16,1.791 17.791,0 20,0 C22.209,0 24,1.791 24,4" id="Fill-8"></path>
                <path d="M40,4 C40,6.209 38.209,8 36,8 C33.791,8 32,6.209 32,4 C32,1.791 33.791,0 36,0 C38.209,0 40,1.791 40,4" id="Fill-10"></path>
            </g>
        </g>
        <g id="mobile" transform="translate(630.000000, 158.000000)">
            <g id="mobile_bg">
                <use fill="black" fill-opacity="1" filter="url(#filter-2)" xlink:href="#path-1"></use>
                <use fill="#ECECEC" fill-rule="evenodd" xlink:href="#path-1"></use>
            </g>
            <polygon id="Combined-Shape" fill="#338899" points="190 26 190 322 0 322 8.31964596e-16 26"></polygon>
            <polygon id="Combined-Shape-Copy-3" fill="#982B3C" points="190 26 190 224 0 224 8.31964596e-16 26"></polygon>
            <polygon id="Combined-Shape-Copy-2" fill="#979C9C" points="190 26 190 125 0 125 8.31964596e-16 26"></polygon>
            <rect id="Rectangle-5" fill="#DBDBDB" x="7" y="7" width="176" height="12" rx="1"></rect>
            <rect id="Rectangle-4" fill="#FFFFFF" x="66" y="69" width="58" height="13" rx="2"></rect>
            <rect id="Rectangle-4-Copy" fill="#FFFFFF" x="66" y="168" width="58" height="13" rx="2"></rect>
            <rect id="Rectangle-4-Copy-2" fill="#FFFFFF" x="66" y="267" width="58" height="13" rx="2"></rect>
            <path d="M0,7 L0,6 C0,2.687 2.0769043,0 6,0 L184,0 C188.06543,0 190,2.687 190,6 L190,7 C190,3.687 187.313,1 184,1 L6,1 C2.687,1 0,3.687 0,7 Z" id="inner-shadow" fill="#FFFFFF" opacity="0.598901721"></path>
        </g>
        <g id="default" transform="translate(189.000000, 445.000000)" fill-rule="nonzero">
            <g id="Combined-Shape">
                <use fill="black" fill-opacity="1" filter="url(#filter-4)" xlink:href="#path-3"></use>
                <use fill="#FFFFFF" fill-rule="evenodd" xlink:href="#path-3"></use>
            </g>
            <polygon id="Shape" fill="#000000" points="12.9183333 26.6816667 9.845 27.9716667 4.67833333 15.6816667 7.74666667 14.39 12.9183333 26.6816667"></polygon>
            <polygon id="Shape" fill="#000000" points="1.66666667 4.01166667 1.66666667 22.6583333 6.615 17.8816667 7.32833333 17.65 15.275 17.65"></polygon>
        </g>
    </g>
</svg>