<?xml version="1.0" encoding="UTF-8"?>
<svg width="840px" height="480px" viewBox="0 0 840 480" version="1.1" xmlns="http://www.w3.org/2000/svg" xmlns:xlink="http://www.w3.org/1999/xlink">
    <!-- Generator: Sketch 49 (51002) - http://www.bohemiancoding.com/sketch -->
    <title>360-degrees-product-viewer-featured</title>
    <desc>Created with Sketch.</desc>
    <defs>
        <path d="M6,0 L184,0 C187.313708,-6.08718376e-16 190,2.6862915 190,6 L190,322 L0,322 L0,6 C-4.05812251e-16,2.6862915 2.6862915,6.08718376e-16 6,0 Z" id="path-1"></path>
        <filter x="-14.7%" y="-9.9%" width="133.7%" height="119.9%" filterUnits="objectBoundingBox" id="filter-2">
            <feOffset dx="4" dy="0" in="SourceAlpha" result="shadowOffsetOuter1"></feOffset>
            <feGaussianBlur stdDeviation="10" in="shadowOffsetOuter1" result="shadowBlurOuter1"></feGaussianBlur>
            <feColorMatrix values="0 0 0 0 0   0 0 0 0 0   0 0 0 0 0  0 0 0 0.596156024 0" type="matrix" in="shadowBlurOuter1"></feColorMatrix>
        </filter>
        <polygon id="path-3" points="13.9684862 23.238 18.168 33.378 18.17 33.38 10.958 36.448 6.44921752 25.7669727 0 32.03 0 0 23.182 23.238"></polygon>
        <filter x="-133.7%" y="-79.6%" width="367.4%" height="270.1%" filterUnits="objectBoundingBox" id="filter-4">
            <feOffset dx="0" dy="2" in="SourceAlpha" result="shadowOffsetOuter1"></feOffset>
            <feGaussianBlur stdDeviation="10" in="shadowOffsetOuter1" result="shadowBlurOuter1"></feGaussianBlur>
            <feColorMatrix values="0 0 0 0 0   0 0 0 0 0   0 0 0 0 0  0 0 0 0.201681386 0" type="matrix" in="shadowBlurOuter1"></feColorMatrix>
        </filter>
    </defs>
    <g id="360-degrees-product-viewer-featured" stroke="none" stroke-width="1" fill="none" fill-rule="evenodd">
        <polygon id="bg" fill="#B1B1B0" points="0 480 840 480 840 0 0 0"></polygon>
        <g id="desktop" transform="translate(94.000000, 26.000000)">
            <path d="M726,454 L0,454 L0,6 C0,2.687 2.687,0 6,0 L720,0 C723.313,0 726,2.687 726,6 L726,454 Z" id="container_bg" fill="#090909"></path>
            <rect id="Rectangle-2" fill="#1F1F1F" x="0" y="22" width="726" height="432"></rect>
            <g id="Page-1" transform="translate(290.000000, 127.000000)" fill="#494949">
                <path d="M45.7894,128.9091 C26.1994,119.6091 12.1294,100.5591 9.9994,77.9991 L0.9994,77.9991 C4.0594,114.9621 34.9594,143.9991 72.6994,143.9991 C74.0494,143.9991 75.3394,143.8791 76.6624,143.7891 L53.7994,120.8991 L45.7894,128.9091 Z" id="Fill-1"></path>
                <path d="M72.7,0 C71.35,0 70.06,0.12 68.74,0.21 L91.6,23.1 L99.58,15.12 C119.2,24.39 133.27,43.44 135.4,66 L144.4,66 C141.34,29.04 110.44,0 72.7,0" id="Fill-4"></path>
                <path d="M108.5419,93.5685 L87.9709,48.9975 C87.7159,48.4455 87.1939,48.0735 86.5939,48.0075 C85.9789,47.9445 85.4029,48.1995 85.0429,48.6885 L65.5009,74.7435 L53.1589,65.4855 C52.7509,65.1795 52.2289,65.0685 51.7369,65.1885 C51.2419,65.3055 50.8249,65.6325 50.5969,66.0885 L36.8839,93.5175 C36.6169,94.0485 36.6469,94.6785 36.9589,95.1855 C37.2679,95.6925 37.8199,96.0015 38.4139,96.0015 L106.9849,96.0015 C107.5729,96.0015 108.1159,95.7045 108.4309,95.2125 C108.7429,94.7205 108.7879,94.0995 108.5419,93.5685" id="Fill-6"></path>
                <path d="M57.7,33 C62.671,33 66.7,37.029 66.7,42 C66.7,46.971 62.671,51 57.7,51 C52.729,51 48.7,46.971 48.7,42 C48.7,37.029 52.729,33 57.7,33" id="Fill-8"></path>
            </g>
            <rect id="Rectangle-3" fill="#494949" x="223" y="316" width="280" height="8" rx="4"></rect>
            <circle id="Oval" fill="#B7413D" opacity="0.300271739" cx="363" cy="320" r="25"></circle>
            <circle id="Oval-Copy" fill="#B7413D" cx="363" cy="320" r="20"></circle>
            <g id="enlarge-45" transform="translate(351.000000, 313.000000)" fill="#FFFFFF" fill-rule="nonzero">
                <polygon id="Shape" points="8 14 0 7 8 0"></polygon>
                <polygon id="Shape" points="16 14 16 0 24 7"></polygon>
            </g>
            <g id="dots" transform="translate(15.000000, 8.000000)" fill="#494949">
                <path d="M8,4 C8,6.209 6.209,8 4,8 C1.791,8 0,6.209 0,4 C0,1.791 1.791,0 4,0 C6.209,0 8,1.791 8,4" id="Fill-6"></path>
                <path d="M24,4 C24,6.209 22.209,8 20,8 C17.791,8 16,6.209 16,4 C16,1.791 17.791,0 20,0 C22.209,0 24,1.791 24,4" id="Fill-8"></path>
                <path d="M40,4 C40,6.209 38.209,8 36,8 C33.791,8 32,6.209 32,4 C32,1.791 33.791,0 36,0 C38.209,0 40,1.791 40,4" id="Fill-10"></path>
            </g>
        </g>
        <g id="mobile" transform="translate(20.000000, 158.000000)">
            <g id="Rectangle">
                <use fill="black" fill-opacity="1" filter="url(#filter-2)" xlink:href="#path-1"></use>
                <use fill="#1F1F1F" fill-rule="evenodd" xlink:href="#path-1"></use>
            </g>
            <g id="Page-1" transform="translate(47.000000, 81.000000)" fill="#494949">
                <path d="M29.8596,85.9394 C16.7996,79.7394 7.4196,67.0394 5.9996,51.9994 L-0.0004,51.9994 C2.0396,76.6414 22.6396,95.9994 47.7996,95.9994 C48.6996,95.9994 49.5596,95.9194 50.4416,95.8594 L35.1996,80.5994 L29.8596,85.9394 Z" id="Fill-1"></path>
                <path d="M47.8,0 C46.9,0 46.04,0.08 45.16,0.14 L60.4,15.4 L65.72,10.08 C78.8,16.26 88.18,28.96 89.6,44 L95.6,44 C93.56,19.36 72.96,0 47.8,0" id="Fill-4"></path>
                <path d="M71.6946,62.379 L57.9806,32.665 C57.8106,32.297 57.4626,32.049 57.0626,32.005 C56.6526,31.963 56.2686,32.133 56.0286,32.459 L43.0006,49.829 L34.7726,43.657 C34.5006,43.453 34.1526,43.379 33.8246,43.459 C33.4946,43.537 33.2166,43.755 33.0646,44.059 L23.9226,62.345 C23.7446,62.699 23.7646,63.119 23.9726,63.457 C24.1786,63.795 24.5466,64.001 24.9426,64.001 L70.6566,64.001 C71.0486,64.001 71.4106,63.803 71.6206,63.475 C71.8286,63.147 71.8586,62.733 71.6946,62.379" id="Fill-6"></path>
                <path d="M37.8,22 C41.114,22 43.8,24.686 43.8,28 C43.8,31.314 41.114,34 37.8,34 C34.486,34 31.8,31.314 31.8,28 C31.8,24.686 34.486,22 37.8,22" id="Fill-8"></path>
            </g>
            <path d="M0,7 L0,6 C0,2.687 2.0769043,0 6,0 L184,0 C188.06543,0 190,2.687 190,6 L190,7 C190,3.687 187.313,1 184,1 L6,1 C2.687,1 0,3.687 0,7 Z" id="inner-shadow" fill="#FFFFFF" opacity="0.246150362"></path>
            <rect id="Rectangle-4" fill="#494949" x="30" y="223" width="130" height="5" rx="2.5"></rect>
            <circle id="Oval-2" fill="#B7413D" opacity="0.300271739" cx="95" cy="225" r="25"></circle>
            <circle id="Oval-2-Copy" fill="#B7413D" cx="95" cy="225" r="20"></circle>
            <g id="enlarge-45" transform="translate(83.000000, 218.000000)" fill="#FFFFFF" fill-rule="nonzero">
                <polygon id="Shape" points="8 14 0 7 8 0"></polygon>
                <polygon id="Shape" points="16 14 16 0 24 7"></polygon>
            </g>
        </g>
        <g id="default" transform="translate(457.000000, 356.000000)" fill-rule="nonzero">
            <g id="Combined-Shape">
                <use fill="black" fill-opacity="1" filter="url(#filter-4)" xlink:href="#path-3"></use>
                <use fill="#FFFFFF" fill-rule="evenodd" xlink:href="#path-3"></use>
            </g>
            <polygon id="Shape" fill="#000000" points="15.502 32.018 11.814 33.566 5.614 18.818 9.296 17.268 15.502 32.018"></polygon>
            <polygon id="Shape" fill="#000000" points="2 4.814 2 27.19 7.938 21.458 8.794 21.18 18.33 21.18"></polygon>
        </g>
    </g>
</svg>