<?xml version="1.0" encoding="UTF-8"?>
<svg width="840px" height="480px" viewBox="0 0 840 480" version="1.1" xmlns="http://www.w3.org/2000/svg" xmlns:xlink="http://www.w3.org/1999/xlink">
    <!-- Generator: Sketch 48.2 (47327) - http://www.bohemiancoding.com/sketch -->
    <title>3d-animated-mockup-featured-new</title>
    <desc>Created with Sketch.</desc>
    <defs>
        <filter x="-8.2%" y="-12.6%" width="116.3%" height="125.2%" filterUnits="objectBoundingBox" id="filter-1">
            <feGaussianBlur stdDeviation="10" in="SourceGraphic"></feGaussianBlur>
        </filter>
        <path d="M6,0 L184,0 C187.313708,-6.08718376e-16 190,2.6862915 190,6 L190,322 L0,322 L0,6 C-4.05812251e-16,2.6862915 2.6862915,6.08718376e-16 6,0 Z" id="path-2"></path>
        <filter x="-14.7%" y="-9.9%" width="133.7%" height="119.9%" filterUnits="objectBoundingBox" id="filter-3">
            <feOffset dx="4" dy="0" in="SourceAlpha" result="shadowOffsetOuter1"></feOffset>
            <feGaussianBlur stdDeviation="10" in="shadowOffsetOuter1" result="shadowBlurOuter1"></feGaussianBlur>
            <feColorMatrix values="0 0 0 0 0   0 0 0 0 0   0 0 0 0 0  0 0 0 0.198086504 0" type="matrix" in="shadowBlurOuter1"></feColorMatrix>
        </filter>
        <polygon id="path-4" points="13.9684862 23.238 18.168 33.378 18.17 33.38 10.958 36.448 6.44921752 25.7669727 0 32.03 0 0 23.182 23.238"></polygon>
        <filter x="-133.7%" y="-79.6%" width="367.4%" height="270.1%" filterUnits="objectBoundingBox" id="filter-5">
            <feOffset dx="0" dy="2" in="SourceAlpha" result="shadowOffsetOuter1"></feOffset>
            <feGaussianBlur stdDeviation="10" in="shadowOffsetOuter1" result="shadowBlurOuter1"></feGaussianBlur>
            <feColorMatrix values="0 0 0 0 0   0 0 0 0 0   0 0 0 0 0  0 0 0 0.201681386 0" type="matrix" in="shadowBlurOuter1"></feColorMatrix>
        </filter>
    </defs>
    <g id="Page-1" stroke="none" stroke-width="1" fill="none" fill-rule="evenodd">
        <g id="3d-animated-mockup-featured-new">
            <polygon id="bg" fill="#2D2B38" points="0 480 840 480 840 0 0 0"></polygon>
            <g id="desktop" transform="translate(94.000000, 26.000000)">
                <path d="M726,454 L0,454 L0,6 C0,2.687 2.687,0 6,0 L720,0 C723.313,0 726,2.687 726,6 L726,454 Z" id="container_bg" fill="#3D375B"></path>
                <rect id="Rectangle" fill="#FFFFFF" x="86" y="156" width="149" height="18" rx="3"></rect>
                <rect id="Rectangle-Copy" fill="#575179" x="86" y="195" width="222" height="12" rx="2"></rect>
                <rect id="Rectangle-Copy-2" fill="#575179" x="86" y="220" width="182" height="12" rx="2"></rect>
                <rect id="Rectangle-2" fill="#6A638F" x="96" y="259" width="104" height="38" rx="4"></rect>
                <rect id="Rectangle-3" fill="#FFFFFF" x="130" y="274" width="36" height="8" rx="1"></rect>
                <g id="dots" transform="translate(15.000000, 8.000000)" fill="#575179">
                    <path d="M8,4 C8,6.209 6.209,8 4,8 C1.791,8 0,6.209 0,4 C0,1.791 1.791,0 4,0 C6.209,0 8,1.791 8,4" id="Fill-6"></path>
                    <path d="M24,4 C24,6.209 22.209,8 20,8 C17.791,8 16,6.209 16,4 C16,1.791 17.791,0 20,0 C22.209,0 24,1.791 24,4" id="Fill-8"></path>
                    <path d="M40,4 C40,6.209 38.209,8 36,8 C33.791,8 32,6.209 32,4 C32,1.791 33.791,0 36,0 C38.209,0 40,1.791 40,4" id="Fill-10"></path>
                </g>
                <polygon id="Path-2-Copy" fill-opacity="0.155768795" fill="#1C1B25" filter="url(#filter-1)" points="374 262.098633 555.977539 186 741.99707 296.452148 728.694336 389.480469 646 424.098633"></polygon>
                <polygon id="Path-3" fill="#5E8F6F" points="374 186 374 192 646 354 646 344 391.194336 186.421875"></polygon>
                <polygon id="Combined-Shape" fill="#4F735C" points="726 309.755434 726 320.503576 646 354 646 333"></polygon>
                <polygon id="Combined-Shape" fill="#70A783" points="726 210.953625 726 314.608393 646 348.098633 374 186.098633 555.977539 110"></polygon>
            </g>
            <g id="mobile" transform="translate(20.000000, 158.000000)">
                <g id="mobile_bg">
                    <use fill="black" fill-opacity="1" filter="url(#filter-3)" xlink:href="#path-2"></use>
                    <use fill="#3D375B" fill-rule="evenodd" xlink:href="#path-2"></use>
                </g>
                <rect id="Rectangle-4" fill="#FFFFFF" x="42" y="34" width="106" height="16" rx="2"></rect>
                <rect id="Rectangle-4-Copy" fill="#575179" x="23" y="67" width="144" height="9" rx="1"></rect>
                <rect id="Rectangle-4-Copy-2" fill="#575179" x="36" y="86" width="118" height="9" rx="1"></rect>
                <rect id="Rectangle-4-Copy-3" fill="#6A638F" x="52" y="112" width="86" height="36" rx="4"></rect>
                <rect id="Rectangle-6" fill="#70A783" x="21" y="186" width="148" height="136"></rect>
                <g id="Group" transform="translate(123.000000, 181.000000)">
                    <circle id="Oval" stroke="#EA4A55" opacity="0.19310462" cx="25" cy="25" r="25"></circle>
                    <circle id="Oval-Copy-2" stroke="#EA4A55" opacity="0.602468297" cx="25" cy="25" r="19"></circle>
                    <circle id="Oval-Copy" fill="#EA4A55" cx="25" cy="25" r="13"></circle>
                    <rect id="Rectangle-7" fill="#FFFFFF" x="24" y="21" width="2" height="8"></rect>
                    <rect id="Rectangle-7-Copy" fill="#FFFFFF" transform="translate(25.000000, 25.000000) rotate(-270.000000) translate(-25.000000, -25.000000) " x="24" y="21" width="2" height="8"></rect>
                </g>
                <g id="Group-Copy" transform="translate(17.000000, 241.000000)">
                    <circle id="Oval" stroke="#EA4A55" opacity="0.19310462" cx="25" cy="25" r="25"></circle>
                    <circle id="Oval-Copy-2" stroke="#EA4A55" opacity="0.602468297" cx="25" cy="25" r="19"></circle>
                    <circle id="Oval-Copy" fill="#EA4A55" cx="25" cy="25" r="13"></circle>
                    <rect id="Rectangle-7" fill="#FFFFFF" x="24" y="21" width="2" height="8"></rect>
                    <rect id="Rectangle-7-Copy" fill="#FFFFFF" transform="translate(25.000000, 25.000000) rotate(-270.000000) translate(-25.000000, -25.000000) " x="24" y="21" width="2" height="8"></rect>
                </g>
                <rect id="Rectangle-5" fill="#FFFFFF" x="80" y="127" width="30" height="6"></rect>
                <path d="M0,7 L0,6 C0,2.687 2.0769043,0 6,0 L184,0 C188.06543,0 190,2.687 190,6 L190,7 C190,3.687 187.313,1 184,1 L6,1 C2.687,1 0,3.687 0,7 Z" id="inner-shadow" fill="#FFFFFF" opacity="0.10473279"></path>
            </g>
            <g id="default" transform="translate(275.000000, 314.000000)" fill-rule="nonzero">
                <g id="Combined-Shape">
                    <use fill="black" fill-opacity="1" filter="url(#filter-5)" xlink:href="#path-4"></use>
                    <use fill="#FFFFFF" fill-rule="evenodd" xlink:href="#path-4"></use>
                </g>
                <polygon id="Shape" fill="#000000" points="15.502 32.018 11.814 33.566 5.614 18.818 9.296 17.268 15.502 32.018"></polygon>
                <polygon id="Shape" fill="#000000" points="2 4.814 2 27.19 7.938 21.458 8.794 21.18 18.33 21.18"></polygon>
            </g>
        </g>
    </g>
</svg>