<?xml version="1.0" encoding="UTF-8"?>
<svg width="840px" height="480px" viewBox="0 0 840 480" version="1.1" xmlns="http://www.w3.org/2000/svg" xmlns:xlink="http://www.w3.org/1999/xlink">
    <!-- Generator: Sketch 49 (51002) - http://www.bohemiancoding.com/sketch -->
    <title>3d-folding-panel-featured-new</title>
    <desc>Created with Sketch.</desc>
    <defs>
        <path d="M6,0 L184,0 C187.313708,-6.08718376e-16 190,2.6862915 190,6 L190,322 L0,322 L0,6 C-4.05812251e-16,2.6862915 2.6862915,6.08718376e-16 6,0 Z" id="path-1"></path>
        <filter x="-14.7%" y="-9.9%" width="133.7%" height="119.9%" filterUnits="objectBoundingBox" id="filter-2">
            <feOffset dx="4" dy="0" in="SourceAlpha" result="shadowOffsetOuter1"></feOffset>
            <feGaussianBlur stdDeviation="10" in="shadowOffsetOuter1" result="shadowBlurOuter1"></feGaussianBlur>
            <feColorMatrix values="0 0 0 0 0   0 0 0 0 0   0 0 0 0 0  0 0 0 0.198086504 0" type="matrix" in="shadowBlurOuter1"></feColorMatrix>
        </filter>
        <polygon id="path-3" points="13.9684862 23.238 18.168 33.378 18.17 33.38 10.958 36.448 6.44921752 25.7669727 0 32.03 0 0 23.182 23.238"></polygon>
        <filter x="-133.7%" y="-79.6%" width="367.4%" height="270.1%" filterUnits="objectBoundingBox" id="filter-4">
            <feOffset dx="0" dy="2" in="SourceAlpha" result="shadowOffsetOuter1"></feOffset>
            <feGaussianBlur stdDeviation="10" in="shadowOffsetOuter1" result="shadowBlurOuter1"></feGaussianBlur>
            <feColorMatrix values="0 0 0 0 0   0 0 0 0 0   0 0 0 0 0  0 0 0 0.201681386 0" type="matrix" in="shadowBlurOuter1"></feColorMatrix>
        </filter>
    </defs>
    <g id="3d-folding-panel-featured-new" stroke="none" stroke-width="1" fill="none" fill-rule="evenodd">
        <polygon id="bg" fill="#5FD097" points="0 480 840 480 840 0 0 0"></polygon>
        <g id="desktop" transform="translate(94.000000, 26.000000)">
            <path d="M726,454 L0,454 L0,6 C0,2.687 2.687,0 6,0 L720,0 C723.313,0 726,2.687 726,6 L726,454 Z" id="container_bg" fill="#FFFFFF"></path>
            <polygon id="Combined-Shape" fill="#1C1726" points="0 24 726 24 726 454 0 454"></polygon>
            <polygon id="Combined-Shape-Copy" fill="#363459" points="0 24 244 24 244 239 0 239"></polygon>
            <polygon id="Combined-Shape-Copy-5" fill="#EFF0F0" points="244 24 363 60.9316406 363 416.994141 244 454"></polygon>
            <polygon id="Combined-Shape-Copy-6" fill="#DADCDC" transform="translate(422.500000, 239.000000) rotate(-180.000000) translate(-422.500000, -239.000000) " points="363 24 482 60.9316406 482 416.994141 363 454"></polygon>
            <polygon id="Combined-Shape-Copy-3" fill="#543F74" points="482 24 726 24 726 239 482 239"></polygon>
            <polygon id="Combined-Shape-Copy-4" fill="#FFFFFF" points="482 239 726 239 726 454 482 454"></polygon>
            <rect id="Rectangle" fill="#D8D8D8" x="616" y="112" width="97" height="13" rx="2"></rect>
            <rect id="Rectangle-Copy-4" fill="#EFEFEF" x="13" y="112" width="97" height="13" rx="2"></rect>
            <rect id="Rectangle-Copy-2" fill="#4B4973" x="616" y="328" width="97" height="13" rx="2"></rect>
            <path d="M590,142 L726,142 L726,151 L590,151 C588.895431,151 588,150.104569 588,149 L588,144 C588,142.895431 588.895431,142 590,142 Z" id="Rectangle-Copy" fill="#644E85"></path>
            <path d="M590,357 L726,357 L726,366 L590,366 C588.895431,366 588,365.104569 588,364 L588,359 C588,357.895431 588.895431,357 590,357 Z" id="Rectangle-Copy-6" fill="#EFEFEF"></path>
            <polygon id="Combined-Shape-Copy-2" fill="#FFFFFF" points="0 239 244 239 244 454 0 454"></polygon>
            <g id="dots" transform="translate(15.000000, 8.000000)" fill="#5FD097">
                <path d="M8,4 C8,6.209 6.209,8 4,8 C1.791,8 0,6.209 0,4 C0,1.791 1.791,0 4,0 C6.209,0 8,1.791 8,4" id="Fill-6"></path>
                <path d="M24,4 C24,6.209 22.209,8 20,8 C17.791,8 16,6.209 16,4 C16,1.791 17.791,0 20,0 C22.209,0 24,1.791 24,4" id="Fill-8"></path>
                <path d="M40,4 C40,6.209 38.209,8 36,8 C33.791,8 32,6.209 32,4 C32,1.791 33.791,0 36,0 C38.209,0 40,1.791 40,4" id="Fill-10"></path>
            </g>
        </g>
        <g id="mobile" transform="translate(20.000000, 158.000000)">
            <g id="mobile_bg">
                <use fill="black" fill-opacity="1" filter="url(#filter-2)" xlink:href="#path-1"></use>
                <use fill="#FFFFFF" fill-rule="evenodd" xlink:href="#path-1"></use>
            </g>
            <polygon id="Combined-Shape" fill="#543F74" points="190 22 190 322 0 322 8.4320736e-16 22"></polygon>
            <rect id="Rectangle-3" fill="#DADCDC" x="71" y="7" width="48" height="8" rx="1"></rect>
            <polygon id="Combined-Shape-Copy-8" fill="#363459" opacity="0.5" points="190 22 190 174 0 174 8.4320736e-16 22"></polygon>
            <rect id="Rectangle-2" fill="#EFEFEF" x="93" y="80" width="74" height="12" rx="2"></rect>
            <rect id="Rectangle-2-Copy-2" fill="#EFEFEF" x="93" y="230" width="74" height="12" rx="2"></rect>
            <path d="M74,109 L190,109 L190,118 L74,118 C72.8954305,118 72,117.104569 72,116 L72,111 C72,109.895431 72.8954305,109 74,109 Z" id="Rectangle-2-Copy" fill="#4B4973"></path>
            <path d="M74,259 L190,259 L190,268 L74,268 C72.8954305,268 72,267.104569 72,266 L72,261 C72,259.895431 72.8954305,259 74,259 Z" id="Rectangle-2-Copy-3" fill="#644E85"></path>
            <polygon id="Combined-Shape-Copy-7" fill="#1C1726" points="36 22 36 322 0 322 1.59765605e-16 22"></polygon>
            <polygon id="Combined-Shape-Copy-9" fill="#DADCDC" points="36 22 36 322 0 292 0 52"></polygon>
        </g>
        <g id="default" transform="translate(808.000000, 240.000000)" fill-rule="nonzero">
            <g id="Combined-Shape">
                <use fill="black" fill-opacity="1" filter="url(#filter-4)" xlink:href="#path-3"></use>
                <use fill="#FFFFFF" fill-rule="evenodd" xlink:href="#path-3"></use>
            </g>
            <polygon id="Shape" fill="#000000" points="15.502 32.018 11.814 33.566 5.614 18.818 9.296 17.268 15.502 32.018"></polygon>
            <polygon id="Shape" fill="#000000" points="2 4.814 2 27.19 7.938 21.458 8.794 21.18 18.33 21.18"></polygon>
        </g>
    </g>
</svg>