<?xml version="1.0" encoding="UTF-8"?>
<svg width="840px" height="480px" viewBox="0 0 840 480" version="1.1" xmlns="http://www.w3.org/2000/svg" xmlns:xlink="http://www.w3.org/1999/xlink">
    <!-- Generator: Sketch 48.2 (47327) - http://www.bohemiancoding.com/sketch -->
    <title>3d-rotating-navigation-featured</title>
    <desc>Created with Sketch.</desc>
    <defs>
        <linearGradient x1="50%" y1="0%" x2="50%" y2="100%" id="linearGradient-1">
            <stop stop-color="#0A0C0F" offset="0%"></stop>
            <stop stop-color="#0A0C0F" stop-opacity="0" offset="100%"></stop>
        </linearGradient>
        <path d="M6,0 L184,0 C187.313708,-6.08718376e-16 190,2.6862915 190,6 L190,322 L0,322 L0,6 C-4.05812251e-16,2.6862915 2.6862915,6.08718376e-16 6,0 Z" id="path-2"></path>
        <filter x="-14.7%" y="-9.9%" width="133.7%" height="119.9%" filterUnits="objectBoundingBox" id="filter-3">
            <feOffset dx="4" dy="0" in="SourceAlpha" result="shadowOffsetOuter1"></feOffset>
            <feGaussianBlur stdDeviation="10" in="shadowOffsetOuter1" result="shadowBlurOuter1"></feGaussianBlur>
            <feColorMatrix values="0 0 0 0 0   0 0 0 0 0   0 0 0 0 0  0 0 0 0.198086504 0" type="matrix" in="shadowBlurOuter1"></feColorMatrix>
        </filter>
        <polygon id="path-4" points="13.9684862 23.238 18.168 33.378 18.17 33.38 10.958 36.448 6.44921752 25.7669727 0 32.03 0 0 23.182 23.238"></polygon>
        <filter x="-133.7%" y="-79.6%" width="367.4%" height="270.1%" filterUnits="objectBoundingBox" id="filter-5">
            <feOffset dx="0" dy="2" in="SourceAlpha" result="shadowOffsetOuter1"></feOffset>
            <feGaussianBlur stdDeviation="10" in="shadowOffsetOuter1" result="shadowBlurOuter1"></feGaussianBlur>
            <feColorMatrix values="0 0 0 0 0   0 0 0 0 0   0 0 0 0 0  0 0 0 0.201681386 0" type="matrix" in="shadowBlurOuter1"></feColorMatrix>
        </filter>
    </defs>
    <g id="Page-1" stroke="none" stroke-width="1" fill="none" fill-rule="evenodd">
        <g id="3d-rotating-navigation-featured">
            <polygon id="bg" fill="#212635" points="0 480 840 480 840 0 0 0"></polygon>
            <g id="desktop" transform="translate(94.000000, 26.000000)">
                <path d="M726,454 L0,454 L0,6 C0,2.687 2.687,0 6,0 L720,0 C723.313,0 726,2.687 726,6 L726,454 Z" id="container_bg" fill="#151820"></path>
                <polygon id="body" fill="#485175" points="0 84 726 84 726 454 1.13686838e-13 454"></polygon>
                <g id="Artboard-1" transform="translate(0.000000, 24.000000)" fill-rule="nonzero">
                    <polygon id="body-copy-2" fill="#323A55" points="60 0 666 0 726 60 0 60"></polygon>
                    <polygon id="body-copy-4" fill="#1F2432" points="181.017859 0 302 0 289.93907 60 145 60"></polygon>
                    <polygon id="body-copy-5" fill="#CB68A5" points="146.283186 57.5675676 290 57.5675676 289.570277 60 145 60"></polygon>
                    <path d="M108.95651,15.4054054 C115.191015,15.4054054 117.790212,18.7314121 114.690789,22.9300181 C111.512122,27.2365575 103.580809,30.8108108 97.0501303,30.8108108 C90.5194514,30.8108108 88.1124212,27.2407088 91.5902331,22.9300181 C94.9798863,18.7314121 102.721014,15.4054054 108.95651,15.4054054 Z" id="Oval" fill="#555F84"></path>
                    <path d="M235.993605,15.4054054 C242.268513,15.4054054 246.168916,18.7314121 244.68485,22.9300181 C243.160944,27.2365575 236.574283,30.8108108 230.008539,30.8108108 C223.442794,30.8108108 219.632033,27.2407088 221.45574,22.9300181 C223.233631,18.7314121 229.724674,15.4054054 235.993605,15.4054054 Z" id="Oval-Copy" fill="#D8D8D8"></path>
                    <path d="M78.2833092,34.8648649 L105.868212,34.8648649 C106.883698,34.8648649 107.292261,35.4027243 106.777117,36.0674595 L104.897135,38.4998919 C104.250244,39.2319767 103.209643,39.6861978 102.07963,39.7297297 L74.0822169,39.7297297 C73.050941,39.7297297 72.694682,39.1778595 73.2848284,38.4998919 L75.400671,36.0674595 C76.0941577,35.3550814 77.1464466,34.9160818 78.2833092,34.8648649 Z" id="Rectangle" fill="#D8D8D8"></path>
                    <path d="M213.631633,34.8648649 L241.529421,34.8648649 C242.556425,34.8648649 243.19219,35.4027184 242.947665,36.0674463 L242.056397,38.4998522 C241.677261,39.2470131 240.748248,39.7355934 239.717941,39.7296766 L211.401966,39.7296766 C210.35999,39.7296766 209.770137,39.1778123 210.084526,38.4998522 L211.213332,36.0674463 C211.65435,35.3362436 212.595517,34.8682168 213.631633,34.8648649 Z" id="Rectangle-Copy" fill="#D8D8D8"></path>
                    <path d="M362.5,15.4054054 C368.711338,15.4054054 373.851959,18.7314121 373.99689,22.9300181 C374.144779,27.2365575 368.999228,30.8108108 362.5,30.8108108 C356.000772,30.8108108 350.855221,27.2407088 351.00311,22.9300181 C351.148041,18.7314121 356.293592,15.4054054 362.5,15.4054054 Z" id="Oval-Copy-2" fill="#555F84"></path>
                    <path d="M349.038834,34.8687472 L376.961166,34.8687472 C377.907289,34.8142875 378.746159,35.3387079 378.881126,36.0690126 L379,38.4967339 C378.974802,38.8506723 378.765568,39.1814146 378.420398,39.4129269 C378.075229,39.6444391 377.623819,39.7568039 377.169944,39.7241898 L348.830056,39.7241898 C348.376181,39.7568039 347.924771,39.6444391 347.579602,39.4129269 C347.234432,39.1814146 347.025198,38.8506723 347,38.4967339 L347.118874,36.0690126 C347.253841,35.3387079 348.092711,34.8142875 349.038834,34.8687472 Z" id="Rectangle-Copy-2" fill="#D8D8D8"></path>
                    <path d="M490.003145,15.4054054 C496.27174,15.4054054 502.762434,18.7314121 504.544213,22.9300181 C506.367822,27.2365575 502.558262,30.8108108 495.991874,30.8108108 C489.425486,30.8108108 482.840175,27.2407088 481.316351,22.9300181 C479.828381,18.7314121 483.733554,15.4054054 490.003145,15.4054054 Z" id="Oval-Copy-3" fill="#555F84"></path>
                    <path d="M484.470375,34.8648649 L512.368344,34.8648649 C513.404466,34.8682168 514.345639,35.3362436 514.78666,36.0674463 L515.915474,38.4998522 C516.229865,39.1778123 515.640007,39.7296766 514.598025,39.7296766 L486.281867,39.7296766 C485.251553,39.7355934 484.322533,39.2470131 483.943396,38.4998522 L483.052122,36.0674463 C482.807595,35.4027184 483.447356,34.8648649 484.470375,34.8648649 Z" id="Rectangle-Copy-3" fill="#D8D8D8"></path>
                    <path d="M617.043543,15.4054054 C623.279086,15.4054054 631.020273,18.7314121 634.409952,22.9300181 C637.88779,27.2365575 635.479751,30.8108108 628.950013,30.8108108 C622.420275,30.8108108 614.487912,27.2407088 611.309221,22.9300181 C608.209775,18.7314121 610.808991,15.4054054 617.043543,15.4054054 Z" id="Oval-Copy-4" fill="#555F84"></path>
                    <path d="M619.129731,34.8648649 L646.715624,34.8648649 C647.853231,34.9156383 648.906386,35.3546828 649.60034,36.0674595 L651.714284,38.4998919 C652.306426,39.1778595 651.94818,39.7297297 650.916867,39.7297297 L622.918449,39.7297297 C621.788396,39.6861978 620.747758,39.2319767 620.100843,38.4998919 L618.225729,36.0674595 C617.705631,35.4027243 618.116183,34.8648649 619.129731,34.8648649 Z" id="Rectangle-Copy-4" fill="#D8D8D8"></path>
                </g>
                <rect id="Rectangle-2" fill="url(#linearGradient-1)" x="0" y="23" width="726" height="60"></rect>
                <polygon id="body-copy" fill="#485175" opacity="0.5" points="0 84 726 84 726 454 1.13686838e-13 454"></polygon>
                <g id="x" transform="translate(672.000000, 128.000000)" stroke="#FFFFFF" stroke-linecap="square" stroke-width="4">
                    <path d="M0,0 L9.01086443,9.01086443" id="Line"></path>
                    <path d="M9.01086443,0 L0,9.01086443" id="Line-Copy"></path>
                </g>
                <g id="dots" transform="translate(15.000000, 8.000000)" fill="#2C303D">
                    <path d="M8,4 C8,6.209 6.209,8 4,8 C1.791,8 0,6.209 0,4 C0,1.791 1.791,0 4,0 C6.209,0 8,1.791 8,4" id="Fill-6"></path>
                    <path d="M24,4 C24,6.209 22.209,8 20,8 C17.791,8 16,6.209 16,4 C16,1.791 17.791,0 20,0 C22.209,0 24,1.791 24,4" id="Fill-8"></path>
                    <path d="M40,4 C40,6.209 38.209,8 36,8 C33.791,8 32,6.209 32,4 C32,1.791 33.791,0 36,0 C38.209,0 40,1.791 40,4" id="Fill-10"></path>
                </g>
                <g id="Group" transform="translate(263.000000, 228.000000)">
                    <rect id="Rectangle-3" fill="#555F84" x="0" y="0" width="200" height="16" rx="2"></rect>
                    <rect id="Rectangle-4" fill="#CB68A5" x="38" y="34" width="124" height="48" rx="24"></rect>
                    <rect id="Rectangle-5" fill="#FFFFFF" x="74" y="52" width="52" height="12" rx="2"></rect>
                </g>
            </g>
            <g id="mobile" transform="translate(20.000000, 158.000000)">
                <g id="mobile_bg">
                    <use fill="black" fill-opacity="1" filter="url(#filter-3)" xlink:href="#path-2"></use>
                    <use fill="#0A0C0F" fill-rule="evenodd" xlink:href="#path-2"></use>
                </g>
                <polygon id="Combined-Shape" fill="#485175" points="190 59 190 322 0 322 0 59"></polygon>
                <rect id="Rectangle-7" fill="#CB68A5" x="15" y="75" width="52" height="16"></rect>
                <g id="x" transform="translate(164.000000, 78.000000)" stroke="#FFFFFF" stroke-linecap="square" stroke-width="4">
                    <path d="M0,0 L9.01086443,9.01086443" id="Line"></path>
                    <path d="M9.01086443,0 L0,9.01086443" id="Line-Copy"></path>
                </g>
                <rect id="Rectangle-7-Copy" fill="#9B53BF" x="67" y="75" width="16" height="16"></rect>
                <rect id="Rectangle-7-Copy-2" fill="#FFFFFF" x="83" y="75" width="16" height="16"></rect>
                <rect id="Rectangle-8" fill="#555F84" x="37" y="173" width="116" height="14" rx="2"></rect>
                <rect id="Rectangle-4" fill="#CB68A5" x="52" y="205" width="86" height="36" rx="18"></rect>
                <rect id="Rectangle-5" fill="#FFFFFF" x="71" y="218" width="48" height="10" rx="1"></rect>
                <g id="Artboard-1persp" transform="translate(0.000000, 25.000000)" fill-rule="nonzero">
                    <polygon id="Rectangle-7" fill="#323954" points="23.6243386 0 166.375661 0 190 34 0 34"></polygon>
                    <polygon id="Rectangle-7-Copy" fill="#1E2330" points="70.833 0 118.167 0 126 34 63 34"></polygon>
                    <polygon id="Rectangle-7-Copy-2" fill="#CB68A5" points="63.489 32 125.511 32 126 34 63 34"></polygon>
                    <path d="M45.0122657,6 C49.8323624,6 52.8814651,8.28275486 51.7719749,11.2351445 C50.6006245,14.3484463 45.3006135,17 39.9916227,17 C34.682632,17 31.8031455,14.3484463 33.4743651,11.2351445 C35.0547901,8.28275486 40.1871803,6 45.0122657,6 Z" id="Oval-2" fill="#555F84"></path>
                    <path d="M94.9808835,6 C99.7169431,6 103.745192,8.28275486 103.988318,11.2351445 C104.245169,14.3484463 100.235547,17 95.0200974,17 C89.8046478,17 85.7754188,14.3484463 86.0097219,11.2351445 C86.2303002,8.28275486 90.2418828,6 94.9808835,6 Z" id="Oval-2-Copy" fill="#555F84"></path>
                    <path d="M24.7144477,20.0003736 L51.2636854,20.0003736 C51.7743459,20.0003736 52.0868701,20.2908517 51.9786101,20.6508652 L51.1360203,23.3156376 C50.8981556,23.7648193 50.4501748,24.0285747 49.9778423,23.9975322 L22.6503581,23.9975322 C22.1305057,23.9975322 21.8690476,23.6913525 22.0651412,23.3156376 L23.4582229,20.6508652 C23.7610777,20.2299473 24.2260412,19.9891824 24.7144477,20.0003736 Z" id="Rectangle-8" fill="#FFFFFF"></path>
                    <path d="M82.254745,20 L108.743217,20 C109.247517,20 109.685596,20.2906846 109.723291,20.650954 L109.997345,23.3176207 C110.036059,23.6936027 109.646882,24 109.128319,24 L81.871681,24 C81.3531182,24 80.9639414,23.6936027 81.0026553,23.3176207 L81.2767091,20.650954 C81.3144043,20.2906846 81.7524829,20 82.254745,20 Z" id="Rectangle-8-Copy" fill="#FFFFFF"></path>
                    <path d="M145.952087,6 C150.766712,6 155.910218,8.28275486 157.512767,11.2351445 C159.207005,14.3484463 156.346733,17 151.04377,17 C145.740806,17 140.427876,14.3484463 139.23593,11.2351445 C138.107768,8.28275486 141.136466,6 145.952087,6 Z" id="Oval-2-Copy-2" fill="#555F84"></path>
                    <path d="M138.732731,20.0003736 L165.285694,20.0003736 C165.774075,19.9891824 166.239014,20.2299473 166.541853,20.6508652 L167.934862,23.3156376 C168.130946,23.6913525 167.869501,23.9975322 167.349676,23.9975322 L140.023613,23.9975322 C139.551305,24.0285747 139.103348,23.7648193 138.865495,23.3156376 L138.022949,20.6508652 C137.909589,20.2908517 138.227203,20.0003736 138.732731,20.0003736 Z" id="Rectangle-8-Copy-2" fill="#FFFFFF"></path>
                </g>
                <path d="M190,25 L0,25 L0,6 C-4.05812251e-16,2.6862915 2.6862915,6.08718376e-16 6,0 L184,0 C187.313708,-6.08718376e-16 190,2.6862915 190,6 L190,25 Z" id="Combined-Shape" fill="#151820"></path>
                <rect id="Rectangle-2" fill="url(#linearGradient-1)" x="0" y="25" width="190" height="34"></rect>
                <rect id="Rectangle-6" fill="#2C303D" x="13" y="10" width="38" height="6" rx="1"></rect>
            </g>
            <g id="default" transform="translate(776.000000, 158.000000)" fill-rule="nonzero">
                <g id="Combined-Shape">
                    <use fill="black" fill-opacity="1" filter="url(#filter-5)" xlink:href="#path-4"></use>
                    <use fill="#FFFFFF" fill-rule="evenodd" xlink:href="#path-4"></use>
                </g>
                <polygon id="Shape" fill="#000000" points="15.502 32.018 11.814 33.566 5.614 18.818 9.296 17.268 15.502 32.018"></polygon>
                <polygon id="Shape" fill="#000000" points="2 4.814 2 27.19 7.938 21.458 8.794 21.18 18.33 21.18"></polygon>
            </g>
        </g>
    </g>
</svg>