<?xml version="1.0" encoding="UTF-8"?>
<svg width="840px" height="480px" viewBox="0 0 840 480" version="1.1" xmlns="http://www.w3.org/2000/svg" xmlns:xlink="http://www.w3.org/1999/xlink">
    <!-- Generator: Sketch 49 (51002) - http://www.bohemiancoding.com/sketch -->
    <title>advanced-search-featured</title>
    <desc>Created with Sketch.</desc>
    <defs>
        <path d="M6,0 L184,0 C187.313708,-6.08718376e-16 190,2.6862915 190,6 L190,322 L0,322 L0,6 C-4.05812251e-16,2.6862915 2.6862915,6.08718376e-16 6,0 Z" id="path-1"></path>
        <filter x="-14.7%" y="-9.9%" width="133.7%" height="119.9%" filterUnits="objectBoundingBox" id="filter-2">
            <feOffset dx="4" dy="0" in="SourceAlpha" result="shadowOffsetOuter1"></feOffset>
            <feGaussianBlur stdDeviation="10" in="shadowOffsetOuter1" result="shadowBlurOuter1"></feGaussianBlur>
            <feColorMatrix values="0 0 0 0 0   0 0 0 0 0   0 0 0 0 0  0 0 0 0.198086504 0" type="matrix" in="shadowBlurOuter1"></feColorMatrix>
        </filter>
        <polygon id="path-3" points="13.9684862 23.238 18.168 33.378 18.17 33.38 10.958 36.448 6.44921752 25.7669727 0 32.03 0 0 23.182 23.238"></polygon>
        <filter x="-133.7%" y="-79.6%" width="367.4%" height="270.1%" filterUnits="objectBoundingBox" id="filter-4">
            <feOffset dx="0" dy="2" in="SourceAlpha" result="shadowOffsetOuter1"></feOffset>
            <feGaussianBlur stdDeviation="10" in="shadowOffsetOuter1" result="shadowBlurOuter1"></feGaussianBlur>
            <feColorMatrix values="0 0 0 0 0   0 0 0 0 0   0 0 0 0 0  0 0 0 0.201681386 0" type="matrix" in="shadowBlurOuter1"></feColorMatrix>
        </filter>
    </defs>
    <g id="advanced-search-featured" stroke="none" stroke-width="1" fill="none" fill-rule="evenodd">
        <polygon id="bg" fill="#19A197" points="0 480 840 480 840 0 0 0"></polygon>
        <g id="desktop" transform="translate(94.000000, 26.000000)">
            <path d="M726,454 L0,454 L0,6 C0,2.687 2.687,0 6,0 L720,0 C723.313,0 726,2.687 726,6 L726,454 Z" id="container_bg" fill="#222430"></path>
            <rect id="Rectangle" fill="#3F4E90" x="0" y="23" width="726" height="431"></rect>
            <rect id="Rectangle-Copy" fill="#14151D" x="0" y="23" width="726" height="86"></rect>
            <g id="dots" transform="translate(15.000000, 8.000000)" fill="#19A197">
                <path d="M8,4 C8,6.209 6.209,8 4,8 C1.791,8 0,6.209 0,4 C0,1.791 1.791,0 4,0 C6.209,0 8,1.791 8,4" id="Fill-6"></path>
                <path d="M24,4 C24,6.209 22.209,8 20,8 C17.791,8 16,6.209 16,4 C16,1.791 17.791,0 20,0 C22.209,0 24,1.791 24,4" id="Fill-8"></path>
                <path d="M40,4 C40,6.209 38.209,8 36,8 C33.791,8 32,6.209 32,4 C32,1.791 33.791,0 36,0 C38.209,0 40,1.791 40,4" id="Fill-10"></path>
            </g>
            <rect id="Rectangle-2" fill="#19A197" x="32" y="55" width="70" height="24"></rect>
            <rect id="Rectangle-2-Copy" fill="#D5D5D5" x="102" y="55" width="24" height="24"></rect>
            <rect id="Rectangle-2-Copy-2" fill="#FFFFFF" x="126" y="55" width="24" height="24"></rect>
            <rect id="Rectangle-3" fill="#D8D8D8" x="184" y="42" width="2" height="49"></rect>
            <rect id="Rectangle-4" fill="#575B71" x="192" y="55" width="140" height="24" rx="2"></rect>
            <circle id="Oval" fill="#DF84AC" cx="638" cy="66" r="22"></circle>
            <g id="zoom-2" transform="translate(630.000000, 58.000000)" fill="#FFFFFF" fill-rule="nonzero">
                <path d="M12.7,11.3 C13.6,10.1 14.1,8.7 14.1,7.1 C14.1,3.2 11,0 7.1,0 C3.2,0 0,3.2 0,7.1 C0,11 3.2,14.2 7.1,14.2 C8.7,14.2 10.2,13.7 11.3,12.8 L14.3,15.8 C14.5,16 14.8,16.1 15,16.1 C15.2,16.1 15.5,16 15.7,15.8 C16.1,15.4 16.1,14.8 15.7,14.4 L12.7,11.3 Z M7.1,12.1 C4.3,12.1 2,9.9 2,7.1 C2,4.3 4.3,2 7.1,2 C9.9,2 12.2,4.3 12.2,7.1 C12.2,9.9 9.9,12.1 7.1,12.1 Z" id="Shape"></path>
            </g>
            <g id="simple-remove" transform="translate(684.000000, 59.000000)" fill="#FFFFFF" fill-rule="nonzero">
                <path d="M13.7,0.3 C13.3,-0.1 12.7,-0.1 12.3,0.3 L7,5.6 L1.7,0.3 C1.3,-0.1 0.7,-0.1 0.3,0.3 C-0.1,0.7 -0.1,1.3 0.3,1.7 L5.6,7 L0.3,12.3 C-0.1,12.7 -0.1,13.3 0.3,13.7 C0.5,13.9 0.7,14 1,14 C1.3,14 1.5,13.9 1.7,13.7 L7,8.4 L12.3,13.7 C12.5,13.9 12.8,14 13,14 C13.2,14 13.5,13.9 13.7,13.7 C14.1,13.3 14.1,12.7 13.7,12.3 L8.4,7 L13.7,1.7 C14.1,1.3 14.1,0.7 13.7,0.3 Z" id="Shape"></path>
            </g>
            <rect id="Rectangle-5" fill="#FFFFFF" x="184" y="109" width="414" height="227"></rect>
            <rect id="Rectangle-6" fill="#D5D5D5" x="213" y="132" width="62" height="11" rx="2"></rect>
            <rect id="Rectangle-7" fill="#73929D" x="213" y="162" width="43" height="43"></rect>
            <rect id="Rectangle-7-Copy" fill="#73929D" x="213" y="214" width="43" height="43"></rect>
            <rect id="Rectangle-7-Copy-2" fill="#73929D" x="213" y="266" width="43" height="43"></rect>
            <rect id="Rectangle-8" fill="#222430" x="272" y="169" width="93" height="12" rx="2"></rect>
            <rect id="Rectangle-8-Copy-3" fill="#222430" x="474" y="169" width="93" height="12" rx="2"></rect>
            <rect id="Rectangle-8-Copy-4" fill="#222430" x="516" y="195" width="51" height="12" rx="2"></rect>
            <rect id="Rectangle-8-Copy-5" fill="#222430" x="490" y="221" width="77" height="12" rx="2"></rect>
            <rect id="Rectangle-8-Copy-6" fill="#222430" x="505" y="247" width="62" height="12" rx="2"></rect>
            <rect id="Rectangle-8-Copy-7" fill="#222430" x="474" y="273" width="93" height="12" rx="2"></rect>
            <rect id="Rectangle-8-Copy" fill="#222430" x="272" y="221" width="143" height="12" rx="2"></rect>
            <rect id="Rectangle-8-Copy-2" fill="#222430" x="272" y="273" width="93" height="12" rx="2"></rect>
            <rect id="Rectangle-9" fill="#D5D5D5" x="272" y="188" width="46" height="10" rx="2"></rect>
            <rect id="Rectangle-9-Copy" fill="#D5D5D5" x="272" y="240" width="46" height="10" rx="2"></rect>
            <rect id="Rectangle-9-Copy-2" fill="#D5D5D5" x="272" y="292" width="46" height="10" rx="2"></rect>
            <rect id="Rectangle-6-Copy" fill="#D5D5D5" x="505" y="132" width="62" height="11" rx="2"></rect>
        </g>
        <g id="mobile" transform="translate(20.000000, 158.000000)">
            <g id="mobile_bg">
                <use fill="black" fill-opacity="1" filter="url(#filter-2)" xlink:href="#path-1"></use>
                <use fill="#3F4E90" fill-rule="evenodd" xlink:href="#path-1"></use>
            </g>
            <path d="M190,51 L0,51 L0,6 C-4.05812251e-16,2.6862915 2.6862915,6.08718376e-16 6,0 L184,0 C187.313708,-6.08718376e-16 190,2.6862915 190,6 L190,51 Z" id="Combined-Shape" fill="#222430"></path>
            <g id="simple-remove" transform="translate(20.000000, 19.000000)" fill="#FFFFFF" fill-rule="nonzero">
                <path d="M13.7,0.3 C13.3,-0.1 12.7,-0.1 12.3,0.3 L7,5.6 L1.7,0.3 C1.3,-0.1 0.7,-0.1 0.3,0.3 C-0.1,0.7 -0.1,1.3 0.3,1.7 L5.6,7 L0.3,12.3 C-0.1,12.7 -0.1,13.3 0.3,13.7 C0.5,13.9 0.7,14 1,14 C1.3,14 1.5,13.9 1.7,13.7 L7,8.4 L12.3,13.7 C12.5,13.9 12.8,14 13,14 C13.2,14 13.5,13.9 13.7,13.7 C14.1,13.3 14.1,12.7 13.7,12.3 L8.4,7 L13.7,1.7 C14.1,1.3 14.1,0.7 13.7,0.3 Z" id="Shape"></path>
            </g>
            <path d="M53,0 L184,0 C187.313708,-1.53245403e-14 190,2.6862915 190,6 L190,322 L53,322 L53,0 Z" id="Combined-Shape" fill="#14151D"></path>
            <g id="zoom-2" transform="translate(70.000000, 222.000000)" fill="#FFFFFF" fill-rule="nonzero">
                <path d="M12.7,11.3 C13.6,10.1 14.1,8.7 14.1,7.1 C14.1,3.2 11,0 7.1,0 C3.2,0 0,3.2 0,7.1 C0,11 3.2,14.2 7.1,14.2 C8.7,14.2 10.2,13.7 11.3,12.8 L14.3,15.8 C14.5,16 14.8,16.1 15,16.1 C15.2,16.1 15.5,16 15.7,15.8 C16.1,15.4 16.1,14.8 15.7,14.4 L12.7,11.3 Z M7.1,12.1 C4.3,12.1 2,9.9 2,7.1 C2,4.3 4.3,2 7.1,2 C9.9,2 12.2,4.3 12.2,7.1 C12.2,9.9 9.9,12.1 7.1,12.1 Z" id="Shape"></path>
            </g>
            <rect id="Rectangle-11" fill="#323445" x="53" y="50" width="137" height="2"></rect>
            <rect id="Rectangle-11-Copy" fill="#323445" x="53" y="101" width="137" height="2"></rect>
            <rect id="Rectangle-11-Copy-2" fill="#323445" x="53" y="153" width="137" height="2"></rect>
            <rect id="Rectangle-11-Copy-3" fill="#323445" x="53" y="204" width="137" height="2"></rect>
            <rect id="Rectangle-11-Copy-4" fill="#323445" x="53" y="255" width="137" height="2"></rect>
            <rect id="Rectangle-10" fill="#575B71" x="71" y="20" width="70" height="12" rx="2"></rect>
            <rect id="Rectangle-10-Copy" fill="#575B71" x="71" y="70" width="50" height="12" rx="2"></rect>
            <rect id="Rectangle-10-Copy-2" fill="#575B71" x="71" y="122" width="89" height="12" rx="2"></rect>
            <rect id="Rectangle-10-Copy-3" fill="#575B71" x="71" y="173" width="70" height="12" rx="2"></rect>
        </g>
        <g id="default" transform="translate(732.000000, 106.000000)" fill-rule="nonzero">
            <g id="Combined-Shape">
                <use fill="black" fill-opacity="1" filter="url(#filter-4)" xlink:href="#path-3"></use>
                <use fill="#FFFFFF" fill-rule="evenodd" xlink:href="#path-3"></use>
            </g>
            <polygon id="Shape" fill="#000000" points="15.502 32.018 11.814 33.566 5.614 18.818 9.296 17.268 15.502 32.018"></polygon>
            <polygon id="Shape" fill="#000000" points="2 4.814 2 27.19 7.938 21.458 8.794 21.18 18.33 21.18"></polygon>
        </g>
    </g>
</svg>