<?xml version="1.0" encoding="UTF-8"?>
<svg width="840px" height="480px" viewBox="0 0 840 480" version="1.1" xmlns="http://www.w3.org/2000/svg" xmlns:xlink="http://www.w3.org/1999/xlink">
    <!-- Generator: Sketch 49 (51002) - http://www.bohemiancoding.com/sketch -->
    <title>animated-svg-hero-slider-featured</title>
    <desc>Created with Sketch.</desc>
    <defs>
        <path d="M6,0 L184,0 C187.313708,-6.08718376e-16 190,2.6862915 190,6 L190,322 L0,322 L0,6 C-4.05812251e-16,2.6862915 2.6862915,6.08718376e-16 6,0 Z" id="path-1"></path>
        <filter x="-14.7%" y="-9.9%" width="133.7%" height="119.9%" filterUnits="objectBoundingBox" id="filter-2">
            <feOffset dx="4" dy="0" in="SourceAlpha" result="shadowOffsetOuter1"></feOffset>
            <feGaussianBlur stdDeviation="10" in="shadowOffsetOuter1" result="shadowBlurOuter1"></feGaussianBlur>
            <feColorMatrix values="0 0 0 0 0   0 0 0 0 0   0 0 0 0 0  0 0 0 0.198086504 0" type="matrix" in="shadowBlurOuter1"></feColorMatrix>
        </filter>
        <polygon id="path-3" points="13.9684862 23.238 18.168 33.378 18.17 33.38 10.958 36.448 6.44921752 25.7669727 0 32.03 0 0 23.182 23.238"></polygon>
        <filter x="-133.7%" y="-79.6%" width="367.4%" height="270.1%" filterUnits="objectBoundingBox" id="filter-4">
            <feOffset dx="0" dy="2" in="SourceAlpha" result="shadowOffsetOuter1"></feOffset>
            <feGaussianBlur stdDeviation="10" in="shadowOffsetOuter1" result="shadowBlurOuter1"></feGaussianBlur>
            <feColorMatrix values="0 0 0 0 0   0 0 0 0 0   0 0 0 0 0  0 0 0 0.201681386 0" type="matrix" in="shadowBlurOuter1"></feColorMatrix>
        </filter>
    </defs>
    <g id="animated-svg-hero-slider-featured" stroke="none" stroke-width="1" fill="none" fill-rule="evenodd">
        <polygon id="bg" fill="#4A3553" points="0 480 840 480 840 0 0 0"></polygon>
        <g id="desktop" transform="translate(94.000000, 26.000000)">
            <path d="M726,454 L0,454 L0,6 C0,2.687 2.687,0 6,0 L720,0 C723.313,0 726,2.687 726,6 L726,454 Z" id="container_bg" fill="#2C2B29"></path>
            <polygon id="Combined-Shape" fill="#7D7160" points="0 24 726 24 726 454 0 454"></polygon>
            <g id="icon-copy" transform="translate(281.000000, 153.000000)" fill="#716656">
                <path d="M154.162619,166 L38.351545,155.568768 C37.278819,155.495254 36.3301512,154.847317 35.8727229,153.87574 C35.4152947,152.904163 35.5208916,151.761419 36.1486424,150.889806 C36.7763933,150.018193 37.8277832,149.554496 38.8958723,149.67819 L148.740417,159.572257 L158.489143,54.0642877 L146.42966,52.9787383 C145.355174,52.90812 144.403623,52.2610863 143.944238,51.2887054 C143.484853,50.3163245 143.589945,49.1716583 144.218736,48.2988707 C144.847526,47.4260832 145.901037,46.9625594 146.970475,47.0881601 L165,48.7115754 L154.162619,166 Z M0.135555054,0.140251862 L138.37783,0 L138.37783,135.97418 L0,136.165624 L0.135555054,0.140251862 Z M7.1008373,128.915304 L131.286826,128.915304 L131.286826,113.021963 L7.10364673,113.021963 L7.10364673,128.915304 L7.1008373,128.915304 Z M103.196728,105.958178 L85.9959859,62.2697229 L70.052464,96.8958039 C69.6211295,97.8247767 68.7437,98.4687886 67.7269573,98.602669 C66.7086409,98.7366591 65.6917069,98.3462033 65.0256893,97.5655065 L48.87146,78.4274387 L32.5634144,105.958178 L103.199538,105.958178 L103.196728,105.958178 Z M7.1008373,105.958178 L25.6199052,105.958178 L45.8597498,71.8068495 C46.3569388,70.9722966 47.229049,70.4307605 48.1986012,70.3545415 C49.1693717,70.2653295 50.121966,70.658673 50.746053,71.4064305 L66.5757929,90.1637145 L83.481545,53.4324531 C83.9888996,52.347347 85.0931284,51.6666052 86.2920654,51.6998061 C87.4910023,51.7330071 88.5557423,52.473812 89.0020773,53.5853276 L109.623302,105.962385 L131.284016,105.962385 L131.284016,7.0658888 L7.10364673,7.0658888 L7.10364673,105.958178 L7.1008373,105.958178 Z M35.9445648,53.367236 C27.7873835,53.2760758 21.2399885,46.6158578 21.3008165,38.4711506 C21.3616446,30.3264433 28.0077885,23.7644522 36.1654243,23.7947569 C44.3230601,23.8250616 50.9201136,30.4362498 50.9202377,38.5811834 C50.864554,46.7880034 44.1671654,53.4018312 35.9473742,53.367236 L35.9445648,53.367236 Z M35.9445648,29.7095519 C31.0500063,29.7640173 27.1212169,33.7602311 27.1576121,38.6473029 C27.1940073,43.5343748 31.1818805,47.4718156 36.076709,47.4536049 C40.9715375,47.4353943 44.929911,43.4683904 44.9298281,38.5811834 C44.8969574,33.6573593 40.8789776,29.6889519 35.9473742,29.7095519 L35.9445648,29.7095519 Z" id="icon_copy"></path>
            </g>
            <g id="dots" transform="translate(15.000000, 8.000000)" fill="#7D7160">
                <path d="M8,4 C8,6.209 6.209,8 4,8 C1.791,8 0,6.209 0,4 C0,1.791 1.791,0 4,0 C6.209,0 8,1.791 8,4" id="Fill-6"></path>
                <path d="M24,4 C24,6.209 22.209,8 20,8 C17.791,8 16,6.209 16,4 C16,1.791 17.791,0 20,0 C22.209,0 24,1.791 24,4" id="Fill-8"></path>
                <path d="M40,4 C40,6.209 38.209,8 36,8 C33.791,8 32,6.209 32,4 C32,1.791 33.791,0 36,0 C38.209,0 40,1.791 40,4" id="Fill-10"></path>
            </g>
            <g id="Group" transform="translate(251.000000, 389.000000)">
                <circle id="Oval" fill="#FFFFFF" cx="22" cy="22" r="22"></circle>
                <rect id="Rectangle" fill="#FF625A" x="15" y="18" width="14" height="8" rx="1"></rect>
            </g>
            <g id="Group-Copy" transform="translate(311.000000, 389.000000)">
                <circle id="Oval" fill="#FFFFFF" cx="22" cy="22" r="22"></circle>
                <rect id="Rectangle" fill="#E1DEDB" x="15" y="18" width="14" height="8" rx="1"></rect>
            </g>
            <g id="Group-Copy-2" transform="translate(371.000000, 389.000000)">
                <circle id="Oval" fill="#FFFFFF" cx="22" cy="22" r="22"></circle>
                <rect id="Rectangle" fill="#E1DEDB" x="15" y="18" width="14" height="8" rx="1"></rect>
            </g>
            <g id="Group-Copy-3" transform="translate(431.000000, 389.000000)">
                <circle id="Oval" fill="#FFFFFF" cx="22" cy="22" r="22"></circle>
                <rect id="Rectangle" fill="#E1DEDB" x="15" y="18" width="14" height="8" rx="1"></rect>
            </g>
            <g id="Group-2" transform="translate(233.000000, 343.000000)">
                <path d="M45,32 L40,40 L35,32 L2,32 C0.8954305,32 0,31.1045695 0,30 L0,2 C0,0.8954305 0.8954305,0 2,0 L78,0 C79.1045695,0 80,0.8954305 80,2 L80,30 C80,31.1045695 79.1045695,32 78,32 L45,32 Z" id="Combined-Shape" fill="#181818" opacity="0.75707654"></path>
                <rect id="Rectangle-3" fill="#FFFFFF" x="22" y="12" width="36" height="8" rx="2"></rect>
            </g>
            <polygon id="Combined-Shape" fill="#E0CCB0" opacity="0.749037591" points="431.55688 24 726 24 726 454 311.143459 454"></polygon>
        </g>
        <g id="mobile" transform="translate(20.000000, 158.000000)">
            <g id="mobile_bg">
                <use fill="black" fill-opacity="1" filter="url(#filter-2)" xlink:href="#path-1"></use>
                <use fill="#FFB251" fill-rule="evenodd" xlink:href="#path-1"></use>
            </g>
            <path d="M0,7 L0,6 C0,2.687 2.0769043,0 6,0 L184,0 C188.06543,0 190,2.687 190,6 L190,7 C190,3.687 187.313,1 184,1 L6,1 C2.687,1 0,3.687 0,7 Z" id="inner-shadow" fill="#FFFFFF" opacity="0.59595788"></path>
            <g id="Group-Copy" transform="translate(58.000000, 275.000000)">
                <circle id="Oval" fill="#FFFFFF" cx="17" cy="17" r="17"></circle>
                <rect id="Rectangle" fill="#E1DEDB" x="10" y="13" width="14" height="8" rx="1"></rect>
            </g>
            <g id="Group-Copy-4" transform="translate(18.000000, 275.000000)">
                <circle id="Oval" fill="#FFFFFF" cx="17" cy="17" r="17"></circle>
                <rect id="Rectangle" fill="#E1DEDB" x="10" y="13" width="14" height="8" rx="1"></rect>
            </g>
            <g id="Group-Copy-5" transform="translate(98.000000, 275.000000)">
                <circle id="Oval" fill="#FFFFFF" cx="17" cy="17" r="17"></circle>
                <rect id="Rectangle" fill="#FB6058" x="10" y="13" width="14" height="8" rx="1"></rect>
            </g>
            <g id="Group-Copy-6" transform="translate(138.000000, 275.000000)">
                <circle id="Oval" fill="#FFFFFF" cx="17" cy="17" r="17"></circle>
                <rect id="Rectangle" fill="#E1DEDB" x="10" y="13" width="14" height="8" rx="1"></rect>
            </g>
            <g id="icon-copy" transform="translate(33.000000, 86.000000)" fill="#EBA144">
                <path d="M115.855544,125 L28.8217671,117.145156 C28.0155973,117.0898 27.3026591,116.601895 26.9588948,115.870286 C26.6151305,115.138677 26.6944882,114.278177 27.1662525,113.621842 C27.6380168,112.965507 28.4281523,112.616338 29.2308373,112.70948 L111.780677,120.159832 L119.106993,40.71106 L110.044108,39.8936283 C109.236615,39.8404518 108.521511,39.3532277 108.176276,38.6210131 C107.831041,37.8887986 107.91002,37.0268511 108.382565,36.3696316 C108.85511,35.7124121 109.64684,35.363373 110.450539,35.4579519 L124,36.6804032 L115.855544,125 Z M0.101871677,0.105611342 L103.993036,0 L103.993036,102.390196 L0,102.534355 L0.101871677,0.105611342 Z M5.33638682,97.0747771 L98.6640389,97.0747771 L98.6640389,85.1068998 L5.33849815,85.1068998 L5.33849815,97.0747771 L5.33638682,97.0747771 Z M77.5539049,79.7877846 L64.6272864,46.8898516 L52.6454881,72.9637077 C52.3213337,73.6632355 51.6619321,74.1481842 50.8978346,74.2489977 C50.1325544,74.3498939 49.3683131,74.055876 48.8677907,73.4680019 L36.7276427,59.0568062 L24.4718993,79.7877846 L77.5560162,79.7877846 L77.5539049,79.7877846 Z M5.33638682,79.7877846 L19.253747,79.7877846 L34.4642968,54.0714228 C34.8379419,53.4429944 35.4933459,53.0352112 36.2219791,52.9778174 C36.9515278,52.9106397 37.6674168,53.206832 38.1364277,53.7699025 L50.0327171,67.8943633 L62.737646,40.2352809 C63.1189306,39.418183 63.9487753,38.9055762 64.8497946,38.9305769 C65.7508139,38.9555776 66.5509821,39.5134126 66.8864096,40.3503973 L82.3835725,79.7909529 L98.6619275,79.7909529 L98.6619275,5.3206994 L5.33849815,5.3206994 L5.33849815,79.7877846 L5.33638682,79.7877846 Z M27.0128851,40.1861717 C20.8826397,40.1175269 15.9621732,35.1023026 16.0078864,28.9692399 C16.0535995,22.8361772 21.0482774,17.8949188 27.1788643,17.9177386 C33.3094512,17.9405584 38.2672369,22.9188628 38.2673301,29.052096 C38.225483,35.2319303 33.192294,40.2122223 27.0149964,40.1861717 L27.0128851,40.1861717 Z M27.0128851,22.3716505 C23.3345502,22.4126636 20.3820054,25.4218607 20.409357,29.1018847 C20.4367085,32.7819087 23.4336557,35.7468491 27.1121935,35.7331362 C30.7907312,35.7194234 33.7655089,32.7322217 33.7654466,29.052096 C33.7407438,25.3443971 30.7211711,22.3561385 27.0149964,22.3716505 L27.0128851,22.3716505 Z" id="icon_copy"></path>
            </g>
        </g>
        <g id="default" transform="translate(379.000000, 432.000000)" fill-rule="nonzero">
            <g id="Combined-Shape">
                <use fill="black" fill-opacity="1" filter="url(#filter-4)" xlink:href="#path-3"></use>
                <use fill="#FFFFFF" fill-rule="evenodd" xlink:href="#path-3"></use>
            </g>
            <polygon id="Shape" fill="#000000" points="15.502 32.018 11.814 33.566 5.614 18.818 9.296 17.268 15.502 32.018"></polygon>
            <polygon id="Shape" fill="#000000" points="2 4.814 2 27.19 7.938 21.458 8.794 21.18 18.33 21.18"></polygon>
        </g>
    </g>
</svg>