<?xml version="1.0" encoding="UTF-8"?>
<svg width="840px" height="480px" viewBox="0 0 840 480" version="1.1" xmlns="http://www.w3.org/2000/svg" xmlns:xlink="http://www.w3.org/1999/xlink">
    <!-- Generator: Sketch 49 (51002) - http://www.bohemiancoding.com/sketch -->
    <title>animated-transition-effects-featured</title>
    <desc>Created with Sketch.</desc>
    <defs>
        <rect id="path-1" x="0" y="0" width="726" height="430"></rect>
        <path d="M190,322 L0,322 L0,6 C0,2.687 2.687,0 6,0 L184,0 C187.313,0 190,2.687 190,6 L190,322 Z" id="path-3"></path>
        <filter x="-14.7%" y="-9.9%" width="133.7%" height="119.9%" filterUnits="objectBoundingBox" id="filter-4">
            <feOffset dx="4" dy="0" in="SourceAlpha" result="shadowOffsetOuter1"></feOffset>
            <feGaussianBlur stdDeviation="10" in="shadowOffsetOuter1" result="shadowBlurOuter1"></feGaussianBlur>
            <feColorMatrix values="0 0 0 0 0   0 0 0 0 0   0 0 0 0 0  0 0 0 0.200747283 0" type="matrix" in="shadowBlurOuter1"></feColorMatrix>
        </filter>
        <path d="M190,322 L0,322 L0,6 C0,2.687 2.687,0 6,0 L184,0 C187.313,0 190,2.687 190,6 L190,322 Z" id="path-5"></path>
        <polygon id="path-7" points="13.9684862 23.238 18.168 33.378 18.17 33.38 10.958 36.448 6.44921752 25.7669727 0 32.03 0 0 23.182 23.238"></polygon>
        <filter x="-133.7%" y="-79.6%" width="367.4%" height="270.1%" filterUnits="objectBoundingBox" id="filter-8">
            <feOffset dx="0" dy="2" in="SourceAlpha" result="shadowOffsetOuter1"></feOffset>
            <feGaussianBlur stdDeviation="10" in="shadowOffsetOuter1" result="shadowBlurOuter1"></feGaussianBlur>
            <feColorMatrix values="0 0 0 0 0   0 0 0 0 0   0 0 0 0 0  0 0 0 0.201681386 0" type="matrix" in="shadowBlurOuter1"></feColorMatrix>
        </filter>
    </defs>
    <g id="animated-transition-effects-featured" stroke="none" stroke-width="1" fill="none" fill-rule="evenodd">
        <polygon id="bg" fill="#41345B" points="0 480 840 480 840 0 0 0"></polygon>
        <g id="desktop" transform="translate(94.000000, 26.000000)">
            <path d="M726,454 L0,454 L0,6 C0,2.687 2.687,0 6,0 L720,0 C723.313,0 726,2.687 726,6 L726,454 Z" id="container_bg" fill="#FFFFFF"></path>
            <rect id="Rectangle" fill="#F2EFDD" opacity="0.582823822" x="0" y="24" width="726" height="430"></rect>
            <g id="Fill-1" transform="translate(0.000000, 24.000000)">
                <mask id="mask-2" fill="white">
                    <use xlink:href="#path-1"></use>
                </mask>
                <use id="Mask" fill="#F2EFDD" xlink:href="#path-1"></use>
                <path d="M233.537735,511.006784 C236.540791,508.83297 240.259468,508.473874 242.732197,506.389834 C247.562645,502.324353 254.731642,495.360453 255,491 C240.86008,497.046922 228.68173,497.002035 216.663117,504.850851 C213.129734,507.165738 207.883971,518.323368 201.334753,514.078339 C201.87147,519.214696 198.242245,517.348679 195.200852,520.240685 C192.587554,522.728708 188.939161,526.319669 186,534.097948 C206.599685,539.336904 220.515974,520.452295 233.537735,511.006784 Z M147,494.179872 C160.546053,494.413872 166.810307,497.155872 176,492.739872 C169.29693,491.581872 150.548684,491.587872 147,494.179872 Z M145.991321,494.32 C146.212608,490.276 142.164352,490.168 138.181181,490 C136.684237,495.22 144.923935,491.464 145.991321,494.32 Z M233.007684,496 C238.022797,491.571825 259.972815,488.424011 257.856761,487 C249.54138,488.992366 232.587061,490.553782 233.007684,496 Z M122.51385,485.508863 C116.69385,480.444863 119.11785,490.140863 122.51385,485.508863 Z M129.32,484.397836 C130.586,481.433836 125.588,477.935836 125,481.517836 C127.058,481.859836 127.424,483.887836 129.32,484.397836 Z M77.1926585,502 C87.8147731,497.187539 98.6679428,492.607627 108,486.49677 C96.8323387,481.723067 88.7839207,473.797041 75.6522914,471 C73.7845963,485.650552 54.2989528,482.575745 51,495.805168 C62.5655895,508.065639 80.4851931,491.72911 94.1366963,491.147739 C97.0248846,490.779537 93.2574034,488.596166 95.6706452,488.047093 C98.5331607,498.343822 75.0874901,493.686393 77.1926585,502 Z M143,486.377606 C150.659804,489.850145 160.543627,486.720416 169,486.377606 C166.514706,479.197639 163.060784,472.995316 164.411765,462 C154.540686,467.402433 147.90049,476.023472 143,486.377606 Z M298.001962,457.531164 C301.73438,457.051164 304.893605,456.049164 306,453.205164 C302.707474,450.217164 297.888657,453.211164 298.001962,457.531164 Z M85,468.707066 C94.6376812,469.779499 111.180254,490.498118 120,478.010095 C116.189312,475.955676 116.303442,485.232863 113.913043,479.5606 C121.401268,474.650668 114.946558,459.901492 116.956522,447 C101.694746,451.696737 99.2980072,457.633878 85,468.707066 Z M258.959746,469.316667 C258.621821,468.128161 257.678183,467.546552 255.899297,467.793103 C252.743208,477.313793 240.233622,477.547701 236,486 C241.304779,484.021264 247.553196,480.645402 251.308623,481.448276 C250.345856,481.176437 249.708263,480.563218 251.308623,479.931034 C262.032947,475.733333 274.950594,472.25 283.443341,464.758621 C289.87666,459.075287 300.805015,450.07931 298.745587,442 C287.103128,451.937931 265.609847,459.397701 258.959746,469.316667 Z M328,445.7384 C332.4,458.858916 332.431746,488.569995 346.285714,488.994899 C354.463492,489.23954 357.485714,480.651332 360,470.460078 C354.526984,466.545813 351.574603,462.90194 349.333333,456.547696 C347.726984,451.996075 350.920635,442.2426 344.761905,438 C338.952381,440.362723 335.250794,444.849965 328,445.7384 Z M439.318213,438.014763 C429.488055,452.128277 445.212506,467.860432 439.318213,482.549747 C444.908285,483.61178 450.891308,485.19843 456.056737,482.549747 C464.993245,468.033172 478.398007,458.01424 488,444.163034 C469.936845,444.866791 452.051153,437.630895 439.318213,438.014763 Z M169,432.78345 C156.967432,426.111432 141.087501,440.53863 127.717274,437.385284 C129.086782,442.358854 122.736084,439.551607 121.602258,442.006346 C122.86348,448.479677 119.442893,451.921439 120.079874,457.39493 C120.143572,457.920487 124.022785,471.04661 123.137382,469.700669 C124.933667,472.411778 130.398963,470.828696 124.666135,474.308913 C128.144051,480.423327 130.590057,472.187454 133.832289,475.840721 C131.972305,476.02018 130.220608,476.308595 130.781151,478.923565 C132.965995,479.295301 133.354554,481.455215 135.367413,482 C138.902657,476.712377 147.393611,472.148999 144.539937,465.079608 C149.947904,464.163087 157.508866,459.638163 153.712461,454.312085 C163.107927,455.087603 166.987141,441.153917 169,432.78345 Z M284.998274,425 C280.367473,433.062778 266.981271,440.295 267,448 C271.999535,440.314167 285.173257,432.871111 284.998274,425 Z M203.760075,477.25377 C180.719584,486.16977 217.699005,471.85977 203.760075,477.25377 Z M282,424 C271.296739,429.130804 264.490791,438.164089 254.438145,443.960233 C254.457281,441.932222 257.123528,442.559178 257.506243,440.889428 C246.726439,443.422842 237.86021,454.19625 234.543347,459.320656 C232.432036,453.901965 226.914562,465.705372 225.358188,460.849661 C231.698499,453.390164 243.128919,451.03588 248.314706,442.424831 C229.006737,443.486817 195.627615,436.168065 180.963254,443.960233 C181.441648,440.352037 188.222081,443.051787 187.086693,437.812226 C177.869642,437.38999 180.771897,439.776261 177.895156,442.424831 C175.80936,444.350481 170.617193,441.96421 171.771717,447.031038 C175.573352,449.020664 179.202765,443.60837 179.432394,447.031038 C176.874583,451.701221 172.065132,446.935076 170.247236,450.101844 C168.690862,461.62376 174.686729,472.736236 182.494114,482.345297 C193.478033,481.590391 198.204563,474.565924 208.51873,473.132882 C211.720779,475.986172 214.272212,477.112134 216.166651,477.73909 C213.487646,478.762691 207.957415,483.036228 211.58045,477.73909 C203.989937,480.880267 194.983378,482.588403 190.148413,488.486908 C195.748808,489.497714 196.016709,485.166599 200.864431,485.416102 C200.15003,494.666903 223.36807,483.388092 228.419908,480.809895 C229.025873,478.167723 226.149132,476.875426 228.419908,476.19729 C236.291078,475.551141 232.049321,473.926173 237.605066,473.132882 C233.082651,467.496675 250.451531,471.130461 246.790225,465.455869 C246.337346,466.888912 242.650525,466.888912 242.191267,465.455869 C246.292696,461.36786 250.942682,457.842831 254.438145,453.172649 C255.956248,460.395438 245.858952,459.243886 252.913664,463.920467 C252.824364,457.132708 264.988321,454.605691 262.098823,450.101844 C261.952115,452.21942 256.122091,456.096311 255.975384,453.172649 C263.801904,442.603961 276.335819,436.743841 282,424 Z M209.864962,426.998602 C209.462351,421.913399 215.821061,423.69939 216,419.211682 C207.794387,417.620527 208.931926,425.524348 202.202556,425.439919 C198.010281,421.134058 204.445679,423.978654 205.270075,420.770365 C198.815504,418.886957 198.540706,423.283741 194.533759,423.881236 C194.54015,423.017466 193.293971,422.114729 193,423.881236 C197.90803,425.647744 203.173937,427.050558 209.864962,426.998602 Z M115,421.874 C117.776912,422.492 118.664065,424.976 122.291671,424.754 C122.717019,423.872 125.913202,419.21 122.291671,419 C121.13108,422.804 115.4375,415.772 115,421.874 Z M95.6602778,419 C83.4383333,425.258967 73.0627778,427.498884 58.8666667,432.823486 C53.1741667,433.77065 43.0861111,430.321179 42,435.888972 C56.3111111,442.544724 62.6233333,457.219378 78.8,462 C86.5625,449.808454 103.774167,447.082155 111,434.353029 C98.5480556,436.592945 102.566667,422.321476 95.6602778,419 Z M242,423.76 C249.049023,422.2 257.50785,421.96 262,418 C253.69497,418.384 242.845883,416.392 242,423.76 Z M213,427 L226.846154,427 C227.955128,423.08125 232.384615,422.4 233,418 C223.532051,420.175 219.076923,420.11875 213,427 Z M132,420.889624 C134.472,420.961624 135.69,419.773624 136.32,418.003624 C133.842,417.925624 132.63,419.113624 132,420.889624 Z M60,420.94298 C66.15625,421.08698 72.24375,421.17698 75,418.05698 C68.84375,417.90698 62.75,417.82298 60,420.94298 Z M323.148258,433 C330.04187,432.356304 344.067696,426.299129 351,420.641045 C347.079218,416.315411 336.61305,418.529724 330.880195,416 C330.312714,423.151458 318.305318,425.385081 323.148258,433 Z M115,411.369234 C121.489748,409.851234 125.531268,414.399234 128.989876,411.369234 C129.417344,403.707234 116.1723,407.715234 115,411.369234 Z M229,409.883629 C232.605373,409.421629 234.972209,410.111629 236.774896,411.323629 C237.125058,410.207629 236.820287,408.485629 238.337656,408.443629 C238.363594,410.333629 242.656322,410.279629 243,408.443629 C238.54516,404.621629 232.034738,405.419629 229,409.883629 Z M222.412274,408.351856 C219.045742,411.274219 237.525711,403.511884 233.394356,401 C233.100193,403.174924 229.602923,402.34784 227.118881,402.470371 C227.380359,406.158552 224.706745,407.077534 222.412274,408.351856 Z M151,402.71107 C155.67963,408.823553 160.676852,401.088739 165,398.112336 C158.123148,397.473623 154.098148,399.632473 151,402.71107 Z M163.184668,407.998214 C161.852716,412.818398 168.177907,410.055076 167.729715,414 C177.223814,407.398035 192.209846,406.235189 195,393 C180.695726,394.119083 174.017031,408.123251 163.184668,407.998214 Z M168.407709,403.95321 C168.593709,404.13921 172.463709,404.10921 172.727709,403.95321 C177.125709,401.40321 165.749709,401.29521 168.407709,403.95321 Z M731.120156,383 C729.962156,391.712 737.720156,383.954 731.120156,383 Z M320,397.722855 C329.56875,404.404604 331.64375,394.372498 341,393.177748 C340.06875,387.539035 338.3,382.753714 336.5,378 C331.31875,384.902999 323.9,389.530285 320,397.722855 Z M135,387.251055 C136.36875,389.955704 137.7875,392.608958 142.5,391.876583 C144.84375,387.090447 146.95,382.06661 150,378 C142.2375,378.244125 137.89375,382.002366 135,387.251055 Z M164,387.047442 C173.152216,390.3328 198.075489,385.072465 185.549717,372 C181.194878,379.780781 170.657323,381.523777 164,387.047442 Z M322,368.326 C324.964,369.586 328.468,364.588 324.874,364 C324.538,366.058 322.51,366.424 322,368.326 Z M443.778904,382.471128 C447.331261,368.1522 451.47354,354.413425 457.629249,342.689245 C450.909267,338.073526 441.387154,328.931343 433,335.032507 C435.346864,349.804082 434.814652,357.977219 434.54534,374.814391 C446.138592,386.82546 442.207915,405.709104 442.239976,423.776709 C463.060381,427.895155 473.345545,433.50542 497.64136,432.96352 C502.848064,420.652812 521.244658,407.347556 516.102076,394.711708 C510.497816,394.74996 512.838267,402.67446 505.335997,400.825623 C507.791868,396.637049 511.074913,393.277265 513.030633,388.585043 C496.891133,375.560301 480.084764,363.192216 465.317474,348.803159 C460.130006,357.938967 454.686051,374.935522 448.395686,377.874536 C448.235381,376.15958 450.62713,375.496548 448.395686,374.814391 C444.311116,377.96379 448.889425,382.573133 443.778904,382.471128 Z M499,320.931552 C501.5,327.490173 520.55625,327.885896 523,320.931552 C515.88125,317.772255 502.275,316.33857 499,320.931552 Z M29.3536466,289.642217 C28.8933497,294.471153 33.7233143,285.721121 33.8935611,291.187476 C31.7371017,296.911375 30.3436002,294.451837 24.8074266,297.368514 C18.9496757,313.394142 21.0241644,316.162732 23.3004271,336 C29.4671444,334.158566 27.4746264,326.432269 30.8669514,320.547406 C35.1483431,313.117283 42.6833402,308.642469 46,300.459033 C44.2344777,300.20149 44.354281,298.018811 44.4803897,295.823255 C35.4762258,297.304128 37.6452961,287.356521 32.3802563,285 C32.2415367,287.440222 28.5150235,286.216892 29.3536466,289.642217 Z M497.186786,273.32 C497.396786,271.622 499.748786,270.056 497.186786,269 C496.976786,270.704 494.624786,272.264 497.186786,273.32 Z M508.118147,266.032069 C506.104257,270.1124 504.01389,274.110365 502,278.197032 C519.436719,284.685012 533.616799,294.40431 550.945175,301 C563.493749,292.186738 570.778168,278.146344 580,266.032069 C555.852439,255.913609 533.049596,260.367759 508.118147,266.032069 Z M46,195.928292 C49.7132835,200.20957 58.4748181,190.444557 55.331812,188 C52.4545033,190.880613 48.1774228,192.34074 46,195.928292 Z M34,190.810993 C45.8717949,195.048341 47.4487179,186.977202 54,182 C47.3205128,184.922731 35.8653846,183.284045 34,190.810993 Z M80,180.803218 C87.0503616,185.270093 91.6611733,175.882627 97.9690632,174.668455 C98.1936765,170.859789 97.1953952,168.303637 94.9679801,167 C89.7020463,171.313506 84.8042287,176.010434 80,180.803218 Z M103.520914,162.266667 C101.962135,168.208333 104.30977,168.585278 102,173 C115.442104,170.252778 120.516025,159.0275 135.327584,157.666667 C135.706235,154.842778 143.954512,152.287222 139.865083,150 C127.281254,153.616111 114.280909,156.804167 103.520914,162.266667 Z M714.131389,147 C713.753013,149.058 711.554517,149.43 711,151.326 C718.887186,150.282 718.789331,149.946 725.091251,151.326 C724.478021,148.842 727.413698,147.63 725.091251,147 C723.708221,148.596 718.795854,148.428 714.131389,147 Z M131,141.601754 C133.639333,140.773754 139.818624,143.341754 140,140.167754 C135.428075,140.725754 132.363447,136.381754 131,141.601754 Z M103.069519,149 C106.436376,141.779101 115.946945,140.553736 120,133.995534 C114.504007,131.851146 110.072582,128.662697 103.069519,128 C104.377783,138.309318 97.8172219,142.910688 103.069519,149 Z M97.6422807,148.084395 C99.5687919,137.177356 92.8581114,135.923015 97.6422807,129.746816 C92.6654603,131.115768 95.4781666,124.767655 93.018654,123.63429 C78.0560843,125.226094 72.1095866,117.878328 60.6532671,116 C55.2911444,133.216948 58.4120925,158.424751 66.8181027,171 C69.868412,167.408891 77.5487697,168.402176 82.2301917,166.42834 C82.8402536,163.792313 79.9440652,162.512503 82.2301917,161.837578 C88.2473281,165.059389 88.7739078,151.516323 97.6422807,152.675156 C95.4267929,148.007988 92.9287502,140.138111 97.6422807,148.084395 Z M116.521846,104.742202 C111.467602,106.566202 108.567831,99.1022017 106,103.302202 C107.684748,104.688202 119.496773,108.054202 116.521846,104.742202 Z M75.25,88.1409276 C67.85,86.9144293 68.8456597,94.0065129 66,97.2856483 C76.8494792,98.2706599 94.0776042,107.409026 103,100.336007 C94.0583333,95.9638263 83.5107639,93.1740192 75.25,88.1409276 Z M107.227324,93.7628205 C116.468541,96.1602564 123.152202,101.153846 132.922568,103 C132.872173,95.7628205 140.32436,96.1666667 142,90.6923077 C130.969754,91.6282051 122.578957,85.6153846 108.73918,83 C108.254126,86.6153846 106.351708,88.775641 107.227324,93.7628205 Z M79,82.270378 C87.9324941,84.9591702 93.49483,91.0712227 103.189547,93 C104.039961,89.6789265 106.799081,80.4437876 103.189547,77.6783553 C101.016267,79.2750252 90.3829456,76.4201794 91.0947734,70.0079529 C82.7859161,69.7652591 79.9952991,75.1045234 79,82.270378 Z M142,89.9700963 C140.642111,72.1756518 120.299522,73.470264 112.654157,62 C111.721011,65.8061598 108.245845,75.0561639 111.109639,77.5418193 C118.77431,72.2339093 133.447231,90.8439596 142,89.9700963 Z M113.480355,77.0180935 C110.656331,78.4468135 121.082051,87.0313447 124,82.8734032 C118.076438,83.2763755 119.403917,76.6090155 113.480355,77.0180935 Z M92,61.4525615 C95.8040887,65.8597571 97.7390404,72.0499208 106.215972,71.9996963 C105.110285,65.4140151 108.901211,63.5180421 107.795524,56.9323609 C100.312394,52.5126091 96.8571236,56.3798919 92,61.4525615 Z M89.0339897,56.754 C92.8319897,57.186 93.7679897,54.762 93.3599897,51 L89.0339897,51 C89.1719897,54.924 86.6399897,53.892 89.0339897,56.754 Z M597,48.1918379 C580.596945,46.7327969 567.777643,53.6220079 560,67.9840465 C573.378059,73.7060247 584.893595,53.6346953 597,48.1918379 Z M74.1353452,78 C76.9161794,73.0297292 80.421324,68.7934103 85,65.6322666 C75.8297139,59.8314713 73.0553467,47.650445 61.7185968,44 C57.1269867,59.0395758 61.8932073,74.903238 74.1353452,78 Z M157.861863,48.5142857 C164.962996,58.8771429 171.852633,69.4521429 185.548591,73.2 C188.541577,78.7092857 195.251763,80.8692857 204,84 C182.799145,64.5021429 170.006851,44.2392857 142.480348,33.0857143 C144.031318,33.0728571 144.415856,30.3857143 142.480348,30 C136.052157,37.4892857 152.305291,43.365 157.861863,48.5142857 Z M572,38.3277453 C581.912644,40.3681841 584.706897,37.4682679 591.717816,33.5973391 C597.736207,34.0828454 590.029885,39.0691266 596.275862,38.3277453 C597.407471,33.4726821 592.10977,35.2966113 593.241379,30.4481089 C597.60977,30.6383749 595.877586,37.1664667 600.827586,36.7465693 C608.363218,34.0697236 611.77069,27.1151736 616,21.0004182 C612.428161,20.9610528 611.53046,23.7166293 606.896552,22.5750333 C604.639655,24.4383279 604.538506,28.5192054 602.344828,30.4481089 C595.985057,30.690862 598.690805,29.6345577 600.827586,27.2988787 C588.91092,31.2288555 581.849425,31.4191215 572,38.3277453 Z M121.239535,26.7091997 C128.511535,20.9131997 116.229535,19.9651997 121.239535,26.7091997 Z M616.438643,28 C616.972643,25.7625 624.652643,19.39375 617.872643,19 C620.176643,24.06875 611.764643,25.4 616.438643,28 Z M624,22.326 C627.34143,21.21 632.131853,21.498 633,18 L625.505205,18 C625.567661,19.992 624.793199,21.168 624,22.326 Z M538,20.7161063 C544.55273,21.7241063 546.453522,18.2681063 553,19.2761063 C551.086703,12.2081063 539.882034,18.4361063 538,20.7161063 Z M554.646899,14.4941947 C559.200076,24.7222388 542.957676,19.7957726 541,25.0035725 C544.473297,27.0666865 544.568023,32.474546 548.584417,34 C553.914349,25.2661506 575.0762,24.2345936 572.834345,13 C568.609553,17.8764513 561.39141,14.9505805 554.646899,14.4941947 Z M94.2931304,8.03055209 C92.266395,16.8150676 84.4747234,19.8333371 85.0280543,31.1985052 C98.3401671,28.7336924 103.230068,37.4860303 112.823283,34.2875656 C114.303121,28.0386538 117.262798,23.2892234 119,17.2912978 C110.037326,14.9294537 106.183311,7.46422434 94.2931304,8.03055209 Z M225.421053,21 C227.888596,17.3134654 227.856798,11.0940494 230,7.07882021 C222.158553,5.20332793 210.736623,-1.20299277 201,3.9852247 C209.254825,9.54080663 215.162939,17.4745901 225.421053,21 Z M129,1.60498789 C135.463759,5.27821249 136.071737,-2.67834421 141.287543,-4.43318952 C144.794612,5.26563295 162.86754,15.8827616 172,6.13362095 C162.06117,-1.2002487 156.819765,-13.1570979 141.287543,-15 C139.418812,-7.27616472 129.563179,-7.40824985 129,1.60498789 Z M548.870968,-36 C542.913844,-25.875 514.675941,-29.85 514,-19.5 C518.85793,-24.05 515.737231,-15.2375 515.509812,-12 C532.84422,-17.85625 547.184274,-26.66875 561,-36 L548.870968,-36 Z M461.42845,-42 C454.02445,-38.52 466.38445,-38.28 461.42845,-42 Z M483.5045,-65.4423612 C483.847898,-62.5734454 481.82497,-62.0921262 482.012279,-59.3752058 C483.173589,-59.0268827 484.971747,-59.3245407 485.009209,-57.8489173 C483.847898,-57.5069273 482.04974,-57.8045852 482.012279,-56.3289619 C486.232955,-52.2314154 488.155986,-59.0268827 494,-57.8489173 C492.538996,-61.4334788 493.512999,-67.4879679 488.006139,-66.9686498 C487.750151,-65.1953685 485.633569,-65.3156983 483.5045,-65.4423612 Z M238,-13 C234.885658,-32.4342287 231.187773,-51.2593344 225.821717,-68.4045431 C225.485545,-69.6035536 224.546803,-70.1934411 222.777146,-69.9433801 C218.711375,-47.5917729 231.612744,-29.8438531 238,-13 Z M339,-59.00625 C343.452381,-58.74375 345.547619,-56.25 350,-56 C349.188095,-64.5125 350.9625,-67.21875 346.857143,-71 C345.128571,-66.14375 339.320833,-65.19375 339,-59.00625 Z M365.142139,-66.064582 C371.118139,-65.2908787 368.886139,-71.6788902 366.582139,-74 C365.370139,-72.1616282 364.686139,-69.7413257 365.142139,-66.064582 Z M379.621634,-61 C380.944165,-63.63125 382.315007,-66.2125 386.868377,-65.49375 C387.164286,-71.80625 387.387727,-78.0375 382.520331,-79 C381.578255,-73.9125 377.45365,-64.31875 379.621634,-61 Z M271.922556,-69.7214459 C266.146727,-72.0611631 257.396249,-75.3826689 250.335475,-77.3653719 C245.74822,-78.6659231 240.756208,-87.170508 238,-80.4318677 C243.801528,-67.4072298 252.931064,-44.6157074 258.045147,-33 C268.498177,-38.0300731 265.966835,-51.717737 275,-60.5410845 C273.772877,-63.3971969 272.430109,-66.1449301 271.922556,-69.7214459 Z M368.433645,-81.0047475 C370.725077,-91.9087386 371.336925,-72.5023791 372.758573,-78.0042785 C373.688342,-83.9677886 371.966769,-87.1678729 367,-86.9932095 C367.245939,-84.7475362 366.484128,-81.4663581 368.433645,-81.0047475 Z M484.829175,-69.1191297 C483.010068,-68.8747616 480.451747,-69.38279 480.201057,-67.5757523 C484.694189,-63.2607265 487.850308,-68.9969457 491,-70.662507 C490.472909,-84.5207495 483.517875,-88.5078077 486.371882,-99.9866767 C482.50226,-100.250337 482.624391,-96.5269392 480.201057,-95.3565447 C480.830995,-90.7135511 480.606017,-83.1252792 477.109217,-78.3793938 C478.934752,-78.1414565 481.493073,-78.6430541 481.743763,-76.8295857 C479.320429,-76.6881095 476.395715,-77.0482308 477.109217,-73.7492618 C480.053214,-72.4759754 478.619783,-71.7685941 484.829175,-69.1191297 Z M446.446,-117.579953 C446.524,-118.455953 446.662,-119.283953 447.886,-119.019953 C447.724,-120.777953 447.454,-122.427953 445,-121.899953 C445.228,-120.201953 444.754,-117.813953 446.446,-117.579953 Z M446.525581,-124.642361 C448.439581,-120.430361 442.283581,-133.978361 446.525581,-124.642361 Z M467.522365,-131.393667 C468.812365,-131.621667 468.260365,-139.355667 466.082365,-134.273667 C465.710365,-133.415667 466.670365,-131.237667 467.522365,-131.393667 Z M436.885822,-110.72247 L436.885822,-103.03094 C433.598012,-94.071364 440.211641,-113.508329 444.48136,-106.111395 C442.688585,-103.908325 436.423375,-103.197451 444.48136,-103.03094 C438.684932,-96.7547538 444.620727,-87.7631563 442.96732,-76.9015115 C453.42623,-71.1376669 454.496827,-62.5559428 456.650691,-50.7720828 C459.64076,-50.3173795 459.6661,-52.8534712 461.211814,-53.8525375 C461.14213,-51.7391279 461.927657,-50.4710821 462.732189,-49.2414619 C459.824472,-48.5946305 456.188243,-48.6842903 456.650691,-44.6303863 C458.443466,-42.856403 462.02268,-42.8948286 465.772938,-43.093361 C464.087856,-47.9093734 464.791029,-47.4226487 468.813687,-49.2414619 C464.220889,-58.8478695 470.942211,-71.8741582 471.854436,-86.1300671 C472.525934,-96.6522855 470.764834,-119.848558 468.813687,-124.555697 C465.829952,-131.74129 456.840737,-140.431887 449.048818,-143 C443.151032,-132.97091 454.338454,-118.285915 444.48136,-109.185445 C440.28766,-108.525805 443.062344,-114.917268 439.926571,-115.327142 C440.00259,-112.688582 438.754616,-111.388515 436.885822,-110.72247 Z M465,-143.436484 C459.975813,-141.036484 458.461218,-148.788484 457,-144.876484 C460.349458,-143.982484 463.018349,-137.490484 465,-143.436484 Z M436.76,-146.354795 C434.078,-144.974795 431.942,-150.668795 431,-146.354795 C431.888,-145.934795 436.544,-142.772795 436.76,-146.354795 Z M414.455401,-98 C419.739196,-116.918939 410.156399,-130.422348 405.365001,-149 C398.187373,-130.100379 409.140042,-115.309091 414.455401,-98 Z M464.90826,-147 C464.58426,-149.537881 466.36626,-154.171753 462.03426,-152.726654 C459.37026,-150.206687 462.40626,-148.295812 464.90826,-147 Z M377.374725,-154 C382.486725,-146.804471 373.342725,-140.034104 378.814725,-137 C379.996725,-142.836302 387.700725,-152.621448 377.374725,-154 Z M385.517243,-146 C381.75799,-142.029902 381.895046,-131.32402 372.986399,-136.823529 C373.854421,-127.978431 380.387429,-134.287255 383.950888,-135.30049 C383.024127,-132.146078 380.935653,-128.927941 377.685466,-132.235294 C376.13869,-125.467647 377.443986,-128.233333 379.251821,-123.058824 C377.04587,-119.534804 366.1597,-116.558824 371.420044,-110.823529 C378.592647,-115.717647 368.672395,-97.2245098 374.552755,-94 C376.562911,-98.1485294 379.206136,-101.691667 385.517243,-101.640686 C388.016885,-118.942157 389.550608,-127.659804 385.517243,-141.405392 C385.367134,-139.009314 385.72609,-136.103431 382.384532,-136.823529 C382.116946,-140.283824 389.916091,-143.546569 385.517243,-146 Z M467.445115,-157.509704 C457.719115,-158.895704 472.173115,-156.831704 467.445115,-157.509704 Z M456.059495,-154.674 L460.379495,-154.674 L460.379495,-159 L457.499495,-159 C457.421495,-157.158 455.657495,-157.008 456.059495,-154.674 Z M352.325287,-87.6910179 C355.335432,-91.0500522 351.920562,-93.7488183 352.325287,-95.3834628 C352.388525,-95.6526984 355.272194,-95.1078169 355.360727,-95.3834628 C358.984284,-106.2234 354.456419,-118.056944 361.431608,-130.768709 C361.463227,-134.390569 358.813541,-135.300841 359.913888,-139.993233 C366.983935,-138.640645 358.889427,-145.063836 362.943005,-144.61511 C363.031538,-143.672786 363.176986,-142.794565 364.467049,-143.076621 C361.924867,-150.237005 366.288313,-151.576773 365.984769,-160 C353.096795,-157.480724 359.230914,-145.211275 349.289847,-139.993233 L349.289847,-130.768709 C336.838217,-107.9542 331.975189,-89.5564358 325,-66.1521722 C330.678803,-67.7996375 329.331826,-62.3315912 334.112645,-63.0687839 C337.906945,-74.0241075 346.001453,-80.6331997 352.325287,-87.6910179 Z M433,-151.581147 C431.774452,-151.916987 429.873196,-151.624681 429.826824,-153.06755 C429.820199,-154.566393 431.111993,-154.84626 431.416724,-156.059016 C422.29467,-153.683257 431.058996,-166.115563 423.467222,-168 C418.207301,-161.730983 422.625899,-158.944754 425.057122,-151.581147 C429.005375,-153.515337 431.655209,-147.202786 433,-151.581147 Z M400.703676,-149 C410.297665,-153.543088 404.69774,-169.027337 400.703676,-174 C394.94591,-166.957563 406.077133,-154.571466 400.703676,-149 Z M338.647964,-187.636411 C331.661569,-181.401293 332.624111,-172.769034 327.938891,-157.034605 C327.811402,-156.620206 325.083139,-156.09105 324.872782,-155.504515 C322.221011,-147.694679 319.945333,-136.799161 318.753312,-129.49298 C315.495969,-109.359542 306.227521,-88.4865599 317.229819,-79 C318.211484,-88.9328362 330.444049,-109.41692 334.058361,-121.842528 C335.677471,-127.420983 333.695018,-140.133483 338.647964,-132.553161 C340.974638,-137.717215 341.898933,-139.362062 338.647964,-144.793883 L343.237567,-144.793883 C346.208059,-158.653951 353.831899,-167.853619 357,-181.51605 C352.206415,-185.985189 347.81442,-191.640148 338.647964,-187.636411 Z M450.833318,-188.890403 C439.397318,-188.128403 457.883318,-189.358403 450.833318,-188.890403 Z M442,-192.12 L444.874,-192.12 L444.874,-195 L442,-195 L442,-192.12 Z M450,-178.195826 C442.811979,-184.316847 439.336806,-194.109207 426.868576,-195 C426.560243,-187.676409 416.019097,-190.476044 413,-185.837558 C415.306076,-185.576683 418.684896,-186.378396 419.166667,-184.310484 C417.342361,-183.566035 415.665799,-182.681605 414.541667,-181.256336 C418.151736,-180.760038 416.038368,-174.594477 419.166667,-173.627331 C420.290799,-177.088698 423.804514,-178.183101 426.868576,-179.7229 C434.050174,-177.056884 437.852951,-177.075972 442.291667,-172.093894 C441.636458,-172.83198 441.90625,-162.83601 445.368576,-169.039747 C444.52066,-169.033384 443.627778,-170.274131 445.368576,-170.56682 C446.267882,-167.837176 449.209896,-175.784322 450,-178.195826 Z M-68.2380952,416.119298 C-65.3555556,416.461402 -64.8793651,414.408783 -62.1428571,414.59884 C-49.5650794,425.501795 -28.1555556,427.8395 -11.8571429,426.762509 C-11.8698413,426.762509 -11.2603175,423.93699 -10.3333333,423.721592 C-3.14603175,421.998405 8.06031746,426.870208 11,420.68701 C4.63174603,419.603683 5.13333333,412.793295 1.85714286,408.517005 C-6.3015873,397.88013 -19.8063492,391.348493 -28.6190476,382.675544 C-34.4222222,376.954818 -41.2984127,370.822302 -49.952381,367.464622 C-50.9873016,369.149797 -55.0126984,375.352001 -56.047619,372.025998 C-53.8126984,368.446585 -52.8349206,369.200479 -54.5238095,364.423705 C-66.8349206,361.762902 -80.2825397,356.441297 -85,368.991416 C-77.0253968,373.36907 -67.615873,380.356844 -60.6190476,381.155085 C-60.8793651,377.341268 -58.2825397,376.390981 -56.047619,375.066915 C-56.7015873,377.962122 -59.3301587,378.887068 -59.0952381,382.675544 C-56.5492063,385.196971 -47.9714286,381.706251 -48.4285714,387.230584 C-54.9555556,387.655046 -55.9650794,382.58685 -63.6730159,384.189667 C-66.9111111,395.479072 -74.6698413,407.300638 -68.2380952,416.119298 Z M166.819667,503.114225 C165.018828,509.158319 159.247234,502.34915 154.60196,506.174526 C149.58761,498.198618 135.562701,503.751788 133.214611,500.053925 C135.702696,500.51297 137.338087,497.988222 134.748187,497 C131.108329,498.7788 126.533052,504.217209 124.057694,498.523775 C125.406732,503.566895 116.574349,506.16815 120.996904,509.241202 C121.365981,507.570788 123.516806,505.568841 124.057694,507.711052 C118.706084,519.187178 101.970371,533.621596 104.203921,549.018732 C105.438418,557.574822 114.130807,557.307046 114.894414,567.380535 C138.572584,571.703209 161.07989,552.538078 174.455734,536.77753 C170.134993,535.056111 165.890612,546.519487 159.177237,547.494958 C173.615766,532.735384 190.956001,513.206841 205,503.114225 C194.424048,497.720446 170.077722,510.898865 166.819667,503.114225 Z M642.76,102.167734 C651.9471,97.1919605 662.305667,95.8471569 671.792,91.402901 C680.507967,87.3172595 688.956533,80.5548183 697.768,76.0401204 C717.6702,65.8324203 737.559667,58.5256539 754.304,48.3691845 C758.022133,46.1150374 762.548833,43.5535067 765,39.1540776 C755.749233,37.9373505 748.0965,38.7762518 740.552,37.6171592 C735.178533,36.7782579 735.503233,34.4600725 732.905633,37.6171592 C732.447233,38.1678883 730.238,36.0738369 729.856,36.0738369 C716.759767,36.0738369 700.6139,37.6171592 694.705633,33 C680.756267,42.0422035 630.854333,39.6151532 618.305633,45.2953476 C608.7811,49.6115269 609.825233,58.890672 603.032,65.2752874 C602.637267,60.7798009 606.482733,60.555667 606.088,56.0473729 C594.729867,60.2162642 582.6332,62.8930638 574,72.9598796 C582.4231,74.4583751 583.3972,60.3059178 589.28,68.3491243 C584.778767,68.8230075 588.980767,73.1071677 580.105633,71.4229612 C585.752867,82.2582362 596.6526,79.3252835 603.032,85.2552272 C612.021733,93.6250289 606.934767,106.765682 616.784,116 C626.1048,112.977394 633.967633,106.919374 642.76,102.167734 Z M352.128001,-245.830025 C353.612571,-245.79179 353.313108,-243.956503 353.657172,-242.76484 C355.970042,-256.56136 357.027719,-257.886846 359.773855,-273.359341 C366.183629,-275.615215 370.032042,-280.426473 378.123903,-281 C380.054481,-273.607869 384.259701,-274.143161 382.711416,-270.300528 C389.586312,-269.421119 382.290894,-263.864276 390.357269,-264.182902 C390.338155,-261.143207 386.183907,-262.232909 387.298928,-258.065277 C393.887105,-265.56574 388.05077,-250.246186 396.473952,-247.359432 C389.528968,-241.777098 400.500768,-242.146705 396.473952,-236.653587 C397.136593,-234.384968 398.430016,-237.252605 401.055093,-236.653587 C396.550411,-231.99527 398.506475,-226.712445 404.119806,-224.418336 C403.578224,-222.015893 401.424642,-225.750194 401.055093,-222.888929 C402.724437,-217.14091 404.92262,-217.739928 408.707318,-216.764931 C406.566479,-201.936062 410.962845,-201.184104 414.824001,-190.765023 C422.501712,-194.308147 424.26663,-203.752232 431.644879,-207.594865 C437.691475,-209.570349 434.760564,-202.560569 440.819903,-204.52968 C434.70322,-209.238977 442.29173,-206.683594 445.401044,-204.52968 C440.080804,-200.21548 450.039528,-198.131663 449.994928,-192.294429 C451.224636,-193.613542 454.181032,-193.2057 454.58244,-195.359614 C453.199815,-199.533619 451.16092,-190.701297 448.465757,-195.359614 C453.403704,-198.055193 457.952987,-204.070858 454.58244,-210.653678 C461.419107,-213.852687 466.280596,-209.806132 472.932489,-212.189457 C477.124965,-204.344877 474.493517,-194.308147 477.513629,-192.294429 C477.583716,-188.38807 476.385866,-190.433651 474.461659,-190.765023 C475.958972,-186.667488 473.697074,-178.791045 480.578342,-180.059178 C473.703445,-175.241548 484.44587,-175.719487 480.578342,-170.889112 C479.087401,-170.927347 479.386863,-172.756262 479.049171,-173.954297 C476.965676,-162.76414 481.081694,-147.20243 479.049171,-129.595139 C479.278547,-126.765737 484.222866,-128.658378 485.165854,-126.536326 C485.72655,-123.936336 483.968004,-123.649572 482.107513,-123.477514 C486.745997,-118.213807 488.415342,-113.268726 486.695025,-108.18345 C496.73658,-97.369272 495.009891,-79.086493 500.457562,-66.889477 C519.897145,-68.5845691 528.288469,-79.6727655 540.216001,-85.2423538 C538.342766,-89.9006708 534.379666,-83.0055969 532.570147,-86.7717602 C533.1181,-90.8119421 536.240157,-92.2712507 541.7388,-91.3599794 C536.641564,-88.2438138 540.528206,-88.0590106 546.332683,-88.3011666 C552.787058,-91.6531156 543.344429,-96.2222172 549.391025,-95.9481986 C548.785728,-99.3893629 539.852823,-95.7187876 544.803513,-100.536418 C547.982914,-102.250627 548.046629,-102.186902 546.332683,-99.0070113 C553.647217,-97.2991742 552.787058,-103.767289 560.088848,-102.059452 C562.19783,-97.4329973 559.368864,-96.5981963 560.088848,-89.8242004 C552.653256,-87.555581 545.529869,-76.9070889 537.157659,-80.6541346 C534.921247,-78.8061019 535.685832,-73.9693541 529.511805,-76.0595429 C529.53092,-71.5031863 540.840412,-78.2262019 538.68683,-71.4776962 C530.913545,-70.5600524 526.956816,-72.7904367 524.924293,-68.4188834 C528.906509,-67.1762407 538.865233,-69.8718195 543.274342,-69.9482898 C537.463493,-73.3703366 545.791102,-72.8605345 544.803513,-76.0595429 C548.70927,-76.1360132 546.670375,-74.9252331 546.332683,-73.0071026 C550.015436,-72.3762225 549.65863,-75.7982693 553.972166,-74.536509 C553.730047,-76.327189 551.187801,-75.8237594 549.391025,-76.0595429 C554.093225,-78.0987514 562.713925,-80.6796247 563.153562,-76.0595429 C566.8172,-75.4541528 562.306146,-83.031087 567.741074,-80.6541346 C573.067685,-79.2458062 568.518402,-76.6967955 572.328586,-73.0071026 C553.04192,-77.6399295 541.108017,-62.5434138 520.336781,-65.3536981 C517.093665,-60.9502822 510.696634,-59.7076395 505.045074,-57.7130386 C504.019255,-45.4650424 511.556793,-41.7944671 514.220098,-33.2425363 C540.9551,-39.1243784 571.729661,-40.9787837 592.201434,-53.1248194 L592.201434,-47.0071939 C599.879145,-45.6562182 606.314405,-51.2831592 612.087025,-47.0071939 C611.787562,-51.1557087 622.281496,-48.9380694 628.907903,-53.1248194 C629.373026,-49.6008122 624.492422,-51.4233548 624.314019,-48.5366003 C625.76036,-44.3753404 632.02996,-45.0317106 636.547385,-43.9483811 C637.93001,-39.7170234 640.56783,-36.747426 644.19961,-34.7719427 C642.421949,-31.4646014 644.690219,-19.554349 641.141269,-13.3538806 C641.472589,-13.9337805 631.520236,-8.21762413 639.612098,-8.77203395 C629.901864,-4.78283227 639.064145,-18.6940579 638.082927,-25.5891318 C637.241883,-31.5028365 633.31064,-30.9420542 633.495415,-36.3013491 C627.678195,-37.11066 623.434746,-39.4939849 618.197336,-40.8895683 C611.131293,-36.7410534 607.008904,-29.6548038 598.318117,-27.1185382 C599.993833,-34.6253746 609.958929,-33.8415538 612.087025,-40.8895683 C608.894881,-47.3321927 597.993168,-39.978297 593.736976,-37.824383 C590.850666,-38.0028137 592.6793,-42.8841691 589.149464,-42.4189747 C593.303711,-34.8165504 584.001256,-22.0906147 575.386927,-17.9484723 C553.500671,-20.7460115 546.562059,1.28381311 524.924293,3.46321722 C528.759963,6.25438389 531.232123,10.4028987 534.099318,14.169062 C538.062418,14.0862191 541.528539,8.191632 541.7388,8.05143641 C545.880304,5.2985049 553.787391,6.91075414 555.507708,-2.65440837 C563.523111,-1.59656894 573.723954,-10.7029095 578.445269,-17.9484723 C587.543835,-18.0249427 588.486823,-26.2518746 596.795318,-27.1185382 C585.58777,-14.8769145 571.532143,-5.49018273 557.036879,3.46321722 C575.947623,1.31567574 608.538074,-6.29949361 625.849561,-10.3014403 C625.779474,-4.61714657 633.329755,-6.57351226 633.495415,-1.11862944 C645.359231,-3.9289137 658.860534,-1.67303926 670.195512,0.410776954 C669.787734,14.0352389 652.731108,20.7582546 642.670439,29.463126 C658.905135,32.6812519 683.180721,31.2920411 702.308098,30.9925324 C719.906304,30.7312588 737.326107,30.3489072 752.770732,32.5219388 C761.792839,33.7900716 773.459137,34.4145792 778.766634,41.6983771 C773.006758,45.1140514 767.291482,48.5743334 760.416585,50.881188 C759.702972,47.6120819 762.602025,47.9689434 765.004098,47.8160027 C756.06482,45.5282657 745.284167,54.583626 739.001824,60.0512539 C702.046864,75.0904168 666.449044,96.1962251 630.430702,113.58685 C624.60711,116.397135 615.279169,114.950571 613.616196,124.286323 C622.606445,128.581406 628.888788,119.283889 638.082927,118.168697 C642.033285,117.690757 645.93267,119.844671 650.316293,119.698103 C674.247815,118.914283 697.198119,119.851044 711.483122,136.521574 C734.216794,139.822543 756.88675,144.092135 787.941659,142.639199 C784.845088,145.780855 788.56607,145.698012 791,147.227418 C788.266607,150.738681 786.883982,153.53622 783.347775,154.87445 C777.422238,157.123952 770.808575,153.026418 765.004098,153.351417 C753.331428,153.982297 742.123881,161.775897 731.362342,157.933263 C729.310704,158.940122 728.514261,161.202369 728.304,164.057261 C721.792281,163.14599 718.192359,165.146963 713.005921,165.586668 C710.208813,163.279813 705.462012,162.942069 702.308098,160.992076 C692.667951,172.768505 669.093235,170.595474 661.020488,183.933172 C662.008078,185.488069 664.537581,185.513559 664.07883,188.521391 C690.412424,197.481164 707.297017,218.357561 705.366439,251.227053 C692.432203,266.833371 661.249864,264.201518 644.19961,275.697556 C667.111685,306.02441 697.752443,340.72919 717.599805,364.403127 C708.724243,365.09136 706.188368,353.837478 700.772555,347.579656 C686.226319,330.775304 664.958103,311.855272 647.257952,297.109245 C648.398458,292.399948 643.059104,294.165138 644.19961,289.462213 C638.790169,284.160271 632.367652,279.884306 628.907903,272.638743 C616.623565,274.716187 607.563228,265.852002 596.795318,261.932898 C576.495576,267.13288 592.755758,291.195541 583.032781,307.81509 C584.944244,314.569968 590.449259,317.730742 593.736976,323.102782 C610.78723,328.481194 627.49342,334.210096 638.082927,346.05025 C655.483616,346.279661 673.973838,357.858542 688.545561,365.932533 C704.21319,365.550182 712.502569,372.559961 725.245659,375.108972 C721.926084,373.840839 721.843254,369.335462 717.599805,368.997719 C721.550163,364.428617 724.735935,371.890846 726.774829,373.579565 C733.101773,378.830527 741.951849,385.97413 743.595707,394.997627 C737.867689,390.689799 737.931404,402.275053 731.362342,396.520661 C728.909297,402.536326 737.963262,397.049581 737.479025,401.10888 C737.134961,407.366701 727.016948,400.210354 726.774829,396.520661 C697.554925,402.14123 677.083152,378.422685 647.257952,375.108972 C648.659691,370.699183 638.127528,370.253106 635.024586,368.997719 C622.612817,363.950677 609.410976,356.360998 595.266147,349.109063 C589.117606,356.392861 592.813102,365.881553 590.678635,373.579565 C586.218553,389.65745 573.290689,401.121625 566.211903,413.344131 C568.30177,423.482821 575.457014,428.57447 583.032781,433.232787 C583.147469,445.576371 574.768887,449.438122 564.682732,451.579291 L564.682732,446.991072 C558.52782,450.094493 548.932274,444.378336 541.7388,448.520479 C526.026571,462.877781 517.883736,484.81839 498.928391,495.938449 C498.412296,502.049702 493.493463,503.751167 492.811708,509.703107 C482.789268,510.372222 478.322815,516.623671 475.99083,524.990798 C474.200426,524.748642 474.697406,522.206004 474.461659,520.402579 C466.000248,525.194719 454.754472,527.208438 449.994928,535.703016 C424.368575,537.391735 389.541711,535.416252 370.47805,518.873173 C363.233603,527.8202 357.097806,536.837325 344.482147,535.703016 C318.983225,533.402534 311.872582,480.663503 306.252879,460.75573 C289.616776,464.005718 282.467903,476.731654 266.49444,480.638013 C267.609461,485.914465 271.094696,481.657617 274.133922,480.638013 C263.792905,490.502684 249.864709,502.310976 234.381855,515.81436 C232.680653,517.305531 233.107546,519.943757 231.323513,521.938358 C228.571006,524.990798 204.225334,542.09466 199.210928,543.343675 C195.286057,544.325044 191.749849,542.610835 188.506733,543.343675 C186.84376,543.726027 187.468171,546.38337 185.448392,546.408861 C179.102333,547.645131 179.701258,541.948092 176.273367,540.284862 C161.988364,552.137762 139.566898,575.352877 118.16488,573.938176 C112.296687,573.543079 104.943924,571.076911 101.33763,563.225958 C100.30544,560.970084 98.2920317,552.692172 98.2856601,552.513741 C98.0053122,545.421119 101.331258,533.230475 104.402343,526.520205 C109.130029,516.177594 119.426445,506.293805 122.752392,498.99089 C123.727238,496.856093 118.693718,493.841888 124.281563,494.40267 C117.674271,487.635047 108.212527,489.846314 99.8148309,494.40267 C97.0368374,495.912959 95.838987,498.863439 93.6981479,500.520296 C92.8698471,501.163921 89.7860195,499.74922 89.1042642,500.520296 C87.511378,502.336466 85.720974,503.126659 79.9356114,505.108515 C67.7149887,509.288893 50.5181895,516.362397 35.5896603,506.637922 C40.8652993,504.076166 35.2201107,502.610485 35.5896603,500.520296 C37.2398904,491.159054 52.7291155,482.556143 63.1083618,474.520387 C66.4279366,471.952259 67.1988935,466.548356 72.2897578,468.402762 C53.7039619,454.364086 39.2023261,436.24062 15.7104408,427.108789 C-9.83945344,431.977399 -42.1495566,435.947484 -62.2772663,422.52057 C-63.6025476,429.453879 -54.6377842,426.10193 -54.6314127,431.703381 C-63.1692826,431.053383 -67.5911346,426.312223 -72.9814614,422.52057 C-73.1343785,409.48238 -73.5676435,391.47362 -63.8128086,384.28541 C-67.3808736,381.181989 -77.2312817,376.370732 -80.6273151,378.167784 C-81.328185,371.916336 -82.9019565,375.739852 -89.808711,373.579565 C-92.7842224,349.55514 -60.2829728,348.350732 -45.4563883,361.337941 C-44.0992493,360.668826 -42.7229956,360.006083 -42.3980469,358.285501 C-41.1109948,364.122736 -36.0392452,365.460966 -31.7002233,364.403127 C-29.9862778,367.958997 -32.0188005,368.500661 -28.6355103,372.050159 C-26.4946713,371.508494 -28.5080794,369.35458 -30.164681,368.997719 C-22.1683924,370.195754 -9.4635323,379.881994 -2.63960793,387.344223 C9.88684895,376.307007 4.52200832,353.984046 20.297953,344.527216 C14.7547091,339.346352 21.011566,327.933157 12.6457278,326.167967 C18.1953432,321.038083 12.4736961,315.615063 12.6457278,309.344497 C11.3204465,304.826375 10.3583433,312.893994 6.5290449,310.873903 C14.2513571,305.979802 16.8509473,289.659762 23.3562945,278.762741 C26.7268416,273.097565 27.924692,265.692689 20.297953,260.403492 C22.1903018,258.772125 24.7452912,262.053976 27.9438066,261.932898 C19.3613359,243.694727 34.3026082,234.722209 40.1771725,222.168332 C28.5236172,214.674241 19.2211619,210.25808 8.06458717,219.109519 C11.4542489,216.375705 12.7094433,211.526212 18.7624107,211.462487 C8.17927497,206.759562 -0.925662404,200.571839 -13.3501746,197.69783 C-14.8156299,183.990525 -4.59567215,181.976806 1.94790426,176.28614 C22.1265863,183.168469 45.3062659,172.857721 60.0563919,168.639108 C49.9447505,151.331326 56.360896,126.478472 55.4688797,113.58685 C32.9773269,104.442275 8.91837416,99.656507 -13.3501746,93.6918221 C-16.5805477,85.5158704 -13.2354868,79.7933415 -8.75629084,75.3516904 C15.7550416,80.9085336 38.1892505,88.5491931 61.5855627,95.227601 C64.4527578,93.5070188 64.8350505,89.3011512 67.7022456,87.5869416 C58.1895293,77.537467 41.317679,67.7683837 41.7063432,50.881188 C41.8528887,44.0944472 48.9953903,41.309653 46.2938554,34.0513452 C51.1171147,25.2827485 62.5540374,29.233715 73.8189285,29.463126 C70.7669586,10.6259372 94.8577691,-13.2455477 119.69405,-4.18381476 C129.697376,-14.5710332 124.408993,-40.2523156 141.102441,-43.9483811 C159.974956,-34.2812581 175.668071,-21.4214994 188.506733,-5.71322116 C201.230708,-12.2832961 215.190762,-11.0533985 231.323513,-11.8308467 C225.799384,-18.356314 225.875843,-21.1283631 220.619318,-27.1185382 C229.169931,-21.9822817 219.848361,-36.6837007 214.502635,-36.3013491 C221.836283,-38.1047741 215.681371,-44.541026 212.973465,-45.4777875 C214.336975,-58.9429363 205.958394,-74.8933705 219.090148,-83.7129474 C210.93457,-101.243768 200.472494,-123.69418 183.919221,-137.242171 C181.453433,-137.669131 181.281401,-135.795608 179.331709,-135.719137 C166.212698,-117.780475 155.419301,-92.6918374 154.864977,-66.889477 C145.339518,-69.1963317 152.482019,-73.338474 153.335806,-80.6541346 C143.797604,-86.8099953 156.304946,-108.642272 153.335806,-111.242263 C149.742255,-111.26138 153.890131,-115.416267 156.394148,-114.294703 C156.69361,-134.909827 171.851515,-140.6451 177.796166,-155.595048 C183.307553,-155.059756 185.174415,-153.249958 190.035904,-155.595048 C206.2706,-137.949522 221.237358,-116.971164 229.794343,-95.9481986 C249.342242,-102.053079 271.540704,-87.5938161 290.961172,-83.7129474 C293.452446,-86.8291129 294.17243,-91.7168409 297.077855,-94.4187922 C301.888371,-95.1516327 303.054364,-92.239388 306.252879,-91.3599794 C305.386349,-95.9928062 309.06273,-104.009445 309.311221,-108.18345 C309.381308,-109.355995 306.271994,-109.821189 306.252879,-109.712856 C307.157639,-114.562349 316.523809,-117.79322 309.311221,-123.477514 C313.038574,-128.014753 314.13448,-134.705906 315.427904,-144.889203 C313.18512,-144.889203 314.720662,-141.77941 313.898733,-140.294612 C311.324629,-135.67453 306.424911,-123.158887 303.194538,-112.771669 C302.143233,-109.39423 305.889701,-101.581512 298.607026,-102.059452 C299.49267,-105.851105 304.143898,-113.73392 300.136196,-117.359888 C307.214982,-123.394671 309.840059,-138.395599 313.898733,-152.529863 C316.498323,-153.097018 316.785043,-151.344573 316.957074,-149.477422 C317.441312,-161.903849 325.870865,-173.686651 329.19044,-187.712582 C330.420148,-186.903271 331.675343,-186.119451 333.777952,-186.183176 C327.565696,-189.184636 334.861115,-191.905705 335.307123,-196.889021 C338.754129,-200.483126 334.039186,-192.867956 335.307123,-189.241989 C340.047552,-193.677267 340.334272,-202.566942 349.06966,-203.006646 C352.312776,-198.099801 359.512621,-197.137549 361.303025,-190.765023 C366.680609,-193.046387 366.10717,-201.260574 368.942507,-206.065459 C376.269784,-208.71643 381.099415,-200.9993 384.240586,-204.52968 C391.325744,-193.842953 393.447468,-184.793965 398.003123,-173.954297 C403.826715,-182.238582 394.677177,-198.099801 390.357269,-210.653678 C385.655069,-224.297258 383.552459,-240.107496 375.065562,-247.359432 C378.187619,-251.240301 372.255711,-255.873127 372.00722,-261.124089 C364.864719,-259.091253 368.420041,-246.358945 356.709142,-248.888838 C358.346629,-247.461392 357.193379,-243.249152 361.303025,-244.300619 C360.08606,-240.853082 351.05121,-239.25995 352.128001,-245.830025 Z" fill="#656E8D" mask="url(#mask-2)"></path>
            </g>
            <g id="dots" transform="translate(15.000000, 8.000000)" fill="#41345B">
                <path d="M8,4 C8,6.209 6.209,8 4,8 C1.791,8 0,6.209 0,4 C0,1.791 1.791,0 4,0 C6.209,0 8,1.791 8,4" id="Fill-6"></path>
                <path d="M24,4 C24,6.209 22.209,8 20,8 C17.791,8 16,6.209 16,4 C16,1.791 17.791,0 20,0 C22.209,0 24,1.791 24,4" id="Fill-8"></path>
                <path d="M40,4 C40,6.209 38.209,8 36,8 C33.791,8 32,6.209 32,4 C32,1.791 33.791,0 36,0 C38.209,0 40,1.791 40,4" id="Fill-10"></path>
            </g>
            <rect id="Rectangle-2" fill="#211426" x="275" y="210" width="176" height="58"></rect>
            <rect id="Rectangle-3" fill="#FFFFFF" x="328" y="233" width="70" height="12" rx="2"></rect>
        </g>
        <g id="mobile" transform="translate(20.000000, 158.000000)">
            <g id="container_bg">
                <use fill="black" fill-opacity="1" filter="url(#filter-4)" xlink:href="#path-3"></use>
                <use fill="#F2EFDD" fill-rule="evenodd" xlink:href="#path-3"></use>
            </g>
            <g id="Fill-1">
                <mask id="mask-6" fill="white">
                    <use xlink:href="#path-5"></use>
                </mask>
                <use id="Mask" fill="#F2EFDD" opacity="0" xlink:href="#path-5"></use>
                <path d="M18.8255394,437.459788 C21.0887119,435.780023 23.8911936,435.502539 25.7546995,433.892145 C29.3950366,430.750636 34.7977591,425.369441 35,422 C24.3438281,426.672622 15.1659413,426.637936 6.10843597,432.70293 C3.44559681,434.491707 -0.507732197,443.113512 -5.44337439,439.833262 C-5.03889249,443.802265 -7.77396055,442.360343 -10.0660246,444.595075 C-12.0354662,446.517638 -14.7849801,449.292472 -17,455.30296 C-1.47559959,459.351244 9.01203815,444.758592 18.8255394,437.459788 Z M-45,424.453248 C-35.1907895,424.609248 -30.6546053,426.437248 -24,423.493248 C-28.8539474,422.721248 -42.4302632,422.725248 -45,424.453248 Z M-46.0065091,422.88 C-45.8405436,420.184 -48.8767357,420.112 -51.8641144,420 C-52.9868221,423.48 -46.8070485,420.976 -46.0065091,422.88 Z M19.0058397,425 C22.8173257,421.555864 39.4993394,419.107564 37.8911382,418 C31.5714485,419.549618 18.6861666,420.764053 19.0058397,425 Z M-66.6574333,418.005908 C-70.5374333,414.629908 -68.9214333,421.093908 -66.6574333,418.005908 Z M-61.12,414.931891 C-60.276,412.955891 -63.608,410.623891 -64,413.011891 C-62.628,413.239891 -62.384,414.591891 -61.12,414.931891 Z M-101.240626,426 C-93.2274519,422.584705 -85.039973,419.334445 -78,414.997708 C-86.4247269,411.609919 -92.4963405,405.984997 -102.402657,404 C-103.81162,414.397166 -118.511316,412.215045 -121,421.603667 C-112.275082,430.304647 -98.7567841,418.710981 -88.4582817,418.298395 C-86.279473,418.037091 -89.1216079,416.487602 -87.3010922,416.097937 C-85.1416507,423.405293 -102.828736,420.100021 -101.240626,426 Z M-49,415.814404 C-43.402451,418.352029 -36.1796569,416.064919 -30,415.814404 C-31.8161765,410.567505 -34.3401961,406.035039 -33.3529412,398 C-40.5664216,401.947932 -45.4188725,408.247922 -49,415.814404 Z M68.0014716,393.687442 C70.8007848,393.367442 73.1702036,392.699442 74,390.803442 C71.5306058,388.811442 67.9164924,390.807442 68.0014716,393.687442 Z M-93,404.365653 C-85.2898551,405.223599 -72.0557971,421.798495 -65,411.808076 C-68.0485507,410.164541 -67.9572464,417.58629 -69.8695652,413.04848 C-63.8789855,409.120534 -69.0427536,397.321193 -67.4347826,387 C-79.6442029,390.75739 -81.5615942,395.507103 -93,404.365653 Z M37.8575802,405.108333 C37.59475,404.189943 36.8608089,403.740517 35.4772307,403.931034 C33.0224953,411.287931 23.2928168,411.468678 20,418 C24.1259391,416.470977 28.9858193,413.862356 31.9067065,414.482759 C31.1578882,414.272701 30.6619821,413.798851 31.9067065,413.310345 C40.2478478,410.066667 50.2949063,407.375 56.9003762,401.586207 C61.9040691,397.19454 70.4039004,390.243103 68.8021236,384 C59.7468774,391.67931 43.0298813,397.443678 37.8575802,405.108333 Z M92,386.9176 C95.1625,396.950936 95.1853175,419.671173 105.142857,419.996099 C111.020635,420.183178 113.192857,413.615725 115,405.822413 C111.06627,402.829151 108.944246,400.04266 107.333333,395.183533 C106.17877,391.702881 108.474206,384.244342 104.047619,381 C99.8720238,382.806788 97.2115079,386.238208 92,386.9176 Z M175.552472,381.011553 C167.990811,392.056913 180.086543,404.369034 175.552472,415.86502 C179.852527,416.696175 184.454853,417.937902 188.428259,415.86502 C195.302496,404.504222 205.613852,396.663318 213,385.823244 C199.105266,386.37401 185.347041,380.711136 175.552472,381.011553 Z M-30,377.363815 C-39.3313789,372.261683 -51.646428,383.294246 -62.0151756,380.882864 C-60.9531076,384.686182 -65.8781393,382.539464 -66.7574328,384.416617 C-65.7793422,389.366812 -68.4320423,391.998748 -67.9380572,396.184358 C-67.8886587,396.586255 -64.8802893,406.623878 -65.5669286,405.59463 C-64.1738906,407.66783 -59.9354983,406.457238 -64.3813643,409.11858 C-61.6842056,413.794309 -59.7873027,407.496289 -57.2729185,410.289963 C-58.715355,410.427196 -60.0738141,410.647749 -59.6391072,412.647432 C-57.9447382,412.931701 -57.6434073,414.583399 -56.0824143,415 C-53.3407969,410.956524 -46.7559753,407.466882 -48.9690286,402.060877 C-44.7750949,401.360007 -38.9114916,397.899772 -41.8556429,393.826889 C-34.5693624,394.419932 -31.560993,383.76476 -30,377.363815 Z M57.998849,371 C54.9116485,376.959444 45.9875143,382.305 46,388 C49.3330231,382.319167 58.1155044,376.817778 57.998849,371 Z M-3.35630913,409.835847 C-20.11303,415.779847 6.78109473,406.239847 -3.35630913,409.835847 Z M56,370 C47.7814243,373.946772 42.555429,380.895453 34.836433,385.354026 C34.8511265,383.794017 36.8984237,384.276291 37.1922941,382.991868 C28.9149443,384.940648 22.1069466,393.227885 19.5600698,397.169736 C17.9388847,393.001511 13.702253,402.081055 12.50718,398.345893 C17.3756331,392.607818 26.1525625,390.796831 30.1345065,384.172947 C15.3087446,384.98986 -10.3216526,379.36005 -21.581787,385.354026 C-21.214449,382.57849 -16.008045,384.655221 -16.8798605,380.624789 C-23.9572394,380.299992 -21.7287222,382.135586 -23.9376481,384.172947 C-25.5392418,385.654216 -29.5260836,383.818623 -28.6395745,387.716183 C-25.7204619,389.246665 -22.9335908,385.083362 -22.7572686,387.716183 C-24.7213025,391.308632 -28.4142739,387.642366 -29.8101583,390.078341 C-31.0052313,398.941354 -26.4012616,407.489413 -20.4063054,414.880998 C-11.9722247,414.300301 -8.34292522,408.896865 -0.423117802,407.794525 C2.03559792,409.989363 3.99473396,410.855487 5.44939246,411.337761 C3.39229963,412.125147 -0.85412773,415.412483 1.92784544,411.337761 C-3.90058426,413.754052 -10.8163345,415.068002 -14.5288973,419.605313 C-10.2285937,420.382857 -10.0228844,417.05123 -6.30052591,417.243156 C-6.849084,424.359156 10.9790539,415.683147 14.8581433,413.699919 C15.3234381,411.667479 13.1145122,410.673404 14.8581433,410.151761 C20.9020779,409.654724 17.6450143,408.404749 21.911033,407.794525 C18.4384644,403.458981 31.7752829,406.254201 28.9639227,401.88913 C28.6161761,402.99147 25.7852245,402.99147 25.43258,401.88913 C28.5818912,398.744508 32.1524166,396.032947 34.836433,392.440499 C36.0021189,397.996491 28.2488381,397.110682 33.6658492,400.708051 C33.5972794,395.486698 42.9374605,393.542839 40.7187389,390.078341 C40.6060886,391.707246 36.1294628,394.68947 36.0168124,392.440499 C42.0264622,384.310739 51.650718,379.802955 56,370 Z M-0.534592942,370.998952 C-0.832175604,367.185049 3.86774104,368.524543 4,365.158762 C-2.06501806,363.965395 -1.22422895,369.893261 -6.19811059,369.829939 C-9.2967491,366.600543 -4.54015004,368.733991 -3.93081412,366.327774 C-8.70158377,364.915218 -8.90469575,368.212806 -11.8663518,368.660927 C-11.8616282,368.0131 -12.7827174,367.336047 -13,368.660927 C-9.37232565,369.985808 -5.48013337,371.037919 -0.534592942,370.998952 Z M-71,366.916 C-68.8401799,367.328 -68.1501717,368.984 -65.3287,368.836 C-64.9978742,368.248 -62.5119543,365.14 -65.3287,365 C-66.2313819,367.536 -70.659722,362.848 -71,366.916 Z M-86.5603704,365 C-95.7711111,369.803393 -103.59037,371.522399 -114.288889,375.608722 C-118.578889,376.335615 -126.181481,373.688346 -127,377.961304 C-116.214815,383.069207 -111.457778,394.33115 -99.2666667,398 C-93.4166667,388.643697 -80.4455556,386.551421 -75,376.782557 C-84.3840741,378.501563 -81.3555556,367.54904 -86.5603704,365 Z M25,367.84 C30.6392182,366.8 37.40628,366.64 41,364 C34.3559756,364.256 25.6767062,362.928 25,367.84 Z M5,371 L16.0769231,371 C16.9641026,367.952083 20.5076923,367.422222 21,364 C13.425641,365.691667 9.86153846,365.647917 5,371 Z M-57,365.926416 C-55.352,365.974416 -54.54,365.182416 -54.12,364.002416 C-55.772,363.950416 -56.58,364.742416 -57,365.926416 Z M-113,365.961987 C-108.895833,366.057987 -104.8375,366.117987 -103,364.037987 C-107.104167,363.937987 -111.166667,363.881987 -113,365.961987 Z M87.8314969,375 C92.8234233,374.545627 102.980055,370.269973 108,366.276032 C105.160813,363.222643 97.5818638,364.785687 93.4304863,363 C93.0195513,368.048088 84.3245403,369.624763 87.8314969,375 Z M-71,358.912823 C-66.3644657,357.900823 -63.4776659,360.932823 -61.0072315,358.912823 C-60.7018969,353.804823 -70.162643,356.476823 -71,358.912823 Z M16,358.589086 C18.5752663,358.281086 20.2658638,358.741086 21.553497,359.549086 C21.8036128,358.805086 21.5859194,357.657086 22.6697545,357.629086 C22.6882816,358.889086 25.754516,358.853086 26,357.629086 C22.8179713,355.081086 18.1676702,355.613086 16,358.589086 Z M11.3092052,356.513892 C8.78430676,358.705664 22.6442835,352.883913 19.5457673,351 C19.3251451,352.631193 16.7021923,352.01088 14.8391604,352.102778 C15.035269,354.868914 13.0300584,355.558151 11.3092052,356.513892 Z M-43,352.69204 C-39.6574074,356.184888 -36.087963,351.764994 -33,350.064192 C-37.912037,349.699213 -40.787037,350.932842 -43,352.69204 Z M-33.86727,357.42721 C-34.8246101,361.099732 -30.278379,358.994344 -30.6005172,362 C-23.7766334,356.969932 -13.0054233,356.083954 -11,346 C-21.2811972,346.852635 -26.081509,357.522477 -33.86727,357.42721 Z M-30.7281937,354.30214 C-30.6041937,354.42614 -28.0241937,354.40614 -27.8481937,354.30214 C-24.9161937,352.60214 -32.5001937,352.53014 -30.7281937,354.30214 Z M398.080104,338 C397.308104,343.808 402.480104,338.636 398.080104,338 Z M86,350.240388 C93.2904762,355.403558 94.8714286,347.651476 102,346.72826 C101.290476,342.371072 99.9428571,338.673324 98.5714286,335 C94.6238095,340.334136 88.9714286,343.909765 86,350.240388 Z M-54,341.607897 C-53.0875,343.539789 -52.1416667,345.43497 -49,344.911845 C-47.4375,341.493176 -46.0333333,337.904721 -44,335 C-49.175,335.174375 -52.0708333,337.858833 -54,341.607897 Z M-34,340.345116 C-27.0443159,342.6038 -8.10262799,338.98732 -17.6222153,330 C-20.9318926,335.349287 -28.9404344,336.547597 -34,340.345116 Z M87,327.884 C88.976,328.724 91.312,325.392 88.916,325 C88.692,326.372 87.34,326.616 87,327.884 Z M180.212498,338.092769 C182.919056,327.067194 186.075078,316.488337 190.765142,307.460718 C185.645156,303.906615 178.390213,296.867134 172,301.56503 C173.788087,312.939143 173.382592,319.232458 173.177402,332.197081 C182.010356,341.445604 179.015554,355.98601 179.039982,369.898066 C194.903147,373.069269 202.739463,377.389174 221.25056,376.97191 C225.217573,367.492665 239.234025,357.247618 235.315867,347.518015 C231.045955,347.547469 232.829156,353.649334 227.11314,352.225729 C228.984281,349.000528 231.485648,346.413494 232.975721,342.800483 C220.678958,332.771432 207.874106,323.248006 196.622837,312.168433 C192.670481,319.203004 188.522706,332.290352 183.730046,334.553393 C183.607909,333.232876 185.430194,332.722342 183.730046,332.197081 C180.617993,334.622118 184.106228,338.171313 180.212498,338.092769 Z M222,291.198664 C223.875,296.11763 238.167187,296.414422 240,291.198664 C234.660937,288.829191 224.45625,287.753928 222,291.198664 Z M-134.651229,266.549931 C-135.001054,270.242646 -131.330281,263.551446 -131.200894,267.7316 C-132.839803,272.108698 -133.898864,270.227875 -138.106356,272.458275 C-142.558246,284.713168 -140.981635,286.830324 -139.251675,302 C-134.56497,300.591844 -136.079284,294.6835 -133.501117,290.18331 C-130.247259,284.501452 -124.520661,281.079535 -122,274.821613 C-123.341797,274.624669 -123.250746,272.955561 -123.154904,271.276606 C-129.998068,272.409039 -128.349575,264.802045 -132.351005,263 C-132.456432,264.866052 -135.288582,263.930564 -134.651229,266.549931 Z M220.791191,254.88 C220.931191,253.748 222.499191,252.704 220.791191,252 C220.651191,253.136 219.083191,254.176 220.791191,254.88 Z M228.627829,248.707957 C227.104502,251.892605 225.523327,255.012968 224,258.202561 C237.189313,263.26635 247.915271,270.852144 261.022633,276 C270.514503,269.121357 276.024512,258.163 283,248.707957 C264.734537,240.810621 247.486233,244.287031 228.627829,248.707957 Z M-124,197.16645 C-121.400702,200.496332 -115.267627,192.901322 -117.467732,191 C-119.481848,193.240477 -122.475804,194.376131 -124,197.16645 Z M-132,191.167695 C-122.502564,194.133839 -121.241026,188.484042 -116,185 C-121.34359,187.045911 -130.507692,185.898831 -132,191.167695 Z M-97,182.202146 C-92.2997589,185.180062 -89.2258845,178.921751 -85.0206245,178.112303 C-84.8708823,175.573193 -85.5364032,173.869092 -87.0213466,173 C-90.5319691,175.875671 -93.7971809,179.006956 -97,182.202146 Z M-79.830066,170.066667 C-81.029127,174.458333 -79.2232538,174.736944 -81,178 C-70.6599197,175.969444 -66.7569035,167.6725 -55.3633972,166.666667 C-55.0721273,164.579444 -48.7272987,162.690556 -51.8730133,161 C-61.5528819,163.672778 -71.5531473,166.029167 -79.830066,170.066667 Z M387.087593,159 C386.835342,160.372 385.369678,160.62 385,161.884 C390.258124,161.188 390.192887,160.964 394.394167,161.884 C393.985347,160.228 395.942465,159.42 394.394167,159 C393.472147,160.064 390.197236,159.952 387.087593,159 Z M-57,152.734503 C-54.9471855,152.182503 -50.1410702,153.894503 -50,151.778503 C-53.5559416,152.150503 -55.9395413,149.254503 -57,152.734503 Z M-79.5840134,160 C-77.2803744,154.498363 -70.7731426,153.564751 -68,148.568026 C-71.7604165,146.934207 -74.7924442,144.504912 -79.5840134,144 C-78.6888851,151.854719 -83.1776903,155.360524 -79.5840134,160 Z M-83.2772324,157.50081 C-81.7841863,149.171799 -86.9849636,148.213938 -83.2772324,143.497569 C-87.1342682,144.54295 -84.9544209,139.6953 -86.8605431,138.829822 C-98.4565347,140.045381 -103.06507,134.43436 -111.943718,133 C-116.099363,146.147488 -113.680628,165.397083 -107.16597,175 C-104.801981,172.257699 -98.8497035,173.016207 -95.2216014,171.508914 C-94.7488035,169.495948 -96.9933495,168.518639 -95.2216014,168.003241 C-90.5583207,170.463533 -90.1502214,160.121556 -83.2772324,161.006483 C-84.9942355,157.442464 -86.9302186,151.432739 -83.2772324,157.50081 Z M-70.3477484,123.828134 C-74.0235621,125.044134 -76.1324862,120.068134 -78,122.868134 C-76.7747288,123.792134 -68.1841653,126.036134 -70.3477484,123.828134 Z M-101.75,112.093952 C-107.55,111.276286 -106.769618,116.004342 -109,118.190432 C-100.496354,118.847107 -86.9932292,124.93935 -80,120.224005 C-87.0083333,117.309218 -95.2753472,115.449346 -101.75,112.093952 Z M-76.8181407,116.610256 C-69.4251674,118.528205 -64.0782386,122.523077 -56.2619458,124 C-56.3022619,118.210256 -50.3405119,118.533333 -49,114.153846 C-57.8241964,114.902564 -64.5368347,110.092308 -75.6086563,108 C-75.9966992,110.892308 -77.5186337,112.620513 -76.8181407,116.610256 Z M-98,108.06941 C-91.4724081,110.056778 -87.4076242,114.574382 -80.3230235,116 C-79.7015673,113.545294 -77.6852871,106.719321 -80.3230235,104.675306 C-81.9111893,105.855453 -89.6816936,103.74535 -89.1615117,99.0058783 C-95.233369,98.8264959 -97.2726661,102.772909 -98,108.06941 Z M-52,113.977572 C-52.9759826,100.631739 -67.5972189,101.602698 -73.0923244,93 C-73.7630233,95.8546199 -76.2607986,102.792123 -74.2024468,104.656364 C-68.6934647,100.675432 -58.1473024,114.63297 -52,113.977572 Z M-72.6506511,105.010339 C-74.7044866,105.826751 -67.1221449,110.732197 -65,108.35623 C-69.3080452,108.5865 -68.3426059,104.77658 -72.6506511,105.010339 Z M-88,90.5547493 C-85.384689,93.6657109 -84.0544097,98.0352382 -78.2265195,97.9997856 C-78.9866791,93.3510695 -76.3804177,92.0127356 -77.1405773,87.3640194 C-82.2852288,84.2441947 -84.6607275,86.9740413 -88,90.5547493 Z M-90.3106736,86.836 C-87.7786736,87.124 -87.1546736,85.508 -87.4266736,83 L-90.3106736,83 C-90.2186736,85.616 -91.9066736,84.928 -90.3106736,86.836 Z M297,81.1461622 C284.143551,80.0345119 274.09599,85.2834346 268,96.2259402 C278.485506,100.585543 287.511196,85.2931011 297,81.1461622 Z M-102.257138,105 C-100.143704,101.05302 -97.4797937,97.6888847 -94,95.1785647 C-100.969417,90.5720507 -103.077936,80.8988828 -111.693866,78 C-115.18349,89.9431926 -111.561162,102.540807 -102.257138,105 Z M-36.8852174,82.0571429 C-31.362114,89.9252381 -26.0035075,97.9544048 -15.3510961,100.8 C-13.0232177,104.982976 -7.80418415,106.622976 -1,109 C-17.489554,94.1960714 -27.4391155,78.8113095 -48.8486181,70.3428571 C-47.6423085,70.3330952 -47.3432235,68.2928571 -48.8486181,68 C-53.8483226,73.6863095 -41.2069959,78.1475 -36.8852174,82.0571429 Z M280,72.5518302 C287.65977,73.9121227 289.818966,71.9788453 295.236494,69.3982261 C299.887069,69.721897 293.932184,73.0460844 298.758621,72.5518302 C299.633046,69.3151214 295.539368,70.5310742 296.413793,67.2987393 C299.789368,67.4255832 298.450862,71.7776445 302.275862,71.4977129 C308.098851,69.7131491 310.731897,65.0767824 314,61.0002788 C311.239943,60.9740352 310.546264,62.8110862 306.965517,62.0500222 C305.221552,63.2922186 305.143391,66.0128036 303.448276,67.2987393 C298.533908,67.4605747 300.624713,66.7563718 302.275862,65.1992524 C293.067529,67.819237 287.61092,67.946081 280,72.5518302 Z M-67.1736431,65.1394665 C-62.3256431,61.2754665 -70.5136431,60.6434665 -67.1736431,65.1394665 Z M311.959095,66 C312.315095,64.2597222 317.435095,59.30625 312.915095,59 C314.451095,62.9423611 308.843095,63.9777778 311.959095,66 Z M317,61.884 C319.59889,61.14 323.324774,61.332 324,59 L318.170715,59 C318.219292,60.328 317.616933,61.112 317,61.884 Z M252,60.1440709 C256.368487,60.8160709 257.635682,58.5120709 262,59.1840709 C260.724469,54.4720709 253.254689,58.6240709 252,60.1440709 Z M263.808709,56.1384341 C267.081305,63.9312295 255.40708,60.1777315 254,64.145579 C256.496432,65.7174754 256.564517,69.8377493 259.4513,71 C263.282189,64.3456386 278.492269,63.5596904 276.880936,55 C273.844366,58.7153915 268.656326,56.4861566 263.808709,56.1384341 Z M-85.6201611,52.0226312 C-87.2296275,58.5296797 -93.4171314,60.7654349 -92.9777216,69.1840779 C-82.4063379,67.3582907 -78.523181,73.8415039 -70.9050403,71.4722708 C-69.7298744,66.8434473 -67.3795426,63.3253507 -66,58.8824428 C-73.1174178,57.1329287 -76.1779586,51.6031291 -85.6201611,52.0226312 Z M12.6842105,61 C14.4710526,58.4776342 14.4480263,54.2222443 16,51.4749822 C10.3217105,50.1917507 2.05065789,45.8084786 -5,49.3583116 C0.977631579,53.1594993 5.25592105,58.5878774 12.6842105,61 Z M-62,46.6197908 C-57.0394404,49.4114415 -56.5728531,43.3644584 -52.5700253,42.030776 C-49.8785534,49.401881 -36.0086322,57.4708988 -29,50.0615519 C-36.6274743,44.487811 -40.6499479,35.4006056 -52.5700253,34 C-54.0041673,39.8701148 -61.5677928,39.7697301 -62,46.6197908 Z M260.709677,18 C256.146774,25.59375 234.517742,22.6125 234,30.375 C237.720968,26.9625 235.330645,33.571875 235.156452,36 C248.433871,31.6078125 259.417742,24.9984375 270,18 L260.709677,18 Z M194.618967,14 C189.682967,16.32 197.922967,16.48 194.618967,14 Z M210.128375,-3.83177092 C210.385924,-1.68008403 208.868728,-1.31909462 209.009209,0.718595618 C209.880192,0.979837956 211.22881,0.756594503 211.256907,1.86331204 C210.385924,2.11980452 209.037305,1.89656107 209.009209,3.00327861 C212.174717,6.07643847 213.616989,0.979837956 218,1.86331204 C216.904247,-0.825109106 217.634749,-5.36597592 213.504604,-4.97648735 C213.312614,-3.64652636 211.725177,-3.73677371 210.128375,-3.83177092 Z M22,33 C19.8588897,18.3390906 17.3165938,4.13769509 13.6274303,-8.7964097 C13.3963125,-9.70092638 12.7509269,-10.1459292 11.5342879,-9.95728672 C8.73907062,6.90445199 17.6087616,20.2932336 22,33 Z M101,-2.00416667 C104.238095,-1.82916667 105.761905,-0.166666667 109,2.84217094e-14 C108.409524,-5.675 109.7,-7.47916667 106.714286,-10 C105.457143,-6.7625 101.233333,-6.12916667 101,-2.00416667 Z M120.094759,-6.04843648 C124.078759,-5.46815904 122.590759,-10.2591677 121.054759,-12 C120.246759,-10.6212211 119.790759,-8.80599425 120.094759,-6.04843648 Z M131.466226,-3 C132.458123,-4.75416667 133.486255,-6.475 136.901283,-5.99583333 C137.123214,-10.2041667 137.290795,-14.3583333 133.640248,-15 C132.933691,-11.6083333 129.840238,-5.2125 131.466226,-3 Z M49.5879493,-8.90829891 C45.0609481,-10.6864839 38.2024657,-13.2108283 32.6683452,-14.7176827 C29.0729293,-15.7061016 25.1602709,-22.1695861 23,-17.0482194 C27.5471436,-7.14949466 34.7027262,10.1720624 38.7110609,19 C46.9039764,15.1771445 44.9199514,4.77451986 52,-1.93122418 C51.0382011,-4.10186965 49.9857614,-6.19014688 49.5879493,-8.90829891 Z M121.955763,-16.8033232 C123.483384,-24.4361171 123.891283,-10.8516654 124.839048,-14.702995 C125.458895,-18.877452 124.311179,-21.1175111 121,-20.9952466 C121.163959,-19.4232754 120.656085,-17.1264507 121.955763,-16.8033232 Z M210.592268,-6.47695594 C209.292906,-6.28289893 207.465533,-6.68633323 207.286469,-5.25133275 C210.495849,-1.82469458 212.75022,-6.37992743 215,-7.70257913 C214.623506,-18.707654 209.655625,-21.8738473 211.694201,-30.9894197 C208.930186,-31.198797 209.017422,-28.2419811 207.286469,-27.3125502 C207.736425,-23.6254671 207.575727,-17.5994864 205.078012,-13.8306951 C206.381966,-13.6417448 208.209338,-14.0400724 208.388402,-12.5999651 C206.657449,-12.4876163 204.568368,-12.7735951 205.078012,-10.1538255 C207.180867,-9.14268638 206.156988,-8.58094241 210.592268,-6.47695594 Z M182.964,-44.0533017 C183.016,-44.6373017 183.108,-45.1893017 183.924,-45.0133017 C183.816,-46.1853017 183.636,-47.2853017 182,-46.9333017 C182.152,-45.8013017 181.836,-44.2093017 182.964,-44.0533017 Z M183.017054,-48.7615738 C184.293054,-45.9535738 180.189054,-54.9855738 183.017054,-48.7615738 Z M199.01491,-55.9291113 C199.87491,-56.0811113 199.50691,-61.2371113 198.05491,-57.8491113 C197.80691,-57.2771113 198.44691,-55.8251113 199.01491,-55.9291113 Z M173.713579,-39.1463023 L173.713579,-33.2238239 C171.065066,-26.3249503 176.392711,-41.2914131 179.832207,-35.595774 C178.388027,-33.8994105 173.341052,-33.3520374 179.832207,-33.2238239 C175.162862,-28.3911605 179.944475,-21.4676304 178.612564,-13.1041638 C187.037796,-8.66600354 187.900222,-2.05807597 189.635279,7.01549621 C192.043946,7.36561775 192.064358,5.41282721 193.309517,4.64354609 C193.253383,6.27087154 193.886168,7.24726681 194.534263,8.19407434 C192.191936,8.69213455 189.262752,8.6230965 189.635279,11.7446026 C191.079458,13.1105697 193.962715,13.080982 196.983755,12.928112 C195.626328,9.2197825 196.192773,9.59456048 199.433247,8.19407434 C195.733494,0.797140494 201.147892,-9.2331018 201.88274,-20.2101516 C202.423669,-28.3122598 201.005005,-46.1733894 199.433247,-49.797887 C197.029683,-55.3307935 189.788372,-62.022553 183.511548,-64 C178.760554,-56.2776011 187.772644,-44.9701549 179.832207,-37.9627929 C176.453948,-37.4548701 178.68911,-42.3762967 176.163071,-42.6918992 C176.224309,-40.6602081 175.218996,-39.6591564 173.713579,-39.1463023 Z M198,-64.2909895 C194.23186,-62.6909895 193.095913,-67.8589895 192,-65.2509895 C194.512093,-64.6549895 196.513761,-60.3269895 198,-64.2909895 Z M173.84,-67.9031964 C172.052,-66.9831964 170.628,-70.7791964 170,-67.9031964 C170.592,-67.6231964 173.696,-65.5151964 173.84,-67.9031964 Z M157.930662,-30 C161.588674,-44.4674242 154.95443,-54.7935606 151.637309,-69 C146.668182,-54.5473485 154.250799,-43.2363636 157.930662,-30 Z M196.605507,-68 C196.389507,-69.6919206 197.577507,-72.7811686 194.689507,-71.8177691 C192.913507,-70.1377914 194.937507,-68.8638748 196.605507,-68 Z M129.249817,-72 C132.657817,-66.9208033 126.561817,-62.1417203 130.209817,-60 C130.997817,-64.1197423 136.133817,-71.0269041 129.249817,-72 Z M133.344829,-66 C130.83866,-62.9460784 130.930031,-54.7107843 124.990933,-58.9411765 C125.569614,-52.1372549 129.924953,-56.9901961 132.300592,-57.7696078 C131.682751,-55.3431373 130.290435,-52.8676471 128.123644,-55.4117647 C127.09246,-50.2058824 127.962657,-52.3333333 129.167881,-48.3529412 C127.697247,-45.6421569 120.4398,-43.3529412 123.946696,-38.9411765 C128.728431,-42.7058824 122.11493,-28.4803922 126.03517,-26 C127.375274,-29.1911765 129.137424,-31.9166667 133.344829,-31.877451 C135.011257,-45.1862745 136.033739,-51.8921569 133.344829,-62.4656863 C133.244756,-60.622549 133.48406,-58.3872549 131.256355,-58.9411765 C131.077964,-61.6029412 136.277394,-64.1127451 133.344829,-66 Z M198.296743,-74.6731358 C191.812743,-75.5971358 201.448743,-74.2211358 198.296743,-74.6731358 Z M191.039663,-72.116 L193.919663,-72.116 L193.919663,-75 L191.999663,-75 C191.947663,-73.772 190.771663,-73.672 191.039663,-72.116 Z M110.327053,-21.0909932 C112.676435,-23.6881847 110.01117,-25.7748595 110.327053,-27.0387599 C110.37641,-27.2469317 112.627078,-26.8256316 112.696178,-27.0387599 C115.52432,-35.4201545 111.990376,-44.5698022 117.434426,-54.3984866 C117.459104,-57.1988934 115.391056,-57.9027125 116.249864,-61.5308502 C121.767949,-60.4850345 115.450284,-65.4514197 118.614052,-65.1044666 C118.683152,-64.3758652 118.796672,-63.6968285 119.80355,-63.9149133 C117.819409,-69.4512928 121.225025,-70.4871955 120.988112,-77 C110.929206,-75.0521064 115.716811,-65.5654186 107.957929,-61.5308502 L107.957929,-54.3984866 C98.2395843,-36.758402 94.44405,-22.5333267 89,-4.43724653 C93.4322365,-5.7110599 92.3809376,-1.48318908 96.1123082,-2.05318339 C99.0737135,-10.5237944 105.391378,-15.6339173 110.327053,-21.0909932 Z M172,-71.0540977 C171.080839,-71.2779912 169.654897,-71.083121 169.620118,-72.0450336 C169.615149,-73.0442618 170.583995,-73.2308397 170.812543,-74.0393438 C163.971003,-72.4555049 170.544247,-80.7437089 164.850416,-82 C160.905476,-77.8206555 164.219425,-75.9631691 166.042842,-71.0540977 C169.004031,-72.3435582 170.991407,-68.1351905 172,-71.0540977 Z M146.973529,-68 C152.455808,-71.4527467 149.255851,-83.2207758 146.973529,-87 C143.683377,-81.647748 150.044076,-72.234314 146.973529,-68 Z M98.1340173,-96.9463179 C92.8554077,-92.1282721 93.5826614,-85.4578898 90.0427179,-73.2994678 C89.9463929,-72.97925 87.885038,-72.5703565 87.7261018,-72.1171253 C85.7225419,-66.082252 84.0031408,-57.6629881 83.1025021,-52.0173027 C80.6413986,-36.4596459 73.6385716,-20.3305235 81.9514185,-13 C82.6931209,-20.6753734 91.935504,-36.5039837 94.6663175,-46.1055901 C95.8896449,-50.4162139 94.3917913,-60.2395095 98.1340173,-54.3819877 C99.8919484,-58.3723936 100.590305,-59.6434118 98.1340173,-63.8407277 L101.601717,-63.8407277 C103.846089,-74.5507802 109.606324,-81.6596146 112,-92.2169478 C108.37818,-95.6703732 105.059784,-100.040114 98.1340173,-96.9463179 Z M185.555545,-97.9269351 C177.931545,-97.4189351 190.255545,-98.2389351 185.555545,-97.9269351 Z M178,-102.08 L179.916,-102.08 L179.916,-104 L178,-104 L178,-102.08 Z M186,-91.3968697 C180.366146,-95.9876351 177.642361,-103.331905 167.869965,-104 C167.628299,-98.5073067 159.366319,-100.607033 157,-97.1281682 C158.807465,-96.9325119 161.455729,-97.5337972 161.833333,-95.9828629 C160.403472,-95.4245266 159.08941,-94.761204 158.208333,-93.6922524 C161.037847,-93.3200281 159.381424,-88.695858 161.833333,-87.970498 C162.71441,-90.5665233 165.468403,-91.3873255 167.869965,-92.542175 C173.498785,-90.5426628 176.47934,-90.5569791 179.958333,-86.8204206 C179.444792,-87.3739848 179.65625,-79.8770073 182.369965,-84.52981 C181.705382,-84.5250379 181.005556,-85.4555985 182.369965,-85.6751153 C183.074826,-83.6278821 185.380729,-89.5882417 186,-91.3968697 Z M-211.253968,363.757044 C-209.062037,364.016213 -208.699934,362.461199 -206.619048,362.605182 C-197.054696,370.864996 -180.774537,372.635985 -168.380952,371.820083 C-168.390608,371.820083 -167.927116,369.679538 -167.222222,369.516357 C-161.756878,368.210913 -153.235384,371.901673 -151,367.217432 C-155.842526,366.396729 -155.461111,361.237345 -157.952381,357.997731 C-164.156415,349.939492 -174.425661,344.991283 -181.126984,338.420866 C-185.539815,334.086983 -190.768585,329.441138 -197.349206,326.897441 C-198.136177,328.174089 -201.197156,332.872728 -201.984127,330.353029 C-200.284656,327.641352 -199.541138,328.212484 -200.825397,324.593716 C-210.186971,322.577956 -220.412765,318.546437 -224,328.054103 C-217.935979,331.370507 -210.78082,336.664276 -205.460317,337.269004 C-205.658267,334.379749 -203.683598,333.659834 -201.984127,332.656754 C-202.481415,334.850092 -204.480225,335.550809 -204.301587,338.420866 C-202.365542,340.331039 -195.842857,337.686554 -196.190476,341.871655 C-201.153704,342.193216 -201.921362,338.353674 -207.782606,339.56793 C-210.244907,348.120509 -216.144775,357.076241 -211.253968,363.757044 Z M-30.4858017,430.736372 C-31.8765487,435.418416 -36.3338191,430.143708 -39.9212583,433.107027 C-43.7937269,426.928507 -54.6248447,431.230258 -56.4382215,428.365716 C-54.5167301,428.721315 -53.2537549,426.765524 -55.2538752,426 C-58.0648549,427.377943 -61.5982368,431.590795 -63.5098996,427.180389 C-62.468068,431.087031 -69.2891168,433.102088 -65.8736781,435.482621 C-65.5886487,434.188638 -63.9276152,432.637835 -63.5098996,434.297294 C-67.6428262,443.187251 -80.5674359,454.368842 -78.8425165,466.296201 C-77.8891423,472.924158 -71.1762081,472.716726 -70.5864921,480.520133 C-52.3003807,483.868683 -34.9185006,469.022455 -24.5886414,456.81358 C-27.9254513,455.480086 -31.2032896,464.360166 -36.3878764,465.115812 C-25.237329,453.682339 -11.8458607,438.554595 -1,430.736372 C-9.16756708,426.558092 -27.96968,436.766726 -30.4858017,430.736372 Z M333.56,122.667464 C340.5826,118.950621 348.500667,117.946069 355.752,114.626263 C362.414467,111.574338 368.872533,106.522876 375.608,103.150451 C390.8212,95.5254224 406.024667,90.0673559 418.824,82.4805956 C421.666133,80.7967749 425.126333,78.8833423 427,75.5970218 C419.928733,74.6881413 414.079,75.3147905 408.312,74.4489623 C404.204533,73.8223131 404.452733,72.0906566 402.467133,74.4489623 C402.116733,74.8603503 400.428,73.2961191 400.136,73.2961191 C390.125267,73.2961191 377.7834,74.4489623 373.267133,71 C362.604267,77.7544171 324.459333,75.9414397 314.867133,80.1844765 C307.5866,83.4086104 308.384733,90.3400201 303.192,95.1092508 C302.890267,91.7511766 305.829733,91.5837513 305.528,88.2161099 C296.845867,91.3302214 287.5992,93.3297585 281,100.849549 C287.4386,101.968907 288.1832,91.3971916 292.68,97.40537 C289.239267,97.759355 292.451267,100.959571 285.667133,99.7014891 C289.983867,107.795309 298.3156,105.604429 303.192,110.034025 C310.063733,116.286166 306.175267,126.102075 313.704,133 C320.8288,130.74215 326.839133,126.216881 333.56,122.667464 Z M110.24179,-142.139189 C111.374174,-142.109987 111.145753,-140.7083 111.408195,-139.798176 C113.172382,-150.335168 113.979145,-151.347497 116.073814,-163.164502 C120.962995,-164.88741 123.898447,-168.561973 130.070673,-169 C131.543259,-163.354314 134.750873,-163.76314 133.569888,-160.828356 C138.81385,-160.156714 133.249127,-155.912716 139.401913,-156.156064 C139.387332,-153.834519 136.218599,-154.666771 137.069103,-151.483773 C142.094364,-157.212197 137.642585,-145.512 144.067532,-143.307262 C138.77011,-139.043796 147.139065,-139.32608 144.067532,-135.130751 C144.572974,-133.39811 145.559558,-135.588247 147.561887,-135.130751 C144.125852,-131.572996 145.617879,-127.538277 149.899557,-125.786168 C149.486455,-123.95132 147.843768,-126.803364 147.561887,-124.618095 C148.835212,-120.228087 150.511919,-120.685582 153.398771,-119.940936 C151.765805,-108.615495 155.119219,-108.041193 158.064391,-100.083696 C163.920716,-102.789731 165.266941,-110.002582 170.894845,-112.937365 C175.507005,-114.446126 173.271395,-109.092458 177.893275,-110.596352 C173.227655,-114.193044 179.015939,-112.241388 181.387629,-110.596352 C177.329512,-107.301413 184.925724,-105.709914 184.891704,-101.251769 C185.829688,-102.259232 188.084738,-101.947745 188.390919,-103.592781 C187.336294,-106.780647 185.781088,-100.035026 183.725299,-103.592781 C187.491815,-105.65151 190.96187,-110.24593 188.390919,-115.273511 C193.605721,-117.71673 197.313916,-114.626204 202.387778,-116.446451 C205.585671,-110.45521 203.578483,-102.789731 205.882133,-101.251769 C205.935593,-98.2683156 205.021909,-99.8306132 203.554183,-100.083696 C204.696288,-96.9542335 202.97098,-90.9386578 208.219802,-91.9071849 C202.97584,-88.2277551 211.169835,-88.5927779 208.219802,-84.9036142 C207.082558,-84.932816 207.310979,-86.3296366 207.053398,-87.2446271 C205.464171,-78.6982266 208.603744,-66.8130843 207.053398,-53.3656444 C207.228358,-51.2047094 210.999734,-52.6501997 211.719017,-51.0294985 C212.146699,-49.0437744 210.805333,-48.8247608 209.386207,-48.6933526 C212.924302,-44.6732348 214.197628,-40.8964656 212.885422,-37.012623 C220.544814,-28.7533738 219.227749,-14.790035 223.383066,-5.47465321 C238.210989,-6.7692674 244.611636,-15.2377963 253.709594,-19.4915287 C252.280748,-23.0492842 249.257815,-17.783222 247.87757,-20.6596016 C248.295531,-23.745261 250.676941,-24.8597973 254.871139,-24.1638205 C250.983123,-21.7838718 253.947735,-21.6427297 258.375214,-21.8276746 C263.298414,-24.3877011 256.095864,-27.8773191 260.708024,-27.6680394 C260.246322,-30.2962035 253.432573,-27.4928284 257.208809,-31.1722582 C259.633959,-32.4814733 259.682559,-32.4328036 258.375214,-30.0041853 C263.954517,-28.6998371 263.298414,-33.6398123 268.867998,-32.3354642 C270.476665,-28.8020435 268.318816,-28.1644704 268.867998,-22.9908806 C263.196354,-21.258239 257.762851,-13.1255311 251.376784,-15.9873098 C249.670917,-14.5758883 250.25412,-10.8818576 245.54476,-12.478224 C245.55934,-8.99833996 254.185876,-14.132994 252.543189,-8.97887207 C246.613964,-8.2780283 243.595891,-9.98146803 242.045545,-6.64272616 C245.083058,-5.69366689 252.67927,-7.75239547 256.042404,-7.81079912 C251.610065,-10.4243624 257.962112,-10.0350047 257.208809,-12.478224 C260.188001,-12.5366276 258.632795,-11.6119032 258.375214,-10.146945 C261.184306,-9.66511494 260.912144,-12.2786782 264.202378,-11.315018 C264.017698,-12.6826367 262.078549,-12.2981461 260.708024,-12.478224 C264.294719,-14.0356546 270.870326,-16.0067777 271.205668,-12.478224 C274.00018,-12.0158618 270.559285,-17.8026899 274.704883,-15.9873098 C278.76786,-14.9117093 275.297805,-12.964921 278.204097,-10.146945 C263.492815,-13.6852327 254.389997,-2.15537923 238.54633,-4.30171328 C236.07258,-0.938636564 231.193119,0.0104227121 226.882281,1.53378452 C226.099818,10.8881021 231.849222,13.6914772 233.880711,20.2229518 C254.273356,15.7307379 277.747255,14.3144494 293.362501,5.03800339 L293.362501,9.71029521 C299.218826,10.742093 304.127446,6.44455791 308.530625,9.71029521 C308.302204,6.54189732 316.306658,8.23560311 321.361079,5.03800339 C321.715861,7.72943816 317.993085,6.33748455 317.857004,8.54222226 C318.960229,11.7203541 323.742489,11.2190561 327.188244,12.0464411 C328.242868,15.2781096 330.254917,17.546118 333.025128,19.0548789 C331.669183,21.5808366 333.39935,30.6772048 330.692318,35.4127672 C330.945039,34.9698729 323.353687,39.3355455 329.525914,38.9121191 C322.119242,41.9588427 329.107952,31.3342458 328.359509,26.0681836 C327.717986,21.5516348 324.719353,21.9799282 324.860294,17.8868059 C320.423095,17.2687006 317.186322,15.4484536 313.191385,14.382587 C307.801622,17.5509849 304.657189,22.9630563 298.028121,24.9001106 C299.306306,19.1668192 306.907378,19.7654566 308.530625,14.382587 C306.095755,9.46207971 297.78026,15.0785638 294.533766,16.7235999 C292.332177,16.5873247 293.727003,12.8592252 291.034551,13.2145141 C294.203285,19.0208101 287.107655,28.7401504 280.536907,31.9036814 C263.842737,29.7670813 258.550174,46.5921988 242.045545,48.2567027 C244.971277,50.3884359 246.856965,53.5568338 249.043974,56.4332134 C252.066907,56.3699428 254.710758,51.867995 254.871139,51.7609216 C258.030152,49.6583903 264.061438,50.8897339 265.373643,43.5844109 C271.487549,44.392328 279.268442,37.437427 282.869717,31.9036814 C289.809826,31.8452777 290.529109,25.5620186 296.866576,24.9001106 C288.3178,34.2495612 277.596595,41.418609 266.540048,48.2567027 C280.964589,46.6165336 305.823594,40.8005037 319.028269,37.7440461 C318.974809,42.085384 324.733933,40.591224 324.860294,44.7573508 C333.909652,42.6110168 344.208035,44.3339244 352.854012,45.9254238 C352.54297,56.331007 339.532696,61.4656611 331.858723,68.113943 C344.242056,70.5717632 362.758734,69.5107636 377.348515,69.2820159 C390.771892,69.0824701 404.059188,68.7904519 415.839877,70.4500889 C422.721666,71.4186161 431.620364,71.8955792 435.668761,77.4585266 C431.275302,80.0672229 426.915864,82.709988 421.671902,84.4718313 C421.127579,81.9750754 423.338889,82.2476257 425.171116,82.1308185 C418.352508,80.383576 410.129353,87.2995413 405.337373,91.4754021 C377.149254,102.961453 349.99632,119.08086 322.522624,132.362823 C318.080565,134.509157 310.965495,133.404354 309.69703,140.534466 C316.554519,143.814804 321.346499,136.713894 328.359509,135.862174 C331.372721,135.497152 334.347054,137.142188 337.690748,137.030247 C355.944985,136.43161 373.450779,137.147055 384.346944,149.87905 C401.687498,152.400141 418.97945,155.661011 442.66719,154.551342 C440.30522,156.950758 443.143472,156.887488 445,158.055561 C442.915051,160.737261 441.860427,162.873861 439.163115,163.895925 C434.643296,165.613966 429.598595,162.484504 425.171116,162.732719 C416.267559,163.214549 407.718783,169.166855 399.510208,166.232071 C397.945282,167.001053 397.337779,168.728827 397.177399,170.90923 C392.210458,170.213253 389.464546,171.741482 385.508489,172.077303 C383.37494,170.31546 379.754225,170.05751 377.348515,168.568217 C369.995304,177.562379 352.013228,175.902742 345.855582,186.089311 C346.608885,187.276852 348.538314,187.29632 348.188392,189.59353 C368.274857,196.436491 381.153911,212.380687 379.681325,237.484522 C369.815483,249.403733 346.030543,247.393674 333.025128,256.173689 C350.501762,279.335602 373.8736,305.841124 389.012564,323.92192 C382.242556,324.447553 380.308267,315.852483 376.17725,311.073118 C365.081823,298.238916 348.859075,283.78888 335.357938,272.52671 C336.227882,268.930019 332.155185,270.27817 333.025128,266.686345 C328.898971,262.637026 324.00007,259.371289 321.361079,253.837543 C311.99096,255.424175 305.080011,248.654219 296.866576,245.661032 C281.382551,249.63248 293.785323,268.010161 286.368932,280.703221 C287.826938,285.86221 292.025996,288.276227 294.533766,292.379083 C307.539181,296.486807 320.282155,300.862213 328.359509,309.905045 C341.632225,310.080256 355.736004,318.923541 366.850871,325.089993 C378.801661,324.797975 385.124548,330.151643 394.844589,332.098431 C392.312518,331.129904 392.249338,327.688956 389.012564,327.431006 C392.025777,323.941388 394.455787,329.640611 396.010994,330.930358 C400.836994,334.940742 407.587562,340.396616 408.841448,347.288246 C404.472289,343.998174 404.520889,352.846327 399.510208,348.451452 C397.6391,353.045873 404.54519,348.855411 404.175828,351.955671 C403.913387,356.735036 396.195674,351.269428 396.010994,348.451452 C373.72294,352.74412 358.107694,334.629256 335.357938,332.098431 C336.427143,328.730487 328.393529,328.389799 326.026699,327.431006 C316.559379,323.576365 306.489416,317.779803 295.700171,312.241191 C291.010251,317.804138 293.829063,325.051057 292.200956,330.930358 C288.798942,343.209725 278.93796,351.965405 273.538478,361.300255 C275.132564,369.043605 280.590367,372.932315 286.368932,376.49007 C286.456412,385.917392 280.065485,388.866777 272.372073,390.502079 L272.372073,386.99786 C267.677293,389.368075 260.358102,385.002402 254.871139,388.165933 C242.886328,399.131218 236.675222,415.888198 222.216661,424.381061 C221.823,429.048486 218.071064,430.347967 217.551042,434.893718 C209.90623,435.40475 206.499355,440.179248 204.720588,446.569581 C203.354922,446.384636 203.734004,444.442714 203.554183,443.065362 C197.100076,446.725324 188.522139,448.263286 184.891704,454.750958 C165.344702,456.040705 138.77983,454.531945 124.238649,441.897289 C118.712805,448.730516 114.032606,455.617279 104.409765,454.750958 C84.9599631,452.993982 79.5361803,412.714933 75.2496422,397.510516 C62.5601288,399.992671 57.1071858,409.712012 44.9231145,412.695465 C45.773618,416.725317 48.4320492,413.47418 50.750279,412.695465 C42.8624658,420.229535 32.238461,429.248032 20.4286113,439.561143 C19.1309858,440.700014 19.4566072,442.71494 18.0958014,444.238302 C15.9962726,446.569581 -2.57386565,459.63253 -6.39870176,460.586456 C-9.39247438,461.335969 -12.0897857,460.026754 -14.5635362,460.586456 C-15.8320015,460.878474 -15.3557195,462.908001 -16.896346,462.927469 C-21.7369264,463.871661 -21.2800845,459.520589 -23.8947755,458.25031 C-34.7909414,467.302876 -51.8933534,485.03325 -68.2181622,483.952782 C-72.6942411,483.65103 -78.3027047,481.767512 -81.0534763,475.771404 C-81.8407996,474.048497 -83.3765661,467.726302 -83.3814261,467.590027 C-83.595267,462.173088 -81.0583363,452.862574 -78.7158064,447.737654 C-75.1096712,439.83856 -67.2558782,432.289889 -64.7189475,426.71234 C-63.9753643,425.081905 -67.8147805,422.779828 -63.5525426,423.208121 C-68.5923838,418.039399 -75.8095142,419.728237 -82.2150212,423.208121 C-84.3339901,424.361593 -85.247674,426.615001 -86.8806408,427.880413 C-87.5124435,428.371977 -89.8646934,427.29151 -90.3847156,427.880413 C-91.5997207,429.2675 -92.9653865,429.871004 -97.3782851,431.384632 C-106.699804,434.577365 -119.817,439.979702 -131.204028,432.552705 C-127.179931,430.596183 -131.485909,429.47678 -131.204028,427.880413 C-129.945282,420.730833 -118.130572,414.160423 -110.213599,408.023173 C-107.681528,406.061784 -107.093466,401.934593 -103.21031,403.350881 C-117.386989,392.628945 -128.448396,378.78728 -146.367291,371.812911 C-165.855974,375.531277 -190.501137,378.5634 -205.853942,368.308693 C-206.864826,373.603957 -200.026778,371.04393 -200.021918,375.321997 C-206.534345,374.825566 -209.907199,371.20454 -214.018776,368.308693 C-214.135417,358.350871 -214.465898,344.596812 -207.025207,339.106869 C-209.746818,336.736654 -217.26041,333.062091 -219.850801,334.434577 C-220.385403,329.660079 -221.585828,332.580261 -226.854091,330.930358 C-229.12372,312.581879 -204.332756,311.662021 -193.023488,321.580907 C-191.988304,321.069875 -190.938539,320.56371 -190.690678,319.249628 C-189.708954,323.707774 -185.840378,324.729837 -182.530704,323.92192 C-181.223358,326.63769 -182.773705,327.051382 -180.193034,329.762285 C-178.560067,329.348593 -180.095834,327.703556 -181.359439,327.431006 C-175.260113,328.345997 -165.569232,335.743792 -160.36415,341.443015 C-150.80935,333.013421 -154.901487,315.964423 -142.868077,308.741839 C-147.096295,304.784992 -142.323754,296.068247 -148.704961,294.720096 C-144.471883,290.802185 -148.836182,286.660393 -148.704961,281.871294 C-149.715846,278.420612 -150.449709,284.582196 -153.370581,283.039367 C-147.480236,279.301533 -145.497348,266.837222 -140.535267,258.514702 C-137.964316,254.187965 -137.050632,248.532545 -142.868077,244.492959 C-141.424651,243.247015 -139.475782,245.753505 -137.036052,245.661032 C-143.5825,231.731762 -132.185752,224.879068 -127.704813,215.291135 C-136.59379,209.567578 -143.68942,206.194767 -152.199316,212.954989 C-149.613785,210.867059 -148.656361,207.163294 -144.039342,207.114625 C-152.111836,203.5228 -159.056805,198.796972 -168.533845,196.601968 C-169.65165,186.133114 -161.856177,184.595151 -156.864936,180.248947 C-141.473251,185.505275 -123.792496,177.630517 -112.541549,174.408582 C-120.254401,161.18989 -115.360361,142.208704 -116.040764,132.362823 C-133.196636,125.37872 -151.548073,121.723625 -168.533845,117.16814 C-170.997875,110.923817 -168.446364,106.553277 -165.02977,103.160999 C-146.333271,107.404997 -129.221139,113.240495 -111.375144,118.34108 C-109.188135,117.026998 -108.896534,113.814797 -106.709524,112.505582 C-113.965535,104.83037 -126.834869,97.3693035 -126.538408,84.4718313 C-126.426627,79.2885076 -120.978544,77.1616414 -123.039193,71.6181619 C-119.360158,64.9212102 -110.636421,67.938732 -102.043905,68.113943 C-104.371855,53.7271778 -85.9961171,35.4955057 -67.0517573,42.416338 C-59.4215252,34.4831758 -63.4553421,14.8692841 -50.7220885,12.0464411 C-36.3267079,19.4296356 -24.3564774,29.2511824 -14.5635362,41.248265 C-4.85807527,36.2304183 5.79022959,37.1697436 18.0958014,36.5759732 C13.8821637,31.5921952 13.9404839,29.475063 9.93096703,24.9001106 C16.4531145,28.8228889 9.34290456,17.5947877 5.26534738,17.8868059 C10.8592309,16.5094532 6.16445116,11.5938129 4.09894246,10.8783682 C5.13898684,0.59445919 -1.25194008,-11.5875683 8.76456212,-18.3234557 C2.54373591,-31.712492 -5.43641771,-48.8588296 -18.0627509,-59.2060092 C-19.9435788,-59.5320962 -20.0747994,-58.1012068 -21.5619656,-58.0428032 C-31.5687478,-44.3422808 -39.8016225,-25.1810174 -40.2244443,-5.47465321 C-47.4901749,-7.23649658 -42.0420919,-10.4000275 -41.3908492,-15.9873098 C-48.6662998,-20.6888035 -39.1260796,-37.3630449 -41.3908492,-39.3487689 C-44.1319007,-39.3633698 -40.9680274,-42.5366347 -39.0580394,-41.6800479 C-38.8296184,-57.4246979 -27.2676297,-61.8049715 -22.7332306,-73.2228846 C-18.5293129,-72.8140591 -17.1053269,-71.4318394 -13.3971312,-73.2228846 C-1.01379908,-59.7462429 10.402389,-43.7241755 16.9293965,-27.6680394 C31.8399393,-32.3305972 48.7722507,-21.2874408 63.5855931,-18.3234557 C65.4858611,-20.7034044 66.0350434,-24.4363709 68.2512127,-26.4999664 C71.9205282,-27.059668 72.8099119,-24.8354624 75.2496422,-24.1638205 C74.5886794,-27.7021082 77.3929113,-33.8247572 77.5824521,-37.012623 C77.6359123,-37.9081456 75.2642223,-38.2634345 75.2496422,-38.180696 C75.9397651,-41.8844606 83.0839952,-44.3520147 77.5824521,-48.6933526 C80.425564,-52.1586357 81.2614876,-57.2689548 82.2480717,-65.0463739 C80.5373445,-65.0463739 81.7086094,-62.6712923 81.0816668,-61.5372881 C79.1182185,-58.0087344 75.3808628,-48.450004 72.9168324,-40.5168419 C72.114929,-37.9373474 74.9726211,-31.9704414 69.4176177,-32.3354642 C70.0931605,-35.2313117 73.6409754,-41.2517544 70.5840226,-44.0210607 C75.9835053,-48.6300819 77.9858338,-60.0869308 81.0816668,-70.8818717 C83.0645551,-71.3150321 83.2832561,-69.9766152 83.4144766,-68.5505928 C83.7838382,-78.0411856 90.2136453,-87.0402143 92.7457159,-97.7524167 C93.6836999,-97.1343114 94.6411239,-96.535674 96.2449307,-96.5843437 C91.5064107,-98.8766869 97.0711342,-100.954883 97.4113356,-104.760854 C100.040607,-107.505826 96.4441915,-101.689796 97.4113356,-98.9204896 C101.027191,-102.307901 101.245892,-109.097325 107.90898,-109.433146 C110.38273,-105.685579 115.874553,-104.950666 117.240219,-100.083696 C121.342076,-101.826071 120.904675,-108.099596 123.067384,-111.769292 C128.656407,-113.793952 132.340303,-107.90005 134.736293,-110.596352 C140.140636,-102.434442 141.759022,-95.5233441 145.233937,-87.2446271 C149.675996,-93.5716889 142.697006,-105.685579 139.401913,-115.273511 C135.815217,-125.693695 134.211411,-137.768649 127.737863,-143.307262 C130.119273,-146.271247 125.594594,-149.809535 125.405054,-153.819919 C119.956971,-152.267355 122.668862,-142.543148 113.736144,-144.475335 C114.98517,-143.385133 114.105506,-140.168066 117.240219,-140.971116 C116.311955,-138.338085 109.420446,-137.121342 110.24179,-142.139189 Z" fill="#656E8D" mask="url(#mask-6)"></path>
            </g>
            <rect id="Rectangle-4" fill="#434C68" x="20" y="66" width="80" height="12" rx="2"></rect>
            <rect id="Rectangle-4-Copy" fill="#7C84A0" x="20" y="104" width="146" height="10" rx="2"></rect>
            <rect id="Rectangle-4-Copy-2" fill="#7C84A0" x="20" y="134" width="146" height="10" rx="2"></rect>
            <rect id="Rectangle-4-Copy-3" fill="#7C84A0" x="20" y="164" width="146" height="10" rx="2"></rect>
            <rect id="Rectangle-4-Copy-4" fill="#7C84A0" x="20" y="194" width="146" height="10" rx="2"></rect>
            <rect id="Rectangle-4-Copy-6" fill="#7C84A0" x="20" y="260" width="146" height="10" rx="2"></rect>
            <rect id="Rectangle-4-Copy-7" fill="#7C84A0" x="20" y="290" width="146" height="10" rx="2"></rect>
            <rect id="Rectangle-4-Copy-5" fill="#7C84A0" x="20" y="224" width="94" height="10" rx="2"></rect>
            <g id="x" transform="translate(162.000000, 20.000000)" stroke="#FFFFFF" stroke-linecap="square" stroke-width="4">
                <path d="M0,0 L9.01086443,9.01086443" id="Line"></path>
                <path d="M9.01086443,0 L0,9.01086443" id="Line-Copy"></path>
            </g>
        </g>
        <g id="default" transform="translate(516.000000, 278.000000)" fill-rule="nonzero">
            <g id="Combined-Shape">
                <use fill="black" fill-opacity="1" filter="url(#filter-8)" xlink:href="#path-7"></use>
                <use fill="#FFFFFF" fill-rule="evenodd" xlink:href="#path-7"></use>
            </g>
            <polygon id="Shape" fill="#000000" points="15.502 32.018 11.814 33.566 5.614 18.818 9.296 17.268 15.502 32.018"></polygon>
            <polygon id="Shape" fill="#000000" points="2 4.814 2 27.19 7.938 21.458 8.794 21.18 18.33 21.18"></polygon>
        </g>
    </g>
</svg>