<?xml version="1.0" encoding="UTF-8"?>
<svg width="840px" height="480px" viewBox="0 0 840 480" version="1.1" xmlns="http://www.w3.org/2000/svg" xmlns:xlink="http://www.w3.org/1999/xlink">
    <!-- Generator: Sketch 49 (51002) - http://www.bohemiancoding.com/sketch -->
    <title>animated-sign-up-flow-featured</title>
    <desc>Created with Sketch.</desc>
    <defs>
        <path d="M6,0 L184,0 C187.313708,-6.08718376e-16 190,2.6862915 190,6 L190,322 L0,322 L0,6 C-4.05812251e-16,2.6862915 2.6862915,6.08718376e-16 6,0 Z" id="path-1"></path>
        <filter x="-14.7%" y="-9.9%" width="133.7%" height="119.9%" filterUnits="objectBoundingBox" id="filter-2">
            <feOffset dx="4" dy="0" in="SourceAlpha" result="shadowOffsetOuter1"></feOffset>
            <feGaussianBlur stdDeviation="10" in="shadowOffsetOuter1" result="shadowBlurOuter1"></feGaussianBlur>
            <feColorMatrix values="0 0 0 0 0   0 0 0 0 0   0 0 0 0 0  0 0 0 0.198086504 0" type="matrix" in="shadowBlurOuter1"></feColorMatrix>
        </filter>
        <polygon id="path-3" points="13.9684862 23.238 18.168 33.378 18.17 33.38 10.958 36.448 6.44921752 25.7669727 0 32.03 0 0 23.182 23.238"></polygon>
        <filter x="-133.7%" y="-79.6%" width="367.4%" height="270.1%" filterUnits="objectBoundingBox" id="filter-4">
            <feOffset dx="0" dy="2" in="SourceAlpha" result="shadowOffsetOuter1"></feOffset>
            <feGaussianBlur stdDeviation="10" in="shadowOffsetOuter1" result="shadowBlurOuter1"></feGaussianBlur>
            <feColorMatrix values="0 0 0 0 0   0 0 0 0 0   0 0 0 0 0  0 0 0 0.201681386 0" type="matrix" in="shadowBlurOuter1"></feColorMatrix>
        </filter>
    </defs>
    <g id="animated-sign-up-flow-featured" stroke="none" stroke-width="1" fill="none" fill-rule="evenodd">
        <polygon id="bg" fill="#F1F3EA" points="0 480 840 480 840 0 0 0"></polygon>
        <g id="desktop" transform="translate(94.000000, 26.000000)">
            <path d="M726,454 L0,454 L0,6 C0,2.687 2.687,0 6,0 L720,0 C723.313,0 726,2.687 726,6 L726,454 Z" id="container_bg" fill="#0F222B"></path>
            <g id="Group" transform="translate(71.000000, 109.000000)">
                <rect id="Rectangle" fill="#FFFFFF" x="0" y="0" width="162" height="226" rx="4"></rect>
                <path d="M162,65 L0,65 L0,4 C0,1.790861 1.790861,0 4,0 L158,0 C160.209139,0 162,1.790861 162,4 L162,65 Z" id="Combined-Shape" fill="#95AD5A"></path>
                <rect id="Rectangle-2" fill="#FFFFFF" x="48" y="28" width="66" height="10" rx="2"></rect>
                <rect id="Rectangle-2-Copy" fill="#D5DCDF" x="54" y="89" width="54" height="10" rx="2"></rect>
                <rect id="Rectangle-2-Copy-2" fill="#D5DCDF" x="37" y="113" width="88" height="10" rx="2"></rect>
                <rect id="Rectangle-2-Copy-3" fill="#D5DCDF" x="55" y="137" width="52" height="10" rx="2"></rect>
                <rect id="Rectangle-3" stroke="#F2B9C6" stroke-width="2" x="38" y="169" width="86" height="32" rx="16"></rect>
                <rect id="Rectangle-4" fill="#DF4F71" x="63" y="180" width="36" height="10" rx="2"></rect>
            </g>
            <g id="Group-Copy" transform="translate(493.000000, 109.000000)">
                <rect id="Rectangle" fill="#FFFFFF" x="0" y="0" width="162" height="226" rx="4"></rect>
                <path d="M162,65 L0,65 L0,4 C0,1.790861 1.790861,0 4,0 L158,0 C160.209139,0 162,1.790861 162,4 L162,65 Z" id="Combined-Shape" fill="#95AD5A"></path>
                <rect id="Rectangle-2" fill="#FFFFFF" x="48" y="28" width="66" height="10" rx="2"></rect>
                <rect id="Rectangle-2-Copy" fill="#D5DCDF" x="54" y="89" width="54" height="10" rx="2"></rect>
                <rect id="Rectangle-2-Copy-2" fill="#D5DCDF" x="37" y="113" width="88" height="10" rx="2"></rect>
                <rect id="Rectangle-2-Copy-3" fill="#D5DCDF" x="55" y="137" width="52" height="10" rx="2"></rect>
                <rect id="Rectangle-3" stroke="#F2B9C6" stroke-width="2" x="38" y="169" width="86" height="32" rx="16"></rect>
                <rect id="Rectangle-4" fill="#DF4F71" x="63" y="180" width="36" height="10" rx="2"></rect>
            </g>
            <path d="M726,454 L0,454 L0,6 C0,2.687 2.687,0 6,0 L720,0 C723.313,0 726,2.687 726,6 L726,454 Z" id="container_bg-copy" fill="#0F222B" opacity="0.602921196"></path>
            <rect id="Rectangle-5" fill="#FFFFFF" x="175" y="68" width="376" height="318" rx="4"></rect>
            <path d="M293,68 L293,386 L179,386 C176.790861,386 175,384.209139 175,382 L175,72 C175,69.790861 176.790861,68 179,68 L293,68 Z" id="Combined-Shape" fill="#F2F2F2"></path>
            <path d="M293,200 L175,200 L175,72 C175,69.790861 176.790861,68 179,68 L293,68 L293,200 Z" id="Combined-Shape" fill="#95AD5A"></path>
            <rect id="Rectangle-6" fill="#FFFFFF" x="201" y="94" width="66" height="10" rx="2"></rect>
            <rect id="Rectangle-6-Copy-8" fill="#0D222B" x="321" y="94" width="66" height="10" rx="2"></rect>
            <rect id="Rectangle-6-Copy-11" fill="#0D222B" x="321" y="222" width="66" height="10" rx="2"></rect>
            <rect id="Rectangle-6-Copy-9" stroke="#E7E6E6" stroke-width="2" x="322" y="120" width="200" height="28"></rect>
            <rect id="Rectangle-6-Copy-12" stroke="#E7E6E6" stroke-width="2" x="322" y="248" width="200" height="28"></rect>
            <rect id="Rectangle-6-Copy-10" stroke="#E7E6E6" stroke-width="2" x="322" y="160" width="200" height="28"></rect>
            <rect id="Rectangle-6-Copy-13" stroke="#E7E6E6" stroke-width="2" x="322" y="288" width="63" height="28"></rect>
            <rect id="Rectangle-6-Copy-4" fill="#C9C8C8" x="201" y="222" width="50" height="10" rx="2"></rect>
            <rect id="Rectangle-6-Copy" fill="#819947" x="201" y="122" width="66" height="8" rx="2"></rect>
            <rect id="Rectangle-6-Copy-5" fill="#DEDDDD" x="201" y="246" width="66" height="8" rx="2"></rect>
            <rect id="Rectangle-6-Copy-6" fill="#DEDDDD" x="201" y="260" width="66" height="8" rx="2"></rect>
            <rect id="Rectangle-6-Copy-7" fill="#DEDDDD" x="201" y="274" width="41" height="8" rx="2"></rect>
            <rect id="Rectangle-6-Copy-2" fill="#819947" x="197" y="144" width="74" height="8" rx="2"></rect>
            <rect id="Rectangle-6-Copy-3" fill="#819947" x="212" y="166" width="44" height="8" rx="2"></rect>
            <rect id="Rectangle-3" stroke="#F2B9C6" stroke-width="2" x="436" y="329" width="86" height="32" rx="16"></rect>
            <rect id="Rectangle-4" fill="#DF4F71" x="461" y="340" width="36" height="10" rx="2"></rect>
            <g id="bold-remove" transform="translate(534.000000, 45.000000)" fill="#F7F8F8" fill-rule="nonzero">
                <polygon id="Shape" points="12.2 0.9 8 5.2 3.8 0.9 0.9 3.8 5.2 8 0.9 12.2 3.8 15.1 8 10.8 12.2 15.1 15.1 12.2 10.8 8 15.1 3.8"></polygon>
            </g>
            <g id="dots" transform="translate(15.000000, 8.000000)" fill="#2E4652">
                <path d="M8,4 C8,6.209 6.209,8 4,8 C1.791,8 0,6.209 0,4 C0,1.791 1.791,0 4,0 C6.209,0 8,1.791 8,4" id="Fill-6"></path>
                <path d="M24,4 C24,6.209 22.209,8 20,8 C17.791,8 16,6.209 16,4 C16,1.791 17.791,0 20,0 C22.209,0 24,1.791 24,4" id="Fill-8"></path>
                <path d="M40,4 C40,6.209 38.209,8 36,8 C33.791,8 32,6.209 32,4 C32,1.791 33.791,0 36,0 C38.209,0 40,1.791 40,4" id="Fill-10"></path>
            </g>
        </g>
        <g id="mobile" transform="translate(20.000000, 158.000000)">
            <g id="mobile_bg">
                <use fill="black" fill-opacity="1" filter="url(#filter-2)" xlink:href="#path-1"></use>
                <use fill="#0E212B" fill-rule="evenodd" xlink:href="#path-1"></use>
            </g>
            <path d="M0,7 L0,6 C0,2.687 2.0769043,0 6,0 L184,0 C188.06543,0 190,2.687 190,6 L190,7 C190,3.687 187.313,1 184,1 L6,1 C2.687,1 0,3.687 0,7 Z" id="inner-shadow" fill="#FFFFFF" opacity="0.201313406"></path>
            <rect id="Rectangle-2" fill="#2E4652" x="76" y="38" width="38" height="10" rx="2"></rect>
            <g id="Group" transform="translate(14.000000, 82.000000)">
                <rect id="Rectangle" fill="#FFFFFF" x="0" y="0" width="162" height="226" rx="4"></rect>
                <path d="M162,65 L0,65 L0,4 C0,1.790861 1.790861,0 4,0 L158,0 C160.209139,0 162,1.790861 162,4 L162,65 Z" id="Combined-Shape" fill="#95AD5A"></path>
                <rect id="Rectangle-2" fill="#FFFFFF" x="48" y="28" width="66" height="10" rx="2"></rect>
                <rect id="Rectangle-2-Copy" fill="#D5DCDF" x="54" y="89" width="54" height="10" rx="2"></rect>
                <rect id="Rectangle-2-Copy-2" fill="#D5DCDF" x="37" y="113" width="88" height="10" rx="2"></rect>
                <rect id="Rectangle-2-Copy-3" fill="#D5DCDF" x="55" y="137" width="52" height="10" rx="2"></rect>
                <rect id="Rectangle-3" stroke="#F2B9C6" stroke-width="2" x="38" y="169" width="86" height="32" rx="16"></rect>
                <rect id="Rectangle-4" fill="#DF4F71" x="63" y="180" width="36" height="10" rx="2"></rect>
            </g>
        </g>
        <g id="default" transform="translate(596.000000, 369.000000)" fill-rule="nonzero">
            <g id="Combined-Shape">
                <use fill="black" fill-opacity="1" filter="url(#filter-4)" xlink:href="#path-3"></use>
                <use fill="#FFFFFF" fill-rule="evenodd" xlink:href="#path-3"></use>
            </g>
            <polygon id="Shape" fill="#000000" points="15.502 32.018 11.814 33.566 5.614 18.818 9.296 17.268 15.502 32.018"></polygon>
            <polygon id="Shape" fill="#000000" points="2 4.814 2 27.19 7.938 21.458 8.794 21.18 18.33 21.18"></polygon>
        </g>
    </g>
</svg>