<?xml version="1.0" encoding="UTF-8"?>
<svg width="840px" height="480px" viewBox="0 0 840 480" version="1.1" xmlns="http://www.w3.org/2000/svg" xmlns:xlink="http://www.w3.org/1999/xlink">
    <!-- Generator: Sketch 48.2 (47327) - http://www.bohemiancoding.com/sketch -->
    <title>app-introduction-template-featured</title>
    <desc>Created with Sketch.</desc>
    <defs>
        <path d="M6,0 L184,0 C187.313708,-6.08718376e-16 190,2.6862915 190,6 L190,322 L0,322 L0,6 C-4.05812251e-16,2.6862915 2.6862915,6.08718376e-16 6,0 Z" id="path-1"></path>
        <filter x="-18.9%" y="-9.9%" width="133.7%" height="119.9%" filterUnits="objectBoundingBox" id="filter-2">
            <feOffset dx="-4" dy="0" in="SourceAlpha" result="shadowOffsetOuter1"></feOffset>
            <feGaussianBlur stdDeviation="10" in="shadowOffsetOuter1" result="shadowBlurOuter1"></feGaussianBlur>
            <feColorMatrix values="0 0 0 0 0   0 0 0 0 0   0 0 0 0 0  0 0 0 0.198086504 0" type="matrix" in="shadowBlurOuter1"></feColorMatrix>
        </filter>
        <polygon id="path-3" points="13.9684862 23.238 18.168 33.378 18.17 33.38 10.958 36.448 6.44921752 25.7669727 0 32.03 0 0 23.182 23.238"></polygon>
        <filter x="-133.7%" y="-79.6%" width="367.4%" height="270.1%" filterUnits="objectBoundingBox" id="filter-4">
            <feOffset dx="0" dy="2" in="SourceAlpha" result="shadowOffsetOuter1"></feOffset>
            <feGaussianBlur stdDeviation="10" in="shadowOffsetOuter1" result="shadowBlurOuter1"></feGaussianBlur>
            <feColorMatrix values="0 0 0 0 0   0 0 0 0 0   0 0 0 0 0  0 0 0 0.201681386 0" type="matrix" in="shadowBlurOuter1"></feColorMatrix>
        </filter>
    </defs>
    <g id="Page-1" stroke="none" stroke-width="1" fill="none" fill-rule="evenodd">
        <g id="app-introduction-template-featured">
            <polygon id="bg" fill="#232536" points="0 480 840 480 840 0 0 0"></polygon>
            <g id="desktop" transform="translate(20.000000, 26.000000)">
                <path d="M726,454 L0,454 L0,6 C0,2.687 2.687,0 6,0 L720,0 C723.313,0 726,2.687 726,6 L726,454 Z" id="container_bg" fill="#3F4260"></path>
                <polygon id="body" fill="#343753" points="0 392 362 392 362 454 5.66868254e-14 454"></polygon>
                <polygon id="body-copy" fill="#343753" points="364 392 726 392 726 454 364 454"></polygon>
                <g id="tail-left" transform="translate(171.000000, 416.000000)" stroke="#5D6081" stroke-width="2">
                    <path d="M20,7 L0,7" id="Shape"></path>
                    <polyline id="Shape" stroke-linecap="square" points="7 14 0 7 7 0"></polyline>
                </g>
                <g id="tail-left-copy" transform="translate(545.000000, 423.000000) rotate(-180.000000) translate(-545.000000, -423.000000) translate(535.000000, 416.000000)" stroke="#5D6081" stroke-width="2">
                    <path d="M20,7 L0,7" id="Shape"></path>
                    <polyline id="Shape" stroke-linecap="square" points="7 14 0 7 7 0"></polyline>
                </g>
                <g id="dots" transform="translate(15.000000, 8.000000)" fill="#565978">
                    <path d="M8,4 C8,6.209 6.209,8 4,8 C1.791,8 0,6.209 0,4 C0,1.791 1.791,0 4,0 C6.209,0 8,1.791 8,4" id="Fill-6"></path>
                    <path d="M24,4 C24,6.209 22.209,8 20,8 C17.791,8 16,6.209 16,4 C16,1.791 17.791,0 20,0 C22.209,0 24,1.791 24,4" id="Fill-8"></path>
                    <path d="M40,4 C40,6.209 38.209,8 36,8 C33.791,8 32,6.209 32,4 C32,1.791 33.791,0 36,0 C38.209,0 40,1.791 40,4" id="Fill-10"></path>
                </g>
                <rect id="Rectangle" fill="#FFFFFF" x="39" y="36" width="62" height="16" rx="2"></rect>
                <rect id="Rectangle-2" fill="#EF7A81" x="597" y="29" width="90" height="30" rx="3"></rect>
                <rect id="Rectangle-3" fill="#FFFFFF" x="627" y="40" width="30" height="8" rx="1"></rect>
                <rect id="Rectangle-4" fill="#FFFFFF" x="334" y="170" width="164" height="16" rx="2"></rect>
                <rect id="Rectangle-4-Copy" fill="#565978" x="334" y="210" width="217" height="10" rx="1"></rect>
                <rect id="Rectangle-4-Copy-2" fill="#565978" x="334" y="238" width="217" height="10" rx="1"></rect>
                <rect id="Rectangle-4-Copy-3" fill="#565978" x="334" y="266" width="113" height="10" rx="1"></rect>
                <g id="phone" transform="translate(143.000000, 89.000000)">
                    <rect id="Rectangle-5" fill="#2E314C" x="0" y="0" width="136" height="276" rx="20"></rect>
                    <path d="M10,20 L126,20 C128.209139,20 130,21.790861 130,24 L130,254 C130,255.104569 129.104569,256 128,256 L8,256 C6.8954305,256 6,255.104569 6,254 L6,24 C6,21.790861 7.790861,20 10,20 Z" id="Rectangle-6" fill="#FFFFFF"></path>
                    <path d="M130,44 L6,44 L6,22 C6,20.8954305 6.8954305,20 8,20 L128,20 C129.104569,20 130,20.8954305 130,22 L130,44 Z" id="Combined-Shape" fill="#3F4260"></path>
                    <rect id="Rectangle-7" fill="#FFE7CA" x="6" y="44" width="124" height="24"></rect>
                    <rect id="Rectangle-7-Copy" fill="#E6E7EC" x="10" y="74" width="116" height="24" rx="1"></rect>
                    <rect id="Rectangle-7-Copy-2" fill="#E6E7EC" x="10" y="104" width="116" height="24" rx="1"></rect>
                    <rect id="Rectangle-7-Copy-3" fill="#E6E7EC" x="10" y="134" width="116" height="24" rx="1"></rect>
                    <rect id="Rectangle-7-Copy-4" fill="#E6E7EC" x="10" y="164" width="116" height="24" rx="1"></rect>
                    <rect id="Rectangle-7-Copy-5" fill="#E6E7EC" x="10" y="194" width="116" height="24" rx="1"></rect>
                    <rect id="Rectangle-7-Copy-6" fill="#E6E7EC" x="10" y="224" width="116" height="24" rx="1"></rect>
                    <circle id="Oval" fill="#23263F" cx="68" cy="12" r="3"></circle>
                    <circle id="Oval-2" fill="#EF7A81" cx="103" cy="237" r="16"></circle>
                </g>
            </g>
            <g id="mobile" transform="translate(630.000000, 158.000000)">
                <g id="mobile_bg">
                    <use fill="black" fill-opacity="1" filter="url(#filter-2)" xlink:href="#path-1"></use>
                    <use fill="#3F4260" fill-rule="evenodd" xlink:href="#path-1"></use>
                </g>
                <path d="M0,7 L0,6 C0,2.687 2.0769043,0 6,0 L184,0 C188.06543,0 190,2.687 190,6 L190,7 C190,3.687 187.313,1 184,1 L6,1 C2.687,1 0,3.687 0,7 Z" id="inner-shadow" fill="#FFFFFF" opacity="0.101279438"></path>
                <g id="phone" transform="translate(27.000000, 190.000000)">
                    <path d="M136,132 L0,132 L0,20 C-1.3527075e-15,8.954305 8.954305,2.02906125e-15 20,0 L116,0 C127.045695,-2.02906125e-15 136,8.954305 136,20 L136,132 Z" id="Combined-Shape" fill="#2E314C"></path>
                    <path d="M130,132 L6,132 L6,24 C6,21.790861 7.790861,20 10,20 L126,20 C128.209139,20 130,21.790861 130,24 L130,132 Z" id="Combined-Shape" fill="#FFFFFF"></path>
                    <path d="M130,44 L6,44 L6,22 C6,20.8954305 6.8954305,20 8,20 L128,20 C129.104569,20 130,20.8954305 130,22 L130,44 Z" id="Combined-Shape" fill="#3F4260"></path>
                    <rect id="Rectangle-7" fill="#FFE7CA" x="6" y="44" width="124" height="24"></rect>
                    <rect id="Rectangle-7-Copy" fill="#E6E7EC" x="10" y="74" width="116" height="24" rx="1"></rect>
                    <rect id="Rectangle-7-Copy-2" fill="#E6E7EC" x="10" y="104" width="116" height="24" rx="1"></rect>
                    <circle id="Oval" fill="#23263F" cx="68" cy="12" r="3"></circle>
                </g>
                <rect id="Rectangle-8" fill="#FFFFFF" x="46" y="32" width="98" height="12" rx="2"></rect>
                <rect id="Rectangle-8-Copy" fill="#565978" x="16" y="63" width="158" height="9" rx="1"></rect>
                <rect id="Rectangle-8-Copy-2" fill="#565978" x="16" y="83" width="158" height="9" rx="1"></rect>
                <rect id="Rectangle-8-Copy-3" fill="#565978" x="45" y="103" width="100" height="9" rx="1"></rect>
                <g id="Group" transform="translate(21.000000, 134.000000)">
                    <rect id="Rectangle-9" fill="#565978" x="0" y="0" width="68" height="30" rx="3"></rect>
                    <rect id="Rectangle-10" fill="#FFFFFF" x="20" y="11" width="28" height="8" rx="1"></rect>
                </g>
                <g id="Group-Copy" transform="translate(101.000000, 134.000000)">
                    <rect id="Rectangle-9" fill="#EF7A81" x="0" y="0" width="68" height="30" rx="3"></rect>
                    <rect id="Rectangle-10" fill="#FFFFFF" x="20" y="11" width="28" height="8" rx="1"></rect>
                </g>
            </g>
            <g id="default" transform="translate(687.000000, 67.000000)" fill-rule="nonzero">
                <g id="Combined-Shape">
                    <use fill="black" fill-opacity="1" filter="url(#filter-4)" xlink:href="#path-3"></use>
                    <use fill="#FFFFFF" fill-rule="evenodd" xlink:href="#path-3"></use>
                </g>
                <polygon id="Shape" fill="#000000" points="15.502 32.018 11.814 33.566 5.614 18.818 9.296 17.268 15.502 32.018"></polygon>
                <polygon id="Shape" fill="#000000" points="2 4.814 2 27.19 7.938 21.458 8.794 21.18 18.33 21.18"></polygon>
            </g>
        </g>
    </g>
</svg>