<?xml version="1.0" encoding="UTF-8"?>
<svg width="840px" height="480px" viewBox="0 0 840 480" version="1.1" xmlns="http://www.w3.org/2000/svg" xmlns:xlink="http://www.w3.org/1999/xlink">
    <!-- Generator: Sketch 48.2 (47327) - http://www.bohemiancoding.com/sketch -->
    <title>back-to-top-featured-final</title>
    <desc>Created with Sketch.</desc>
    <defs>
        <rect id="path-1" x="633" y="364" width="60" height="60" rx="4"></rect>
        <filter x="-50.0%" y="-50.0%" width="200.0%" height="200.0%" filterUnits="objectBoundingBox" id="filter-2">
            <feOffset dx="0" dy="0" in="SourceAlpha" result="shadowOffsetOuter1"></feOffset>
            <feGaussianBlur stdDeviation="10" in="shadowOffsetOuter1" result="shadowBlurOuter1"></feGaussianBlur>
            <feColorMatrix values="0 0 0 0 0   0 0 0 0 0   0 0 0 0 0  0 0 0 0.104279891 0" type="matrix" in="shadowBlurOuter1"></feColorMatrix>
        </filter>
    </defs>
    <g id="Page-1" stroke="none" stroke-width="1" fill="none" fill-rule="evenodd">
        <g id="back-to-top-featured-final">
            <polygon id="bg" fill="#3D2F36" points="0 480 840 480 840 0 0 0"></polygon>
            <g id="desktop" transform="translate(57.000000, 26.000000)">
                <path d="M726,454 L0,454 L0,6 C0,2.687 2.687,0 6,0 L720,0 C723.313,0 726,2.687 726,6 L726,454 Z" id="container_bg" fill="#7A5D6B"></path>
                <rect id="Rectangle" fill="#957B87" x="198" y="84" width="330" height="14" rx="2"></rect>
                <rect id="Rectangle-Copy-5" fill="#957B87" x="198" y="268" width="330" height="14" rx="2"></rect>
                <rect id="Rectangle-Copy" fill="#957B87" x="198" y="118" width="252" height="14" rx="2"></rect>
                <rect id="Rectangle-Copy-6" fill="#957B87" x="198" y="302" width="252" height="14" rx="2"></rect>
                <rect id="Rectangle-Copy-2" fill="#957B87" x="198" y="152" width="330" height="14" rx="2"></rect>
                <rect id="Rectangle-Copy-7" fill="#957B87" x="198" y="336" width="330" height="14" rx="2"></rect>
                <rect id="Rectangle-Copy-3" fill="#957B87" x="198" y="186" width="330" height="14" rx="2"></rect>
                <rect id="Rectangle-Copy-8" fill="#957B87" x="198" y="370" width="330" height="14" rx="2"></rect>
                <rect id="Rectangle-Copy-4" fill="#957B87" x="198" y="220" width="157" height="14" rx="2"></rect>
                <rect id="Rectangle-Copy-9" fill="#957B87" x="198" y="404" width="157" height="14" rx="2"></rect>
                <g id="dots" transform="translate(15.000000, 8.000000)" fill="#3D2F36">
                    <path d="M8,4 C8,6.209 6.209,8 4,8 C1.791,8 0,6.209 0,4 C0,1.791 1.791,0 4,0 C6.209,0 8,1.791 8,4" id="Fill-6"></path>
                    <path d="M24,4 C24,6.209 22.209,8 20,8 C17.791,8 16,6.209 16,4 C16,1.791 17.791,0 20,0 C22.209,0 24,1.791 24,4" id="Fill-8"></path>
                    <path d="M40,4 C40,6.209 38.209,8 36,8 C33.791,8 32,6.209 32,4 C32,1.791 33.791,0 36,0 C38.209,0 40,1.791 40,4" id="Fill-10"></path>
                </g>
                <g id="Rectangle-2">
                    <use fill="black" fill-opacity="1" filter="url(#filter-2)" xlink:href="#path-1"></use>
                    <use fill="#E86256" fill-rule="evenodd" xlink:href="#path-1"></use>
                </g>
                <g id="minimal-up" transform="translate(653.000000, 388.000000)" stroke="#FFFFFF" stroke-linecap="square" stroke-width="4">
                    <polyline id="Shape" points="20 10 10 0 0 10"></polyline>
                </g>
            </g>
        </g>
    </g>
</svg>