<?xml version="1.0" encoding="UTF-8"?>
<svg width="840px" height="480px" viewBox="0 0 840 480" version="1.1" xmlns="http://www.w3.org/2000/svg" xmlns:xlink="http://www.w3.org/1999/xlink">
    <!-- Generator: Sketch 48.2 (47327) - http://www.bohemiancoding.com/sketch -->
    <title>bouncy-navigation-new-2</title>
    <desc>Created with Sketch.</desc>
    <defs>
        <filter x="-13.8%" y="-13.8%" width="127.5%" height="127.5%" filterUnits="objectBoundingBox" id="filter-1">
            <feGaussianBlur stdDeviation="1.96647386e-16 3.21149554" in="SourceGraphic"></feGaussianBlur>
        </filter>
        <filter x="-13.8%" y="-13.8%" width="127.5%" height="127.5%" filterUnits="objectBoundingBox" id="filter-2">
            <feGaussianBlur stdDeviation="1.96647386e-16 3.21149554" in="SourceGraphic"></feGaussianBlur>
        </filter>
        <filter x="-13.8%" y="-13.8%" width="127.5%" height="127.5%" filterUnits="objectBoundingBox" id="filter-3">
            <feGaussianBlur stdDeviation="1.96647386e-16 3.21149554" in="SourceGraphic"></feGaussianBlur>
        </filter>
        <filter x="-17.8%" y="-80.3%" width="135.7%" height="260.6%" filterUnits="objectBoundingBox" id="filter-4">
            <feGaussianBlur stdDeviation="1.96647386e-16 3.21149554" in="SourceGraphic"></feGaussianBlur>
        </filter>
        <filter x="-17.8%" y="-80.3%" width="135.7%" height="260.6%" filterUnits="objectBoundingBox" id="filter-5">
            <feGaussianBlur stdDeviation="1.96647386e-16 3.21149554" in="SourceGraphic"></feGaussianBlur>
        </filter>
        <filter x="-17.8%" y="-80.3%" width="135.7%" height="260.6%" filterUnits="objectBoundingBox" id="filter-6">
            <feGaussianBlur stdDeviation="1.96647386e-16 3.21149554" in="SourceGraphic"></feGaussianBlur>
        </filter>
        <path d="M6,0 L184,0 C187.313708,-6.08718376e-16 190,2.6862915 190,6 L190,322 L0,322 L0,6 C-4.05812251e-16,2.6862915 2.6862915,6.08718376e-16 6,0 Z" id="path-7"></path>
        <filter x="-14.7%" y="-9.9%" width="133.7%" height="119.9%" filterUnits="objectBoundingBox" id="filter-8">
            <feOffset dx="4" dy="0" in="SourceAlpha" result="shadowOffsetOuter1"></feOffset>
            <feGaussianBlur stdDeviation="10" in="shadowOffsetOuter1" result="shadowBlurOuter1"></feGaussianBlur>
            <feColorMatrix values="0 0 0 0 0   0 0 0 0 0   0 0 0 0 0  0 0 0 0.198086504 0" type="matrix" in="shadowBlurOuter1"></feColorMatrix>
        </filter>
        <filter x="-16.7%" y="-16.7%" width="133.3%" height="133.3%" filterUnits="objectBoundingBox" id="filter-9">
            <feGaussianBlur stdDeviation="1.8369702e-16 3" in="SourceGraphic"></feGaussianBlur>
        </filter>
        <filter x="-16.7%" y="-16.7%" width="133.3%" height="133.3%" filterUnits="objectBoundingBox" id="filter-10">
            <feGaussianBlur stdDeviation="1.8369702e-16 3" in="SourceGraphic"></feGaussianBlur>
        </filter>
        <filter x="-21.4%" y="-81.8%" width="142.9%" height="263.6%" filterUnits="objectBoundingBox" id="filter-11">
            <feGaussianBlur stdDeviation="1.8369702e-16 3" in="SourceGraphic"></feGaussianBlur>
        </filter>
        <filter x="-21.4%" y="-81.8%" width="142.9%" height="263.6%" filterUnits="objectBoundingBox" id="filter-12">
            <feGaussianBlur stdDeviation="1.8369702e-16 3" in="SourceGraphic"></feGaussianBlur>
        </filter>
    </defs>
    <g id="Page-1" stroke="none" stroke-width="1" fill="none" fill-rule="evenodd">
        <g id="bouncy-navigation-new-2">
            <polygon id="bg" fill="#DC965A" points="0 480 840 480 840 0 0 0"></polygon>
            <g id="desktop" transform="translate(94.000000, 26.000000)">
                <path d="M726,454 L0,454 L0,6 C0,2.687 2.687,0 6,0 L720,0 C723.313,0 726,2.687 726,6 L726,454 Z" id="container_bg" fill="#242325"></path>
                <circle id="Oval" fill="#77BFA3" cx="242" cy="152" r="35"></circle>
                <circle id="Oval-Copy" fill="#77BFA3" cx="363" cy="152" r="35"></circle>
                <circle id="Oval-Copy-3" fill="#77BFA3" filter="url(#filter-1)" cx="363" cy="282" r="35"></circle>
                <circle id="Oval-Copy-4" fill="#77BFA3" filter="url(#filter-2)" cx="242" cy="341" r="35"></circle>
                <circle id="Oval-Copy-5" fill="#77BFA3" filter="url(#filter-3)" cx="484" cy="368" r="35"></circle>
                <rect id="Rectangle" fill="#FFFFFF" x="215" y="203" width="54" height="12" rx="2"></rect>
                <rect id="Rectangle-Copy" fill="#FFFFFF" x="336" y="203" width="54" height="12" rx="2"></rect>
                <rect id="Rectangle-Copy-3" fill="#FFFFFF" filter="url(#filter-4)" x="336" y="333" width="54" height="12" rx="2"></rect>
                <rect id="Rectangle-Copy-4" fill="#FFFFFF" filter="url(#filter-5)" x="215" y="392" width="54" height="12" rx="2"></rect>
                <rect id="Rectangle-Copy-5" fill="#FFFFFF" filter="url(#filter-6)" x="457" y="419" width="54" height="12" rx="2"></rect>
                <circle id="Oval-Copy-2" fill="#77BFA3" cx="484" cy="152" r="35"></circle>
                <rect id="Rectangle-Copy-2" fill="#FFFFFF" x="457" y="203" width="54" height="12" rx="2"></rect>
                <g id="dots" transform="translate(15.000000, 8.000000)" fill="#DC965A">
                    <path d="M8,4 C8,6.209 6.209,8 4,8 C1.791,8 0,6.209 0,4 C0,1.791 1.791,0 4,0 C6.209,0 8,1.791 8,4" id="Fill-6"></path>
                    <path d="M24,4 C24,6.209 22.209,8 20,8 C17.791,8 16,6.209 16,4 C16,1.791 17.791,0 20,0 C22.209,0 24,1.791 24,4" id="Fill-8"></path>
                    <path d="M40,4 C40,6.209 38.209,8 36,8 C33.791,8 32,6.209 32,4 C32,1.791 33.791,0 36,0 C38.209,0 40,1.791 40,4" id="Fill-10"></path>
                </g>
            </g>
            <g id="mobile" transform="translate(20.000000, 158.000000)">
                <g id="mobile_bg">
                    <use fill="black" fill-opacity="1" filter="url(#filter-8)" xlink:href="#path-7"></use>
                    <use fill="#242325" fill-rule="evenodd" xlink:href="#path-7"></use>
                </g>
                <path d="M0,7 L0,6 C0,2.687 2.0769043,0 6,0 L184,0 C188.06543,0 190,2.687 190,6 L190,7 C190,3.687 187.313,1 184,1 L6,1 C2.687,1 0,3.687 0,7 Z" id="inner-shadow" fill="#FFFFFF" opacity="0.159646739"></path>
                <circle id="Oval-2" fill="#77BFA3" cx="57" cy="89" r="27"></circle>
                <circle id="Oval-2-Copy-2" fill="#77BFA3" filter="url(#filter-9)" cx="57" cy="208" r="27"></circle>
                <circle id="Oval-2-Copy" fill="#77BFA3" cx="133" cy="89" r="27"></circle>
                <circle id="Oval-2-Copy-3" fill="#77BFA3" filter="url(#filter-10)" cx="133" cy="245" r="27"></circle>
                <rect id="Rectangle-2" fill="#FFFFFF" x="36" y="130" width="42" height="11" rx="2"></rect>
                <rect id="Rectangle-2-Copy-2" fill="#FFFFFF" filter="url(#filter-11)" x="36" y="249" width="42" height="11" rx="2"></rect>
                <rect id="Rectangle-2-Copy" fill="#FFFFFF" x="112" y="130" width="42" height="11" rx="2"></rect>
                <rect id="Rectangle-2-Copy-3" fill="#FFFFFF" filter="url(#filter-12)" x="112" y="286" width="42" height="11" rx="2"></rect>
            </g>
        </g>
    </g>
</svg>