<?xml version="1.0" encoding="UTF-8"?>
<svg width="840px" height="480px" viewBox="0 0 840 480" version="1.1" xmlns="http://www.w3.org/2000/svg" xmlns:xlink="http://www.w3.org/1999/xlink">
    <!-- Generator: Sketch 49 (51002) - http://www.bohemiancoding.com/sketch -->
    <title>bouncy-content-filter-featured-final</title>
    <desc>Created with Sketch.</desc>
    <defs>
        <path d="M6,0 L184,0 C187.313708,-6.08718376e-16 190,2.6862915 190,6 L190,322 L0,322 L0,6 C-4.05812251e-16,2.6862915 2.6862915,6.08718376e-16 6,0 Z" id="path-1"></path>
        <filter x="-14.7%" y="-9.9%" width="133.7%" height="119.9%" filterUnits="objectBoundingBox" id="filter-2">
            <feOffset dx="4" dy="0" in="SourceAlpha" result="shadowOffsetOuter1"></feOffset>
            <feGaussianBlur stdDeviation="10" in="shadowOffsetOuter1" result="shadowBlurOuter1"></feGaussianBlur>
            <feColorMatrix values="0 0 0 0 0   0 0 0 0 0   0 0 0 0 0  0 0 0 0.151324728 0" type="matrix" in="shadowBlurOuter1"></feColorMatrix>
        </filter>
        <polygon id="path-3" points="13.9684862 23.238 18.168 33.378 18.17 33.38 10.958 36.448 6.44921752 25.7669727 0 32.03 0 0 23.182 23.238"></polygon>
        <filter x="-133.7%" y="-79.6%" width="367.4%" height="270.1%" filterUnits="objectBoundingBox" id="filter-4">
            <feOffset dx="0" dy="2" in="SourceAlpha" result="shadowOffsetOuter1"></feOffset>
            <feGaussianBlur stdDeviation="10" in="shadowOffsetOuter1" result="shadowBlurOuter1"></feGaussianBlur>
            <feColorMatrix values="0 0 0 0 0   0 0 0 0 0   0 0 0 0 0  0 0 0 0.201681386 0" type="matrix" in="shadowBlurOuter1"></feColorMatrix>
        </filter>
    </defs>
    <g id="bouncy-content-filter-featured-final" stroke="none" stroke-width="1" fill="none" fill-rule="evenodd">
        <polygon id="bg" fill="#C7C7C3" points="0 480 840 480 840 0 0 0"></polygon>
        <g id="desktop" transform="translate(94.000000, 26.000000)">
            <path d="M726,454 L0,454 L0,6 C0,2.687 2.687,0 6,0 L720,0 C723.313,0 726,2.687 726,6 L726,454 Z" id="container_bg" fill="#EBE9D7"></path>
            <rect id="Rectangle" fill="#EF5E5A" x="51" y="183" width="188" height="188" rx="4"></rect>
            <rect id="Rectangle-Copy-2" fill="#EF5E5A" x="486" y="183" width="188" height="188" rx="4"></rect>
            <rect id="Rectangle-2" fill="#1A7179" x="262" y="93" width="76" height="40" rx="20"></rect>
            <rect id="Rectangle-3" fill="#FFFFFF" x="280" y="108" width="40" height="10" rx="2"></rect>
            <rect id="Rectangle-3-Copy" fill="#BAB8A6" x="362" y="108" width="40" height="10" rx="2"></rect>
            <rect id="Rectangle-3-Copy-2" fill="#BAB8A6" x="443" y="108" width="40" height="10" rx="2"></rect>
            <path d="M303.033059,206.549963 L422.033059,166.032322 C423.601492,165.498295 425.305872,166.336847 425.839899,167.90528 C425.945911,168.216638 426,168.54331 426,168.872221 L426,384.468243 C426,386.125097 424.656854,387.468243 423,387.468243 C422.680619,387.468243 422.363286,387.417242 422.059988,387.317168 L303.059988,348.052746 C301.83053,347.647083 301,346.498475 301,345.203821 L301,209.389861 C301,208.105658 301.81739,206.963879 303.033059,206.549963 Z" id="Rectangle-Copy" fill="#EF5E5A"></path>
            <g id="dots" transform="translate(15.000000, 8.000000)" fill="#C7C7C3">
                <path d="M8,4 C8,6.209 6.209,8 4,8 C1.791,8 0,6.209 0,4 C0,1.791 1.791,0 4,0 C6.209,0 8,1.791 8,4" id="Fill-6"></path>
                <path d="M24,4 C24,6.209 22.209,8 20,8 C17.791,8 16,6.209 16,4 C16,1.791 17.791,0 20,0 C22.209,0 24,1.791 24,4" id="Fill-8"></path>
                <path d="M40,4 C40,6.209 38.209,8 36,8 C33.791,8 32,6.209 32,4 C32,1.791 33.791,0 36,0 C38.209,0 40,1.791 40,4" id="Fill-10"></path>
            </g>
        </g>
        <g id="mobile" transform="translate(20.000000, 158.000000)">
            <g id="mobile_bg">
                <use fill="black" fill-opacity="1" filter="url(#filter-2)" xlink:href="#path-1"></use>
                <use fill="#F5F9E5" fill-rule="evenodd" xlink:href="#path-1"></use>
            </g>
            <rect id="Rectangle-4" fill="#EF5E5A" x="16" y="68" width="158" height="154" rx="3"></rect>
            <path d="M174,322 L16,322 L16,245 C16,243.343146 17.3431458,242 19,242 L171,242 C172.656854,242 174,243.343146 174,245 L174,322 Z" id="Combined-Shape" fill="#EF5E5A"></path>
            <rect id="Rectangle-5" fill="#FFFFFF" x="46" y="19" width="100" height="32" rx="3"></rect>
            <g id="small-down" transform="translate(125.000000, 33.000000)" stroke="#CFCEC8" stroke-linecap="square" stroke-width="3">
                <polyline id="Shape" points="8 0 4 4 0 0"></polyline>
            </g>
            <rect id="Rectangle-6" fill="#767675" x="56" y="31" width="39" height="8" rx="2"></rect>
            <path d="M0,7 L0,6 C0,2.687 2.0769043,0 6,0 L184,0 C188.06543,0 190,2.687 190,6 L190,7 C190,3.687 187.313,1 184,1 L6,1 C2.687,1 0,3.687 0,7 Z" id="inner-shadow" fill="#FFFFFF"></path>
        </g>
        <g id="default" transform="translate(408.000000, 150.000000)" fill-rule="nonzero">
            <g id="Combined-Shape">
                <use fill="black" fill-opacity="1" filter="url(#filter-4)" xlink:href="#path-3"></use>
                <use fill="#FFFFFF" fill-rule="evenodd" xlink:href="#path-3"></use>
            </g>
            <polygon id="Shape" fill="#000000" points="15.502 32.018 11.814 33.566 5.614 18.818 9.296 17.268 15.502 32.018"></polygon>
            <polygon id="Shape" fill="#000000" points="2 4.814 2 27.19 7.938 21.458 8.794 21.18 18.33 21.18"></polygon>
        </g>
    </g>
</svg>