<?xml version="1.0" encoding="UTF-8"?>
<svg width="840px" height="480px" viewBox="0 0 840 480" version="1.1" xmlns="http://www.w3.org/2000/svg" xmlns:xlink="http://www.w3.org/1999/xlink">
    <!-- Generator: Sketch 48.2 (47327) - http://www.bohemiancoding.com/sketch -->
    <title>client-testimonials-carousel-featured</title>
    <desc>Created with Sketch.</desc>
    <defs>
        <polygon id="path-1" points="13.9684862 23.238 18.168 33.378 18.17 33.38 10.958 36.448 6.44921752 25.7669727 0 32.03 0 0 23.182 23.238"></polygon>
        <filter x="-133.7%" y="-79.6%" width="367.4%" height="270.1%" filterUnits="objectBoundingBox" id="filter-2">
            <feOffset dx="0" dy="2" in="SourceAlpha" result="shadowOffsetOuter1"></feOffset>
            <feGaussianBlur stdDeviation="10" in="shadowOffsetOuter1" result="shadowBlurOuter1"></feGaussianBlur>
            <feColorMatrix values="0 0 0 0 0   0 0 0 0 0   0 0 0 0 0  0 0 0 0.201681386 0" type="matrix" in="shadowBlurOuter1"></feColorMatrix>
        </filter>
    </defs>
    <g id="Page-1" stroke="none" stroke-width="1" fill="none" fill-rule="evenodd">
        <g id="client-testimonials-carousel-featured">
            <polygon id="bg" fill="#79B6E4" points="0 480 840 480 840 0 0 0"></polygon>
            <g id="desktop" transform="translate(57.000000, 26.000000)">
                <path d="M726,454 L0,454 L0,6 C0,2.687 2.687,0 6,0 L720,0 C723.313,0 726,2.687 726,6 L726,454 Z" id="container_bg" fill="#FFFFFF"></path>
                <polygon id="body" fill="#DADEE1" opacity="0.400000006" points="0 24 726 24 726 454 1.13686838e-13 454"></polygon>
                <rect id="Rectangle" fill="#39393C" x="112" y="125" width="502" height="228" rx="4"></rect>
                <path d="M149,317 L112,317 L112,129 C112,126.790861 113.790861,125 116,125 L149,125 L149,317 Z" id="Combined-Shape" fill="#323236"></path>
                <path d="M614,317 L577,317 L577,129 C577,126.790861 578.790861,125 581,125 L614,125 L614,317 Z" id="Combined-Shape-Copy" fill="#323236" transform="translate(595.500000, 221.000000) rotate(-180.000000) translate(-595.500000, -221.000000) "></path>
                <g id="minimal-left" transform="translate(124.000000, 210.000000)" fill="#FFFFFF" fill-rule="nonzero">
                    <path d="M11.00025,22.828 L0.29325,12.121 C-0.09775,11.73 -0.09775,11.098 0.29325,10.707 L11.00025,0 L12.41425,1.414 L2.41425,11.414 L12.41425,21.414 L11.00025,22.828 Z" id="Shape"></path>
                </g>
                <g id="minimal-left-copy" transform="translate(595.500000, 221.500000) rotate(-180.000000) translate(-595.500000, -221.500000) translate(589.000000, 210.000000)" fill="#FFFFFF" fill-rule="nonzero">
                    <path d="M11.00025,22.828 L0.29325,12.121 C-0.09775,11.73 -0.09775,11.098 0.29325,10.707 L11.00025,0 L12.41425,1.414 L2.41425,11.414 L12.41425,21.414 L11.00025,22.828 Z" id="Shape"></path>
                </g>
                <rect id="Rectangle-2" fill="#FFFFFF" x="254" y="170" width="218" height="12" rx="2"></rect>
                <rect id="Rectangle-2-Copy" fill="#FFFFFF" x="210" y="196" width="306" height="12" rx="2"></rect>
                <rect id="Rectangle-2-Copy-2" fill="#FFFFFF" x="269" y="225" width="188" height="12" rx="2"></rect>
                <circle id="Oval" fill="#555557" cx="335" cy="270" r="14"></circle>
                <rect id="Rectangle-3" fill="#555557" x="361" y="265" width="40" height="10" rx="1"></rect>
                <path d="M614,317 L614,349 C614,351.209139 612.209139,353 610,353 L116,353 C113.790861,353 112,351.209139 112,349 L112,317 L614,317 Z" id="Combined-Shape" fill="#252527"></path>
                <rect id="Rectangle-4" fill="#79B6E4" x="346" y="330" width="34" height="10" rx="1"></rect>
                <g id="dots" transform="translate(15.000000, 8.000000)" fill="#DADEE1">
                    <path d="M8,4 C8,6.209 6.209,8 4,8 C1.791,8 0,6.209 0,4 C0,1.791 1.791,0 4,0 C6.209,0 8,1.791 8,4" id="Fill-6"></path>
                    <path d="M24,4 C24,6.209 22.209,8 20,8 C17.791,8 16,6.209 16,4 C16,1.791 17.791,0 20,0 C22.209,0 24,1.791 24,4" id="Fill-8"></path>
                    <path d="M40,4 C40,6.209 38.209,8 36,8 C33.791,8 32,6.209 32,4 C32,1.791 33.791,0 36,0 C38.209,0 40,1.791 40,4" id="Fill-10"></path>
                </g>
            </g>
            <g id="default" transform="translate(198.000000, 284.000000)" fill-rule="nonzero">
                <g id="Combined-Shape">
                    <use fill="black" fill-opacity="1" filter="url(#filter-2)" xlink:href="#path-1"></use>
                    <use fill="#FFFFFF" fill-rule="evenodd" xlink:href="#path-1"></use>
                </g>
                <polygon id="Shape" fill="#000000" points="15.502 32.018 11.814 33.566 5.614 18.818 9.296 17.268 15.502 32.018"></polygon>
                <polygon id="Shape" fill="#000000" points="2 4.814 2 27.19 7.938 21.458 8.794 21.18 18.33 21.18"></polygon>
            </g>
        </g>
    </g>
</svg>