<?xml version="1.0" encoding="UTF-8"?>
<svg width="840px" height="480px" viewBox="0 0 840 480" version="1.1" xmlns="http://www.w3.org/2000/svg" xmlns:xlink="http://www.w3.org/1999/xlink">
    <!-- Generator: Sketch 49 (51002) - http://www.bohemiancoding.com/sketch -->
    <title>content-filters-featured</title>
    <desc>Created with Sketch.</desc>
    <defs>
        <path d="M6,0 L184,0 C187.313708,-6.08718376e-16 190,2.6862915 190,6 L190,322 L0,322 L0,6 C-4.05812251e-16,2.6862915 2.6862915,6.08718376e-16 6,0 Z" id="path-1"></path>
        <filter x="-18.9%" y="-9.9%" width="133.7%" height="119.9%" filterUnits="objectBoundingBox" id="filter-2">
            <feOffset dx="-4" dy="0" in="SourceAlpha" result="shadowOffsetOuter1"></feOffset>
            <feGaussianBlur stdDeviation="10" in="shadowOffsetOuter1" result="shadowBlurOuter1"></feGaussianBlur>
            <feColorMatrix values="0 0 0 0 0   0 0 0 0 0   0 0 0 0 0  0 0 0 0.198086504 0" type="matrix" in="shadowBlurOuter1"></feColorMatrix>
        </filter>
        <polygon id="path-3" points="152 80 152 322 0 322 0 80"></polygon>
        <filter x="-18.4%" y="-13.2%" width="142.1%" height="126.4%" filterUnits="objectBoundingBox" id="filter-4">
            <feOffset dx="4" dy="0" in="SourceAlpha" result="shadowOffsetOuter1"></feOffset>
            <feGaussianBlur stdDeviation="10" in="shadowOffsetOuter1" result="shadowBlurOuter1"></feGaussianBlur>
            <feColorMatrix values="0 0 0 0 0   0 0 0 0 0   0 0 0 0 0  0 0 0 0.100854846 0" type="matrix" in="shadowBlurOuter1"></feColorMatrix>
        </filter>
        <polygon id="path-5" points="13.9684862 23.238 18.168 33.378 18.17 33.38 10.958 36.448 6.44921752 25.7669727 0 32.03 0 0 23.182 23.238"></polygon>
        <filter x="-133.7%" y="-79.6%" width="367.4%" height="270.1%" filterUnits="objectBoundingBox" id="filter-6">
            <feOffset dx="0" dy="2" in="SourceAlpha" result="shadowOffsetOuter1"></feOffset>
            <feGaussianBlur stdDeviation="10" in="shadowOffsetOuter1" result="shadowBlurOuter1"></feGaussianBlur>
            <feColorMatrix values="0 0 0 0 0   0 0 0 0 0   0 0 0 0 0  0 0 0 0.201681386 0" type="matrix" in="shadowBlurOuter1"></feColorMatrix>
        </filter>
    </defs>
    <g id="content-filters-featured" stroke="none" stroke-width="1" fill="none" fill-rule="evenodd">
        <polygon id="bg" fill="#CFCFCF" points="0 480 840 480 840 0 0 0"></polygon>
        <g id="desktop" transform="translate(20.000000, 26.000000)">
            <path d="M726,454 L0,454 L0,6 C0,2.687 2.687,0 6,0 L720,0 C723.313,0 726,2.687 726,6 L726,454 Z" id="container_bg" fill="#331C35"></path>
            <polygon id="body" fill="#E7E7E7" points="0 108 726 108 726 454 1.13686838e-13 454"></polygon>
            <rect id="Rectangle-2" fill="#FFFFFF" x="228" y="181" width="141" height="130"></rect>
            <rect id="Rectangle-2-Copy-2" fill="#FFFFFF" x="228" y="335" width="141" height="119"></rect>
            <rect id="Rectangle-2-Copy" fill="#FFFFFF" x="395" y="181" width="141" height="130"></rect>
            <rect id="Rectangle-2-Copy-4" fill="#FFFFFF" x="562" y="181" width="141" height="130"></rect>
            <rect id="Rectangle-2-Copy-3" fill="#FFFFFF" x="395" y="335" width="141" height="119"></rect>
            <rect id="Rectangle-2-Copy-5" fill="#FFFFFF" x="562" y="335" width="141" height="119"></rect>
            <circle id="Oval" fill="#EC5B9C" cx="354" cy="197" r="6"></circle>
            <circle id="Oval-Copy-2" fill="#412D7E" cx="354" cy="351" r="6"></circle>
            <circle id="Oval-Copy" fill="#412D7E" cx="521" cy="197" r="6"></circle>
            <circle id="Oval-Copy-3" fill="#412D7E" cx="521" cy="351" r="6"></circle>
            <polygon id="body-copy" fill="#FFFFFF" points="0 108 726 108 726 154 1.13686838e-13 154"></polygon>
            <rect id="Rectangle" fill="#412D7E" x="370" y="126" width="46" height="10" rx="1"></rect>
            <rect id="Rectangle-Copy-3" fill="#412D7E" x="360" y="150" width="66" height="4"></rect>
            <rect id="Rectangle-Copy" fill="#DCDCDC" x="442" y="126" width="46" height="10" rx="1"></rect>
            <rect id="Rectangle-Copy-2" fill="#DCDCDC" x="514" y="126" width="46" height="10" rx="1"></rect>
            <polygon id="body-copy-2" fill="#412D7E" points="0 108 202 108 202 154 3.1631875e-14 154"></polygon>
            <g id="x" transform="translate(173.000000, 126.000000)" stroke="#FFFFFF" stroke-linecap="square" stroke-width="4">
                <path d="M0,0 L9.01086443,9.01086443" id="Line"></path>
                <path d="M9.01086443,0 L0,9.01086443" id="Line-Copy"></path>
            </g>
            <rect id="Rectangle-3" fill="#FFFFFF" x="18" y="125" width="60" height="12" rx="2"></rect>
            <polygon id="body-copy-3" fill="#FFFFFF" points="0 154 202 154 202 454 3.1631875e-14 454"></polygon>
            <g id="dots" transform="translate(15.000000, 8.000000)" fill="#593B5C">
                <path d="M8,4 C8,6.209 6.209,8 4,8 C1.791,8 0,6.209 0,4 C0,1.791 1.791,0 4,0 C6.209,0 8,1.791 8,4" id="Fill-6"></path>
                <path d="M24,4 C24,6.209 22.209,8 20,8 C17.791,8 16,6.209 16,4 C16,1.791 17.791,0 20,0 C22.209,0 24,1.791 24,4" id="Fill-8"></path>
                <path d="M40,4 C40,6.209 38.209,8 36,8 C33.791,8 32,6.209 32,4 C32,1.791 33.791,0 36,0 C38.209,0 40,1.791 40,4" id="Fill-10"></path>
            </g>
            <rect id="Rectangle-4" fill="#DCDCDC" x="36" y="175" width="66" height="12" rx="2"></rect>
            <rect id="Rectangle-4-Copy-2" fill="#DCDCDC" x="36" y="270" width="66" height="12" rx="2"></rect>
            <rect id="Rectangle-4-Copy-3" fill="#412D7E" x="55" y="312" width="80" height="12" rx="2"></rect>
            <rect id="Rectangle-4-Copy-4" fill="#412D7E" x="55" y="348" width="54" height="12" rx="2"></rect>
            <rect id="Rectangle-6" stroke="#DCDCDC" stroke-width="2" x="19" y="307" width="22" height="22"></rect>
            <rect id="Rectangle-6-Copy" stroke="#412D7E" stroke-width="2" fill="#412D7E" x="19" y="343" width="22" height="22"></rect>
            <g id="check-2" transform="translate(22.000000, 348.000000)" fill="#FFFFFF" fill-rule="nonzero">
                <path d="M14.3,0.3 L5,9.6 L1.7,6.3 C1.3,5.9 0.7,5.9 0.3,6.3 C-0.1,6.7 -0.1,7.3 0.3,7.7 L4.3,11.7 C4.5,11.9 4.7,12 5,12 C5.3,12 5.5,11.9 5.7,11.7 L15.7,1.7 C16.1,1.3 16.1,0.7 15.7,0.3 C15.3,-0.1 14.7,-0.1 14.3,0.3 Z" id="Shape"></path>
            </g>
            <rect id="Rectangle-4-Copy-5" fill="#412D7E" x="55" y="383" width="110" height="12" rx="2"></rect>
            <rect id="Rectangle-6-Copy-2" stroke="#DCDCDC" stroke-width="2" x="19" y="378" width="22" height="22"></rect>
            <rect id="Rectangle-4-Copy-6" fill="#412D7E" x="55" y="419" width="97" height="12" rx="2"></rect>
            <rect id="Rectangle-6-Copy-3" stroke="#DCDCDC" stroke-width="2" x="19" y="414" width="22" height="22"></rect>
            <g id="minimal-right" transform="translate(19.000000, 173.000000)" fill="#DCDCDC" fill-rule="nonzero">
                <polygon id="Shape" points="1.5 15.4 0 14 6.3 7.7 0 1.4 1.5 0 9.2 7.7"></polygon>
            </g>
            <g id="minimal-right-copy" transform="translate(19.000000, 268.000000)" fill="#DCDCDC" fill-rule="nonzero">
                <polygon id="Shape" points="1.5 15.4 0 14 6.3 7.7 0 1.4 1.5 0 9.2 7.7"></polygon>
            </g>
            <rect id="Rectangle-4-Copy" fill="#DCDCDC" x="17" y="202" width="168" height="36" rx="2"></rect>
            <g id="zoom-2" transform="translate(156.000000, 212.000000)" fill="#BEBEBE" fill-rule="nonzero">
                <path d="M12.7,11.3 C13.6,10.1 14.1,8.7 14.1,7.1 C14.1,3.2 11,0 7.1,0 C3.2,0 0,3.2 0,7.1 C0,11 3.2,14.2 7.1,14.2 C8.7,14.2 10.2,13.7 11.3,12.8 L14.3,15.8 C14.5,16 14.8,16.1 15,16.1 C15.2,16.1 15.5,16 15.7,15.8 C16.1,15.4 16.1,14.8 15.7,14.4 L12.7,11.3 Z M7.1,12.1 C4.3,12.1 2,9.9 2,7.1 C2,4.3 4.3,2 7.1,2 C9.9,2 12.2,4.3 12.2,7.1 C12.2,9.9 9.9,12.1 7.1,12.1 Z" id="Shape"></path>
            </g>
            <rect id="Rectangle-5" fill="#BEBEBE" x="31" y="215" width="65" height="10" rx="1"></rect>
            <rect id="Rectangle-7" fill="#FFFFFF" x="303" y="46" width="120" height="16" rx="2"></rect>
        </g>
        <g id="mobile" transform="translate(630.000000, 158.000000)">
            <g id="mobile_bg">
                <use fill="black" fill-opacity="1" filter="url(#filter-2)" xlink:href="#path-1"></use>
                <use fill="#331C35" fill-rule="evenodd" xlink:href="#path-1"></use>
            </g>
            <polygon id="Combined-Shape" fill="#DAD8DA" points="190 80 190 322 0 322 0 80"></polygon>
            <polygon id="Combined-Shape-Copy-3" fill="#FEFEFE" points="190 80 190 114 0 114 0 80"></polygon>
            <rect id="Rectangle-10" fill="#FEFEFE" x="152" y="128" width="25" height="130"></rect>
            <rect id="Rectangle-10-Copy" fill="#FEFEFE" x="152" y="270" width="25" height="52"></rect>
            <circle id="Oval-2" fill="#E15695" cx="161" cy="143" r="6"></circle>
            <circle id="Oval-2-Copy" fill="#3D2A75" cx="161" cy="285" r="6"></circle>
            <g id="Combined-Shape-Copy">
                <use fill="black" fill-opacity="1" filter="url(#filter-4)" xlink:href="#path-3"></use>
                <use fill="#FFFFFF" fill-rule="evenodd" xlink:href="#path-3"></use>
            </g>
            <rect id="Rectangle-4-Copy-3" fill="#412D7E" x="52" y="258" width="80" height="12" rx="2"></rect>
            <rect id="Rectangle-4-Copy-4" fill="#412D7E" x="52" y="294" width="54" height="12" rx="2"></rect>
            <rect id="Rectangle-6" stroke="#DCDCDC" stroke-width="2" x="16" y="253" width="22" height="22"></rect>
            <rect id="Rectangle-6-Copy" stroke="#412D7E" stroke-width="2" fill="#412D7E" x="16" y="289" width="22" height="22"></rect>
            <path d="M33.3,294.3 L24,303.6 L20.7,300.3 C20.3,299.9 19.7,299.9 19.3,300.3 C18.9,300.7 18.9,301.3 19.3,301.7 L23.3,305.7 C23.5,305.9 23.7,306 24,306 C24.3,306 24.5,305.9 24.7,305.7 L34.7,295.7 C35.1,295.3 35.1,294.7 34.7,294.3 C34.3,293.9 33.7,293.9 33.3,294.3 Z" id="Shape" fill="#FFFFFF" fill-rule="nonzero"></path>
            <rect id="Rectangle-4-Copy" fill="#DCDCDC" x="14" y="167" width="124" height="36" rx="2"></rect>
            <path d="M126.7,188.3 C127.6,187.1 128.1,185.7 128.1,184.1 C128.1,180.2 125,177 121.1,177 C117.2,177 114,180.2 114,184.1 C114,188 117.2,191.2 121.1,191.2 C122.7,191.2 124.2,190.7 125.3,189.8 L128.3,192.8 C128.5,193 128.8,193.1 129,193.1 C129.2,193.1 129.5,193 129.7,192.8 C130.1,192.4 130.1,191.8 129.7,191.4 L126.7,188.3 Z M121.1,189.1 C118.3,189.1 116,186.9 116,184.1 C116,181.3 118.3,179 121.1,179 C123.9,179 126.2,181.3 126.2,184.1 C126.2,186.9 123.9,189.1 121.1,189.1 Z" id="Shape" fill="#BEBEBE" fill-rule="nonzero"></path>
            <rect id="Rectangle-5" fill="#BEBEBE" x="25" y="180" width="52" height="10" rx="1"></rect>
            <rect id="Rectangle-4" fill="#DCDCDC" x="33" y="135" width="66" height="12" rx="2"></rect>
            <rect id="Rectangle-4-Copy-7" fill="#DCDCDC" x="33" y="224" width="53" height="12" rx="2"></rect>
            <g id="minimal-right" transform="translate(16.000000, 133.000000)" fill="#DCDCDC" fill-rule="nonzero">
                <polygon id="Shape" points="1.5 15.4 0 14 6.3 7.7 0 1.4 1.5 0 9.2 7.7"></polygon>
            </g>
            <g id="minimal-right-copy-2" transform="translate(16.000000, 222.000000)" fill="#DCDCDC" fill-rule="nonzero">
                <polygon id="Shape" points="1.5 15.4 0 14 6.3 7.7 0 1.4 1.5 0 9.2 7.7"></polygon>
            </g>
            <polygon id="Combined-Shape-Copy-2" fill="#412D7E" points="152 80 152 114 0 114 0 80"></polygon>
            <g id="x" transform="translate(128.000000, 92.000000)" stroke="#FFFFFF" stroke-linecap="square" stroke-width="4">
                <path d="M0,0 L9.01086443,9.01086443" id="Line"></path>
                <path d="M9.01086443,0 L0,9.01086443" id="Line-Copy"></path>
            </g>
            <rect id="Rectangle-8" fill="#FFFFFF" x="15" y="92" width="60" height="10" rx="2"></rect>
            <rect id="Rectangle-9" fill="#FFFFFF" x="60" y="35" width="70" height="12" rx="2"></rect>
        </g>
        <g id="default" transform="translate(201.000000, 166.000000)" fill-rule="nonzero">
            <g id="Combined-Shape">
                <use fill="black" fill-opacity="1" filter="url(#filter-6)" xlink:href="#path-5"></use>
                <use fill="#FFFFFF" fill-rule="evenodd" xlink:href="#path-5"></use>
            </g>
            <polygon id="Shape" fill="#000000" points="15.502 32.018 11.814 33.566 5.614 18.818 9.296 17.268 15.502 32.018"></polygon>
            <polygon id="Shape" fill="#000000" points="2 4.814 2 27.19 7.938 21.458 8.794 21.18 18.33 21.18"></polygon>
        </g>
    </g>
</svg>