<?xml version="1.0" encoding="UTF-8"?>
<svg width="840px" height="480px" viewBox="0 0 840 480" version="1.1" xmlns="http://www.w3.org/2000/svg" xmlns:xlink="http://www.w3.org/1999/xlink">
    <!-- Generator: Sketch 49 (51002) - http://www.bohemiancoding.com/sketch -->
    <title>contact-form-featured</title>
    <desc>Created with Sketch.</desc>
    <defs>
        <path d="M6,0 L184,0 C187.313708,-6.08718376e-16 190,2.6862915 190,6 L190,322 L0,322 L0,6 C-4.05812251e-16,2.6862915 2.6862915,6.08718376e-16 6,0 Z" id="path-1"></path>
        <filter x="-14.7%" y="-9.9%" width="133.7%" height="119.9%" filterUnits="objectBoundingBox" id="filter-2">
            <feOffset dx="4" dy="0" in="SourceAlpha" result="shadowOffsetOuter1"></feOffset>
            <feGaussianBlur stdDeviation="10" in="shadowOffsetOuter1" result="shadowBlurOuter1"></feGaussianBlur>
            <feColorMatrix values="0 0 0 0 0   0 0 0 0 0   0 0 0 0 0  0 0 0 0.149569746 0" type="matrix" in="shadowBlurOuter1"></feColorMatrix>
        </filter>
        <polygon id="path-3" points="13.9684862 23.238 18.168 33.378 18.17 33.38 10.958 36.448 6.44921752 25.7669727 0 32.03 0 0 23.182 23.238"></polygon>
        <filter x="-133.7%" y="-79.6%" width="367.4%" height="270.1%" filterUnits="objectBoundingBox" id="filter-4">
            <feOffset dx="0" dy="2" in="SourceAlpha" result="shadowOffsetOuter1"></feOffset>
            <feGaussianBlur stdDeviation="10" in="shadowOffsetOuter1" result="shadowBlurOuter1"></feGaussianBlur>
            <feColorMatrix values="0 0 0 0 0   0 0 0 0 0   0 0 0 0 0  0 0 0 0.201681386 0" type="matrix" in="shadowBlurOuter1"></feColorMatrix>
        </filter>
    </defs>
    <g id="contact-form-featured" stroke="none" stroke-width="1" fill="none" fill-rule="evenodd">
        <polygon id="bg" fill="#2C97DE" points="0 480 840 480 840 0 0 0"></polygon>
        <g id="desktop" transform="translate(94.000000, 26.000000)">
            <path d="M726,454 L0,454 L0,6 C0,2.687 2.687,0 6,0 L720,0 C723.313,0 726,2.687 726,6 L726,454 Z" id="container_bg" fill="#FFFFFF"></path>
            <g id="dots" transform="translate(15.000000, 8.000000)" fill="#D5DDDF">
                <path d="M8,4 C8,6.209 6.209,8 4,8 C1.791,8 0,6.209 0,4 C0,1.791 1.791,0 4,0 C6.209,0 8,1.791 8,4" id="Fill-6"></path>
                <path d="M24,4 C24,6.209 22.209,8 20,8 C17.791,8 16,6.209 16,4 C16,1.791 17.791,0 20,0 C22.209,0 24,1.791 24,4" id="Fill-8"></path>
                <path d="M40,4 C40,6.209 38.209,8 36,8 C33.791,8 32,6.209 32,4 C32,1.791 33.791,0 36,0 C38.209,0 40,1.791 40,4" id="Fill-10"></path>
            </g>
            <rect id="Rectangle-2" fill="#D5DDDF" x="218" y="65" width="44" height="10" rx="2"></rect>
            <rect id="Rectangle-2-Copy" fill="#2B3E51" x="236" y="100" width="113" height="14" rx="2"></rect>
            <rect id="Rectangle-2-Copy-2" fill="#D5DDDF" x="236" y="164" width="73" height="14" rx="2"></rect>
            <rect id="Rectangle" stroke="#D5DDDF" stroke-width="2" x="219" y="85" width="288" height="44" rx="2"></rect>
            <rect id="Rectangle-Copy" stroke="#D5DDDF" stroke-width="2" x="219" y="149" width="288" height="44" rx="2"></rect>
            <rect id="Rectangle-2-Copy-3" fill="#2B3E51" x="236" y="228" width="129" height="14" rx="2"></rect>
            <g id="small-down" transform="translate(477.000000, 233.000000)" stroke="#2B3E51" stroke-linecap="square" stroke-width="3">
                <polyline id="Shape" points="8 0 4 4 0 0"></polyline>
            </g>
            <circle id="Oval" fill="#2C97DE" cx="229" cy="300" r="11"></circle>
            <circle id="Oval-Copy-2" fill="#D5DDDF" cx="348" cy="300" r="11"></circle>
            <circle id="Oval-Copy" fill="#FFFFFF" cx="229" cy="300" r="4"></circle>
            <rect id="Rectangle-3" fill="#2B3E51" x="249" y="293" width="54" height="14" rx="2"></rect>
            <rect id="Rectangle-3-Copy" fill="#2B3E51" x="368" y="293" width="54" height="14" rx="2"></rect>
            <rect id="Rectangle-Copy-2" stroke="#D5DDDF" stroke-width="2" x="219" y="213" width="288" height="44" rx="2"></rect>
            <rect id="Rectangle-4" fill="#2C97DE" x="379" y="341" width="128" height="46" rx="4"></rect>
            <rect id="Rectangle-5" fill="#FFFFFF" x="418" y="358" width="50" height="13" rx="2"></rect>
        </g>
        <g id="mobile" transform="translate(20.000000, 158.000000)">
            <g id="mobile_bg">
                <use fill="black" fill-opacity="1" filter="url(#filter-2)" xlink:href="#path-1"></use>
                <use fill="#FFFFFF" fill-rule="evenodd" xlink:href="#path-1"></use>
            </g>
            <rect id="Rectangle-2" fill="#D5DDDF" x="13" y="22" width="44" height="10" rx="2"></rect>
            <rect id="Rectangle-2-Copy" fill="#2B3E51" x="30" y="55" width="73" height="12" rx="2"></rect>
            <rect id="Rectangle-2-Copy-4" fill="#D5DDDF" x="30" y="109" width="44" height="12" rx="2"></rect>
            <rect id="Rectangle" stroke="#D5DDDF" stroke-width="2" x="14" y="42" width="160" height="38" rx="2"></rect>
            <rect id="Rectangle-Copy-3" stroke="#D5DDDF" stroke-width="2" x="14" y="96" width="160" height="38" rx="2"></rect>
            <rect id="Rectangle-2-Copy-5" fill="#2B3E51" x="30" y="163" width="73" height="12" rx="2"></rect>
            <rect id="Rectangle-Copy-4" stroke="#D5DDDF" stroke-width="2" x="14" y="150" width="160" height="38" rx="2"></rect>
            <g id="small-down" transform="translate(151.000000, 167.000000)" stroke="#2B3E51" stroke-linecap="square" stroke-width="3">
                <polyline id="Shape" points="8 0 4 4 0 0"></polyline>
            </g>
            <circle id="Oval" fill="#2C97DE" cx="24" cy="222" r="11"></circle>
            <circle id="Oval-Copy-3" fill="#D5DDDF" cx="114" cy="222" r="11"></circle>
            <circle id="Oval-Copy" fill="#FFFFFF" cx="24" cy="222" r="4"></circle>
            <rect id="Rectangle-3" fill="#2B3E51" x="43" y="215" width="41" height="14" rx="2"></rect>
            <rect id="Rectangle-3-Copy-2" fill="#2B3E51" x="133" y="215" width="41" height="14" rx="2"></rect>
            <rect id="Rectangle-4" fill="#2C97DE" x="13" y="255" width="162" height="46" rx="4"></rect>
            <rect id="Rectangle-5" fill="#FFFFFF" x="69" y="272" width="50" height="13" rx="2"></rect>
        </g>
        <g id="default" transform="translate(580.000000, 397.000000)" fill-rule="nonzero">
            <g id="Combined-Shape">
                <use fill="black" fill-opacity="1" filter="url(#filter-4)" xlink:href="#path-3"></use>
                <use fill="#FFFFFF" fill-rule="evenodd" xlink:href="#path-3"></use>
            </g>
            <polygon id="Shape" fill="#000000" points="15.502 32.018 11.814 33.566 5.614 18.818 9.296 17.268 15.502 32.018"></polygon>
            <polygon id="Shape" fill="#000000" points="2 4.814 2 27.19 7.938 21.458 8.794 21.18 18.33 21.18"></polygon>
        </g>
    </g>
</svg>