<?xml version="1.0" encoding="UTF-8"?>
<svg width="840px" height="480px" viewBox="0 0 840 480" version="1.1" xmlns="http://www.w3.org/2000/svg" xmlns:xlink="http://www.w3.org/1999/xlink">
    <!-- Generator: Sketch 49 (51002) - http://www.bohemiancoding.com/sketch -->
    <title>cross-reference-table-featured-final</title>
    <desc>Created with Sketch.</desc>
    <defs>
        <path d="M6,0 L184,0 C187.313708,-6.08718376e-16 190,2.6862915 190,6 L190,322 L0,322 L0,6 C-4.05812251e-16,2.6862915 2.6862915,6.08718376e-16 6,0 Z" id="path-1"></path>
        <filter x="-18.9%" y="-9.9%" width="133.7%" height="119.9%" filterUnits="objectBoundingBox" id="filter-2">
            <feOffset dx="-4" dy="0" in="SourceAlpha" result="shadowOffsetOuter1"></feOffset>
            <feGaussianBlur stdDeviation="10" in="shadowOffsetOuter1" result="shadowBlurOuter1"></feGaussianBlur>
            <feColorMatrix values="0 0 0 0 0   0 0 0 0 0   0 0 0 0 0  0 0 0 0.198086504 0" type="matrix" in="shadowBlurOuter1"></feColorMatrix>
        </filter>
    </defs>
    <g id="cross-reference-table-featured-final" stroke="none" stroke-width="1" fill="none" fill-rule="evenodd">
        <polygon id="bg" fill="#EBECF5" points="0 480 840 480 840 0 0 0"></polygon>
        <g id="desktop" transform="translate(20.000000, 26.000000)">
            <path d="M726,454 L0,454 L0,6 C0,2.687 2.687,0 6,0 L720,0 C723.313,0 726,2.687 726,6 L726,454 Z" id="container_bg" fill="#3F4259"></path>
            <g id="dots" transform="translate(15.000000, 8.000000)" fill="#EBECF5">
                <path d="M8,4 C8,6.209 6.209,8 4,8 C1.791,8 0,6.209 0,4 C0,1.791 1.791,0 4,0 C6.209,0 8,1.791 8,4" id="Fill-6"></path>
                <path d="M24,4 C24,6.209 22.209,8 20,8 C17.791,8 16,6.209 16,4 C16,1.791 17.791,0 20,0 C22.209,0 24,1.791 24,4" id="Fill-8"></path>
                <path d="M40,4 C40,6.209 38.209,8 36,8 C33.791,8 32,6.209 32,4 C32,1.791 33.791,0 36,0 C38.209,0 40,1.791 40,4" id="Fill-10"></path>
            </g>
            <g id="Group" transform="translate(66.000000, 122.000000)">
                <rect id="Rectangle" fill="#D8D8D8" opacity="0.499150815" x="0" y="0" width="594" height="228" rx="4"></rect>
                <path d="M6,0 L590,0 C592.209139,-4.05812251e-16 594,1.790861 594,4 L594,224 C594,226.209139 592.209139,228 590,228 L6,228 C2.6862915,228 4.05812251e-16,225.313708 0,222 L8.8817842e-16,6 C4.82366169e-16,2.6862915 2.6862915,6.08718376e-16 6,0 Z" id="Rectangle-Copy" fill="#FFFFFF"></path>
                <path d="M148,0 L148,228 L4,228 C1.790861,228 0,226.209139 0,224 L0,4 C0,1.790861 1.790861,0 4,0 L148,0 Z" id="Combined-Shape" fill="#79829A"></path>
                <rect id="Rectangle-2" fill="#6A758E" x="0" y="39" width="148" height="38"></rect>
                <rect id="Rectangle-2-Copy-2" fill="#F6F7FA" x="148" y="39" width="446" height="38"></rect>
                <rect id="Rectangle-2-Copy-3" fill="#F6F7FA" x="148" y="115" width="446" height="38"></rect>
                <path d="M148,190 L594,190 L594,224 C594,226.209139 592.209139,228 590,228 L148,228 L148,190 Z" id="Rectangle-2-Copy-4" fill="#F6F7FA"></path>
                <rect id="Rectangle-2-Copy" fill="#6A758E" x="0" y="115" width="148" height="38"></rect>
                <path d="M0,190 L148,190 L148,228 L4,228 C1.790861,228 2.705415e-16,226.209139 0,224 L0,190 Z" id="Rectangle-2-Copy-5" fill="#6A758E"></path>
                <rect id="Rectangle-3" fill="#C9CEDB" x="23" y="16" width="88" height="10" rx="2"></rect>
                <rect id="Rectangle-3-Copy" fill="#C9CEDB" x="23" y="53" width="60" height="10" rx="2"></rect>
                <rect id="Rectangle-3-Copy-3" fill="#C9CEDB" x="23" y="129" width="77" height="10" rx="2"></rect>
                <rect id="Rectangle-3-Copy-4" fill="#C9CEDB" x="23" y="167" width="60" height="10" rx="2"></rect>
                <rect id="Rectangle-3-Copy-2" fill="#C9CEDB" x="23" y="91" width="77" height="10" rx="2"></rect>
                <rect id="Rectangle-4" fill="#787A8D" x="179" y="16" width="88" height="10" rx="2"></rect>
                <rect id="Rectangle-4-Copy-6" fill="#787A8D" x="327" y="16" width="88" height="10" rx="2"></rect>
                <rect id="Rectangle-4-Copy" fill="#C9CEDB" x="193" y="53" width="60" height="10" rx="2"></rect>
                <rect id="Rectangle-4-Copy-7" fill="#C9CEDB" x="341" y="53" width="60" height="10" rx="2"></rect>
                <rect id="Rectangle-4-Copy-2" fill="#C9CEDB" x="184" y="91" width="78" height="10" rx="2"></rect>
                <rect id="Rectangle-4-Copy-8" fill="#C9CEDB" x="332" y="91" width="78" height="10" rx="2"></rect>
                <rect id="Rectangle-4-Copy-3" fill="#C9CEDB" x="184" y="129" width="78" height="10" rx="2"></rect>
                <rect id="Rectangle-4-Copy-9" fill="#C9CEDB" x="332" y="129" width="78" height="10" rx="2"></rect>
                <rect id="Rectangle-4-Copy-4" fill="#C9CEDB" x="193" y="167" width="60" height="10" rx="2"></rect>
                <rect id="Rectangle-4-Copy-10" fill="#C9CEDB" x="341" y="167" width="60" height="10" rx="2"></rect>
                <rect id="Rectangle-4-Copy-5" fill="#62C169" x="179" y="205" width="88" height="10" rx="2"></rect>
                <rect id="Rectangle-4-Copy-11" fill="#62C169" x="327" y="205" width="88" height="10" rx="2"></rect>
                <rect id="Rectangle-4-Copy-17" fill="#787A8D" x="476" y="16" width="88" height="10" rx="2"></rect>
                <rect id="Rectangle-4-Copy-16" fill="#C9CEDB" x="490" y="53" width="60" height="10" rx="2"></rect>
                <rect id="Rectangle-4-Copy-15" fill="#C9CEDB" x="481" y="91" width="78" height="10" rx="2"></rect>
                <rect id="Rectangle-4-Copy-14" fill="#C9CEDB" x="481" y="129" width="78" height="10" rx="2"></rect>
                <rect id="Rectangle-4-Copy-13" fill="#C9CEDB" x="490" y="167" width="60" height="10" rx="2"></rect>
                <rect id="Rectangle-4-Copy-12" fill="#62C169" x="476" y="205" width="88" height="10" rx="2"></rect>
            </g>
        </g>
        <g id="mobile" transform="translate(630.000000, 158.000000)">
            <g id="mobile_bg">
                <use fill="black" fill-opacity="1" filter="url(#filter-2)" xlink:href="#path-1"></use>
                <use fill="#3F4259" fill-rule="evenodd" xlink:href="#path-1"></use>
            </g>
            <path d="M20,73 L95,73 L95,249 L20,249 C17.790861,249 16,247.209139 16,245 L16,77 C16,74.790861 17.790861,73 20,73 Z" id="Rectangle-5" fill="#79829A"></path>
            <path d="M95,73 L170,73 C172.209139,73 174,74.790861 174,77 L174,245 C174,247.209139 172.209139,249 170,249 L95,249 L95,73 Z" id="Rectangle-5-Copy" fill="#FFFFFF"></path>
            <rect id="Rectangle-6" fill="#6A758E" x="16" y="102" width="79" height="30"></rect>
            <rect id="Rectangle-6-Copy-2" fill="#6A758E" x="16" y="161" width="79" height="30"></rect>
            <rect id="Rectangle-6-Copy" fill="#F6F7FA" x="95" y="102" width="79" height="30"></rect>
            <rect id="Rectangle-6-Copy-3" fill="#F6F7FA" x="95" y="161" width="79" height="30"></rect>
            <path d="M16,220 L95,220 L95,250 L20,250 C17.790861,250 16,248.209139 16,246 L16,220 Z" id="Rectangle-6-Copy-5" fill="#6A758E"></path>
            <path d="M95,220 L174,220 L174,246 C174,248.209139 172.209139,250 170,250 L95,250 L95,220 Z" id="Rectangle-6-Copy-4" fill="#F6F7FA"></path>
            <rect id="Rectangle-7" fill="#C9CEDB" x="28" y="84" width="47" height="8" rx="2"></rect>
            <rect id="Rectangle-7-Copy-5" fill="#787A8D" x="111" y="84" width="47" height="8" rx="2"></rect>
            <rect id="Rectangle-7-Copy-10" fill="#62C169" x="111" y="231" width="47" height="8" rx="2"></rect>
            <rect id="Rectangle-7-Copy" fill="#C9CEDB" x="28" y="114" width="32" height="8" rx="2"></rect>
            <rect id="Rectangle-7-Copy-6" fill="#C9CEDB" x="119" y="114" width="32" height="8" rx="2"></rect>
            <rect id="Rectangle-7-Copy-2" fill="#C9CEDB" x="28" y="143" width="40" height="8" rx="2"></rect>
            <rect id="Rectangle-7-Copy-7" fill="#C9CEDB" x="115" y="143" width="40" height="8" rx="2"></rect>
            <rect id="Rectangle-7-Copy-3" fill="#C9CEDB" x="28" y="172" width="40" height="8" rx="2"></rect>
            <rect id="Rectangle-7-Copy-8" fill="#C9CEDB" x="115" y="172" width="40" height="8" rx="2"></rect>
            <rect id="Rectangle-7-Copy-4" fill="#C9CEDB" x="28" y="201" width="32" height="8" rx="2"></rect>
            <rect id="Rectangle-7-Copy-9" fill="#C9CEDB" x="119" y="201" width="32" height="8" rx="2"></rect>
            <path d="M0,7 L0,6 C0,2.687 2.0769043,0 6,0 L184,0 C188.06543,0 190,2.687 190,6 L190,7 C190,3.687 187.313,1 184,1 L6,1 C2.687,1 0,3.687 0,7 Z" id="inner-shadow" fill="#FFFFFF" opacity="0.199784873"></path>
        </g>
    </g>
</svg>