<?xml version="1.0" encoding="UTF-8"?>
<svg width="840px" height="480px" viewBox="0 0 840 480" version="1.1" xmlns="http://www.w3.org/2000/svg" xmlns:xlink="http://www.w3.org/1999/xlink">
    <!-- Generator: Sketch 49 (51002) - http://www.bohemiancoding.com/sketch -->
    <title>expandable-project-presentation-featured</title>
    <desc>Created with Sketch.</desc>
    <defs>
        <path d="M6,0 L184,0 C187.313708,-6.08718376e-16 190,2.6862915 190,6 L190,322 L0,322 L0,6 C-4.05812251e-16,2.6862915 2.6862915,6.08718376e-16 6,0 Z" id="path-1"></path>
        <filter x="-14.7%" y="-9.9%" width="133.7%" height="119.9%" filterUnits="objectBoundingBox" id="filter-2">
            <feOffset dx="4" dy="0" in="SourceAlpha" result="shadowOffsetOuter1"></feOffset>
            <feGaussianBlur stdDeviation="10" in="shadowOffsetOuter1" result="shadowBlurOuter1"></feGaussianBlur>
            <feColorMatrix values="0 0 0 0 0   0 0 0 0 0   0 0 0 0 0  0 0 0 0.198086504 0" type="matrix" in="shadowBlurOuter1"></feColorMatrix>
        </filter>
        <polygon id="path-3" points="13.9684862 23.238 18.168 33.378 18.17 33.38 10.958 36.448 6.44921752 25.7669727 0 32.03 0 0 23.182 23.238"></polygon>
        <filter x="-133.7%" y="-79.6%" width="367.4%" height="270.1%" filterUnits="objectBoundingBox" id="filter-4">
            <feOffset dx="0" dy="2" in="SourceAlpha" result="shadowOffsetOuter1"></feOffset>
            <feGaussianBlur stdDeviation="10" in="shadowOffsetOuter1" result="shadowBlurOuter1"></feGaussianBlur>
            <feColorMatrix values="0 0 0 0 0   0 0 0 0 0   0 0 0 0 0  0 0 0 0.201681386 0" type="matrix" in="shadowBlurOuter1"></feColorMatrix>
        </filter>
    </defs>
    <g id="expandable-project-presentation-featured" stroke="none" stroke-width="1" fill="none" fill-rule="evenodd">
        <polygon id="bg" fill="#7B1B47" points="0 480 840 480 840 0 0 0"></polygon>
        <g id="desktop" transform="translate(94.000000, 26.000000)">
            <path d="M726,454 L0,454 L0,6 C0,2.687 2.687,0 6,0 L720,0 C723.313,0 726,2.687 726,6 L726,454 Z" id="container_bg" fill="#0B0F1A"></path>
            <polygon id="body" fill="#101524" points="0 24 726 24 726 454 1.13686838e-13 454"></polygon>
            <polygon id="body-copy" fill="#20273E" points="363 24 545 24 545 454 363 454"></polygon>
            <polygon id="body-copy-2" fill="#948EB7" points="363 24 545 24 545 112.542969 363 274.042969"></polygon>
            <g id="Group" transform="translate(363.000000, 164.000000)">
                <path d="M-5.68434189e-14,157.240304 L-5.68434189e-14,0.759695942 C3.59488214,0.258890666 7.26720749,0 11,0 C54.6304952,0 90,35.3695048 90,79 C90,122.630495 54.6304952,158 11,158 C7.26720749,158 3.59488214,157.741109 -5.68434189e-14,157.240304 Z" id="Combined-Shape" fill="#BCB6DE" opacity="0.0325520833"></path>
                <path d="M0,143.073099 L0,14.9269014 C3.57558521,14.3174371 7.2507219,14 11,14 C46.8985087,14 76,43.1014913 76,79 C76,114.898509 46.8985087,144 11,144 C7.2507219,144 3.57558521,143.682563 0,143.073099 Z" id="Combined-Shape" fill="#BCB6DE" opacity="0.148720562"></path>
                <path d="M-5.68434189e-14,129.834311 L-5.68434189e-14,28.1656892 C3.5457627,27.4020618 7.22592807,27 11,27 C39.718807,27 63,50.281193 63,79 C63,107.718807 39.718807,131 11,131 C7.22592807,131 3.5457627,130.597938 -5.68434189e-14,129.834311 Z" id="Combined-Shape" fill="#BCB6DE" opacity="0.268738678"></path>
                <path d="M-1.42108547e-12,116.427179 L-1.42108547e-12,41.5728212 C3.48864319,40.5491545 7.18019064,40 11,40 C32.5391052,40 50,57.4608948 50,79 C50,100.539105 32.5391052,118 11,118 C7.18019064,118 3.48864319,117.450845 -1.42108547e-12,116.427179 Z" id="Combined-Shape" fill="#BCB6DE" opacity="0.248245018"></path>
                <path d="M0,103.665009 L0,54.3349865 C3.35980032,52.8343294 7.08246613,52 11,52 C25.9116882,52 38,64.0883118 38,79 C38,93.9116882 25.9116882,106 11,106 C7.08246648,106 3.359801,105.165671 0,103.665009 Z" id="Combined-Shape" fill="#BCB6DE" opacity="0.376754982"></path>
                <path d="M0,90.6190014 L0,67.3809986 C2.86732922,64.6655022 6.73916518,63 11,63 C19.836556,63 27,70.163444 27,79 C27,87.836556 19.836556,95 11,95 C6.73916518,95 2.86732922,93.3344978 0,90.6190014 Z" id="Combined-Shape" fill="#BCB6DE" opacity="0.436990489"></path>
                <circle id="Oval-Copy" fill="#FFFFFF" cx="11" cy="79" r="8"></circle>
            </g>
            <rect id="Rectangle" fill="#FFFFFF" x="237" y="219" width="70" height="16" rx="2"></rect>
            <rect id="Rectangle-Copy" fill="#2B334E" x="214" y="248" width="116" height="12" rx="2"></rect>
            <rect id="Rectangle-Copy-5" fill="#FFFFFF" x="605" y="219" width="62" height="16" rx="2"></rect>
            <rect id="Rectangle-Copy-2" fill="#FFFFFF" x="414" y="219" width="80" height="16" rx="2"></rect>
            <rect id="Rectangle-Copy-4" fill="#2B334E" x="579" y="248" width="114" height="12" rx="2"></rect>
            <rect id="Rectangle-Copy-3" fill="#676B8B" opacity="0.70165308" x="396" y="248" width="116" height="12" rx="2"></rect>
            <g id="dots" transform="translate(15.000000, 8.000000)" fill="#2B334E">
                <path d="M8,4 C8,6.209 6.209,8 4,8 C1.791,8 0,6.209 0,4 C0,1.791 1.791,0 4,0 C6.209,0 8,1.791 8,4" id="Fill-6"></path>
                <path d="M24,4 C24,6.209 22.209,8 20,8 C17.791,8 16,6.209 16,4 C16,1.791 17.791,0 20,0 C22.209,0 24,1.791 24,4" id="Fill-8"></path>
                <path d="M40,4 C40,6.209 38.209,8 36,8 C33.791,8 32,6.209 32,4 C32,1.791 33.791,0 36,0 C38.209,0 40,1.791 40,4" id="Fill-10"></path>
            </g>
        </g>
        <g id="mobile" transform="translate(20.000000, 158.000000)">
            <g id="mobile_bg">
                <use fill="black" fill-opacity="1" filter="url(#filter-2)" xlink:href="#path-1"></use>
                <use fill="#171C2F" fill-rule="evenodd" xlink:href="#path-1"></use>
            </g>
            <path d="M6,0 L184,0 C187.313708,-6.08718376e-16 190,2.6862915 190,6 L190,71.0273438 L0,238.394531 L0,6 C-4.05812251e-16,2.6862915 2.6862915,6.08718376e-16 6,0 Z" id="mobile_bg-copy" fill="#948EB7"></path>
            <g id="Group" transform="translate(0.000000, 133.000000)">
                <path d="M-5.68434189e-14,157.240304 L-5.68434189e-14,0.759695942 C3.59488214,0.258890666 7.26720749,0 11,0 C54.6304952,0 90,35.3695048 90,79 C90,122.630495 54.6304952,158 11,158 C7.26720749,158 3.59488214,157.741109 -5.68434189e-14,157.240304 Z" id="Combined-Shape" fill="#BCB6DE" opacity="0.0325520833"></path>
                <path d="M0,143.073099 L0,14.9269014 C3.57558521,14.3174371 7.2507219,14 11,14 C46.8985087,14 76,43.1014913 76,79 C76,114.898509 46.8985087,144 11,144 C7.2507219,144 3.57558521,143.682563 0,143.073099 Z" id="Combined-Shape" fill="#BCB6DE" opacity="0.148720562"></path>
                <path d="M-5.68434189e-14,129.834311 L-5.68434189e-14,28.1656892 C3.5457627,27.4020618 7.22592807,27 11,27 C39.718807,27 63,50.281193 63,79 C63,107.718807 39.718807,131 11,131 C7.22592807,131 3.5457627,130.597938 -5.68434189e-14,129.834311 Z" id="Combined-Shape" fill="#BCB6DE" opacity="0.268738678"></path>
                <path d="M-1.42108547e-12,116.427179 L-1.42108547e-12,41.5728212 C3.48864319,40.5491545 7.18019064,40 11,40 C32.5391052,40 50,57.4608948 50,79 C50,100.539105 32.5391052,118 11,118 C7.18019064,118 3.48864319,117.450845 -1.42108547e-12,116.427179 Z" id="Combined-Shape" fill="#BCB6DE" opacity="0.248245018"></path>
                <path d="M0,103.665009 L0,54.3349865 C3.35980032,52.8343294 7.08246613,52 11,52 C25.9116882,52 38,64.0883118 38,79 C38,93.9116882 25.9116882,106 11,106 C7.08246648,106 3.359801,105.165671 0,103.665009 Z" id="Combined-Shape" fill="#BCB6DE" opacity="0.376754982"></path>
                <path d="M0,90.6190014 L0,67.3809986 C2.86732922,64.6655022 6.73916518,63 11,63 C19.836556,63 27,70.163444 27,79 C27,87.836556 19.836556,95 11,95 C6.73916518,95 2.86732922,93.3344978 0,90.6190014 Z" id="Combined-Shape" fill="#BCB6DE" opacity="0.436990489"></path>
                <circle id="Oval-Copy" fill="#FFFFFF" cx="11" cy="79" r="8"></circle>
            </g>
            <g id="x" transform="translate(163.000000, 19.000000)" stroke="#FFFFFF" stroke-linecap="square" stroke-width="4">
                <path d="M0,0 L9.01086443,9.01086443" id="Line"></path>
                <path d="M9.01086443,0 L0,9.01086443" id="Line-Copy"></path>
            </g>
            <rect id="Rectangle-2" fill="#FFFFFF" x="55" y="153" width="80" height="16" rx="2"></rect>
            <path d="M0,7 L0,6 C0,2.687 2.0769043,0 6,0 L184,0 C188.06543,0 190,2.687 190,6 L190,7 C190,3.687 187.313,1 184,1 L6,1 C2.687,1 0,3.687 0,7 Z" id="inner-shadow" fill="#FFFFFF" opacity="0.189821105"></path>
            <g id="minimal-down" transform="translate(85.000000, 295.000000)" stroke="#FFFFFF" stroke-linecap="square" stroke-width="2">
                <polyline id="Shape" points="0 0 10 10 20 0"></polyline>
            </g>
        </g>
        <g id="default" transform="translate(630.000000, 319.000000)" fill-rule="nonzero">
            <g id="Combined-Shape">
                <use fill="black" fill-opacity="1" filter="url(#filter-4)" xlink:href="#path-3"></use>
                <use fill="#FFFFFF" fill-rule="evenodd" xlink:href="#path-3"></use>
            </g>
            <polygon id="Shape" fill="#000000" points="15.502 32.018 11.814 33.566 5.614 18.818 9.296 17.268 15.502 32.018"></polygon>
            <polygon id="Shape" fill="#000000" points="2 4.814 2 27.19 7.938 21.458 8.794 21.18 18.33 21.18"></polygon>
        </g>
    </g>
</svg>