<?xml version="1.0" encoding="UTF-8"?>
<svg width="840px" height="480px" viewBox="0 0 840 480" version="1.1" xmlns="http://www.w3.org/2000/svg" xmlns:xlink="http://www.w3.org/1999/xlink">
    <!-- Generator: Sketch 49 (51002) - http://www.bohemiancoding.com/sketch -->
    <title>fixed-background-effect-featured-new</title>
    <desc>Created with Sketch.</desc>
    <defs>
        <path d="M6,0 L184,0 C187.313708,-6.08718376e-16 190,2.6862915 190,6 L190,322 L0,322 L0,6 C-4.05812251e-16,2.6862915 2.6862915,6.08718376e-16 6,0 Z" id="path-1"></path>
        <filter x="-14.7%" y="-9.9%" width="133.7%" height="119.9%" filterUnits="objectBoundingBox" id="filter-2">
            <feOffset dx="4" dy="0" in="SourceAlpha" result="shadowOffsetOuter1"></feOffset>
            <feGaussianBlur stdDeviation="10" in="shadowOffsetOuter1" result="shadowBlurOuter1"></feGaussianBlur>
            <feColorMatrix values="0 0 0 0 0   0 0 0 0 0   0 0 0 0 0  0 0 0 0.198086504 0" type="matrix" in="shadowBlurOuter1"></feColorMatrix>
        </filter>
        <polygon id="path-3" points="13.9684862 23.238 18.168 33.378 18.17 33.38 10.958 36.448 6.44921752 25.7669727 0 32.03 0 0 23.182 23.238"></polygon>
        <filter x="-133.7%" y="-79.6%" width="367.4%" height="270.1%" filterUnits="objectBoundingBox" id="filter-4">
            <feOffset dx="0" dy="2" in="SourceAlpha" result="shadowOffsetOuter1"></feOffset>
            <feGaussianBlur stdDeviation="10" in="shadowOffsetOuter1" result="shadowBlurOuter1"></feGaussianBlur>
            <feColorMatrix values="0 0 0 0 0   0 0 0 0 0   0 0 0 0 0  0 0 0 0.201681386 0" type="matrix" in="shadowBlurOuter1"></feColorMatrix>
        </filter>
    </defs>
    <g id="fixed-background-effect-featured-new" stroke="none" stroke-width="1" fill="none" fill-rule="evenodd">
        <polygon id="bg" fill="#93A748" points="0 480 840 480 840 0 0 0"></polygon>
        <g id="desktop" transform="translate(94.000000, 26.000000)">
            <path d="M726,454 L0,454 L0,6 C0,2.687 2.687,0 6,0 L720,0 C723.313,0 726,2.687 726,6 L726,454 Z" id="container_bg" fill="#343433"></path>
            <polygon id="Combined-Shape" fill="#C15134" points="0 24 726 24 726 454 0 454"></polygon>
            <polygon id="Combined-Shape-Copy" fill="#F2E6CD" points="0 246 726 246 726 454 0 454"></polygon>
            <rect id="Rectangle-3" fill="#D36245" x="82" y="45" width="163" height="17" rx="2"></rect>
            <rect id="Rectangle-3-Copy-4" fill="#DED3BC" x="82" y="327" width="163" height="17" rx="2"></rect>
            <rect id="Rectangle-3-Copy" fill="#D36245" x="82" y="86" width="264" height="12" rx="2"></rect>
            <rect id="Rectangle-3-Copy-5" fill="#DED3BC" x="82" y="368" width="264" height="12" rx="2"></rect>
            <rect id="Rectangle-3-Copy-2" fill="#D36245" x="82" y="112" width="264" height="12" rx="2"></rect>
            <rect id="Rectangle-3-Copy-6" fill="#DED3BC" x="82" y="394" width="264" height="12" rx="2"></rect>
            <rect id="Rectangle-3-Copy-3" fill="#D36245" x="82" y="138" width="113" height="12" rx="2"></rect>
            <rect id="Rectangle-3-Copy-7" fill="#DED3BC" x="82" y="420" width="113" height="12" rx="2"></rect>
            <g id="dots" transform="translate(15.000000, 8.000000)" fill="#4D4D4C">
                <path d="M8,4 C8,6.209 6.209,8 4,8 C1.791,8 0,6.209 0,4 C0,1.791 1.791,0 4,0 C6.209,0 8,1.791 8,4" id="Fill-6"></path>
                <path d="M24,4 C24,6.209 22.209,8 20,8 C17.791,8 16,6.209 16,4 C16,1.791 17.791,0 20,0 C22.209,0 24,1.791 24,4" id="Fill-8"></path>
                <path d="M40,4 C40,6.209 38.209,8 36,8 C33.791,8 32,6.209 32,4 C32,1.791 33.791,0 36,0 C38.209,0 40,1.791 40,4" id="Fill-10"></path>
            </g>
            <rect id="Rectangle" stroke="#4F4F4F" stroke-width="4" fill="#343433" x="459" y="86" width="168" height="306" rx="16"></rect>
            <circle id="Oval" fill="#4F4F4F" cx="543" cy="99" r="4"></circle>
            <rect id="Rectangle-4" stroke="#FFFFFF" stroke-width="2" opacity="0.59595788" x="663" y="199" width="38" height="39"></rect>
            <rect id="Rectangle-4-Copy" stroke="#FFFFFF" stroke-width="2" x="663" y="254" width="38" height="39"></rect>
            <g id="tail-down" transform="translate(675.000000, 264.000000)" stroke="#FFFFFF" stroke-width="2">
                <path d="M7,0 L7,20" id="Shape"></path>
                <polyline id="Shape" stroke-linecap="square" points="14 13 7 20 0 13"></polyline>
            </g>
            <g id="tail-down-copy" opacity="0.603374094" transform="translate(682.000000, 219.000000) rotate(-180.000000) translate(-682.000000, -219.000000) translate(675.000000, 209.000000)" stroke="#FFFFFF" stroke-width="2">
                <path d="M7,0 L7,20" id="Shape"></path>
                <polyline id="Shape" stroke-linecap="square" points="14 13 7 20 0 13"></polyline>
            </g>
            <rect id="Rectangle-2" fill="#FFFFFF" x="466" y="109" width="154" height="260"></rect>
            <rect id="Rectangle-2-Copy" fill="#0F594D" x="466" y="245" width="154" height="124"></rect>
        </g>
        <g id="mobile" transform="translate(20.000000, 158.000000)">
            <g id="mobile_bg">
                <use fill="black" fill-opacity="1" filter="url(#filter-2)" xlink:href="#path-1"></use>
                <use fill="#F2E6CD" fill-rule="evenodd" xlink:href="#path-1"></use>
            </g>
            <path d="M27,156 L163,156 C171.836556,156 179,163.163444 179,172 L179,322 L11,322 L11,172 C11,163.163444 18.163444,156 27,156 Z" id="Rectangle" stroke="#4F4F4F" stroke-width="4" fill="#343433"></path>
            <rect id="Rectangle-5" fill="#DED3BC" x="19" y="31" width="118" height="16" rx="2"></rect>
            <rect id="Rectangle-5-Copy" fill="#DED3BC" x="19" y="67" width="151" height="10" rx="2"></rect>
            <rect id="Rectangle-5-Copy-2" fill="#DED3BC" x="19" y="90" width="151" height="10" rx="2"></rect>
            <rect id="Rectangle-5-Copy-3" fill="#DED3BC" x="19" y="113" width="66" height="10" rx="2"></rect>
            <circle id="Oval" fill="#4F4F4F" cx="95" cy="169" r="4"></circle>
            <rect id="Rectangle-2" fill="#FFFFFF" x="18" y="179" width="154" height="143"></rect>
        </g>
        <g id="default" transform="translate(783.000000, 311.000000)" fill-rule="nonzero">
            <g id="Combined-Shape">
                <use fill="black" fill-opacity="1" filter="url(#filter-4)" xlink:href="#path-3"></use>
                <use fill="#FFFFFF" fill-rule="evenodd" xlink:href="#path-3"></use>
            </g>
            <polygon id="Shape" fill="#000000" points="15.502 32.018 11.814 33.566 5.614 18.818 9.296 17.268 15.502 32.018"></polygon>
            <polygon id="Shape" fill="#000000" points="2 4.814 2 27.19 7.938 21.458 8.794 21.18 18.33 21.18"></polygon>
        </g>
    </g>
</svg>