<?xml version="1.0" encoding="UTF-8"?>
<svg width="840px" height="480px" viewBox="0 0 840 480" version="1.1" xmlns="http://www.w3.org/2000/svg" xmlns:xlink="http://www.w3.org/1999/xlink">
    <!-- Generator: Sketch 49 (51002) - http://www.bohemiancoding.com/sketch -->
    <title>horizontal-timeline-featured</title>
    <desc>Created with Sketch.</desc>
    <defs>
        <linearGradient x1="100%" y1="50%" x2="0%" y2="50%" id="linearGradient-1">
            <stop stop-color="#F8F8F8" stop-opacity="0" offset="0%"></stop>
            <stop stop-color="#F8F8F8" offset="100%"></stop>
        </linearGradient>
        <path d="M6,0 L184,0 C187.313708,-6.08718376e-16 190,2.6862915 190,6 L190,322 L0,322 L0,6 C-4.05812251e-16,2.6862915 2.6862915,6.08718376e-16 6,0 Z" id="path-2"></path>
        <filter x="-14.7%" y="-9.9%" width="133.7%" height="119.9%" filterUnits="objectBoundingBox" id="filter-3">
            <feOffset dx="4" dy="0" in="SourceAlpha" result="shadowOffsetOuter1"></feOffset>
            <feGaussianBlur stdDeviation="10" in="shadowOffsetOuter1" result="shadowBlurOuter1"></feGaussianBlur>
            <feColorMatrix values="0 0 0 0 0   0 0 0 0 0   0 0 0 0 0  0 0 0 0.146342844 0" type="matrix" in="shadowBlurOuter1"></feColorMatrix>
        </filter>
        <polygon id="path-4" points="13.9684862 23.238 18.168 33.378 18.17 33.38 10.958 36.448 6.44921752 25.7669727 0 32.03 0 0 23.182 23.238"></polygon>
        <filter x="-133.7%" y="-79.6%" width="367.4%" height="270.1%" filterUnits="objectBoundingBox" id="filter-5">
            <feOffset dx="0" dy="2" in="SourceAlpha" result="shadowOffsetOuter1"></feOffset>
            <feGaussianBlur stdDeviation="10" in="shadowOffsetOuter1" result="shadowBlurOuter1"></feGaussianBlur>
            <feColorMatrix values="0 0 0 0 0   0 0 0 0 0   0 0 0 0 0  0 0 0 0.201681386 0" type="matrix" in="shadowBlurOuter1"></feColorMatrix>
        </filter>
    </defs>
    <g id="horizontal-timeline-featured" stroke="none" stroke-width="1" fill="none" fill-rule="evenodd">
        <polygon id="bg" fill="#7A9E6D" points="0 480 840 480 840 0 0 0"></polygon>
        <g id="desktop" transform="translate(94.000000, 26.000000)">
            <path d="M726,454 L0,454 L0,6 C0,2.687 2.687,0 6,0 L720,0 C723.313,0 726,2.687 726,6 L726,454 Z" id="container_bg" fill="#F8F8F8"></path>
            <g id="dots" transform="translate(15.000000, 8.000000)" fill="#7A9E6D">
                <path d="M8,4 C8,6.209 6.209,8 4,8 C1.791,8 0,6.209 0,4 C0,1.791 1.791,0 4,0 C6.209,0 8,1.791 8,4" id="Fill-6"></path>
                <path d="M24,4 C24,6.209 22.209,8 20,8 C17.791,8 16,6.209 16,4 C16,1.791 17.791,0 20,0 C22.209,0 24,1.791 24,4" id="Fill-8"></path>
                <path d="M40,4 C40,6.209 38.209,8 36,8 C33.791,8 32,6.209 32,4 C32,1.791 33.791,0 36,0 C38.209,0 40,1.791 40,4" id="Fill-10"></path>
            </g>
            <rect id="Rectangle" fill="#DFDFDF" x="144" y="89" width="446" height="3"></rect>
            <rect id="Rectangle-Copy" fill="#7A9E6D" x="144" y="89" width="221" height="3"></rect>
            <rect id="Rectangle-4" fill="url(#linearGradient-1)" x="151" y="82" width="40" height="17"></rect>
            <rect id="Rectangle-4-Copy" fill="url(#linearGradient-1)" transform="translate(556.000000, 90.500000) rotate(-180.000000) translate(-556.000000, -90.500000) " x="536" y="82" width="40" height="17"></rect>
            <rect id="Rectangle-2" fill="#DFDFDF" x="265" y="61" width="44" height="10" rx="2"></rect>
            <circle id="Oval-2" stroke="#DFDFDF" stroke-width="3" fill="#F8F8F8" cx="135" cy="90" r="16"></circle>
            <g id="bold-right" transform="translate(134.000000, 90.000000) rotate(-180.000000) translate(-134.000000, -90.000000) translate(128.000000, 82.000000)" fill="#7A9E6D" fill-rule="nonzero">
                <polygon id="Shape" points="3.6 0 0.4 3.2 5.2 8 0.4 12.8 3.6 16 11.6 8"></polygon>
            </g>
            <circle id="Oval-2-Copy" stroke="#7A9E6D" stroke-width="3" fill="#F8F8F8" cx="592" cy="90" r="16"></circle>
            <g id="bold-right" transform="translate(587.000000, 82.000000)" fill="#7A9E6D" fill-rule="nonzero">
                <polygon id="Shape" points="3.6 0 0.4 3.2 5.2 8 0.4 12.8 3.6 16 11.6 8"></polygon>
            </g>
            <circle id="Oval" stroke="#7A9E6D" stroke-width="3" fill="#F8F8F8" cx="287" cy="91" r="8"></circle>
            <circle id="Oval-Copy" stroke="#7A9E6D" stroke-width="3" fill="#7A9E6D" cx="363" cy="91" r="8"></circle>
            <circle id="Oval-Copy-2" stroke="#DFDFDF" stroke-width="3" fill="#F8F8F8" cx="485" cy="91" r="8"></circle>
            <rect id="Rectangle-2-Copy" fill="#DFDFDF" x="341" y="61" width="44" height="10" rx="2"></rect>
            <rect id="Rectangle-2-Copy-2" fill="#DFDFDF" x="463" y="61" width="44" height="10" rx="2"></rect>
            <g id="Group" transform="translate(135.000000, 154.000000)">
                <rect id="Rectangle-3" fill="#383838" x="0" y="0" width="285" height="22" rx="2"></rect>
                <rect id="Rectangle-3-Copy" fill="#DFDFDF" x="0" y="58" width="457" height="14" rx="2"></rect>
                <rect id="Rectangle-3-Copy-2" fill="#DFDFDF" x="0" y="92" width="457" height="14" rx="2"></rect>
                <rect id="Rectangle-3-Copy-3" fill="#DFDFDF" x="0" y="126" width="407" height="14" rx="2"></rect>
                <rect id="Rectangle-3-Copy-4" fill="#DFDFDF" x="0" y="160" width="457" height="14" rx="2"></rect>
                <rect id="Rectangle-3-Copy-5" fill="#DFDFDF" x="0" y="194" width="457" height="14" rx="2"></rect>
                <rect id="Rectangle-3-Copy-6" fill="#DFDFDF" x="0" y="228" width="212" height="14" rx="2"></rect>
            </g>
        </g>
        <g id="mobile" transform="translate(20.000000, 158.000000)">
            <g id="mobile_bg">
                <use fill="black" fill-opacity="1" filter="url(#filter-3)" xlink:href="#path-2"></use>
                <use fill="#F8F8F8" fill-rule="evenodd" xlink:href="#path-2"></use>
            </g>
            <rect id="Rectangle-7" fill="#383838" x="15" y="93" width="130" height="14" rx="2"></rect>
            <rect id="Rectangle-7-Copy" fill="#DFDFDF" x="15" y="124" width="156" height="11" rx="2"></rect>
            <rect id="Rectangle-7-Copy-6" fill="#DFDFDF" x="15" y="251" width="156" height="11" rx="2"></rect>
            <rect id="Rectangle-7-Copy-2" fill="#DFDFDF" x="15" y="145" width="156" height="11" rx="2"></rect>
            <rect id="Rectangle-7-Copy-7" fill="#DFDFDF" x="15" y="272" width="156" height="11" rx="2"></rect>
            <rect id="Rectangle-7-Copy-3" fill="#DFDFDF" x="15" y="166" width="156" height="11" rx="2"></rect>
            <rect id="Rectangle-7-Copy-8" fill="#DFDFDF" x="15" y="293" width="156" height="11" rx="2"></rect>
            <rect id="Rectangle-7-Copy-4" fill="#DFDFDF" x="15" y="187" width="156" height="11" rx="2"></rect>
            <path d="M17,314 L169,314 C170.104569,314 171,314.895431 171,316 L171,322 L15,322 L15,316 C15,314.895431 15.8954305,314 17,314 Z" id="Rectangle-7-Copy-9" fill="#DFDFDF"></path>
            <rect id="Rectangle-7-Copy-5" fill="#DFDFDF" x="15" y="208" width="101" height="11" rx="2"></rect>
            <rect id="Rectangle-5" fill="#D8D8D8" x="73" y="21" width="44" height="12" rx="2"></rect>
            <rect id="Rectangle-6" fill="#D8D8D8" x="34" y="50" width="121" height="3"></rect>
            <rect id="Rectangle-6-Copy" fill="#7A9E6D" x="34" y="50" width="62" height="3"></rect>
            <circle id="Oval-3" fill="#7A9E6D" cx="95" cy="51" r="9"></circle>
            <circle id="Oval-2" stroke="#DFDFDF" stroke-width="3" fill="#F8F8F8" cx="28" cy="51" r="16"></circle>
            <circle id="Oval-2-Copy-2" stroke="#DFDFDF" stroke-width="3" fill="#F8F8F8" transform="translate(161.000000, 51.000000) rotate(-360.000000) translate(-161.000000, -51.000000) " cx="161" cy="51" r="16"></circle>
            <g id="bold-right" transform="translate(27.000000, 51.000000) rotate(-180.000000) translate(-27.000000, -51.000000) translate(21.000000, 43.000000)" fill="#7A9E6D" fill-rule="nonzero">
                <polygon id="Shape" points="3.6 0 0.4 3.2 5.2 8 0.4 12.8 3.6 16 11.6 8"></polygon>
            </g>
            <g id="bold-right-copy" transform="translate(161.000000, 51.000000) rotate(-360.000000) translate(-161.000000, -51.000000) translate(155.000000, 43.000000)" fill="#7A9E6D" fill-rule="nonzero">
                <polygon id="Shape" points="3.6 0 0.4 3.2 5.2 8 0.4 12.8 3.6 16 11.6 8"></polygon>
            </g>
        </g>
        <g id="default" transform="translate(690.000000, 121.000000)" fill-rule="nonzero">
            <g id="Combined-Shape">
                <use fill="black" fill-opacity="1" filter="url(#filter-5)" xlink:href="#path-4"></use>
                <use fill="#FFFFFF" fill-rule="evenodd" xlink:href="#path-4"></use>
            </g>
            <polygon id="Shape" fill="#000000" points="15.502 32.018 11.814 33.566 5.614 18.818 9.296 17.268 15.502 32.018"></polygon>
            <polygon id="Shape" fill="#000000" points="2 4.814 2 27.19 7.938 21.458 8.794 21.18 18.33 21.18"></polygon>
        </g>
    </g>
</svg>