<?xml version="1.0" encoding="UTF-8"?>
<svg width="840px" height="480px" viewBox="0 0 840 480" version="1.1" xmlns="http://www.w3.org/2000/svg" xmlns:xlink="http://www.w3.org/1999/xlink">
    <!-- Generator: Sketch 49 (51002) - http://www.bohemiancoding.com/sketch -->
    <title>ink-transition-effect-featured</title>
    <desc>Created with Sketch.</desc>
    <defs>
        <path d="M6,0 L184,0 C187.313708,-6.08718376e-16 190,2.6862915 190,6 L190,322 L0,322 L0,6 C-4.05812251e-16,2.6862915 2.6862915,6.08718376e-16 6,0 Z" id="path-1"></path>
        <filter x="-14.7%" y="-9.9%" width="133.7%" height="119.9%" filterUnits="objectBoundingBox" id="filter-2">
            <feOffset dx="4" dy="0" in="SourceAlpha" result="shadowOffsetOuter1"></feOffset>
            <feGaussianBlur stdDeviation="10" in="shadowOffsetOuter1" result="shadowBlurOuter1"></feGaussianBlur>
            <feColorMatrix values="0 0 0 0 0   0 0 0 0 0   0 0 0 0 0  0 0 0 0.300016984 0" type="matrix" in="shadowBlurOuter1"></feColorMatrix>
        </filter>
        <path d="M6,0 L184,0 C187.313708,-6.08718376e-16 190,2.6862915 190,6 L190,322 L0,322 L0,6 C-4.05812251e-16,2.6862915 2.6862915,6.08718376e-16 6,0 Z" id="path-3"></path>
        <polygon id="path-5" points="13.9684862 23.238 18.168 33.378 18.17 33.38 10.958 36.448 6.44921752 25.7669727 0 32.03 0 0 23.182 23.238"></polygon>
        <filter x="-133.7%" y="-79.6%" width="367.4%" height="270.1%" filterUnits="objectBoundingBox" id="filter-6">
            <feOffset dx="0" dy="2" in="SourceAlpha" result="shadowOffsetOuter1"></feOffset>
            <feGaussianBlur stdDeviation="10" in="shadowOffsetOuter1" result="shadowBlurOuter1"></feGaussianBlur>
            <feColorMatrix values="0 0 0 0 0   0 0 0 0 0   0 0 0 0 0  0 0 0 0.201681386 0" type="matrix" in="shadowBlurOuter1"></feColorMatrix>
        </filter>
    </defs>
    <g id="ink-transition-effect-featured" stroke="none" stroke-width="1" fill="none" fill-rule="evenodd">
        <polygon id="bg" fill="#A4C4BC" points="0 480 840 480 840 0 0 0"></polygon>
        <g id="desktop" transform="translate(94.000000, 26.000000)">
            <path d="M726,454 L0,454 L0,6 C0,2.687 2.687,0 6,0 L720,0 C723.313,0 726,2.687 726,6 L726,454 Z" id="container_bg" fill="#202524"></path>
            <rect id="Rectangle-2" fill="#E4DCC9" x="0" y="24" width="726" height="430"></rect>
            <path d="M318.244841,24 L491.719963,24 C500.507129,26.483576 509.869281,28.7302817 520.560582,29.9835736 L520.560582,34.8853762 C552.134585,31.8700386 586.062459,55.6961165 593.88695,82.2409087 C593.691212,101.801521 596.326143,116.195775 613.450686,121.439296 C614.715453,122.89235 615.202287,125.128049 615.076815,127.96852 L621.596387,127.96852 C623.508594,141.474406 656.984766,174.416144 629.742088,183.502241 C626.439641,208.580952 645.461334,211.304175 652.553063,225.961983 C657.526307,224.789018 658.489939,227.629989 662.329912,227.597421 C658.26459,230.102686 667.002523,238.814497 667.218336,239.02544 C669.788022,241.484609 669.3313,236.971122 670.475613,237.39802 C677.71289,240.040073 685.833497,261.687572 685.140887,270.059167 C684.391061,279.12873 674.965536,286.157503 676.993178,296.186081 C685.972019,290.02914 696.451516,319.916959 696.546876,333.752539 C696.602084,341.897658 705.274771,355.011722 694.920747,364.782759 C684.667101,362.713409 671.848789,360.438628 660.691738,356.620603 C657.986542,360.448649 659.361725,367.563603 652.551055,368.049625 C651.993956,371.326512 652.877285,373.154855 655.798294,372.949924 C651.993956,378.511614 645.449289,371.166175 649.28876,379.483657 C644.380259,373.671441 635.456626,386.118101 632.997357,377.850725 C629.654759,378.301172 629.740081,382.213895 628.123989,384.388967 C624.721164,383.958061 627.662249,377.203865 624.857177,376.21178 C620.856599,381.267406 616.485122,375.785885 611.812511,379.483657 C609.383858,372.083102 593.347918,373.455988 587.36537,374.583358 C589.252482,382.33966 582.823752,391.989943 584.113112,400.713278 C579.666854,400.572983 580.840779,403.433996 577.598559,400.713278 C577.302944,404.275765 578.930579,405.9097 582.481964,405.614078 C581.980073,407.823221 578.412125,406.966421 575.97243,407.24701 C573.578909,413.460069 583.254877,407.572695 580.856337,413.780743 C577.262793,411.11514 571.876994,413.971143 575.97243,417.047609 C572.514898,419.903612 571.235075,417.157841 566.190562,417.047609 C560.210337,432.10366 540.712892,433.615129 540.034345,454 L497.273189,454 C496.357324,453.943153 495.426133,453.944567 494.48343,454 L401.402855,454 C400.322266,452.646428 399.308374,451.215993 398.368037,449.711262 C389.303874,447.095765 383.642537,449.766378 380.440468,443.172519 C379.557641,447.261113 369.459079,448.503724 370.664121,441.539086 C358.191612,444.229741 350.663237,440.076011 339.707445,439.910663 C336.993717,436.658829 339.85199,437.830792 339.707445,433.37192 C329.211887,434.584469 324.264741,424.257764 318.515071,430.110064 C318.320839,427.183413 320.522637,426.662819 320.150736,423.581342 C315.745131,425.685765 314.360914,430.841602 307.113599,430.110064 C308.401452,434.819964 301.283625,438.963673 300.60306,446.439385 C290.602368,443.853951 282.407481,448.18756 279.420222,439.910663 C275.629434,449.104487 273.8161,440.361611 269.644879,448.077829 C266.107044,448.348398 268.900573,442.275634 268.017746,439.910663 C263.288421,446.980523 266.228,441.328644 254.972579,443.172519 C258.285063,450.191772 253.303789,447.596818 248.454512,446.439385 C245.894865,447.14587 247.069291,451.58019 241.93494,449.711262 C244.360501,451.696778 244.799086,452.948284 244.275571,454 L151.014802,454 C149.520448,450.691289 147.268678,448.144554 145.808137,444.810963 C131.676876,443.538288 131.078119,447.361323 116.470061,446.439385 C115.917981,442.651925 115.416089,438.793315 109.959021,439.910663 C111.360303,431.422823 109.78888,425.931281 100.176651,428.477132 C104.751895,427.615321 103.351618,420.765424 108.330885,420.314977 C101.513189,409.000696 114.072525,399.595929 103.440955,390.91819 C104.153139,388.903456 105.521797,387.560633 108.330885,387.650823 C102.387484,385.982316 100.817065,379.924584 95.2947514,377.850725 C101.69136,368.700994 87.2695042,372.840194 93.666615,364.782759 C84.5402175,370.680154 83.0024215,355.859002 75.7485818,359.882459 C76.3006626,350.60997 69.0513398,347.335588 64.3390792,345.188575 C65.9822725,341.93173 67.156197,338.208404 70.8571459,337.021409 C70.6062001,333.997554 65.3363379,336.014794 64.3390792,333.754042 C66.9132814,324.541679 66.0957,321.867559 69.2214811,314.162865 C70.6764649,314.884883 72.1449998,315.594875 72.4837767,317.424721 C74.3051414,308.821639 80.249044,314.418402 80.6294779,304.362767 C88.0800592,311.74328 99.2064948,309.511589 100.177153,296.189088 C103.42389,297.842563 107.133873,299.013023 108.331387,302.726328 C110.540212,302.215253 109.686996,298.631721 109.959021,296.189088 C110.607465,292.280873 102.531527,297.101505 105.068589,291.290792 L111.587158,291.290792 C108.081445,286.10389 102.793514,282.683201 101.80529,274.960469 C100.509907,275.821278 99.1658416,276.66405 96.9228879,276.595906 C79.0344663,246.503658 56.6370502,230.978026 38.2622956,201.470006 C42.0264829,192.45105 34.7992433,185.212335 41.5245912,176.974521 C40.4475318,174.782915 38.042969,173.931124 35,173.704147 C40.0189163,172.182449 40.0189163,157.349272 38.2622956,160.641191 C39.4939377,158.339353 41.5501877,160.616139 43.1537315,159.004752 C46.902862,155.235329 51.6402171,146.744984 51.2999346,142.678938 C63.9812305,143.311768 68.5650068,126.695344 79.0043528,126.340097 C76.2188542,117.571667 85.2478847,120.628091 83.8957887,113.280648 C92.8520449,113.917988 94.4711473,100.384042 106.698733,96.9463167 C108.608933,97.2098706 108.083452,99.9250775 108.333896,101.849121 C110.692787,99.844909 110.795675,95.6115112 113.2168,93.675943 C122.197147,94.7952956 125.01577,91.9262655 127.889602,98.5777456 C137.243356,79.4760975 169.503947,76.9633162 184.904491,56.1165001 C187.228751,55.9787105 189.527917,55.8489377 189.795927,57.747929 C195.28612,46.0733913 207.019342,48.6007033 215.878232,46.3239179 C224.396838,44.1192842 231.628093,38.6983905 238.681176,38.1507394 C250.220669,37.2538543 264.820194,43.4829467 279.421226,41.4211131 C291.380801,39.7215409 301.835204,30.1068326 315.269338,31.6205141 C314.023168,29.4981361 314.966671,26.1784309 318.244841,24 Z" id="Combined-Shape" fill="#402F44"></path>
            <rect id="Rectangle-3" fill="#A4C4BC" x="275" y="210" width="176" height="58"></rect>
            <rect id="Rectangle-4" fill="#FFFFFF" x="328" y="233" width="70" height="12" rx="2"></rect>
            <g id="dots" transform="translate(15.000000, 8.000000)" fill="#A4C4BC">
                <path d="M8,4 C8,6.209 6.209,8 4,8 C1.791,8 0,6.209 0,4 C0,1.791 1.791,0 4,0 C6.209,0 8,1.791 8,4" id="Fill-6"></path>
                <path d="M24,4 C24,6.209 22.209,8 20,8 C17.791,8 16,6.209 16,4 C16,1.791 17.791,0 20,0 C22.209,0 24,1.791 24,4" id="Fill-8"></path>
                <path d="M40,4 C40,6.209 38.209,8 36,8 C33.791,8 32,6.209 32,4 C32,1.791 33.791,0 36,0 C38.209,0 40,1.791 40,4" id="Fill-10"></path>
            </g>
        </g>
        <g id="mobile" transform="translate(20.000000, 158.000000)">
            <g id="Rectangle">
                <use fill="black" fill-opacity="1" filter="url(#filter-2)" xlink:href="#path-1"></use>
                <use fill="#E4DCC9" fill-rule="evenodd" xlink:href="#path-1"></use>
            </g>
            <g id="Group">
                <mask id="mask-4" fill="white">
                    <use xlink:href="#path-3"></use>
                </mask>
                <use id="Rectangle-Copy" fill="#E4DCC9" opacity="0.565217391" xlink:href="#path-3"></use>
                <path d="M74.4987358,361.302063 C77.8845938,367.032804 59.1992827,372.177265 50.7475729,371.660178 C45.7720036,371.353306 37.4026568,376.096352 31.8690255,369.372636 C33.5585227,363.209317 35.4803258,355.486815 38.2759157,348.842325 C36.052115,347.035954 31.6504468,347.579978 31.6367196,343.407365 C29.657896,342.932004 28.5037582,343.39152 28.5085099,345.182574 C25.2720668,342.63147 30.0290574,338.949536 24.7900322,340.94077 C28.5422999,338.188958 21.3133637,332.231101 26.4663302,331.07439 C26.3306424,329.019774 23.9352522,328.908857 22.6765768,327.831372 C23.0783603,325.776756 27.0819407,327.847217 27.8031448,326.183454 C24.8845384,323.531996 28.4118918,321.097092 26.3485933,318.091754 C30.9693682,316.919197 30.7961947,307.084508 30.3585094,303.393066 C25.5423864,304.216497 19.9174166,299.895994 14.5390079,300.318537 C14.8109113,297.614262 13.0147646,298.211104 14.8098554,296.346633 C12.6451871,296.01969 11.5850276,296.948756 11.6130099,299.119571 C10.2862266,298.723437 10.9572738,296.579031 10.887582,295.084285 C7.19180687,293.362422 10.3870685,299.510424 6.69551706,297.788561 C8.47318491,295.708064 6.95263742,292.306065 4.90359408,294.678116 C3.30332345,292.448673 5.03453012,291.783168 5.31065732,288.709167 C-4.1711178,284.182674 -3.72656884,271.02574 -18.5355398,271.115531 C-18.7081853,269.494022 -17.4743244,269.472894 -17.3359968,268.205265 C-24.2671591,271.93949 -27.6577688,261.507958 -30.9549282,262.284381 C-34.9331662,259.907576 -26.2391191,253.590557 -26.6936995,258.576565 C-24.2391768,255.106431 -22.823167,254.599379 -22.1626792,250.907409 C-20.5898629,251.097553 -18.3269925,250.690856 -18.2462134,252.175038 C-9.32091648,244.981243 -17.0846841,229.229894 -25.1852953,221.757748 C-25.1852953,219.258406 -23.4430013,218.752411 -21.9208699,217.982854 C-22.2735524,216.738465 -23.0602246,215.86116 -24.77876,215.798835 C-24.8093821,213.614287 -23.7455269,212.695256 -21.5819145,213.021143 C-23.4519767,201.663185 -17.8391502,190.384455 -7.65306595,185.030834 C-5.67793812,179.615417 -7.07230128,176.051795 -2.91561018,174.372714 C-5.37435659,173.664426 -5.71383993,167.453572 -1.51015969,168.482464 C-2.63473127,160.767356 0.21312746,156.348612 0.770661539,149.676129 C2.86827792,148.157615 2.0335607,149.850956 4.76262666,149.948669 C4.45851716,143.499078 10.970473,140.913642 7.63635582,137.166742 C9.4314466,137.170967 9.65900076,138.535253 11.5549334,138.434371 C10.4525365,135.660904 7.36339643,134.601906 8.11047097,130.213796 C5.18024925,130.802187 2.94588919,126.289956 -1.58988284,125.563181 C0.406891671,119.574162 -1.90085592,114.396953 3.27850896,112.920693 C-2.17645515,110.226981 3.23627153,109.487531 -1.30108441,106.621105 C-1.31956329,104.452402 2.27114625,106.409833 3.75262411,105.969332 C-0.365525334,102.79128 2.9606723,104.819487 2.30282432,97.8797452 C-2.11943462,99.6063618 -0.328567583,96.6781384 0.579009199,93.7694577 C0.254836922,92.1801676 -2.50221134,92.7131 -1.14638983,89.6586419 C-4.51482488,93.2375816 -4.39180837,89.0549335 -6.99521797,87.2654637 C-8.37268617,87.8263896 -8.99410436,89.2619796 -9.25597643,91.1037392 C-11.6745973,91.3356097 -8.39750066,86.6142192 -12.0436468,87.9182927 C-11.1946745,86.200127 -10.2253254,87.9029755 -9.05270879,88.1221698 C-10.6329167,85.4448313 -13.6460293,84.0139949 -13.4981983,79.8329314 C-17.9394641,80.1942057 -13.8461292,83.6484952 -19.6859818,82.4062186 C-17.7852975,79.902651 -16.0430035,76.5788217 -12.4327591,78.9086185 C-11.6270802,73.4530595 -15.6301326,68.4580724 -11.482417,65.0011421 C-14.1048334,64.7280736 -12.9485838,56.3918274 -15.0678468,58.7686321 C-14.0699875,51.9477308 -11.5605562,41.9905038 -6.39069475,34.4127223 C-0.285274217,35.6724288 2.04412006,32.6169143 5.84601675,31.2552693 C7.20922981,22.6934907 4.89989831,22.1705937 6.06987513,13.3008868 C8.40771689,13.1228906 10.7846283,12.9776414 10.3279361,9.60363514 C15.4492245,10.8121083 18.8715123,10.0832215 17.7194863,4.11691359 C18.0547459,6.94214208 22.2959119,6.37382168 22.3656037,9.42827977 C29.5575821,5.74370435 34.7765446,13.7926213 40.5192512,7.67261338 C41.7182662,8.1907568 42.4817078,9.08126629 42.3106462,10.7888684 C43.5777691,7.23422497 47.3384843,6.52963443 48.8368571,3.2491158 C54.1556055,7.53053328 52.2285228,-1.43477394 56.8830876,2.80122016 C53.6624835,-3.00874681 62.7736252,-3.328295 60.6195162,-7.9208098 C66.2587411,-7.19826118 68.5596252,-11.480735 70.0664455,-14.2642374 C71.9850808,-13.1265402 74.2115213,-12.2571579 74.7833105,-9.95007281 C76.6396456,-9.97700993 75.6280591,-13.2775994 77.0493486,-13.7878201 C82.5671409,-11.8335585 84.2339355,-12.2207135 88.8093051,-9.99443983 C88.3077357,-9.13562108 87.8135577,-8.27152054 86.6815946,-8.14053219 C91.8588476,-6.67113872 88.1947505,-3.28128708 94.3186499,-2.62951442 C89.501999,1.60542332 90.4016563,8.48178333 98.4964598,9.62898772 C97.3528813,11.5399387 96.4827903,13.7524797 94.1671232,14.3297792 C94.3872858,15.6988187 96.6116144,15.3248681 98.0915084,15.5947674 C100.450469,16.1530525 97.8433635,11.0291898 101.286242,12.8170751 C101.19596,14.140163 101.105677,15.4653636 101.014867,16.7910925 C104.327337,14.8701061 106.636141,11.7887109 111.392603,11.5093043 C110.7828,10.6172103 110.501921,9.54078186 110.597484,8.46435343 C129.7152,-1.18705808 140.126727,-14.1945178 158.906544,-24.1675902 C164.258555,-21.4955336 168.977532,-25.602652 173.727659,-21.1569709 C175.110406,-21.7221223 175.730769,-23.1529587 175.99792,-25 C176.718069,-21.8752941 185.775358,-21.2567967 183.838771,-22.4647417 C185.192481,-21.6196556 183.716811,-20.4576622 184.633891,-19.414509 C186.78008,-16.971682 191.766737,-13.7297204 194.263497,-13.7672211 C193.340609,-6.06267673 203.298083,-2.57616836 203.079505,3.80423174 C208.54978,2.47163658 206.309084,7.84902511 210.850136,7.33088169 C210.088278,12.7647854 218.28498,14.3160465 219.875219,21.914427 C219.634994,23.0679695 217.998821,22.6343347 216.813005,22.7066952 C217.937049,24.2278502 220.51934,24.4681716 221.600618,26.0247145 C220.544682,31.4533364 222.177687,33.2919269 217.997237,34.7660739 C229.271463,41.2626734 229.463644,61.0387446 241.551996,71.2975617 C241.539325,72.7204755 241.522958,74.1275438 240.352453,74.2120525 C247.252993,78.0455743 245.220845,85.0925361 246.242463,90.5898212 C247.233458,95.8753066 250.243403,100.510076 250.284585,104.833219 C250.352165,111.906062 245.941521,120.547067 246.593033,129.535086 C247.133672,136.897371 252.569102,143.671792 251.08604,151.799408 C253.240677,150.726677 257.03043,153.192215 256.598025,159.159051 C262.134296,154.532733 259.951677,165.911289 260.97435,168.440738 C262.651704,172.596977 259.950093,192.024978 259.211994,194.265513 C263.511236,197.882481 262.685494,212.175 257.78648,215.134386 C260.109539,240.773242 248.03333,253.038082 243.543491,277.027964 C242.545104,276.958773 241.548828,276.89592 240.550441,276.826728 C241.078409,296.200327 225.118996,315.891362 208.585682,319.556394 C196.65044,318.622046 187.751541,319.625058 183.837715,329.850599 C182.897933,330.558359 181.514657,330.759067 179.78345,330.568923 C179.693168,331.894651 179.602885,333.218796 179.512075,334.540827 C171.186021,335.142951 149.68189,354.184326 145.265438,337.192813 C130.08953,334.13413 127.635535,345.616737 118.391873,349.329834 C118.900834,352.414398 117.12475,352.879196 116.986423,355.22431 C115.626378,352.642044 109.943331,357.606396 109.80606,357.728406 C108.197342,359.190933 110.971285,359.101142 110.664007,359.782493 C108.749596,364.081869 95.1945487,368.133528 90.1118019,367.361859 C84.6056249,366.525752 80.7060542,360.488668 74.4987358,361.302063" id="Fill-1" fill="#402F44" mask="url(#mask-4)"></path>
            </g>
            <g id="x" transform="translate(160.000000, 20.000000)" stroke="#FFFFFF" stroke-linecap="square" stroke-width="4">
                <path d="M0,0 L9.01086443,9.01086443" id="Line"></path>
                <path d="M9.01086443,0 L0,9.01086443" id="Line-Copy"></path>
            </g>
            <rect id="Rectangle-5" fill="#E4DCC9" x="21" y="65" width="82" height="12" rx="2"></rect>
            <rect id="Rectangle-5-Copy" fill="#503D54" x="21" y="102" width="146" height="12" rx="2"></rect>
            <rect id="Rectangle-5-Copy-2" fill="#503D54" x="21" y="130" width="146" height="12" rx="2"></rect>
            <rect id="Rectangle-5-Copy-3" fill="#503D54" x="21" y="158" width="146" height="12" rx="2"></rect>
            <rect id="Rectangle-5-Copy-4" fill="#503D54" x="21" y="186" width="146" height="12" rx="2"></rect>
            <rect id="Rectangle-5-Copy-6" fill="#503D54" x="21" y="256" width="146" height="12" rx="2"></rect>
            <rect id="Rectangle-5-Copy-7" fill="#503D54" x="21" y="284" width="146" height="12" rx="2"></rect>
            <rect id="Rectangle-5-Copy-5" fill="#503D54" x="21" y="214" width="94" height="12" rx="2"></rect>
        </g>
        <g id="default" transform="translate(510.000000, 278.000000)" fill-rule="nonzero">
            <g id="Combined-Shape">
                <use fill="black" fill-opacity="1" filter="url(#filter-6)" xlink:href="#path-5"></use>
                <use fill="#FFFFFF" fill-rule="evenodd" xlink:href="#path-5"></use>
            </g>
            <polygon id="Shape" fill="#000000" points="15.502 32.018 11.814 33.566 5.614 18.818 9.296 17.268 15.502 32.018"></polygon>
            <polygon id="Shape" fill="#000000" points="2 4.814 2 27.19 7.938 21.458 8.794 21.18 18.33 21.18"></polygon>
        </g>
    </g>
</svg>