<?xml version="1.0" encoding="UTF-8"?>
<svg width="840px" height="480px" viewBox="0 0 840 480" version="1.1" xmlns="http://www.w3.org/2000/svg" xmlns:xlink="http://www.w3.org/1999/xlink">
    <!-- Generator: Sketch 49 (51002) - http://www.bohemiancoding.com/sketch -->
    <title>intro-page-full-width-navigation-featured-2</title>
    <desc>Created with Sketch.</desc>
    <defs></defs>
    <g id="intro-page-full-width-navigation-featured-2" stroke="none" stroke-width="1" fill="none" fill-rule="evenodd">
        <polygon id="bg" fill="#EEECF5" points="0 480 840 480 840 0 0 0"></polygon>
        <g id="desktop" transform="translate(57.000000, 26.000000)">
            <path d="M726,454 L0,454 L0,6 C0,2.687 2.687,0 6,0 L720,0 C723.313,0 726,2.687 726,6 L726,454 Z" id="container_bg" fill="#FFFFFF"></path>
            <polygon id="body" fill="#56555C" points="0 24 726 24 726 454 1.13686838e-13 454"></polygon>
            <path d="M0,429.616321 L0,310.928434 C10.0440474,302.818945 18.4314172,296.193061 25.1621094,291.050781 C65.9550781,259.884766 125.779297,213.996094 137.419922,205.675781 C149.060547,197.355469 169.816406,182.101563 180.773438,182.101563 C191.730469,182.101563 209.873047,191.457031 231.925781,212.880859 C247.932524,228.431117 318.718568,305.851445 362,352.947562 L362,439.014569 L0,429.616321 Z" id="Combined-Shape" fill="#444249"></path>
            <path d="M317.523788,304.516381 C318.848251,305.957486 320.171018,307.397007 321.490761,308.833454 L263.128906,397.855469 C166.47526,404.803385 135.696615,400.295573 170.792969,384.332031 C204.011661,369.222542 252.921934,342.617325 317.523788,304.516381 Z" id="Combined-Shape" fill="#3E3C42"></path>
            <path d="M0,342.014159 L0,310.928434 C10.0440474,302.818945 18.4314172,296.193061 25.1621094,291.050781 C65.9550781,259.884766 125.779297,213.996094 137.419922,205.675781 C149.060547,197.355469 169.816406,182.101562 180.773438,182.101562 C180.961627,182.101562 181.151937,182.104322 181.34435,182.109856 C156.434761,198.530612 56.1825603,279.416729 13.9296875,326.355469 C9.31229204,331.484936 4.66906441,336.704499 0,342.014159 Z" id="Combined-Shape" fill="#3D3C41"></path>
            <circle id="Oval" fill="#E6D698" cx="407" cy="174" r="67"></circle>
            <path d="M378.503207,234.655227 L473.431585,165.233007 C473.80656,168.102221 474,171.02852 474,174 C474,211.003078 444.003078,241 407,241 C396.809658,241 387.150668,238.725015 378.503211,234.655228 L378.503207,234.655227 Z" id="Combined-Shape" fill="#DBCC94"></path>
            <path d="M726,306.947562 L726,393.014569 L226.4375,380.044922 C307.72526,310.826172 361.966797,265.828125 389.162109,245.050781 C429.955078,213.884766 489.779297,167.996094 501.419922,159.675781 C513.060547,151.355469 533.816406,136.101562 544.773438,136.101562 C555.730469,136.101562 573.873047,145.457031 595.925781,166.880859 C611.932524,182.431117 682.718568,259.851445 726,306.947562 Z" id="Combined-Shape" fill="#4B4950"></path>
            <path d="M292.54651,381.761245 L229.813658,380.132574 L226.761071,379.769398 C307.869218,310.70675 362.002897,265.800544 389.162109,245.050781 C429.955078,213.884766 489.779297,167.996094 501.419922,159.675781 C513.060547,151.355469 533.816406,136.101562 544.773437,136.101562 C544.961627,136.101562 545.151937,136.104322 545.34435,136.109856 C520.434761,152.530612 420.18256,233.416729 377.929687,280.355469 C350.387721,310.951855 321.926667,344.753779 292.546526,381.761241 L292.54651,381.761245 Z" id="Combined-Shape" fill="#46444B"></path>
            <path d="M726,359.240519 L726,454 L0,454 L0,396.21309 C67.8130904,373.604119 179.724211,363.988281 251.068359,363.988281 C327.773437,363.988281 362.263672,366.082031 394.046875,363.988281 C425.830078,361.894531 547.78125,349.279297 621.605469,352.150391 C656.344612,353.501429 691.142789,355.864805 726,359.240519 Z" id="Combined-Shape" fill="#3A393F"></path>
            <path d="M212.363769,123.357427 C215.46948,114.974604 223.537018,109 233,109 C245.150264,109 255,118.849736 255,131 C255,132.365986 254.875507,133.702895 254.637248,135 L285,135 C289.970563,135 294,139.029437 294,144 C294,148.970563 289.970563,153 285,153 L204,153 C195.163444,153 188,145.836556 188,137 C188,128.163444 195.163444,121 204,121 C207.065733,121 209.930081,121.862233 212.36377,123.357425 L212.363769,123.357427 Z" id="Combined-Shape-Copy" fill="#FFFFFF" transform="translate(241.000000, 131.000000) scale(-1, 1) translate(-241.000000, -131.000000) "></path>
            <path d="M445.307138,107.420681 C447.768267,100.752526 454.161411,96 461.660377,96 C471.288889,96 479.09434,103.835017 479.09434,113.5 C479.09434,114.58658 478.995685,115.65003 478.806875,116.681818 L502.867925,116.681818 C506.806861,116.681818 510,119.887052 510,123.840909 C510,127.794766 506.806861,131 502.867925,131 L438.679245,131 C431.676691,131 426,125.301806 426,118.272727 C426,111.243649 431.676691,105.545455 438.679245,105.545455 C441.108694,105.545455 443.378554,106.231321 445.307139,107.420679 L445.307138,107.420681 Z" id="Combined-Shape-Copy-3" fill="#FFFFFF" transform="translate(468.000000, 113.500000) scale(-1, 1) translate(-468.000000, -113.500000) "></path>
            <path d="M288.776771,125.173563 C291.986124,128.099744 294,132.314689 294,137 C294,145.836556 286.836556,153 278,153 L241,153 C241,144.163444 248.163444,137 257,137 C260.065733,137 262.930081,137.862233 265.36377,139.357425 C268.46948,130.974604 276.537018,125 286,125 C286.940543,125 287.867301,125.059022 288.776771,125.173563 Z" id="Combined-Shape" fill="#EBEBEB"></path>
            <path d="M273.363769,148.357427 C276.46948,139.974604 284.537018,134 294,134 C306.150264,134 316,143.849736 316,156 C316,157.365986 315.875507,158.702895 315.637248,160 L346,160 C350.970563,160 355,164.029437 355,169 C355,173.970563 350.970563,178 346,178 L265,178 C256.163444,178 249,170.836556 249,162 C249,153.163444 256.163444,146 265,146 C268.065733,146 270.930081,146.862233 273.36377,148.357425 L273.363769,148.357427 Z" id="Combined-Shape-Copy-2" fill="#FFFFFF"></path>
            <rect id="Rectangle" fill="#FFFFFF" x="681" y="418" width="24" height="4"></rect>
            <rect id="Rectangle-Copy" fill="#FFFFFF" x="681" y="426" width="24" height="4"></rect>
            <circle id="Oval-2" fill="#FFFFFF" cx="42" cy="428" r="16"></circle>
            <rect id="Rectangle-2" fill="#4A4A4F" x="70" y="423" width="55" height="10" rx="2"></rect>
            <rect id="Rectangle-Copy-2" fill="#FFFFFF" x="681" y="434" width="24" height="4"></rect>
            <g id="dots" transform="translate(15.000000, 8.000000)" fill="#EEECF5">
                <path d="M8,4 C8,6.209 6.209,8 4,8 C1.791,8 0,6.209 0,4 C0,1.791 1.791,0 4,0 C6.209,0 8,1.791 8,4" id="Fill-6"></path>
                <path d="M24,4 C24,6.209 22.209,8 20,8 C17.791,8 16,6.209 16,4 C16,1.791 17.791,0 20,0 C22.209,0 24,1.791 24,4" id="Fill-8"></path>
                <path d="M40,4 C40,6.209 38.209,8 36,8 C33.791,8 32,6.209 32,4 C32,1.791 33.791,0 36,0 C38.209,0 40,1.791 40,4" id="Fill-10"></path>
            </g>
        </g>
    </g>
</svg>