<?xml version="1.0" encoding="UTF-8"?>
<svg width="840px" height="480px" viewBox="0 0 840 480" version="1.1" xmlns="http://www.w3.org/2000/svg" xmlns:xlink="http://www.w3.org/1999/xlink">
    <!-- Generator: Sketch 49 (51002) - http://www.bohemiancoding.com/sketch -->
    <title>login-signup-featured-final</title>
    <desc>Created with Sketch.</desc>
    <defs>
        <path d="M6,0 L184,0 C187.313708,-6.08718376e-16 190,2.6862915 190,6 L190,322 L0,322 L0,6 C-4.05812251e-16,2.6862915 2.6862915,6.08718376e-16 6,0 Z" id="path-1"></path>
        <filter x="-14.7%" y="-9.9%" width="133.7%" height="119.9%" filterUnits="objectBoundingBox" id="filter-2">
            <feOffset dx="4" dy="0" in="SourceAlpha" result="shadowOffsetOuter1"></feOffset>
            <feGaussianBlur stdDeviation="10" in="shadowOffsetOuter1" result="shadowBlurOuter1"></feGaussianBlur>
            <feColorMatrix values="0 0 0 0 0   0 0 0 0 0   0 0 0 0 0  0 0 0 0.198086504 0" type="matrix" in="shadowBlurOuter1"></feColorMatrix>
        </filter>
        <polygon id="path-3" points="13.9684862 23.238 18.168 33.378 18.17 33.38 10.958 36.448 6.44921752 25.7669727 0 32.03 0 0 23.182 23.238"></polygon>
        <filter x="-133.7%" y="-79.6%" width="367.4%" height="270.1%" filterUnits="objectBoundingBox" id="filter-4">
            <feOffset dx="0" dy="2" in="SourceAlpha" result="shadowOffsetOuter1"></feOffset>
            <feGaussianBlur stdDeviation="10" in="shadowOffsetOuter1" result="shadowBlurOuter1"></feGaussianBlur>
            <feColorMatrix values="0 0 0 0 0   0 0 0 0 0   0 0 0 0 0  0 0 0 0.201681386 0" type="matrix" in="shadowBlurOuter1"></feColorMatrix>
        </filter>
    </defs>
    <g id="login-signup-featured-final" stroke="none" stroke-width="1" fill="none" fill-rule="evenodd">
        <polygon id="bg" fill="#29889B" points="0 480 840 480 840 0 0 0"></polygon>
        <g id="desktop" transform="translate(94.000000, 26.000000)">
            <path d="M726,454 L0,454 L0,6 C0,2.687 2.687,0 6,0 L720,0 C723.313,0 726,2.687 726,6 L726,454 Z" id="container_bg" fill="#FFFFFF"></path>
            <polygon id="body" fill="#52545E" points="0 24 726 24 726 454 1.13686838e-13 454"></polygon>
            <polygon id="body-copy" fill="#343642" points="0 24 726 24 726 82 1.13686838e-13 82"></polygon>
            <g id="dots" transform="translate(15.000000, 8.000000)" fill="#D2D8D8">
                <path d="M8,4 C8,6.209 6.209,8 4,8 C1.791,8 0,6.209 0,4 C0,1.791 1.791,0 4,0 C6.209,0 8,1.791 8,4" id="Fill-6"></path>
                <path d="M24,4 C24,6.209 22.209,8 20,8 C17.791,8 16,6.209 16,4 C16,1.791 17.791,0 20,0 C22.209,0 24,1.791 24,4" id="Fill-8"></path>
                <path d="M40,4 C40,6.209 38.209,8 36,8 C33.791,8 32,6.209 32,4 C32,1.791 33.791,0 36,0 C38.209,0 40,1.791 40,4" id="Fill-10"></path>
            </g>
            <circle id="Oval" fill="#4C3A48" cx="29" cy="53" r="10"></circle>
            <rect id="Rectangle" fill="#373944" x="46" y="49" width="48" height="8" rx="1"></rect>
            <rect id="Rectangle-2" stroke="#52545E" stroke-width="2" x="575" y="43" width="55" height="20" rx="10"></rect>
            <rect id="Rectangle-2-Copy" fill="#32424F" x="646" y="42" width="55" height="22" rx="11"></rect>
            <rect id="Rectangle-3" fill="#FFFFFF" x="204" y="124" width="318" height="236" rx="3"></rect>
            <path d="M363,124 L519,124 C520.656854,124 522,125.343146 522,127 L522,165 C522,166.656854 520.656854,168 519,168 L363,168 L363,124 Z" id="Combined-Shape" fill="#D2D8D8"></path>
            <rect id="Rectangle-4" fill="#A8B2B2" x="418" y="141" width="50" height="10" rx="1"></rect>
            <rect id="Rectangle-4-Copy" fill="#343642" x="259" y="141" width="50" height="10" rx="1"></rect>
            <rect id="Rectangle-5" stroke="#D2D8D8" stroke-width="2" x="227" y="196" width="272" height="34" rx="2"></rect>
            <rect id="Rectangle-5-Copy" stroke="#D2D8D8" stroke-width="2" x="227" y="248" width="272" height="34" rx="2"></rect>
            <rect id="Rectangle-5-Copy-2" fill="#29889B" x="226" y="299" width="274" height="36" rx="3"></rect>
            <rect id="Rectangle-6" fill="#FFFFFF" x="337" y="312" width="52" height="10" rx="2"></rect>
        </g>
        <g id="mobile" transform="translate(20.000000, 158.000000)">
            <g id="mobile_bg">
                <use fill="black" fill-opacity="1" filter="url(#filter-2)" xlink:href="#path-1"></use>
                <use fill="#52545E" fill-rule="evenodd" xlink:href="#path-1"></use>
            </g>
            <path d="M190,37 L0,37 L0,6 C-4.05812251e-16,2.6862915 2.6862915,6.08718376e-16 6,0 L184,0 C187.313708,-6.08718376e-16 190,2.6862915 190,6 L190,37 Z" id="Combined-Shape" fill="#343642"></path>
            <rect id="Rectangle-7" fill="#FFFFFF" x="11" y="32" width="168" height="182" rx="3"></rect>
            <path d="M95,67 L95,32 L176,32 C177.656854,32 179,33.3431458 179,35 L179,67 L95,67 Z" id="Combined-Shape" fill="#D2D8D8"></path>
            <rect id="Rectangle-8" fill="#343642" x="33" y="46" width="40" height="8" rx="1"></rect>
            <rect id="Rectangle-8-Copy" fill="#A8B2B2" x="117" y="46" width="40" height="8" rx="1"></rect>
            <path d="M0,7 L0,6 C0,2.687 2.0769043,0 6,0 L184,0 C188.06543,0 190,2.687 190,6 L190,7 C190,3.687 187.313,1 184,1 L6,1 C2.687,1 0,3.687 0,7 Z" id="inner-shadow" fill="#FFFFFF" opacity="0.201709692"></path>
            <rect id="Rectangle-9" stroke="#D2D8D8" stroke-width="2" x="24" y="85" width="142" height="26" rx="2"></rect>
            <rect id="Rectangle-9-Copy" stroke="#D2D8D8" stroke-width="2" x="24" y="129" width="142" height="26" rx="2"></rect>
            <rect id="Rectangle-9-Copy-2" fill="#29889B" x="23" y="169" width="144" height="28" rx="2"></rect>
            <rect id="Rectangle-10" fill="#FFFFFF" x="80" y="179" width="30" height="8" rx="1"></rect>
            <g id="x" transform="translate(160.000000, 12.000000)" stroke="#FFFFFF" stroke-linecap="square" stroke-width="4">
                <path d="M0,0 L9.01086443,9.01086443" id="Line"></path>
                <path d="M9.01086443,0 L0,9.01086443" id="Line-Copy"></path>
            </g>
        </g>
        <g id="default" transform="translate(530.000000, 344.000000)" fill-rule="nonzero">
            <g id="Combined-Shape">
                <use fill="black" fill-opacity="1" filter="url(#filter-4)" xlink:href="#path-3"></use>
                <use fill="#FFFFFF" fill-rule="evenodd" xlink:href="#path-3"></use>
            </g>
            <polygon id="Shape" fill="#000000" points="15.502 32.018 11.814 33.566 5.614 18.818 9.296 17.268 15.502 32.018"></polygon>
            <polygon id="Shape" fill="#000000" points="2 4.814 2 27.19 7.938 21.458 8.794 21.18 18.33 21.18"></polygon>
        </g>
    </g>
</svg>