<?xml version="1.0" encoding="UTF-8"?>
<svg width="840px" height="480px" viewBox="0 0 840 480" version="1.1" xmlns="http://www.w3.org/2000/svg" xmlns:xlink="http://www.w3.org/1999/xlink">
    <!-- Generator: Sketch 48.2 (47327) - http://www.bohemiancoding.com/sketch -->
    <title>mega-site-navigation-featured</title>
    <desc>Created with Sketch.</desc>
    <defs>
        <path d="M6,0 L184,0 C187.313708,-6.08718376e-16 190,2.6862915 190,6 L190,322 L0,322 L0,6 C-4.05812251e-16,2.6862915 2.6862915,6.08718376e-16 6,0 Z" id="path-1"></path>
        <filter x="-14.7%" y="-9.9%" width="133.7%" height="119.9%" filterUnits="objectBoundingBox" id="filter-2">
            <feOffset dx="4" dy="0" in="SourceAlpha" result="shadowOffsetOuter1"></feOffset>
            <feGaussianBlur stdDeviation="10" in="shadowOffsetOuter1" result="shadowBlurOuter1"></feGaussianBlur>
            <feColorMatrix values="0 0 0 0 0   0 0 0 0 0   0 0 0 0 0  0 0 0 0.198086504 0" type="matrix" in="shadowBlurOuter1"></feColorMatrix>
        </filter>
        <polygon id="path-3" points="13.9684862 23.238 18.168 33.378 18.17 33.38 10.958 36.448 6.44921752 25.7669727 0 32.03 0 0 23.182 23.238"></polygon>
        <filter x="-133.7%" y="-79.6%" width="367.4%" height="270.1%" filterUnits="objectBoundingBox" id="filter-4">
            <feOffset dx="0" dy="2" in="SourceAlpha" result="shadowOffsetOuter1"></feOffset>
            <feGaussianBlur stdDeviation="10" in="shadowOffsetOuter1" result="shadowBlurOuter1"></feGaussianBlur>
            <feColorMatrix values="0 0 0 0 0   0 0 0 0 0   0 0 0 0 0  0 0 0 0.201681386 0" type="matrix" in="shadowBlurOuter1"></feColorMatrix>
        </filter>
    </defs>
    <g id="Page-1" stroke="none" stroke-width="1" fill="none" fill-rule="evenodd">
        <g id="mega-site-navigation-featured">
            <polygon id="bg" fill="#E2E3DF" points="0 480 840 480 840 0 0 0"></polygon>
            <g id="desktop" transform="translate(94.000000, 26.000000)">
                <path d="M726,454 L0,454 L0,6 C0,2.687 2.687,0 6,0 L720,0 C723.313,0 726,2.687 726,6 L726,454 Z" id="container_bg" fill="#2E3233"></path>
                <polygon id="body" fill="#8DBB90" points="0 24 726 24 726 454 1.13686838e-13 454"></polygon>
                <polygon id="body-copy" fill="#FFFFFF" points="0 24 726 24 726 328 1.13686838e-13 328"></polygon>
                <polygon id="body-copy-2" fill="#F5F5F5" points="0 94 726 94 726 96 1.13686838e-13 96"></polygon>
                <rect id="Rectangle" fill="#2E3233" x="24" y="48" width="70" height="22"></rect>
                <rect id="Rectangle-Copy" fill="#69AA6F" x="94" y="48" width="22" height="22"></rect>
                <rect id="Rectangle-Copy-2" fill="#E2E3DF" x="116" y="48" width="22" height="22"></rect>
                <rect id="Rectangle-2" fill="#D7D8D4" x="367" y="53" width="54" height="12" rx="2"></rect>
                <rect id="Rectangle-2-Copy" fill="#69AA6F" x="468" y="53" width="54" height="12" rx="2"></rect>
                <rect id="Rectangle-2-Copy-2" fill="#D7D8D4" x="569" y="53" width="54" height="12" rx="2"></rect>
                <g id="small-down" transform="translate(431.000000, 57.000000)" stroke="#D7D8D4" stroke-linecap="square" stroke-width="3">
                    <polyline id="Shape" points="8 0 4 4 0 0"></polyline>
                </g>
                <polyline id="Shape-Copy-2" stroke="#D7D8D4" stroke-width="3" stroke-linecap="square" points="641 57 637 61 633 57"></polyline>
                <g id="dots" transform="translate(15.000000, 8.000000)" fill="#E2E3DF">
                    <path d="M8,4 C8,6.209 6.209,8 4,8 C1.791,8 0,6.209 0,4 C0,1.791 1.791,0 4,0 C6.209,0 8,1.791 8,4" id="Fill-6"></path>
                    <path d="M24,4 C24,6.209 22.209,8 20,8 C17.791,8 16,6.209 16,4 C16,1.791 17.791,0 20,0 C22.209,0 24,1.791 24,4" id="Fill-8"></path>
                    <path d="M40,4 C40,6.209 38.209,8 36,8 C33.791,8 32,6.209 32,4 C32,1.791 33.791,0 36,0 C38.209,0 40,1.791 40,4" id="Fill-10"></path>
                </g>
                <rect id="Rectangle-3" fill="#69AA6F" x="463" y="91" width="83" height="3"></rect>
                <g id="Group" transform="translate(268.000000, 136.000000)">
                    <rect id="Rectangle-4" fill="#69AA6F" x="0" y="0" width="62" height="12" rx="2"></rect>
                    <rect id="Rectangle-4-Copy" fill="#D7D8D4" x="0" y="32" width="100" height="10" rx="2"></rect>
                    <polyline id="Shape" stroke="#D7D8D4" stroke-width="3" stroke-linecap="square" transform="translate(165.000000, 37.000000) rotate(-90.000000) translate(-165.000000, -37.000000) " points="169 35 165 39 161 35"></polyline>
                    <polyline id="Shape-Copy" stroke="#D7D8D4" stroke-width="3" stroke-linecap="square" transform="translate(165.000000, 60.000000) rotate(-90.000000) translate(-165.000000, -60.000000) " points="169 58 165 62 161 58"></polyline>
                    <rect id="Rectangle-4-Copy-2" fill="#D7D8D4" x="0" y="55" width="82" height="10" rx="2"></rect>
                    <rect id="Rectangle-4-Copy-3" fill="#D7D8D4" x="0" y="78" width="62" height="10" rx="2"></rect>
                    <rect id="Rectangle-4-Copy-4" fill="#D7D8D4" x="0" y="101" width="81" height="10" rx="2"></rect>
                    <rect id="Rectangle-4-Copy-5" fill="#D7D8D4" x="0" y="124" width="92" height="10" rx="2"></rect>
                </g>
                <g id="Group-Copy" transform="translate(509.000000, 136.000000)">
                    <rect id="Rectangle-4" fill="#69AA6F" x="0" y="0" width="62" height="12" rx="2"></rect>
                    <rect id="Rectangle-4-Copy" fill="#D7D8D4" x="0" y="32" width="100" height="10" rx="2"></rect>
                    <polyline id="Shape" stroke="#D7D8D4" stroke-width="3" stroke-linecap="square" transform="translate(165.000000, 37.000000) rotate(-90.000000) translate(-165.000000, -37.000000) " points="169 35 165 39 161 35"></polyline>
                    <polyline id="Shape-Copy" stroke="#D7D8D4" stroke-width="3" stroke-linecap="square" transform="translate(165.000000, 60.000000) rotate(-90.000000) translate(-165.000000, -60.000000) " points="169 58 165 62 161 58"></polyline>
                    <rect id="Rectangle-4-Copy-2" fill="#D7D8D4" x="0" y="55" width="82" height="10" rx="2"></rect>
                    <rect id="Rectangle-4-Copy-3" fill="#D7D8D4" x="0" y="78" width="62" height="10" rx="2"></rect>
                    <rect id="Rectangle-4-Copy-4" fill="#D7D8D4" x="0" y="101" width="81" height="10" rx="2"></rect>
                    <rect id="Rectangle-4-Copy-5" fill="#D7D8D4" x="0" y="124" width="92" height="10" rx="2"></rect>
                </g>
                <g id="Group-Copy-2" transform="translate(25.000000, 136.000000)">
                    <rect id="Rectangle-4" fill="#69AA6F" x="0" y="0" width="62" height="12" rx="2"></rect>
                    <rect id="Rectangle-4-Copy" fill="#D7D8D4" x="0" y="32" width="100" height="10" rx="2"></rect>
                    <polyline id="Shape" stroke="#D7D8D4" stroke-width="3" stroke-linecap="square" transform="translate(165.000000, 37.000000) rotate(-90.000000) translate(-165.000000, -37.000000) " points="169 35 165 39 161 35"></polyline>
                    <polyline id="Shape-Copy" stroke="#D7D8D4" stroke-width="3" stroke-linecap="square" transform="translate(165.000000, 60.000000) rotate(-90.000000) translate(-165.000000, -60.000000) " points="169 58 165 62 161 58"></polyline>
                    <rect id="Rectangle-4-Copy-2" fill="#D7D8D4" x="0" y="55" width="82" height="10" rx="2"></rect>
                    <rect id="Rectangle-4-Copy-3" fill="#D7D8D4" x="0" y="78" width="62" height="10" rx="2"></rect>
                    <rect id="Rectangle-4-Copy-4" fill="#D7D8D4" x="0" y="101" width="81" height="10" rx="2"></rect>
                    <rect id="Rectangle-4-Copy-5" fill="#D7D8D4" x="0" y="124" width="92" height="10" rx="2"></rect>
                </g>
                <rect id="Rectangle-5" fill="#F6F6F5" x="483" y="128" width="2" height="168"></rect>
                <rect id="Rectangle-5-Copy" fill="#F6F6F5" x="242" y="128" width="2" height="168"></rect>
                <rect id="Rectangle-6" fill="#85B388" x="156" y="350" width="414" height="12" rx="2"></rect>
                <rect id="Rectangle-6-Copy" fill="#85B388" x="156" y="384" width="414" height="12" rx="2"></rect>
                <rect id="Rectangle-6-Copy-2" fill="#85B388" x="156" y="418" width="321" height="12" rx="2"></rect>
                <g id="zoom-2" transform="translate(681.000000, 47.000000)" fill="#2E3233" fill-rule="nonzero">
                    <path d="M22.707,19.879 L18.337,15.509 C19.386,13.928 20,12.035 20,10 C20,4.486 15.514,0 10,0 C4.486,0 0,4.486 0,10 C0,15.514 4.486,20 10,20 C12.035,20 13.928,19.386 15.509,18.337 L19.878,22.707 C20.269,23.098 20.902,23.098 21.292,22.707 L22.706,21.293 C23.097,20.902 23.098,20.269 22.707,19.879 Z M2,10 C2,5.589 5.589,2 10,2 C14.411,2 18,5.589 18,10 C18,14.411 14.411,18 10,18 C5.589,18 2,14.411 2,10 Z" id="Shape"></path>
                </g>
                <g id="small-remove" transform="translate(532.000000, 55.000000)" stroke-linecap="square" stroke-linejoin="round" stroke-width="3">
                    <path d="M7.5,0.5 L0.5,7.5" id="Shape" stroke="#D8D8D8"></path>
                    <path d="M0.5,0.5 L7.5,7.5" id="Shape" stroke="#D7D8D4"></path>
                </g>
            </g>
            <g id="mobile" transform="translate(20.000000, 158.000000)">
                <g id="mobile_bg">
                    <use fill="black" fill-opacity="1" filter="url(#filter-2)" xlink:href="#path-1"></use>
                    <use fill="#FFFFFF" fill-rule="evenodd" xlink:href="#path-1"></use>
                </g>
                <polygon id="Combined-Shape" fill="#8DBB90" points="190 42 190 322 0 322 0 42"></polygon>
                <g id="x" transform="translate(14.000000, 17.000000)" stroke="#2E3233" stroke-linecap="square" stroke-width="4">
                    <path d="M0,0 L9.01086443,9.01086443" id="Line"></path>
                    <path d="M9.01086443,0 L0,9.01086443" id="Line-Copy"></path>
                </g>
                <path d="M37,0 L184,3.55271368e-15 C187.313708,2.9439953e-15 190,2.6862915 190,6 L190,322 L37,322 L37,0 Z" id="Combined-Shape" fill="#2E3233"></path>
                <polyline id="Shape" stroke="#494D4E" stroke-width="3" stroke-linecap="square" transform="translate(64.000000, 21.000000) scale(-1, 1) rotate(-90.000000) translate(-64.000000, -21.000000) " points="68 19 64 23 60 19"></polyline>
                <rect id="Rectangle-7" fill="#494D4E" x="83" y="16" width="40" height="10" rx="2"></rect>
                <rect id="Rectangle-7-Copy" fill="#69AA6F" x="60" y="58" width="70" height="10" rx="2"></rect>
                <rect id="Rectangle-7-Copy-2" fill="#494D4E" x="60" y="99" width="64" height="10" rx="2"></rect>
                <polyline id="Shape" stroke="#494D4E" stroke-width="3" stroke-linecap="square" transform="translate(166.000000, 104.000000) rotate(-90.000000) translate(-166.000000, -104.000000) " points="170 102 166 106 162 102"></polyline>
                <polyline id="Shape-Copy-3" stroke="#494D4E" stroke-width="3" stroke-linecap="square" transform="translate(166.000000, 145.000000) rotate(-90.000000) translate(-166.000000, -145.000000) " points="170 143 166 147 162 143"></polyline>
                <polyline id="Shape-Copy-4" stroke="#494D4E" stroke-width="3" stroke-linecap="square" transform="translate(166.000000, 187.000000) rotate(-90.000000) translate(-166.000000, -187.000000) " points="170 185 166 189 162 185"></polyline>
                <rect id="Rectangle-7-Copy-3" fill="#494D4E" x="60" y="140" width="82" height="10" rx="2"></rect>
                <rect id="Rectangle-7-Copy-4" fill="#494D4E" x="60" y="182" width="43" height="10" rx="2"></rect>
                <rect id="Rectangle-7-Copy-5" fill="#494D4E" x="60" y="224" width="69" height="10" rx="2"></rect>
                <rect id="Rectangle-7-Copy-6" fill="#494D4E" x="60" y="266" width="62" height="10" rx="2"></rect>
                <rect id="Rectangle-8" fill="#3E4243" x="37" y="40" width="153" height="2"></rect>
                <rect id="Rectangle-8-Copy" fill="#3E4243" x="37" y="82" width="153" height="2"></rect>
                <rect id="Rectangle-8-Copy-2" fill="#3E4243" x="37" y="124" width="153" height="2"></rect>
                <rect id="Rectangle-8-Copy-3" fill="#3E4243" x="37" y="166" width="153" height="2"></rect>
                <rect id="Rectangle-8-Copy-4" fill="#3E4243" x="37" y="208" width="153" height="2"></rect>
                <rect id="Rectangle-8-Copy-5" fill="#3E4243" x="37" y="250" width="153" height="2"></rect>
                <rect id="Rectangle-8-Copy-6" fill="#3E4243" x="37" y="292" width="153" height="2"></rect>
            </g>
            <g id="default" transform="translate(603.000000, 98.000000)" fill-rule="nonzero">
                <g id="Combined-Shape">
                    <use fill="black" fill-opacity="1" filter="url(#filter-4)" xlink:href="#path-3"></use>
                    <use fill="#FFFFFF" fill-rule="evenodd" xlink:href="#path-3"></use>
                </g>
                <polygon id="Shape" fill="#000000" points="15.502 32.018 11.814 33.566 5.614 18.818 9.296 17.268 15.502 32.018"></polygon>
                <polygon id="Shape" fill="#000000" points="2 4.814 2 27.19 7.938 21.458 8.794 21.18 18.33 21.18"></polygon>
            </g>
        </g>
    </g>
</svg>