<?xml version="1.0" encoding="UTF-8"?>
<svg width="840px" height="480px" viewBox="0 0 840 480" version="1.1" xmlns="http://www.w3.org/2000/svg" xmlns:xlink="http://www.w3.org/1999/xlink">
    <!-- Generator: Sketch 49 (51002) - http://www.bohemiancoding.com/sketch -->
    <title>mega-dropdown-featured-new</title>
    <desc>Created with Sketch.</desc>
    <defs>
        <rect id="path-1" x="28" y="83" width="152" height="207"></rect>
        <filter x="-16.4%" y="-11.1%" width="132.9%" height="124.2%" filterUnits="objectBoundingBox" id="filter-2">
            <feOffset dx="0" dy="2" in="SourceAlpha" result="shadowOffsetOuter1"></feOffset>
            <feGaussianBlur stdDeviation="8" in="shadowOffsetOuter1" result="shadowBlurOuter1"></feGaussianBlur>
            <feColorMatrix values="0 0 0 0 0   0 0 0 0 0   0 0 0 0 0  0 0 0 0.101137908 0" type="matrix" in="shadowBlurOuter1"></feColorMatrix>
        </filter>
        <rect id="path-3" x="180" y="83" width="324" height="306"></rect>
        <filter x="-7.7%" y="-7.5%" width="115.4%" height="116.3%" filterUnits="objectBoundingBox" id="filter-4">
            <feOffset dx="0" dy="2" in="SourceAlpha" result="shadowOffsetOuter1"></feOffset>
            <feGaussianBlur stdDeviation="8" in="shadowOffsetOuter1" result="shadowBlurOuter1"></feGaussianBlur>
            <feColorMatrix values="0 0 0 0 0   0 0 0 0 0   0 0 0 0 0  0 0 0 0.101137908 0" type="matrix" in="shadowBlurOuter1"></feColorMatrix>
        </filter>
        <path d="M6,0 L184,0 C187.313708,-6.08718376e-16 190,2.6862915 190,6 L190,322 L0,322 L0,6 C-4.05812251e-16,2.6862915 2.6862915,6.08718376e-16 6,0 Z" id="path-5"></path>
        <filter x="-18.9%" y="-9.9%" width="133.7%" height="119.9%" filterUnits="objectBoundingBox" id="filter-6">
            <feOffset dx="-4" dy="0" in="SourceAlpha" result="shadowOffsetOuter1"></feOffset>
            <feGaussianBlur stdDeviation="10" in="shadowOffsetOuter1" result="shadowBlurOuter1"></feGaussianBlur>
            <feColorMatrix values="0 0 0 0 0   0 0 0 0 0   0 0 0 0 0  0 0 0 0.198086504 0" type="matrix" in="shadowBlurOuter1"></feColorMatrix>
        </filter>
        <polygon id="path-7" points="13.9684862 23.238 18.168 33.378 18.17 33.38 10.958 36.448 6.44921752 25.7669727 0 32.03 0 0 23.182 23.238"></polygon>
        <filter x="-133.7%" y="-79.6%" width="367.4%" height="270.1%" filterUnits="objectBoundingBox" id="filter-8">
            <feOffset dx="0" dy="2" in="SourceAlpha" result="shadowOffsetOuter1"></feOffset>
            <feGaussianBlur stdDeviation="10" in="shadowOffsetOuter1" result="shadowBlurOuter1"></feGaussianBlur>
            <feColorMatrix values="0 0 0 0 0   0 0 0 0 0   0 0 0 0 0  0 0 0 0.201681386 0" type="matrix" in="shadowBlurOuter1"></feColorMatrix>
        </filter>
    </defs>
    <g id="mega-dropdown-featured-new" stroke="none" stroke-width="1" fill="none" fill-rule="evenodd">
        <polygon id="bg" fill="#3F8654" points="0 480 840 480 840 0 0 0"></polygon>
        <g id="desktop" transform="translate(20.000000, 26.000000)">
            <path d="M726,454 L0,454 L0,6 C0,2.687 2.687,0 6,0 L720,0 C723.313,0 726,2.687 726,6 L726,454 Z" id="container_bg" fill="#060825"></path>
            <polygon id="Combined-Shape" fill="#FFFFFF" points="0 24 726 24 726 454 0 454"></polygon>
            <polygon id="Combined-Shape-Copy" fill="#DBD9D9" points="0 108 726 108 726 454 0 454"></polygon>
            <path d="M30,48 L132,48 C133.104569,48 134,48.8954305 134,50 L134,84 L28,84 L28,50 C28,48.8954305 28.8954305,48 30,48 Z" id="Rectangle" fill="#3F8654"></path>
            <g id="Rectangle-3">
                <use fill="black" fill-opacity="1" filter="url(#filter-2)" xlink:href="#path-1"></use>
                <use fill="#FFFFFF" fill-rule="evenodd" xlink:href="#path-1"></use>
            </g>
            <g id="Rectangle-3-Copy-5">
                <use fill="black" fill-opacity="1" filter="url(#filter-4)" xlink:href="#path-3"></use>
                <use fill="#FFFFFF" fill-rule="evenodd" xlink:href="#path-3"></use>
            </g>
            <g id="small-right" transform="translate(307.000000, 137.000000)" stroke="#D7D8D4" stroke-linecap="square" stroke-width="3">
                <polyline id="Shape" points="0 0 4 4 0 8"></polyline>
            </g>
            <g id="small-right-copy-4" transform="translate(307.000000, 294.000000)" stroke="#D7D8D4" stroke-linecap="square" stroke-width="3">
                <polyline id="Shape" points="0 0 4 4 0 8"></polyline>
            </g>
            <g id="small-right-copy-2" transform="translate(470.000000, 137.000000)" stroke="#D7D8D4" stroke-linecap="square" stroke-width="3">
                <polyline id="Shape" points="0 0 4 4 0 8"></polyline>
            </g>
            <g id="small-right-copy-5" transform="translate(470.000000, 294.000000)" stroke="#D7D8D4" stroke-linecap="square" stroke-width="3">
                <polyline id="Shape" points="0 0 4 4 0 8"></polyline>
            </g>
            <g id="small-right-copy" transform="translate(307.000000, 176.000000)" stroke="#D7D8D4" stroke-linecap="square" stroke-width="3">
                <polyline id="Shape" points="0 0 4 4 0 8"></polyline>
            </g>
            <g id="small-right-copy-6" transform="translate(307.000000, 333.000000)" stroke="#D7D8D4" stroke-linecap="square" stroke-width="3">
                <polyline id="Shape" points="0 0 4 4 0 8"></polyline>
            </g>
            <g id="small-right-copy-3" transform="translate(470.000000, 176.000000)" stroke="#D7D8D4" stroke-linecap="square" stroke-width="3">
                <polyline id="Shape" points="0 0 4 4 0 8"></polyline>
            </g>
            <g id="small-right-copy-7" transform="translate(470.000000, 333.000000)" stroke="#D7D8D4" stroke-linecap="square" stroke-width="3">
                <polyline id="Shape" points="0 0 4 4 0 8"></polyline>
            </g>
            <rect id="Rectangle-5" fill="#3F8654" x="207" y="110" width="50" height="9" rx="2"></rect>
            <rect id="Rectangle-5-Copy-10" fill="#3F8654" x="207" y="267" width="50" height="9" rx="2"></rect>
            <rect id="Rectangle-6" fill="#F4F4F4" x="340" y="102" width="2" height="109"></rect>
            <rect id="Rectangle-6-Copy" fill="#F4F4F4" x="340" y="259" width="2" height="109"></rect>
            <rect id="Rectangle-7" fill="#F4F4F4" x="203" y="234" width="278" height="2"></rect>
            <rect id="Rectangle-5-Copy-5" fill="#3F8654" x="370" y="110" width="50" height="9" rx="2"></rect>
            <rect id="Rectangle-5-Copy-11" fill="#3F8654" x="370" y="267" width="50" height="9" rx="2"></rect>
            <rect id="Rectangle-5-Copy" fill="#D7D8D4" x="207" y="137" width="62" height="9" rx="2"></rect>
            <rect id="Rectangle-5-Copy-12" fill="#D7D8D4" x="207" y="294" width="62" height="9" rx="2"></rect>
            <rect id="Rectangle-5-Copy-6" fill="#D7D8D4" x="370" y="137" width="61" height="9" rx="2"></rect>
            <rect id="Rectangle-5-Copy-13" fill="#D7D8D4" x="370" y="294" width="61" height="9" rx="2"></rect>
            <rect id="Rectangle-5-Copy-2" fill="#D7D8D4" x="207" y="156" width="58" height="9" rx="2"></rect>
            <rect id="Rectangle-5-Copy-14" fill="#D7D8D4" x="207" y="313" width="58" height="9" rx="2"></rect>
            <rect id="Rectangle-5-Copy-7" fill="#D7D8D4" x="370" y="156" width="58" height="9" rx="2"></rect>
            <rect id="Rectangle-5-Copy-15" fill="#D7D8D4" x="370" y="313" width="58" height="9" rx="2"></rect>
            <rect id="Rectangle-5-Copy-3" fill="#D7D8D4" x="207" y="175" width="49" height="9" rx="2"></rect>
            <rect id="Rectangle-5-Copy-16" fill="#D7D8D4" x="207" y="332" width="49" height="9" rx="2"></rect>
            <rect id="Rectangle-5-Copy-8" fill="#D7D8D4" x="370" y="175" width="49" height="9" rx="2"></rect>
            <rect id="Rectangle-5-Copy-17" fill="#D7D8D4" x="370" y="332" width="49" height="9" rx="2"></rect>
            <rect id="Rectangle-5-Copy-4" fill="#D7D8D4" x="207" y="194" width="65" height="9" rx="2"></rect>
            <rect id="Rectangle-5-Copy-18" fill="#D7D8D4" x="207" y="351" width="65" height="9" rx="2"></rect>
            <rect id="Rectangle-5-Copy-9" fill="#D7D8D4" x="370" y="194" width="65" height="9" rx="2"></rect>
            <rect id="Rectangle-5-Copy-19" fill="#D7D8D4" x="370" y="351" width="65" height="9" rx="2"></rect>
            <rect id="Rectangle-3-Copy" fill="#F4F4F4" x="28" y="123" width="152" height="2"></rect>
            <rect id="Rectangle-3-Copy-2" fill="#F4F4F4" x="28" y="163" width="152" height="2"></rect>
            <rect id="Rectangle-3-Copy-3" fill="#F4F4F4" x="28" y="206" width="152" height="2"></rect>
            <rect id="Rectangle-3-Copy-4" fill="#F4F4F4" x="28" y="248" width="152" height="2"></rect>
            <rect id="Rectangle-4" fill="#3F8654" x="28" y="165" width="4" height="41"></rect>
            <g id="x" transform="translate(106.000000, 62.000000)" stroke="#FFFFFF" stroke-linecap="square" stroke-width="4">
                <path d="M0,0 L9.01086443,9.01086443" id="Line"></path>
                <path d="M9.01086443,0 L0,9.01086443" id="Line-Copy"></path>
            </g>
            <rect id="Rectangle-2" fill="#FFFFFF" x="48" y="62" width="42" height="9" rx="2"></rect>
            <rect id="Rectangle-2-Copy" fill="#D7D8D4" x="48" y="99" width="56" height="9" rx="2"></rect>
            <g id="small-right" transform="translate(156.000000, 100.000000)" stroke="#C5C5CC" stroke-linecap="square" stroke-width="3">
                <polyline id="Shape" points="0 0 4 4 0 8"></polyline>
            </g>
            <g id="small-right-copy-8" transform="translate(156.000000, 140.000000)" stroke="#C5C5CC" stroke-linecap="square" stroke-width="3">
                <polyline id="Shape" points="0 0 4 4 0 8"></polyline>
            </g>
            <g id="small-right-copy-9" transform="translate(156.000000, 182.000000)" stroke="#3F8654" stroke-linecap="square" stroke-width="3">
                <polyline id="Shape" points="0 0 4 4 0 8"></polyline>
            </g>
            <g id="small-right-copy-10" transform="translate(156.000000, 224.000000)" stroke="#C5C5CC" stroke-linecap="square" stroke-width="3">
                <polyline id="Shape" points="0 0 4 4 0 8"></polyline>
            </g>
            <g id="small-right-copy-11" transform="translate(156.000000, 266.000000)" stroke="#C5C5CC" stroke-linecap="square" stroke-width="3">
                <polyline id="Shape" points="0 0 4 4 0 8"></polyline>
            </g>
            <rect id="Rectangle-2-Copy-2" fill="#D7D8D4" x="48" y="139" width="42" height="9" rx="2"></rect>
            <rect id="Rectangle-2-Copy-3" fill="#3F8654" x="48" y="181" width="50" height="9" rx="2"></rect>
            <rect id="Rectangle-2-Copy-4" fill="#D7D8D4" x="48" y="223" width="33" height="9" rx="2"></rect>
            <rect id="Rectangle-2-Copy-5" fill="#D7D8D4" x="48" y="265" width="58" height="9" rx="2"></rect>
            <g id="dots" transform="translate(15.000000, 8.000000)" fill="#84859A">
                <path d="M8,4 C8,6.209 6.209,8 4,8 C1.791,8 0,6.209 0,4 C0,1.791 1.791,0 4,0 C6.209,0 8,1.791 8,4" id="Fill-6"></path>
                <path d="M24,4 C24,6.209 22.209,8 20,8 C17.791,8 16,6.209 16,4 C16,1.791 17.791,0 20,0 C22.209,0 24,1.791 24,4" id="Fill-8"></path>
                <path d="M40,4 C40,6.209 38.209,8 36,8 C33.791,8 32,6.209 32,4 C32,1.791 33.791,0 36,0 C38.209,0 40,1.791 40,4" id="Fill-10"></path>
            </g>
        </g>
        <g id="mobile" transform="translate(630.000000, 158.000000)">
            <g id="mobile_bg">
                <use fill="black" fill-opacity="1" filter="url(#filter-6)" xlink:href="#path-5"></use>
                <use fill="#060825" fill-rule="evenodd" xlink:href="#path-5"></use>
            </g>
            <rect id="Rectangle-8" fill="#272A43" x="0" y="40" width="190" height="2"></rect>
            <rect id="Rectangle-8-Copy" fill="#272A43" x="0" y="82" width="190" height="2"></rect>
            <rect id="Rectangle-8-Copy-2" fill="#272A43" x="0" y="124" width="190" height="2"></rect>
            <rect id="Rectangle-8-Copy-3" fill="#272A43" x="0" y="166" width="190" height="2"></rect>
            <rect id="Rectangle-8-Copy-4" fill="#272A43" x="0" y="208" width="190" height="2"></rect>
            <rect id="Rectangle-8-Copy-5" fill="#272A43" x="0" y="250" width="190" height="2"></rect>
            <rect id="Rectangle-8-Copy-6" fill="#272A43" x="0" y="292" width="190" height="2"></rect>
            <rect id="Rectangle-9" fill="#FFFFFF" x="21" y="16" width="56" height="10" rx="2"></rect>
            <rect id="Rectangle-9-Copy" fill="#84859A" x="21" y="58" width="45" height="10" rx="2"></rect>
            <rect id="Rectangle-9-Copy-2" fill="#84859A" x="21" y="100" width="74" height="10" rx="2"></rect>
            <rect id="Rectangle-9-Copy-3" fill="#84859A" x="21" y="142" width="60" height="10" rx="2"></rect>
            <rect id="Rectangle-9-Copy-4" fill="#84859A" x="21" y="184" width="96" height="10" rx="2"></rect>
            <rect id="Rectangle-9-Copy-5" fill="#84859A" x="21" y="226" width="52" height="10" rx="2"></rect>
            <rect id="Rectangle-9-Copy-6" fill="#84859A" x="21" y="268" width="63" height="10" rx="2"></rect>
            <g id="x" transform="translate(162.000000, 17.000000)" stroke="#FFFFFF" stroke-linecap="square" stroke-width="4">
                <path d="M0,0 L9.01086443,9.01086443" id="Line"></path>
                <path d="M9.01086443,0 L0,9.01086443" id="Line-Copy"></path>
            </g>
            <g id="small-right-copy-8" transform="translate(164.000000, 59.000000)" stroke="#84859A" stroke-linecap="square" stroke-width="3">
                <polyline id="Shape" points="0 0 4 4 0 8"></polyline>
            </g>
            <g id="small-right-copy-12" transform="translate(164.000000, 101.000000)" stroke="#84859A" stroke-linecap="square" stroke-width="3">
                <polyline id="Shape" points="0 0 4 4 0 8"></polyline>
            </g>
            <g id="small-right-copy-13" transform="translate(164.000000, 143.000000)" stroke="#84859A" stroke-linecap="square" stroke-width="3">
                <polyline id="Shape" points="0 0 4 4 0 8"></polyline>
            </g>
        </g>
        <g id="default" transform="translate(134.000000, 222.000000)" fill-rule="nonzero">
            <g id="Combined-Shape">
                <use fill="black" fill-opacity="1" filter="url(#filter-8)" xlink:href="#path-7"></use>
                <use fill="#FFFFFF" fill-rule="evenodd" xlink:href="#path-7"></use>
            </g>
            <polygon id="Shape" fill="#000000" points="15.502 32.018 11.814 33.566 5.614 18.818 9.296 17.268 15.502 32.018"></polygon>
            <polygon id="Shape" fill="#000000" points="2 4.814 2 27.19 7.938 21.458 8.794 21.18 18.33 21.18"></polygon>
        </g>
    </g>
</svg>