<?xml version="1.0" encoding="UTF-8"?>
<svg width="840px" height="480px" viewBox="0 0 840 480" version="1.1" xmlns="http://www.w3.org/2000/svg" xmlns:xlink="http://www.w3.org/1999/xlink">
    <!-- Generator: Sketch 49 (51002) - http://www.bohemiancoding.com/sketch -->
    <title>morphing-modal-window-featured</title>
    <desc>Created with Sketch.</desc>
    <defs>
        <path d="M6,0 L184,0 C187.313708,-6.08718376e-16 190,2.6862915 190,6 L190,322 L0,322 L0,6 C-4.05812251e-16,2.6862915 2.6862915,6.08718376e-16 6,0 Z" id="path-1"></path>
        <filter x="-14.7%" y="-9.9%" width="133.7%" height="119.9%" filterUnits="objectBoundingBox" id="filter-2">
            <feOffset dx="4" dy="0" in="SourceAlpha" result="shadowOffsetOuter1"></feOffset>
            <feGaussianBlur stdDeviation="10" in="shadowOffsetOuter1" result="shadowBlurOuter1"></feGaussianBlur>
            <feColorMatrix values="0 0 0 0 0   0 0 0 0 0   0 0 0 0 0  0 0 0 0.198086504 0" type="matrix" in="shadowBlurOuter1"></feColorMatrix>
        </filter>
        <polygon id="path-3" points="13.9684862 23.238 18.168 33.378 18.17 33.38 10.958 36.448 6.44921752 25.7669727 0 32.03 0 0 23.182 23.238"></polygon>
        <filter x="-133.7%" y="-79.6%" width="367.4%" height="270.1%" filterUnits="objectBoundingBox" id="filter-4">
            <feOffset dx="0" dy="2" in="SourceAlpha" result="shadowOffsetOuter1"></feOffset>
            <feGaussianBlur stdDeviation="10" in="shadowOffsetOuter1" result="shadowBlurOuter1"></feGaussianBlur>
            <feColorMatrix values="0 0 0 0 0   0 0 0 0 0   0 0 0 0 0  0 0 0 0.201681386 0" type="matrix" in="shadowBlurOuter1"></feColorMatrix>
        </filter>
    </defs>
    <g id="morphing-modal-window-featured" stroke="none" stroke-width="1" fill="none" fill-rule="evenodd">
        <polygon id="bg" fill="#D8D8D8" points="0 480 840 480 840 0 0 0"></polygon>
        <g id="desktop" transform="translate(94.000000, 26.000000)">
            <path d="M726,454 L0,454 L0,6 C0,2.687 2.687,0 6,0 L720,0 C723.313,0 726,2.687 726,6 L726,454 Z" id="container_bg" fill="#FFFFFF"></path>
            <polygon id="body" fill="#00BC90" points="0 154 726 154 726 454 1.13686838e-13 454"></polygon>
            <rect id="Rectangle" fill="#D8D8D8" x="304" y="69" width="118" height="16" rx="2"></rect>
            <rect id="Rectangle-Copy" fill="#05AC85" x="232" y="207" width="262" height="14" rx="2"></rect>
            <rect id="Rectangle-Copy-2" fill="#05AC85" x="171" y="248" width="384" height="14" rx="2"></rect>
            <rect id="Rectangle-Copy-3" fill="#05AC85" x="231" y="290" width="264" height="14" rx="2"></rect>
            <path d="M291.975257,454 C268.135373,433.822297 253,403.678676 253,370 C253,309.248678 302.248678,260 363,260 C423.751322,260 473,309.248678 473,370 C473,403.678676 457.864627,433.822297 434.024743,454 L291.975257,454 Z" id="Combined-Shape" fill="#313F40"></path>
            <rect id="Rectangle-2" fill="#FFFFFF" x="330" y="363" width="66" height="14" rx="2"></rect>
            <g id="dots" transform="translate(15.000000, 8.000000)" fill="#D8D8D8">
                <path d="M8,4 C8,6.209 6.209,8 4,8 C1.791,8 0,6.209 0,4 C0,1.791 1.791,0 4,0 C6.209,0 8,1.791 8,4" id="Fill-6"></path>
                <path d="M24,4 C24,6.209 22.209,8 20,8 C17.791,8 16,6.209 16,4 C16,1.791 17.791,0 20,0 C22.209,0 24,1.791 24,4" id="Fill-8"></path>
                <path d="M40,4 C40,6.209 38.209,8 36,8 C33.791,8 32,6.209 32,4 C32,1.791 33.791,0 36,0 C38.209,0 40,1.791 40,4" id="Fill-10"></path>
            </g>
        </g>
        <g id="mobile" transform="translate(20.000000, 158.000000)">
            <g id="mobile_bg">
                <use fill="black" fill-opacity="1" filter="url(#filter-2)" xlink:href="#path-1"></use>
                <use fill="#34383C" fill-rule="evenodd" xlink:href="#path-1"></use>
            </g>
            <rect id="Rectangle-3" fill="#4A4E52" x="22" y="54" width="146" height="12" rx="2"></rect>
            <rect id="Rectangle-3-Copy-5" fill="#4A4E52" x="22" y="248" width="146" height="12" rx="2"></rect>
            <rect id="Rectangle-3-Copy" fill="#4A4E52" x="22" y="88" width="138" height="12" rx="2"></rect>
            <rect id="Rectangle-3-Copy-6" fill="#4A4E52" x="22" y="282" width="138" height="12" rx="2"></rect>
            <rect id="Rectangle-3-Copy-2" fill="#4A4E52" x="22" y="122" width="146" height="12" rx="2"></rect>
            <rect id="Rectangle-3-Copy-3" fill="#4A4E52" x="22" y="156" width="146" height="12" rx="2"></rect>
            <rect id="Rectangle-3-Copy-4" fill="#4A4E52" x="22" y="190" width="83" height="12" rx="2"></rect>
            <g id="x" transform="translate(157.000000, 24.000000)" stroke="#FFFFFF" stroke-linecap="square" stroke-width="4">
                <path d="M0,0 L9.01086443,9.01086443" id="Line"></path>
                <path d="M9.01086443,0 L0,9.01086443" id="Line-Copy"></path>
            </g>
        </g>
        <g id="default" transform="translate(473.000000, 394.000000)" fill-rule="nonzero">
            <g id="Combined-Shape">
                <use fill="black" fill-opacity="1" filter="url(#filter-4)" xlink:href="#path-3"></use>
                <use fill="#FFFFFF" fill-rule="evenodd" xlink:href="#path-3"></use>
            </g>
            <polygon id="Shape" fill="#000000" points="15.502 32.018 11.814 33.566 5.614 18.818 9.296 17.268 15.502 32.018"></polygon>
            <polygon id="Shape" fill="#000000" points="2 4.814 2 27.19 7.938 21.458 8.794 21.18 18.33 21.18"></polygon>
        </g>
    </g>
</svg>