<?xml version="1.0" encoding="UTF-8"?>
<svg width="840px" height="480px" viewBox="0 0 840 480" version="1.1" xmlns="http://www.w3.org/2000/svg" xmlns:xlink="http://www.w3.org/1999/xlink">
    <!-- Generator: Sketch 49 (51002) - http://www.bohemiancoding.com/sketch -->
    <title>multi-level-accordion-menu-featured</title>
    <desc>Created with Sketch.</desc>
    <defs>
        <path d="M6,0 L184,0 C187.313708,-6.08718376e-16 190,2.6862915 190,6 L190,322 L0,322 L0,6 C-4.05812251e-16,2.6862915 2.6862915,6.08718376e-16 6,0 Z" id="path-1"></path>
        <filter x="-14.7%" y="-9.9%" width="133.7%" height="119.9%" filterUnits="objectBoundingBox" id="filter-2">
            <feOffset dx="4" dy="0" in="SourceAlpha" result="shadowOffsetOuter1"></feOffset>
            <feGaussianBlur stdDeviation="10" in="shadowOffsetOuter1" result="shadowBlurOuter1"></feGaussianBlur>
            <feColorMatrix values="0 0 0 0 0   0 0 0 0 0   0 0 0 0 0  0 0 0 0.198086504 0" type="matrix" in="shadowBlurOuter1"></feColorMatrix>
        </filter>
        <polygon id="path-3" points="13.9684862 23.238 18.168 33.378 18.17 33.38 10.958 36.448 6.44921752 25.7669727 0 32.03 0 0 23.182 23.238"></polygon>
        <filter x="-133.7%" y="-79.6%" width="367.4%" height="270.1%" filterUnits="objectBoundingBox" id="filter-4">
            <feOffset dx="0" dy="2" in="SourceAlpha" result="shadowOffsetOuter1"></feOffset>
            <feGaussianBlur stdDeviation="10" in="shadowOffsetOuter1" result="shadowBlurOuter1"></feGaussianBlur>
            <feColorMatrix values="0 0 0 0 0   0 0 0 0 0   0 0 0 0 0  0 0 0 0.201681386 0" type="matrix" in="shadowBlurOuter1"></feColorMatrix>
        </filter>
    </defs>
    <g id="multi-level-accordion-menu-featured" stroke="none" stroke-width="1" fill="none" fill-rule="evenodd">
        <polygon id="bg" fill="#322D42" points="0 480 840 480 840 0 0 0"></polygon>
        <g id="desktop" transform="translate(94.000000, 26.000000)">
            <path d="M726,454 L0,454 L0,6 C0,2.687 2.687,0 6,0 L720,0 C723.313,0 726,2.687 726,6 L726,454 Z" id="container_bg" fill="#FFFFFF"></path>
            <polygon id="Combined-Shape" fill="#A0F6AA" points="0 24 726 24 726 454 0 454"></polygon>
            <g id="dots" transform="translate(15.000000, 8.000000)" fill="#E3E3E3">
                <path d="M8,4 C8,6.209 6.209,8 4,8 C1.791,8 0,6.209 0,4 C0,1.791 1.791,0 4,0 C6.209,0 8,1.791 8,4" id="Fill-6"></path>
                <path d="M24,4 C24,6.209 22.209,8 20,8 C17.791,8 16,6.209 16,4 C16,1.791 17.791,0 20,0 C22.209,0 24,1.791 24,4" id="Fill-8"></path>
                <path d="M40,4 C40,6.209 38.209,8 36,8 C33.791,8 32,6.209 32,4 C32,1.791 33.791,0 36,0 C38.209,0 40,1.791 40,4" id="Fill-10"></path>
            </g>
            <rect id="Rectangle" fill="#322D42" x="133" y="81" width="460" height="332"></rect>
            <polygon id="Combined-Shape" fill="#4D5159" points="593 147 133 147 133 81 593 81"></polygon>
            <polygon id="Combined-Shape-Copy" fill="#4D5159" points="593 413 133 413 133 347 593 347"></polygon>
            <rect id="Rectangle-2" fill="#EBEAEC" x="214" y="107" width="78" height="14" rx="2"></rect>
            <rect id="Rectangle-2-Copy" fill="#EBEAEC" x="242" y="174" width="87" height="14" rx="2"></rect>
            <rect id="Rectangle-2-Copy-2" fill="#EBEAEC" x="242" y="240" width="50" height="14" rx="2"></rect>
            <rect id="Rectangle-2-Copy-3" fill="#EBEAEC" x="271" y="306" width="98" height="14" rx="2"></rect>
            <rect id="Rectangle-2-Copy-4" fill="#EBEAEC" x="214" y="373" width="78" height="14" rx="2"></rect>
            <g id="image-01" transform="translate(240.000000, 306.000000)" fill="#6C7079" fill-rule="nonzero">
                <path d="M15,0 L1,0 C0.4,0 0,0.4 0,1 L0,15 C0,15.6 0.4,16 1,16 L15,16 C15.6,16 16,15.6 16,15 L16,1 C16,0.4 15.6,0 15,0 Z M6,4 C6.6,4 7,4.4 7,5 C7,5.6 6.6,6 6,6 C5.4,6 5,5.6 5,5 C5,4.4 5.4,4 6,4 Z M3,12 L5,8 L7,10 L10,6 L13,12 L3,12 Z" id="Shape"></path>
            </g>
            <g id="folder-18" transform="translate(183.000000, 106.000000)" fill="#6C7079" fill-rule="nonzero">
                <path d="M15.8,7.4 C15.6,7.2 15.3,7 15,7 L4,7 C3.6,7 3.2,7.2 3.1,7.6 L0.1,14.6 C-0.1,15.2 0.1,16 1,16 L12,16 C12.4,16 12.8,15.8 12.9,15.4 L15.9,8.4 C16.1,8.1 16,7.7 15.8,7.4 Z" id="Shape"></path>
                <path d="M1.2,6.8 C1.7,5.7 2.8,5 4,5 L13,5 L13,3 C13,2.4 12.6,2 12,2 L6.4,2 L4.7,0.3 C4.5,0.1 4.3,0 4,0 L1,0 C0.4,0 0,0.4 0,1 L0,9.7 L1.2,6.8 Z" id="Shape"></path>
            </g>
            <g id="folder-18" transform="translate(212.000000, 239.000000)" fill="#6C7079" fill-rule="nonzero">
                <path d="M15.8,7.4 C15.6,7.2 15.3,7 15,7 L4,7 C3.6,7 3.2,7.2 3.1,7.6 L0.1,14.6 C-0.1,15.2 0.1,16 1,16 L12,16 C12.4,16 12.8,15.8 12.9,15.4 L15.9,8.4 C16.1,8.1 16,7.7 15.8,7.4 Z" id="Shape"></path>
                <path d="M1.2,6.8 C1.7,5.7 2.8,5 4,5 L13,5 L13,3 C13,2.4 12.6,2 12,2 L6.4,2 L4.7,0.3 C4.5,0.1 4.3,0 4,0 L1,0 C0.4,0 0,0.4 0,1 L0,9.7 L1.2,6.8 Z" id="Shape"></path>
            </g>
            <g id="minimal-down" transform="translate(154.000000, 109.000000)" fill="#FFFFFF" fill-rule="nonzero">
                <polygon id="Shape" points="8 9.6 0.3 1.9 1.7 0.4 8 6.7 14.3 0.4 15.7 1.9"></polygon>
            </g>
            <g id="minimal-down-copy" transform="translate(190.000000, 180.000000) rotate(-90.000000) translate(-190.000000, -180.000000) translate(182.000000, 175.000000)" fill="#FFFFFF" fill-rule="nonzero">
                <polygon id="Shape" points="8 9.6 0.3 1.9 1.7 0.4 8 6.7 14.3 0.4 15.7 1.9"></polygon>
            </g>
            <g id="minimal-down-copy-2" transform="translate(190.000000, 246.000000) rotate(-360.000000) translate(-190.000000, -246.000000) translate(182.000000, 241.000000)" fill="#FFFFFF" fill-rule="nonzero">
                <polygon id="Shape" points="8 9.6 0.3 1.9 1.7 0.4 8 6.7 14.3 0.4 15.7 1.9"></polygon>
            </g>
            <g id="minimal-down-copy-3" transform="translate(162.000000, 380.000000) rotate(-90.000000) translate(-162.000000, -380.000000) translate(154.000000, 375.000000)" fill="#FFFFFF" fill-rule="nonzero">
                <polygon id="Shape" points="8 9.6 0.3 1.9 1.7 0.4 8 6.7 14.3 0.4 15.7 1.9"></polygon>
            </g>
            <g id="folder-15" transform="translate(211.000000, 172.000000)" fill="#6C7079" fill-rule="nonzero">
                <path d="M15,3 L8.4,3 L5.7,0.3 C5.5,0.1 5.3,0 5,0 L1,0 C0.4,0 0,0.4 0,1 L0,15 C0,15.6 0.4,16 1,16 L15,16 C15.6,16 16,15.6 16,15 L16,4 C16,3.4 15.6,3 15,3 Z" id="Shape"></path>
            </g>
            <g id="folder-15-copy" transform="translate(183.000000, 372.000000)" fill="#6C7079" fill-rule="nonzero">
                <path d="M15,3 L8.4,3 L5.7,0.3 C5.5,0.1 5.3,0 5,0 L1,0 C0.4,0 0,0.4 0,1 L0,15 C0,15.6 0.4,16 1,16 L15,16 C15.6,16 16,15.6 16,15 L16,4 C16,3.4 15.6,3 15,3 Z" id="Shape"></path>
            </g>
        </g>
        <g id="mobile" transform="translate(20.000000, 158.000000)">
            <g id="mobile_bg">
                <use fill="black" fill-opacity="1" filter="url(#filter-2)" xlink:href="#path-1"></use>
                <use fill="#A0F6AA" fill-rule="evenodd" xlink:href="#path-1"></use>
            </g>
            <rect id="Rectangle-3" fill="#322D42" x="13" y="48" width="164" height="226"></rect>
            <polygon id="Combined-Shape" fill="#4D5159" points="177 93 13 93 13 48 177 48"></polygon>
            <polygon id="Combined-Shape-Copy-2" fill="#4D5159" points="177 274 13 274 13 229 177 229"></polygon>
            <rect id="Rectangle-4" fill="#EBEAEC" x="73" y="65" width="52" height="11" rx="2"></rect>
            <rect id="Rectangle-4-Copy" fill="#EBEAEC" x="81" y="110" width="70" height="11" rx="2"></rect>
            <rect id="Rectangle-4-Copy-2" fill="#EBEAEC" x="81" y="155" width="52" height="11" rx="2"></rect>
            <rect id="Rectangle-4-Copy-3" fill="#EBEAEC" x="94" y="200" width="48" height="11" rx="2"></rect>
            <rect id="Rectangle-4-Copy-4" fill="#EBEAEC" x="73" y="245" width="45" height="11" rx="2"></rect>
            <g id="folder-18" transform="translate(46.000000, 62.000000)" fill="#6C7079" fill-rule="nonzero">
                <path d="M15.8,7.4 C15.6,7.2 15.3,7 15,7 L4,7 C3.6,7 3.2,7.2 3.1,7.6 L0.1,14.6 C-0.1,15.2 0.1,16 1,16 L12,16 C12.4,16 12.8,15.8 12.9,15.4 L15.9,8.4 C16.1,8.1 16,7.7 15.8,7.4 Z" id="Shape"></path>
                <path d="M1.2,6.8 C1.7,5.7 2.8,5 4,5 L13,5 L13,3 C13,2.4 12.6,2 12,2 L6.4,2 L4.7,0.3 C4.5,0.1 4.3,0 4,0 L1,0 C0.4,0 0,0.4 0,1 L0,9.7 L1.2,6.8 Z" id="Shape"></path>
            </g>
            <g id="folder-18-copy" transform="translate(56.000000, 152.000000)" fill="#6C7079" fill-rule="nonzero">
                <path d="M15.8,7.4 C15.6,7.2 15.3,7 15,7 L4,7 C3.6,7 3.2,7.2 3.1,7.6 L0.1,14.6 C-0.1,15.2 0.1,16 1,16 L12,16 C12.4,16 12.8,15.8 12.9,15.4 L15.9,8.4 C16.1,8.1 16,7.7 15.8,7.4 Z" id="Shape"></path>
                <path d="M1.2,6.8 C1.7,5.7 2.8,5 4,5 L13,5 L13,3 C13,2.4 12.6,2 12,2 L6.4,2 L4.7,0.3 C4.5,0.1 4.3,0 4,0 L1,0 C0.4,0 0,0.4 0,1 L0,9.7 L1.2,6.8 Z" id="Shape"></path>
            </g>
            <g id="minimal-down-copy" transform="translate(40.000000, 116.000000) rotate(-90.000000) translate(-40.000000, -116.000000) translate(32.000000, 111.000000)" fill="#FFFFFF" fill-rule="nonzero">
                <polygon id="Shape" points="8 9.6 0.3 1.9 1.7 0.4 8 6.7 14.3 0.4 15.7 1.9"></polygon>
            </g>
            <g id="minimal-down-copy-5" transform="translate(31.000000, 251.000000) rotate(-90.000000) translate(-31.000000, -251.000000) translate(23.000000, 246.000000)" fill="#FFFFFF" fill-rule="nonzero">
                <polygon id="Shape" points="8 9.6 0.3 1.9 1.7 0.4 8 6.7 14.3 0.4 15.7 1.9"></polygon>
            </g>
            <g id="folder-15" transform="translate(55.000000, 107.000000)" fill="#6C7079" fill-rule="nonzero">
                <path d="M15,3 L8.4,3 L5.7,0.3 C5.5,0.1 5.3,0 5,0 L1,0 C0.4,0 0,0.4 0,1 L0,15 C0,15.6 0.4,16 1,16 L15,16 C15.6,16 16,15.6 16,15 L16,4 C16,3.4 15.6,3 15,3 Z" id="Shape"></path>
            </g>
            <g id="folder-15-copy-2" transform="translate(46.000000, 243.000000)" fill="#6C7079" fill-rule="nonzero">
                <path d="M15,3 L8.4,3 L5.7,0.3 C5.5,0.1 5.3,0 5,0 L1,0 C0.4,0 0,0.4 0,1 L0,15 C0,15.6 0.4,16 1,16 L15,16 C15.6,16 16,15.6 16,15 L16,4 C16,3.4 15.6,3 15,3 Z" id="Shape"></path>
            </g>
            <g id="image-01" transform="translate(67.000000, 197.000000)" fill="#6C7079" fill-rule="nonzero">
                <path d="M15,0 L1,0 C0.4,0 0,0.4 0,1 L0,15 C0,15.6 0.4,16 1,16 L15,16 C15.6,16 16,15.6 16,15 L16,1 C16,0.4 15.6,0 15,0 Z M6,4 C6.6,4 7,4.4 7,5 C7,5.6 6.6,6 6,6 C5.4,6 5,5.6 5,5 C5,4.4 5.4,4 6,4 Z M3,12 L5,8 L7,10 L10,6 L13,12 L3,12 Z" id="Shape"></path>
            </g>
            <g id="minimal-down" transform="translate(23.000000, 66.000000)" fill="#FFFFFF" fill-rule="nonzero">
                <polygon id="Shape" points="8 9.6 0.3 1.9 1.7 0.4 8 6.7 14.3 0.4 15.7 1.9"></polygon>
            </g>
            <g id="minimal-down-copy-4" transform="translate(32.000000, 156.000000)" fill="#FFFFFF" fill-rule="nonzero">
                <polygon id="Shape" points="8 9.6 0.3 1.9 1.7 0.4 8 6.7 14.3 0.4 15.7 1.9"></polygon>
            </g>
        </g>
        <g id="default" transform="translate(612.000000, 159.000000)" fill-rule="nonzero">
            <g id="Combined-Shape">
                <use fill="black" fill-opacity="1" filter="url(#filter-4)" xlink:href="#path-3"></use>
                <use fill="#FFFFFF" fill-rule="evenodd" xlink:href="#path-3"></use>
            </g>
            <polygon id="Shape" fill="#000000" points="15.502 32.018 11.814 33.566 5.614 18.818 9.296 17.268 15.502 32.018"></polygon>
            <polygon id="Shape" fill="#000000" points="2 4.814 2 27.19 7.938 21.458 8.794 21.18 18.33 21.18"></polygon>
        </g>
    </g>
</svg>