<?xml version="1.0" encoding="UTF-8"?>
<svg width="840px" height="480px" viewBox="0 0 840 480" version="1.1" xmlns="http://www.w3.org/2000/svg" xmlns:xlink="http://www.w3.org/1999/xlink">
    <!-- Generator: Sketch 49 (51002) - http://www.bohemiancoding.com/sketch -->
    <title>presentation-slideshow-featured</title>
    <desc>Created with Sketch.</desc>
    <defs>
        <rect id="path-1" x="65" y="78" width="596" height="324" rx="4"></rect>
        <filter x="-10.1%" y="-18.5%" width="120.1%" height="137.0%" filterUnits="objectBoundingBox" id="filter-2">
            <feOffset dx="0" dy="0" in="SourceAlpha" result="shadowOffsetOuter1"></feOffset>
            <feGaussianBlur stdDeviation="20" in="shadowOffsetOuter1" result="shadowBlurOuter1"></feGaussianBlur>
            <feColorMatrix values="0 0 0 0 0   0 0 0 0 0   0 0 0 0 0  0 0 0 0.5 0" type="matrix" in="shadowBlurOuter1"></feColorMatrix>
        </filter>
        <path d="M6,0 L184,0 C187.313708,-6.08718376e-16 190,2.6862915 190,6 L190,322 L0,322 L0,6 C-4.05812251e-16,2.6862915 2.6862915,6.08718376e-16 6,0 Z" id="path-3"></path>
        <filter x="-14.7%" y="-9.9%" width="133.7%" height="119.9%" filterUnits="objectBoundingBox" id="filter-4">
            <feOffset dx="4" dy="0" in="SourceAlpha" result="shadowOffsetOuter1"></feOffset>
            <feGaussianBlur stdDeviation="10" in="shadowOffsetOuter1" result="shadowBlurOuter1"></feGaussianBlur>
            <feColorMatrix values="0 0 0 0 0   0 0 0 0 0   0 0 0 0 0  0 0 0 0.198086504 0" type="matrix" in="shadowBlurOuter1"></feColorMatrix>
        </filter>
        <polygon id="path-5" points="13.9684862 23.238 18.168 33.378 18.17 33.38 10.958 36.448 6.44921752 25.7669727 0 32.03 0 0 23.182 23.238"></polygon>
        <filter x="-133.7%" y="-79.6%" width="367.4%" height="270.1%" filterUnits="objectBoundingBox" id="filter-6">
            <feOffset dx="0" dy="2" in="SourceAlpha" result="shadowOffsetOuter1"></feOffset>
            <feGaussianBlur stdDeviation="10" in="shadowOffsetOuter1" result="shadowBlurOuter1"></feGaussianBlur>
            <feColorMatrix values="0 0 0 0 0   0 0 0 0 0   0 0 0 0 0  0 0 0 0.201681386 0" type="matrix" in="shadowBlurOuter1"></feColorMatrix>
        </filter>
    </defs>
    <g id="presentation-slideshow-featured" stroke="none" stroke-width="1" fill="none" fill-rule="evenodd">
        <polygon id="bg" fill="#E6E7EB" points="0 480 840 480 840 0 0 0"></polygon>
        <g id="desktop" transform="translate(94.000000, 26.000000)">
            <path d="M726,454 L0,454 L0,6 C0,2.687 2.687,0 6,0 L720,0 C723.313,0 726,2.687 726,6 L726,454 Z" id="container_bg" fill="#1A1A1A"></path>
            <polygon id="Combined-Shape" fill="#303030" points="0 24 726 24 726 454 0 454"></polygon>
            <path d="M65,24 L661,24 L661,48 C661,50.209139 659.209139,52 657,52 L69,52 C66.790861,52 65,50.209139 65,48 L65,24 Z" id="Rectangle" fill="#414141"></path>
            <path d="M69,426 L657,426 C659.209139,426 661,427.790861 661,430 L661,454 L65,454 L65,430 C65,427.790861 66.790861,426 69,426 Z" id="Rectangle-Copy-2" fill="#414141"></path>
            <g id="Rectangle-Copy">
                <use fill="black" fill-opacity="1" filter="url(#filter-2)" xlink:href="#path-1"></use>
                <use fill="#D45452" fill-rule="evenodd" xlink:href="#path-1"></use>
            </g>
            <path d="M690,78 L726,78 L726,402 L690,402 C687.790861,402 686,400.209139 686,398 L686,82 C686,79.790861 687.790861,78 690,78 Z" id="Rectangle-Copy-3" fill="#414141"></path>
            <rect id="Rectangle-2" fill="#FFFFFF" x="285" y="216" width="155" height="16" rx="2"></rect>
            <rect id="Rectangle-2-Copy" fill="#E27472" x="227" y="249" width="272" height="14" rx="2"></rect>
            <circle id="Oval" fill="#171717" cx="33" cy="56" r="20"></circle>
            <rect id="Rectangle-3" fill="#FFFFFF" x="23" y="55" width="20" height="2"></rect>
            <rect id="Rectangle-3-Copy" fill="#FFFFFF" x="23" y="48" width="20" height="2"></rect>
            <rect id="Rectangle-3-Copy-2" fill="#FFFFFF" x="23" y="62" width="20" height="2"></rect>
            <g id="dots" transform="translate(15.000000, 8.000000)" fill="#E6E7EB">
                <path d="M8,4 C8,6.209 6.209,8 4,8 C1.791,8 0,6.209 0,4 C0,1.791 1.791,0 4,0 C6.209,0 8,1.791 8,4" id="Fill-6"></path>
                <path d="M24,4 C24,6.209 22.209,8 20,8 C17.791,8 16,6.209 16,4 C16,1.791 17.791,0 20,0 C22.209,0 24,1.791 24,4" id="Fill-8"></path>
                <path d="M40,4 C40,6.209 38.209,8 36,8 C33.791,8 32,6.209 32,4 C32,1.791 33.791,0 36,0 C38.209,0 40,1.791 40,4" id="Fill-10"></path>
            </g>
        </g>
        <g id="mobile" transform="translate(20.000000, 158.000000)">
            <g id="mobile_bg">
                <use fill="black" fill-opacity="1" filter="url(#filter-4)" xlink:href="#path-3"></use>
                <use fill="#2B3059" fill-rule="evenodd" xlink:href="#path-3"></use>
            </g>
            <circle id="Oval" fill="#171717" cx="34" cy="35" r="20"></circle>
            <rect id="Rectangle-3" fill="#FFFFFF" x="24" y="34" width="20" height="2"></rect>
            <rect id="Rectangle-3-Copy" fill="#FFFFFF" x="24" y="27" width="20" height="2"></rect>
            <rect id="Rectangle-3-Copy-2" fill="#FFFFFF" x="24" y="41" width="20" height="2"></rect>
            <rect id="Rectangle-4" fill="#ECF7FB" x="48" y="139" width="92" height="16" rx="2"></rect>
            <circle id="Oval-2" stroke="#FFFFFF" stroke-width="2" cx="78" cy="305" r="4"></circle>
            <circle id="Oval-2-Copy" stroke="#FFFFFF" stroke-width="2" fill="#FFFFFF" cx="94" cy="305" r="4"></circle>
            <circle id="Oval-2-Copy-2" stroke="#FFFFFF" stroke-width="2" cx="110" cy="305" r="4"></circle>
            <rect id="Rectangle-4-Copy" fill="#404671" x="24" y="172" width="140" height="12" rx="2"></rect>
            <path d="M0,7 L0,6 C0,2.687 2.0769043,0 6,0 L184,0 C188.06543,0 190,2.687 190,6 L190,7 C190,3.687 187.313,1 184,1 L6,1 C2.687,1 0,3.687 0,7 Z" id="inner-shadow" fill="#FFFFFF" opacity="0.404664855"></path>
        </g>
        <g id="default" transform="translate(702.000000, 403.000000)" fill-rule="nonzero">
            <g id="Combined-Shape">
                <use fill="black" fill-opacity="1" filter="url(#filter-6)" xlink:href="#path-5"></use>
                <use fill="#FFFFFF" fill-rule="evenodd" xlink:href="#path-5"></use>
            </g>
            <polygon id="Shape" fill="#000000" points="15.502 32.018 11.814 33.566 5.614 18.818 9.296 17.268 15.502 32.018"></polygon>
            <polygon id="Shape" fill="#000000" points="2 4.814 2 27.19 7.938 21.458 8.794 21.18 18.33 21.18"></polygon>
        </g>
    </g>
</svg>