<?xml version="1.0" encoding="UTF-8"?>
<svg width="840px" height="480px" viewBox="0 0 840 480" version="1.1" xmlns="http://www.w3.org/2000/svg" xmlns:xlink="http://www.w3.org/1999/xlink">
    <!-- Generator: Sketch 49 (51002) - http://www.bohemiancoding.com/sketch -->
    <title>product-builder-featured</title>
    <desc>Created with Sketch.</desc>
    <defs>
        <rect id="path-1" x="0" y="364" width="726" height="90"></rect>
        <filter x="-5.0%" y="-45.0%" width="110.1%" height="181.1%" filterUnits="objectBoundingBox" id="filter-2">
            <feOffset dx="0" dy="-4" in="SourceAlpha" result="shadowOffsetOuter1"></feOffset>
            <feGaussianBlur stdDeviation="11.5" in="shadowOffsetOuter1" result="shadowBlurOuter1"></feGaussianBlur>
            <feColorMatrix values="0 0 0 0 0   0 0 0 0 0   0 0 0 0 0  0 0 0 0.0649343297 0" type="matrix" in="shadowBlurOuter1"></feColorMatrix>
        </filter>
        <path d="M190,322 L0,322 L0,6 C0,2.687 2.687,0 6,0 L184,0 C187.313,0 190,2.687 190,6 L190,322 Z" id="path-3"></path>
        <filter x="-14.7%" y="-9.9%" width="133.7%" height="119.9%" filterUnits="objectBoundingBox" id="filter-4">
            <feOffset dx="4" dy="0" in="SourceAlpha" result="shadowOffsetOuter1"></feOffset>
            <feGaussianBlur stdDeviation="10" in="shadowOffsetOuter1" result="shadowBlurOuter1"></feGaussianBlur>
            <feColorMatrix values="0 0 0 0 0.364705882   0 0 0 0 0.48627451   0 0 0 0 0.537254902  0 0 0 0.152004076 0" type="matrix" in="shadowBlurOuter1"></feColorMatrix>
        </filter>
        <polygon id="path-5" points="13.9684862 23.238 18.168 33.378 18.17 33.38 10.958 36.448 6.44921752 25.7669727 0 32.03 0 0 23.182 23.238"></polygon>
        <filter x="-133.7%" y="-79.6%" width="367.4%" height="270.1%" filterUnits="objectBoundingBox" id="filter-6">
            <feOffset dx="0" dy="2" in="SourceAlpha" result="shadowOffsetOuter1"></feOffset>
            <feGaussianBlur stdDeviation="10" in="shadowOffsetOuter1" result="shadowBlurOuter1"></feGaussianBlur>
            <feColorMatrix values="0 0 0 0 0   0 0 0 0 0   0 0 0 0 0  0 0 0 0.201681386 0" type="matrix" in="shadowBlurOuter1"></feColorMatrix>
        </filter>
    </defs>
    <g id="product-builder-featured" stroke="none" stroke-width="1" fill="none" fill-rule="evenodd">
        <polygon id="bg" fill="#EDEDED" points="0 480 840 480 840 0 0 0"></polygon>
        <g id="desktop" transform="translate(94.000000, 26.000000)">
            <path d="M726,454 L0,454 L0,6 C0,2.687 2.687,0 6,0 L720,0 C723.313,0 726,2.687 726,6 L726,454 Z" id="container_bg" fill="#FFFFFF"></path>
            <rect id="Rectangle-4" stroke="#EDEDED" stroke-width="3" x="374" y="148" width="254" height="196" rx="4"></rect>
            <g id="image-2" transform="translate(466.000000, 180.000000)" fill="#5D7C89" fill-rule="nonzero">
                <path d="M9.85410197,60 L60.3112721,60 L46.3831684,29.8224421 L29.6,52.2 L18.0757105,43.5567829 L9.85410197,60 Z M28.4,43.8 L47.6168316,18.1775579 L69.6887279,66 L0.145898034,66 L15.9242895,34.4432171 L28.4,43.8 Z" id="Shape"></path>
                <path d="M23,24 C16.372583,24 11,18.627417 11,12 C11,5.372583 16.372583,0 23,0 C29.627417,0 35,5.372583 35,12 C35,18.627417 29.627417,24 23,24 Z M23,18 C26.3137085,18 29,15.3137085 29,12 C29,8.6862915 26.3137085,6 23,6 C19.6862915,6 17,8.6862915 17,12 C17,15.3137085 19.6862915,18 23,18 Z" id="Oval"></path>
            </g>
            <g id="image-2-copy" transform="translate(191.000000, 180.000000)" fill="#5D7C89" fill-rule="nonzero">
                <path d="M9.85410197,60 L60.3112721,60 L46.3831684,29.8224421 L29.6,52.2 L18.0757105,43.5567829 L9.85410197,60 Z M28.4,43.8 L47.6168316,18.1775579 L69.6887279,66 L0.145898034,66 L15.9242895,34.4432171 L28.4,43.8 Z" id="Shape"></path>
                <path d="M23,24 C16.372583,24 11,18.627417 11,12 C11,5.372583 16.372583,0 23,0 C29.627417,0 35,5.372583 35,12 C35,18.627417 29.627417,24 23,24 Z M23,18 C26.3137085,18 29,15.3137085 29,12 C29,8.6862915 26.3137085,6 23,6 C19.6862915,6 17,8.6862915 17,12 C17,15.3137085 19.6862915,18 23,18 Z" id="Oval"></path>
            </g>
            <rect id="Rectangle-4-Copy" stroke="#FFB600" stroke-width="3" x="99" y="148" width="254" height="196" rx="4"></rect>
            <circle id="Oval" stroke="#EDEDED" stroke-width="3" cx="501" cy="290" r="16"></circle>
            <circle id="Oval-Copy" fill="#FFB600" cx="226" cy="290" r="16"></circle>
            <g id="check-simple" transform="translate(218.000000, 283.000000)" fill="#FFFFFF" fill-rule="nonzero">
                <polygon id="Shape" points="5.6 8.6 2.4 5.4 0 7.8 5.6 13.4 16 3 13.6 0.6"></polygon>
            </g>
            <rect id="Rectangle-3" fill="#FFB600" x="236" y="105" width="62" height="4"></rect>
            <rect id="Rectangle" fill="#000000" x="313" y="35" width="100" height="20" rx="2"></rect>
            <rect id="Rectangle-2" fill="#FFB600" x="243" y="84" width="48" height="14" rx="3"></rect>
            <rect id="Rectangle-2-Copy" fill="#EDEDED" x="307" y="84" width="48" height="14" rx="3"></rect>
            <rect id="Rectangle-2-Copy-2" fill="#EDEDED" x="371" y="84" width="48" height="14" rx="3"></rect>
            <rect id="Rectangle-2-Copy-3" fill="#EDEDED" x="435" y="84" width="48" height="14" rx="3"></rect>
            <g id="Rectangle-5">
                <use fill="black" fill-opacity="1" filter="url(#filter-2)" xlink:href="#path-1"></use>
                <use fill="#FFFFFF" fill-rule="evenodd" xlink:href="#path-1"></use>
            </g>
            <rect id="Rectangle-6" fill="#FFB600" x="573" y="388" width="126" height="42" rx="21"></rect>
            <rect id="Rectangle-7" fill="#FFFFFF" x="613" y="403" width="46" height="12" rx="2"></rect>
            <circle id="Oval-2" fill="#ECECEC" cx="541" cy="409" r="21"></circle>
            <g id="minimal-left" transform="translate(535.000000, 399.000000)" stroke="#5D7C89" stroke-linecap="square" stroke-width="3">
                <polyline id="Shape" points="10 0 0 10 10 20"></polyline>
            </g>
            <g id="dots" transform="translate(15.000000, 8.000000)" fill="#EDEDED">
                <path d="M8,4 C8,6.209 6.209,8 4,8 C1.791,8 0,6.209 0,4 C0,1.791 1.791,0 4,0 C6.209,0 8,1.791 8,4" id="Fill-6"></path>
                <path d="M24,4 C24,6.209 22.209,8 20,8 C17.791,8 16,6.209 16,4 C16,1.791 17.791,0 20,0 C22.209,0 24,1.791 24,4" id="Fill-8"></path>
                <path d="M40,4 C40,6.209 38.209,8 36,8 C33.791,8 32,6.209 32,4 C32,1.791 33.791,0 36,0 C38.209,0 40,1.791 40,4" id="Fill-10"></path>
            </g>
        </g>
        <g id="mobile" transform="translate(20.000000, 158.000000)">
            <g id="container_bg">
                <use fill="black" fill-opacity="1" filter="url(#filter-4)" xlink:href="#path-3"></use>
                <use fill="#FFFFFF" fill-rule="evenodd" xlink:href="#path-3"></use>
            </g>
            <g id="image-2-copy" transform="translate(59.000000, 86.000000)" fill="#5D7C89" fill-rule="nonzero">
                <path d="M9.85410197,60 L60.3112721,60 L46.3831684,29.8224421 L29.6,52.2 L18.0757105,43.5567829 L9.85410197,60 Z M28.4,43.8 L47.6168316,18.1775579 L69.6887279,66 L0.145898034,66 L15.9242895,34.4432171 L28.4,43.8 Z" id="Shape"></path>
                <path d="M23,24 C16.372583,24 11,18.627417 11,12 C11,5.372583 16.372583,0 23,0 C29.627417,0 35,5.372583 35,12 C35,18.627417 29.627417,24 23,24 Z M23,18 C26.3137085,18 29,15.3137085 29,12 C29,8.6862915 26.3137085,6 23,6 C19.6862915,6 17,8.6862915 17,12 C17,15.3137085 19.6862915,18 23,18 Z" id="Oval"></path>
            </g>
            <g id="image-2-copy-2" transform="translate(59.000000, 278.000000)" fill="#5D7C89" fill-rule="nonzero">
                <path d="M9.85410197,60 L60.3112721,60 L46.3831684,29.8224421 L29.6,52.2 L18.0757105,43.5567829 L9.85410197,60 Z M28.4,43.8 L47.6168316,18.1775579 L69.6887279,66 L0.145898034,66 L15.9242895,34.4432171 L28.4,43.8 Z" id="Shape"></path>
                <path d="M23,24 C16.372583,24 11,18.627417 11,12 C11,5.372583 16.372583,0 23,0 C29.627417,0 35,5.372583 35,12 C35,18.627417 29.627417,24 23,24 Z M23,18 C26.3137085,18 29,15.3137085 29,12 C29,8.6862915 26.3137085,6 23,6 C19.6862915,6 17,8.6862915 17,12 C17,15.3137085 19.6862915,18 23,18 Z" id="Oval"></path>
            </g>
            <rect id="Rectangle-4-Copy" stroke="#FFB600" stroke-width="3" x="13" y="56" width="162" height="174" rx="4"></rect>
            <rect id="Rectangle-4-Copy-2" stroke="#EDEDED" stroke-width="3" x="13" y="248" width="162" height="174" rx="4"></rect>
            <g id="Group" transform="translate(78.000000, 170.000000)">
                <circle id="Oval-Copy" fill="#FFB600" cx="16" cy="16" r="16"></circle>
                <g id="check-simple" transform="translate(8.000000, 9.000000)" fill="#FFFFFF" fill-rule="nonzero">
                    <polygon id="Shape" points="5.6 8.6 2.4 5.4 0 7.8 5.6 13.4 16 3 13.6 0.6"></polygon>
                </g>
            </g>
            <rect id="Rectangle-8" fill="#000000" x="12" y="22" width="60" height="14" rx="2"></rect>
            <rect id="Rectangle-8-Copy" fill="#5D7C89" x="141" y="22" width="36" height="14" rx="2"></rect>
        </g>
        <g id="default" transform="translate(769.000000, 432.000000)" fill-rule="nonzero">
            <g id="Combined-Shape">
                <use fill="black" fill-opacity="1" filter="url(#filter-6)" xlink:href="#path-5"></use>
                <use fill="#FFFFFF" fill-rule="evenodd" xlink:href="#path-5"></use>
            </g>
            <polygon id="Shape" fill="#000000" points="15.502 32.018 11.814 33.566 5.614 18.818 9.296 17.268 15.502 32.018"></polygon>
            <polygon id="Shape" fill="#000000" points="2 4.814 2 27.19 7.938 21.458 8.794 21.18 18.33 21.18"></polygon>
        </g>
    </g>
</svg>