<?xml version="1.0" encoding="UTF-8"?>
<svg width="840px" height="480px" viewBox="0 0 840 480" version="1.1" xmlns="http://www.w3.org/2000/svg" xmlns:xlink="http://www.w3.org/1999/xlink">
    <!-- Generator: Sketch 49 (51002) - http://www.bohemiancoding.com/sketch -->
    <title>product-comparison-table-featured</title>
    <desc>Created with Sketch.</desc>
    <defs>
        <path d="M6,0 L184,0 C187.313708,-6.08718376e-16 190,2.6862915 190,6 L190,322 L0,322 L0,6 C-4.05812251e-16,2.6862915 2.6862915,6.08718376e-16 6,0 Z" id="path-1"></path>
        <filter x="-14.7%" y="-9.9%" width="133.7%" height="119.9%" filterUnits="objectBoundingBox" id="filter-2">
            <feOffset dx="4" dy="0" in="SourceAlpha" result="shadowOffsetOuter1"></feOffset>
            <feGaussianBlur stdDeviation="10" in="shadowOffsetOuter1" result="shadowBlurOuter1"></feGaussianBlur>
            <feColorMatrix values="0 0 0 0 0   0 0 0 0 0   0 0 0 0 0  0 0 0 0.104591259 0" type="matrix" in="shadowBlurOuter1"></feColorMatrix>
        </filter>
        <polygon id="path-3" points="13.9684862 23.238 18.168 33.378 18.17 33.38 10.958 36.448 6.44921752 25.7669727 0 32.03 0 0 23.182 23.238"></polygon>
        <filter x="-133.7%" y="-79.6%" width="367.4%" height="270.1%" filterUnits="objectBoundingBox" id="filter-4">
            <feOffset dx="0" dy="2" in="SourceAlpha" result="shadowOffsetOuter1"></feOffset>
            <feGaussianBlur stdDeviation="10" in="shadowOffsetOuter1" result="shadowBlurOuter1"></feGaussianBlur>
            <feColorMatrix values="0 0 0 0 0   0 0 0 0 0   0 0 0 0 0  0 0 0 0.201681386 0" type="matrix" in="shadowBlurOuter1"></feColorMatrix>
        </filter>
    </defs>
    <g id="product-comparison-table-featured" stroke="none" stroke-width="1" fill="none" fill-rule="evenodd">
        <polygon id="bg" fill="#9DC997" points="0 480 840 480 840 0 0 0"></polygon>
        <g id="desktop" transform="translate(94.000000, 26.000000)">
            <path d="M726,454 L0,454 L0,6 C0,2.687 2.687,0 6,0 L720,0 C723.313,0 726,2.687 726,6 L726,454 Z" id="container_bg" fill="#FFFFFF"></path>
            <rect id="Rectangle-6" fill="#FAFAFA" x="0" y="100" width="171" height="354"></rect>
            <rect id="Rectangle-7" fill="#E3E3E3" x="24" y="126" width="58" height="12" rx="2"></rect>
            <rect id="Rectangle-7-Copy" fill="#E3E3E3" x="24" y="271" width="58" height="12" rx="2"></rect>
            <rect id="Rectangle-7-Copy-2" fill="#E3E3E3" x="24" y="333" width="80" height="12" rx="2"></rect>
            <rect id="Rectangle-7-Copy-3" fill="#E3E3E3" x="24" y="395" width="68" height="12" rx="2"></rect>
            <rect id="Rectangle" fill="#515151" x="25" y="53" width="80" height="14" rx="2"></rect>
            <rect id="Rectangle-2" fill="#9DC997" x="607" y="40" width="100" height="38" rx="3"></rect>
            <rect id="Rectangle-3" fill="#FFFFFF" x="636" y="55" width="43" height="10" rx="2"></rect>
            <rect id="Rectangle-4" fill="#E3E3E3" x="0" y="99" width="726" height="2"></rect>
            <rect id="Rectangle-4-Copy" fill="#E3E3E3" x="0" y="245" width="726" height="2"></rect>
            <rect id="Rectangle-4-Copy-2" fill="#E3E3E3" x="0" y="307" width="726" height="2"></rect>
            <rect id="Rectangle-4-Copy-3" fill="#E3E3E3" x="0" y="369" width="726" height="2"></rect>
            <rect id="Rectangle-4-Copy-4" fill="#E3E3E3" x="0" y="431" width="726" height="2"></rect>
            <rect id="Rectangle-5" fill="#E3E3E3" x="170" y="100" width="2" height="354"></rect>
            <rect id="Rectangle-5-Copy" fill="#E3E3E3" x="378" y="100" width="2" height="354"></rect>
            <rect id="Rectangle-5-Copy-2" fill="#E3E3E3" x="586" y="100" width="2" height="354"></rect>
            <g id="dots" transform="translate(15.000000, 8.000000)" fill="#9DC997">
                <path d="M8,4 C8,6.209 6.209,8 4,8 C1.791,8 0,6.209 0,4 C0,1.791 1.791,0 4,0 C6.209,0 8,1.791 8,4" id="Fill-6"></path>
                <path d="M24,4 C24,6.209 22.209,8 20,8 C17.791,8 16,6.209 16,4 C16,1.791 17.791,0 20,0 C22.209,0 24,1.791 24,4" id="Fill-8"></path>
                <path d="M40,4 C40,6.209 38.209,8 36,8 C33.791,8 32,6.209 32,4 C32,1.791 33.791,0 36,0 C38.209,0 40,1.791 40,4" id="Fill-10"></path>
            </g>
            <circle id="Oval" fill="#9DC997" cx="275" cy="127" r="14"></circle>
            <g id="image-01" transform="translate(243.000000, 157.000000)" fill="#E3E3E3" fill-rule="nonzero">
                <circle id="Oval" cx="19" cy="19" r="7"></circle>
                <path d="M10,56 L54,56 C54.724,56 55.392,55.608 55.746,54.976 C56.1,54.344 56.082,53.57 55.704,52.952 L39.704,26.952 C39.39,26.442 38.864,26.1 38.27,26.018 C37.682,25.934 37.08,26.126 36.64,26.534 L8.64,52.534 C8.038,53.094 7.84,53.966 8.14,54.732 C8.44,55.496 9.178,56 10,56 Z" id="Shape"></path>
                <path d="M62,0 L2,0 C0.896,0 0,0.896 0,2 L0,62 C0,63.104 0.896,64 2,64 L62,64 C63.104,64 64,63.104 64,62 L64,2 C64,0.896 63.104,0 62,0 Z M60,60 L4,60 L4,4 L60,4 L60,60 Z" id="Shape"></path>
            </g>
            <g id="image-01-copy" transform="translate(451.000000, 157.000000)" fill="#E3E3E3" fill-rule="nonzero">
                <circle id="Oval" cx="19" cy="19" r="7"></circle>
                <path d="M10,56 L54,56 C54.724,56 55.392,55.608 55.746,54.976 C56.1,54.344 56.082,53.57 55.704,52.952 L39.704,26.952 C39.39,26.442 38.864,26.1 38.27,26.018 C37.682,25.934 37.08,26.126 36.64,26.534 L8.64,52.534 C8.038,53.094 7.84,53.966 8.14,54.732 C8.44,55.496 9.178,56 10,56 Z" id="Shape"></path>
                <path d="M62,0 L2,0 C0.896,0 0,0.896 0,2 L0,62 C0,63.104 0.896,64 2,64 L62,64 C63.104,64 64,63.104 64,62 L64,2 C64,0.896 63.104,0 62,0 Z M60,60 L4,60 L4,4 L60,4 L60,60 Z" id="Shape"></path>
            </g>
            <g id="image-01-copy-2" transform="translate(659.000000, 157.000000)" fill="#E3E3E3" fill-rule="nonzero">
                <circle id="Oval" cx="19" cy="19" r="7"></circle>
                <path d="M10,56 L54,56 C54.724,56 55.392,55.608 55.746,54.976 C56.1,54.344 56.082,53.57 55.704,52.952 L39.704,26.952 C39.39,26.442 38.864,26.1 38.27,26.018 C37.682,25.934 37.08,26.126 36.64,26.534 L8.64,52.534 C8.038,53.094 7.84,53.966 8.14,54.732 C8.44,55.496 9.178,56 10,56 Z" id="Shape"></path>
                <path d="M62,0 L2,0 C0.896,0 0,0.896 0,2 L0,62 C0,63.104 0.896,64 2,64 L62,64 C63.104,64 64,63.104 64,62 L64,2 C64,0.896 63.104,0 62,0 Z M60,60 L4,60 L4,4 L60,4 L60,60 Z" id="Shape"></path>
            </g>
            <g id="check-2" transform="translate(267.000000, 121.000000)" fill="#FFFFFF" fill-rule="nonzero">
                <path d="M14.3,0.3 L5,9.6 L1.7,6.3 C1.3,5.9 0.7,5.9 0.3,6.3 C-0.1,6.7 -0.1,7.3 0.3,7.7 L4.3,11.7 C4.5,11.9 4.7,12 5,12 C5.3,12 5.5,11.9 5.7,11.7 L15.7,1.7 C16.1,1.3 16.1,0.7 15.7,0.3 C15.3,-0.1 14.7,-0.1 14.3,0.3 Z" id="Shape"></path>
            </g>
            <circle id="Oval-Copy" stroke="#E3E3E3" stroke-width="3" cx="483" cy="127" r="8"></circle>
            <circle id="Oval-Copy-2" stroke="#E3E3E3" stroke-width="3" cx="691" cy="127" r="8"></circle>
            <rect id="Rectangle-8" fill="#515151" x="235" y="271" width="80" height="12" rx="2"></rect>
            <rect id="Rectangle-8-Copy-3" fill="#515151" x="443" y="271" width="80" height="12" rx="2"></rect>
            <path d="M653,271 L726,271 L726,283 L653,283 C651.895431,283 651,282.104569 651,281 L651,273 C651,271.895431 651.895431,271 653,271 Z" id="Rectangle-8-Copy-6" fill="#515151"></path>
            <rect id="Rectangle-8-Copy" fill="#515151" x="247" y="333" width="56" height="12" rx="2"></rect>
            <rect id="Rectangle-8-Copy-4" fill="#515151" x="455" y="333" width="56" height="12" rx="2"></rect>
            <rect id="Rectangle-8-Copy-7" fill="#515151" x="663" y="333" width="56" height="12" rx="2"></rect>
            <rect id="Rectangle-8-Copy-2" fill="#515151" x="235" y="395" width="80" height="12" rx="2"></rect>
            <rect id="Rectangle-8-Copy-5" fill="#515151" x="443" y="395" width="80" height="12" rx="2"></rect>
            <path d="M653,395 L726,395 L726,407 L653,407 C651.895431,407 651,406.104569 651,405 L651,397 C651,395.895431 651.895431,395 653,395 Z" id="Rectangle-8-Copy-8" fill="#515151"></path>
        </g>
        <g id="mobile" transform="translate(20.000000, 158.000000)">
            <g id="mobile_bg">
                <use fill="black" fill-opacity="1" filter="url(#filter-2)" xlink:href="#path-1"></use>
                <use fill="#FFFFFF" fill-rule="evenodd" xlink:href="#path-1"></use>
            </g>
            <rect id="Rectangle-11" fill="#FAFAFA" x="0" y="55" width="85" height="267"></rect>
            <rect id="Rectangle-12" fill="#515151" x="14" y="22" width="56" height="12" rx="2"></rect>
            <rect id="Rectangle-13" fill="#9DC997" x="106" y="14" width="70" height="28" rx="3"></rect>
            <rect id="Rectangle-14" fill="#FFFFFF" x="125" y="24" width="32" height="8" rx="2"></rect>
            <rect id="Rectangle-15" fill="#E3E3E3" x="14" y="71" width="49" height="10" rx="2"></rect>
            <rect id="Rectangle-15-Copy" fill="#E3E3E3" x="14" y="185" width="49" height="10" rx="2"></rect>
            <rect id="Rectangle-15-Copy-4" fill="#515151" x="109" y="185" width="56" height="10" rx="2"></rect>
            <rect id="Rectangle-15-Copy-5" fill="#515151" x="109" y="279" width="56" height="10" rx="2"></rect>
            <rect id="Rectangle-15-Copy-6" fill="#515151" x="117" y="232" width="40" height="10" rx="2"></rect>
            <rect id="Rectangle-15-Copy-2" fill="#E3E3E3" x="14" y="232" width="49" height="10" rx="2"></rect>
            <rect id="Rectangle-15-Copy-3" fill="#E3E3E3" x="14" y="279" width="49" height="10" rx="2"></rect>
            <rect id="Rectangle-9" fill="#E3E3E3" x="0" y="54" width="190" height="2"></rect>
            <rect id="Rectangle-9-Copy" fill="#E3E3E3" x="0" y="166" width="190" height="2"></rect>
            <rect id="Rectangle-9-Copy-2" fill="#E3E3E3" x="0" y="213" width="190" height="2"></rect>
            <rect id="Rectangle-9-Copy-3" fill="#E3E3E3" x="0" y="260" width="190" height="2"></rect>
            <rect id="Rectangle-9-Copy-4" fill="#E3E3E3" x="0" y="307" width="190" height="2"></rect>
            <rect id="Rectangle-10" fill="#E3E3E3" x="84" y="55" width="2" height="267"></rect>
            <circle id="Oval-2" stroke="#E3E3E3" stroke-width="3" cx="138" cy="79" r="6"></circle>
            <g id="image-01" transform="translate(115.000000, 100.000000)" fill="#E3E3E3" fill-rule="nonzero">
                <circle id="Oval" cx="13" cy="13" r="5"></circle>
                <path d="M7.37383297,39 L37.6249749,39 C38.1227437,39 38.5820111,38.7256127 38.8253952,38.2832332 C39.0687794,37.8408537 39.056404,37.2990789 38.7965192,36.8664989 L27.7961039,18.6673426 C27.5802208,18.3103592 27.2185821,18.0709703 26.8101917,18.0135729 C26.4059264,17.9547756 25.9920358,18.0891694 25.6895244,18.3747562 L6.43879768,36.5739125 C6.02490705,36.9658943 5.88877691,37.576266 6.0950347,38.1124411 C6.30129249,38.6472164 6.80868664,39 7.37383297,39 Z" id="Shape"></path>
                <path d="M42.625,0 L1.375,0 C0.616,0 0,0.616 0,1.375 L0,42.625 C0,43.384 0.616,44 1.375,44 L42.625,44 C43.384,44 44,43.384 44,42.625 L44,1.375 C44,0.616 43.384,0 42.625,0 Z M41.25,41.25 L2.75,41.25 L2.75,2.75 L41.25,2.75 L41.25,41.25 Z" id="Shape"></path>
            </g>
        </g>
        <g id="default" transform="translate(373.000000, 159.000000)" fill-rule="nonzero">
            <g id="Combined-Shape">
                <use fill="black" fill-opacity="1" filter="url(#filter-4)" xlink:href="#path-3"></use>
                <use fill="#FFFFFF" fill-rule="evenodd" xlink:href="#path-3"></use>
            </g>
            <polygon id="Shape" fill="#000000" points="15.502 32.018 11.814 33.566 5.614 18.818 9.296 17.268 15.502 32.018"></polygon>
            <polygon id="Shape" fill="#000000" points="2 4.814 2 27.19 7.938 21.458 8.794 21.18 18.33 21.18"></polygon>
        </g>
    </g>
</svg>