<?xml version="1.0" encoding="UTF-8"?>
<svg width="840px" height="480px" viewBox="0 0 840 480" version="1.1" xmlns="http://www.w3.org/2000/svg" xmlns:xlink="http://www.w3.org/1999/xlink">
    <!-- Generator: Sketch 49 (51002) - http://www.bohemiancoding.com/sketch -->
    <title>product-slider-featured</title>
    <desc>Created with Sketch.</desc>
    <defs>
        <path d="M6,0 L184,0 C187.313708,-6.08718376e-16 190,2.6862915 190,6 L190,322 L0,322 L0,6 C-4.05812251e-16,2.6862915 2.6862915,6.08718376e-16 6,0 Z" id="path-1"></path>
        <filter x="-14.7%" y="-9.9%" width="133.7%" height="119.9%" filterUnits="objectBoundingBox" id="filter-2">
            <feOffset dx="4" dy="0" in="SourceAlpha" result="shadowOffsetOuter1"></feOffset>
            <feGaussianBlur stdDeviation="10" in="shadowOffsetOuter1" result="shadowBlurOuter1"></feGaussianBlur>
            <feColorMatrix values="0 0 0 0 0   0 0 0 0 0   0 0 0 0 0  0 0 0 0.198086504 0" type="matrix" in="shadowBlurOuter1"></feColorMatrix>
        </filter>
        <polygon id="path-3" points="13.9684862 23.238 18.168 33.378 18.17 33.38 10.958 36.448 6.44921752 25.7669727 0 32.03 0 0 23.182 23.238"></polygon>
        <filter x="-133.7%" y="-79.6%" width="367.4%" height="270.1%" filterUnits="objectBoundingBox" id="filter-4">
            <feOffset dx="0" dy="2" in="SourceAlpha" result="shadowOffsetOuter1"></feOffset>
            <feGaussianBlur stdDeviation="10" in="shadowOffsetOuter1" result="shadowBlurOuter1"></feGaussianBlur>
            <feColorMatrix values="0 0 0 0 0   0 0 0 0 0   0 0 0 0 0  0 0 0 0.201681386 0" type="matrix" in="shadowBlurOuter1"></feColorMatrix>
        </filter>
    </defs>
    <g id="product-slider-featured" stroke="none" stroke-width="1" fill="none" fill-rule="evenodd">
        <polygon id="bg" fill="#E76363" points="0 480 840 480 840 0 0 0"></polygon>
        <g id="desktop" transform="translate(94.000000, 26.000000)">
            <path d="M726,454 L0,454 L0,6 C0,2.687 2.687,0 6,0 L720,0 C723.313,0 726,2.687 726,6 L726,454 Z" id="container_bg" fill="#2F2933"></path>
            <polygon id="Combined-Shape" fill="#EAEAEA" points="0 24 726 24 726 454 0 454"></polygon>
            <g id="Group" transform="translate(265.000000, 69.000000)">
                <rect id="Rectangle" fill="#FFFFFF" x="0" y="0" width="196" height="206" rx="4"></rect>
                <rect id="Rectangle-2" fill="#2F2933" x="17" y="174" width="57" height="14" rx="2"></rect>
                <rect id="Rectangle-2-Copy" fill="#A5D05E" x="159" y="174" width="20" height="14" rx="2"></rect>
                <circle id="Oval" fill="#2F2933" cx="98" cy="157" r="4"></circle>
                <circle id="Oval-Copy" stroke="#A795B3" stroke-width="2" cx="84" cy="157" r="3"></circle>
                <circle id="Oval-Copy-2" stroke="#A795B3" stroke-width="2" cx="112" cy="157" r="3"></circle>
                <path d="M113.98383,24 C110.991617,27.567 86.0034043,27.567 83.0161702,24 C82.3888511,24 40,46.3905 40,46.3905 L49.8713149,69.587 L64.1602511,67.7225 L64.1602511,131 L132.838255,131 L132.838255,67.7225 L147.127191,69.587 L157,46.3905 C157,46.3905 114.611149,24 113.98383,24 Z M84,29 C92.8650566,33.0784888 105.966729,32.9486998 113,29 C108.782976,40.0761912 91.5181557,41.8896027 84,29 Z" id="tshirt" fill="#EAEAEA"></path>
            </g>
            <g id="Group-Copy-3" transform="translate(265.000000, 301.000000)">
                <path d="M4,0 L192,0 C194.209139,-4.05812251e-16 196,1.790861 196,4 L196,153 L0,153 L-4.4408921e-16,4 C-7.1463071e-16,1.790861 1.790861,4.05812251e-16 4,0 Z" id="Rectangle" fill="#FFFFFF"></path>
                <path d="M113.98383,24 C110.991617,27.567 86.0034043,27.567 83.0161702,24 C82.3888511,24 40,46.3905 40,46.3905 L49.8713149,69.587 L64.1602511,67.7225 L64.1602511,131 L132.838255,131 L132.838255,67.7225 L147.127191,69.587 L157,46.3905 C157,46.3905 114.611149,24 113.98383,24 Z M84,29 C92.8650566,33.0784888 105.966729,32.9486998 113,29 C108.782976,40.0761912 91.5181557,41.8896027 84,29 Z" id="tshirt" fill="#EAEAEA"></path>
            </g>
            <g id="Group-Copy-4" transform="translate(41.000000, 301.000000)">
                <path d="M4,0 L192,0 C194.209139,-4.05812251e-16 196,1.790861 196,4 L196,153 L0,153 L-4.4408921e-16,4 C-7.1463071e-16,1.790861 1.790861,4.05812251e-16 4,0 Z" id="Rectangle" fill="#FFFFFF"></path>
                <path d="M113.98383,24 C110.991617,27.567 86.0034043,27.567 83.0161702,24 C82.3888511,24 40,46.3905 40,46.3905 L49.8713149,69.587 L64.1602511,67.7225 L64.1602511,131 L132.838255,131 L132.838255,67.7225 L147.127191,69.587 L157,46.3905 C157,46.3905 114.611149,24 113.98383,24 Z M84,29 C92.8650566,33.0784888 105.966729,32.9486998 113,29 C108.782976,40.0761912 91.5181557,41.8896027 84,29 Z" id="tshirt" fill="#EAEAEA"></path>
            </g>
            <g id="Group-Copy-5" transform="translate(489.000000, 301.000000)">
                <path d="M4,0 L192,0 C194.209139,-4.05812251e-16 196,1.790861 196,4 L196,153 L0,153 L-4.4408921e-16,4 C-7.1463071e-16,1.790861 1.790861,4.05812251e-16 4,0 Z" id="Rectangle" fill="#FFFFFF"></path>
                <path d="M113.98383,24 C110.991617,27.567 86.0034043,27.567 83.0161702,24 C82.3888511,24 40,46.3905 40,46.3905 L49.8713149,69.587 L64.1602511,67.7225 L64.1602511,131 L132.838255,131 L132.838255,67.7225 L147.127191,69.587 L157,46.3905 C157,46.3905 114.611149,24 113.98383,24 Z M84,29 C92.8650566,33.0784888 105.966729,32.9486998 113,29 C108.782976,40.0761912 91.5181557,41.8896027 84,29 Z" id="tshirt" fill="#EAEAEA"></path>
            </g>
            <g id="Group-Copy" transform="translate(489.000000, 69.000000)">
                <rect id="Rectangle" fill="#FFFFFF" x="0" y="0" width="196" height="206" rx="4"></rect>
                <rect id="Rectangle-2" fill="#2F2933" x="17" y="174" width="57" height="14" rx="2"></rect>
                <rect id="Rectangle-2-Copy" fill="#A5D05E" x="159" y="174" width="20" height="14" rx="2"></rect>
                <circle id="Oval" fill="#2F2933" cx="98" cy="157" r="4"></circle>
                <circle id="Oval-Copy" stroke="#A795B3" stroke-width="2" cx="84" cy="157" r="3"></circle>
                <circle id="Oval-Copy-2" stroke="#A795B3" stroke-width="2" cx="112" cy="157" r="3"></circle>
                <path d="M113.98383,24 C110.991617,27.567 86.0034043,27.567 83.0161702,24 C82.3888511,24 40,46.3905 40,46.3905 L49.8713149,69.587 L64.1602511,67.7225 L64.1602511,131 L132.838255,131 L132.838255,67.7225 L147.127191,69.587 L157,46.3905 C157,46.3905 114.611149,24 113.98383,24 Z M84,29 C92.8650566,33.0784888 105.966729,32.9486998 113,29 C108.782976,40.0761912 91.5181557,41.8896027 84,29 Z" id="tshirt" fill="#2F2933"></path>
                <path d="M0,109 L0,53.9658474 C3.83419486,54.2773319 7.61593166,52.4452319 9,49 C6.73815521,50.2034723 3.40569334,50.7684225 1.20792265e-13,50.6591354 L0,47.5725848 C4.28580156,47.6166468 8.71358354,47.0924519 9.63148936,46 C10.0014468,46 35,59.1831916 35,59.1831916 L29.1775745,72.8409439 L20.750766,71.7431542 L20.750766,109 L0,109 Z" id="Combined-Shape" fill="#2F2933" opacity="0.25"></path>
                <path d="M161,109 L161,53.9658474 C164.834195,54.2773319 168.615932,52.4452319 170,49 C167.738155,50.2034723 164.405693,50.7684225 161,50.6591354 L161,47.5725848 C165.285802,47.6166468 169.713584,47.0924519 170.631489,46 C171.001447,46 196,59.1831916 196,59.1831916 L190.177574,72.8409439 L181.750766,71.7431542 L181.750766,109 L161,109 Z" id="Combined-Shape-Copy-2" fill="#2F2933" opacity="0.25" transform="translate(178.500000, 77.500000) scale(-1, 1) translate(-178.500000, -77.500000) "></path>
            </g>
            <g id="Group-Copy-2" transform="translate(41.000000, 69.000000)">
                <rect id="Rectangle" fill="#FFFFFF" x="0" y="0" width="196" height="206" rx="4"></rect>
                <rect id="Rectangle-2" fill="#2F2933" x="17" y="174" width="57" height="14" rx="2"></rect>
                <rect id="Rectangle-2-Copy" fill="#A5D05E" x="159" y="174" width="20" height="14" rx="2"></rect>
                <circle id="Oval" fill="#2F2933" cx="98" cy="157" r="4"></circle>
                <circle id="Oval-Copy" stroke="#A795B3" stroke-width="2" cx="84" cy="157" r="3"></circle>
                <circle id="Oval-Copy-2" stroke="#A795B3" stroke-width="2" cx="112" cy="157" r="3"></circle>
                <path d="M113.98383,24 C110.991617,27.567 86.0034043,27.567 83.0161702,24 C82.3888511,24 40,46.3905 40,46.3905 L49.8713149,69.587 L64.1602511,67.7225 L64.1602511,131 L132.838255,131 L132.838255,67.7225 L147.127191,69.587 L157,46.3905 C157,46.3905 114.611149,24 113.98383,24 Z M84,29 C92.8650566,33.0784888 105.966729,32.9486998 113,29 C108.782976,40.0761912 91.5181557,41.8896027 84,29 Z" id="tshirt" fill="#EAEAEA"></path>
            </g>
            <g id="dots" transform="translate(15.000000, 8.000000)" fill="#4D4453">
                <path d="M8,4 C8,6.209 6.209,8 4,8 C1.791,8 0,6.209 0,4 C0,1.791 1.791,0 4,0 C6.209,0 8,1.791 8,4" id="Fill-6"></path>
                <path d="M24,4 C24,6.209 22.209,8 20,8 C17.791,8 16,6.209 16,4 C16,1.791 17.791,0 20,0 C22.209,0 24,1.791 24,4" id="Fill-8"></path>
                <path d="M40,4 C40,6.209 38.209,8 36,8 C33.791,8 32,6.209 32,4 C32,1.791 33.791,0 36,0 C38.209,0 40,1.791 40,4" id="Fill-10"></path>
            </g>
        </g>
        <g id="mobile" transform="translate(20.000000, 158.000000)">
            <g id="mobile_bg">
                <use fill="black" fill-opacity="1" filter="url(#filter-2)" xlink:href="#path-1"></use>
                <use fill="#EAEAEA" fill-rule="evenodd" xlink:href="#path-1"></use>
            </g>
            <path d="M0,7 L0,6 C0,2.687 2.0769043,0 6,0 L184,0 C188.06543,0 190,2.687 190,6 L190,7 C190,3.687 187.313,1 184,1 L6,1 C2.687,1 0,3.687 0,7 Z" id="inner-shadow" fill="#FFFFFF"></path>
            <g id="Group" transform="translate(17.000000, 22.000000)">
                <rect id="Rectangle" fill="#FFFFFF" x="0" y="0" width="154" height="181" rx="4"></rect>
                <rect id="Rectangle-2" fill="#2F2933" x="13" y="153" width="57" height="14" rx="2"></rect>
                <rect id="Rectangle-2-Copy" fill="#A5D05E" x="122" y="153" width="20" height="14" rx="2"></rect>
                <circle id="Oval" fill="#2F2933" cx="77" cy="138" r="4"></circle>
                <circle id="Oval-Copy" stroke="#A795B3" stroke-width="2" cx="63" cy="138" r="3"></circle>
                <circle id="Oval-Copy-2" stroke="#A795B3" stroke-width="2" cx="91" cy="138" r="3"></circle>
                <path d="M90.4987234,23 C87.8901277,26.1032026 66.1055319,26.1032026 63.5012766,23 C62.954383,23 26,42.4791865 26,42.4791865 L34.6057617,62.6595732 L47.062783,61.0375039 L47.062783,116.087379 L106.935915,116.087379 L106.935915,61.0375039 L119.392936,62.6595732 L128,42.4791865 C128,42.4791865 91.045617,23 90.4987234,23 Z M64.6213592,26.961165 C72.4921761,30.5512911 84.1244607,30.4370432 90.368932,26.961165 C86.6248584,36.7110809 71.2963338,38.3073526 64.6213592,26.961165 Z" id="tshirt" fill="#2F2933"></path>
                <path d="M154,98.1941748 L138.357383,98.1941748 L138.357383,68.5104187 L131.640362,69.385064 L127,58.5034829 C127,58.5034829 146.926383,48 147.221277,48 C147.887852,48.7942842 150.8848,49.2115356 153.999997,49.251754 L154,51.5382144 C151.828058,51.4267612 149.641019,50.964155 147.825243,50.1359223 C149.332399,52.6978007 151.657734,54.0359891 154,54.3400834 L154,98.1941748 Z" id="Combined-Shape" fill="#2F2933" opacity="0.250962409"></path>
                <path d="M27,98.1941748 L11.357383,98.1941748 L11.357383,68.5104187 L4.6403617,69.385064 L0,58.5034829 C0,58.5034829 19.926383,48 20.2212766,48 C20.8878521,48.7942842 23.8848004,49.2115356 26.9999971,49.251754 L27,51.5382144 C24.8280579,51.4267612 22.6410195,50.964155 20.8252427,50.1359223 C22.3323985,52.6978007 24.6577344,54.0359891 27,54.3400834 L27,98.1941748 Z" id="Combined-Shape-Copy" fill="#2F2933" opacity="0.250962409" transform="translate(13.500000, 73.097087) scale(-1, 1) translate(-13.500000, -73.097087) "></path>
            </g>
            <g id="Group-Copy-6" transform="translate(17.000000, 221.000000)">
                <path d="M4,0 L150,0 C152.209139,-4.05812251e-16 154,1.790861 154,4 L154,101 L0,101 L0,4 C-2.705415e-16,1.790861 1.790861,4.05812251e-16 4,0 Z" id="Rectangle" fill="#FFFFFF"></path>
                <path d="M90.4987234,23 C87.8901277,26.1032026 66.1055319,26.1032026 63.5012766,23 C62.954383,23 26,42.4791865 26,42.4791865 L34.6057617,62.6595732 L47.062783,61.0375039 L47.062783,101 L106.935915,101 L106.935915,61.0375039 L119.392936,62.6595732 L128,42.4791865 C128,42.4791865 91.045617,23 90.4987234,23 Z M90.368932,26.961165 C86.6248584,36.7110809 71.2963338,38.3073526 64.6213592,26.961165 C72.4921761,30.5512911 84.1244607,30.4370432 90.368932,26.961165 Z" id="tshirt" fill="#2F2933"></path>
                <path d="M154,98.1941748 L138.357383,98.1941748 L138.357383,68.5104187 L131.640362,69.385064 L127,58.5034829 C127,58.5034829 146.926383,48 147.221277,48 C147.887852,48.7942842 150.8848,49.2115356 153.999997,49.251754 L154,51.5382144 C151.828058,51.4267612 149.641019,50.964155 147.825243,50.1359223 C149.332399,52.6978007 151.657734,54.0359891 154,54.3400834 L154,98.1941748 Z" id="Combined-Shape" fill="#2F2933" opacity="0.250962409"></path>
                <path d="M27,98.1941748 L11.357383,98.1941748 L11.357383,68.5104187 L4.6403617,69.385064 L0,58.5034829 C0,58.5034829 19.926383,48 20.2212766,48 C20.8878521,48.7942842 23.8848004,49.2115356 26.9999971,49.251754 L27,51.5382144 C24.8280579,51.4267612 22.6410195,50.964155 20.8252427,50.1359223 C22.3323985,52.6978007 24.6577344,54.0359891 27,54.3400834 L27,98.1941748 Z" id="Combined-Shape-Copy" fill="#2F2933" opacity="0.250962409" transform="translate(13.500000, 73.097087) scale(-1, 1) translate(-13.500000, -73.097087) "></path>
            </g>
        </g>
        <g id="default" transform="translate(705.000000, 280.000000)" fill-rule="nonzero">
            <g id="Combined-Shape">
                <use fill="black" fill-opacity="1" filter="url(#filter-4)" xlink:href="#path-3"></use>
                <use fill="#FFFFFF" fill-rule="evenodd" xlink:href="#path-3"></use>
            </g>
            <polygon id="Shape" fill="#000000" points="15.502 32.018 11.814 33.566 5.614 18.818 9.296 17.268 15.502 32.018"></polygon>
            <polygon id="Shape" fill="#000000" points="2 4.814 2 27.19 7.938 21.458 8.794 21.18 18.33 21.18"></polygon>
        </g>
    </g>
</svg>