<?xml version="1.0" encoding="UTF-8"?>
<svg width="840px" height="480px" viewBox="0 0 840 480" version="1.1" xmlns="http://www.w3.org/2000/svg" xmlns:xlink="http://www.w3.org/1999/xlink">
    <!-- Generator: Sketch 49 (51002) - http://www.bohemiancoding.com/sketch -->
    <title>product-tour-featured</title>
    <desc>Created with Sketch.</desc>
    <defs>
        <path d="M6,0 L184,0 C187.313708,-6.08718376e-16 190,2.6862915 190,6 L190,322 L0,322 L0,6 C-4.05812251e-16,2.6862915 2.6862915,6.08718376e-16 6,0 Z" id="path-1"></path>
        <filter x="-14.7%" y="-9.9%" width="133.7%" height="119.9%" filterUnits="objectBoundingBox" id="filter-2">
            <feOffset dx="4" dy="0" in="SourceAlpha" result="shadowOffsetOuter1"></feOffset>
            <feGaussianBlur stdDeviation="10" in="shadowOffsetOuter1" result="shadowBlurOuter1"></feGaussianBlur>
            <feColorMatrix values="0 0 0 0 0   0 0 0 0 0   0 0 0 0 0  0 0 0 0.29797894 0" type="matrix" in="shadowBlurOuter1"></feColorMatrix>
        </filter>
        <polygon id="path-3" points="13.9684862 23.238 18.168 33.378 18.17 33.38 10.958 36.448 6.44921752 25.7669727 0 32.03 0 0 23.182 23.238"></polygon>
        <filter x="-133.7%" y="-79.6%" width="367.4%" height="270.1%" filterUnits="objectBoundingBox" id="filter-4">
            <feOffset dx="0" dy="2" in="SourceAlpha" result="shadowOffsetOuter1"></feOffset>
            <feGaussianBlur stdDeviation="10" in="shadowOffsetOuter1" result="shadowBlurOuter1"></feGaussianBlur>
            <feColorMatrix values="0 0 0 0 0   0 0 0 0 0   0 0 0 0 0  0 0 0 0.201681386 0" type="matrix" in="shadowBlurOuter1"></feColorMatrix>
        </filter>
    </defs>
    <g id="product-tour-featured" stroke="none" stroke-width="1" fill="none" fill-rule="evenodd">
        <polygon id="bg" fill="#13374E" points="0 480 840 480 840 0 0 0"></polygon>
        <g id="desktop" transform="translate(94.000000, 26.000000)">
            <path d="M726,454 L0,454 L0,6 C0,2.687 2.687,0 6,0 L720,0 C723.313,0 726,2.687 726,6 L726,454 Z" id="container_bg" fill="#FEFFFB"></path>
            <polygon id="Combined-Shape" fill="#222D33" points="0 24 726 24 726 454 0 454"></polygon>
            <path d="M449,271 L440.5,281 L432,271 L297,271 C294.790861,271 293,269.209139 293,267 L293,149 C293,146.790861 294.790861,145 297,145 L583,145 C585.209139,145 587,146.790861 587,149 L587,267 C587,269.209139 585.209139,271 583,271 L449,271 Z" id="Combined-Shape" fill="#FEFFFB"></path>
            <g id="x" transform="translate(559.000000, 166.000000)" stroke="#D7D8D4" stroke-linecap="square" stroke-width="4">
                <path d="M0,0 L9.01086443,9.01086443" id="Line"></path>
                <path d="M9.01086443,0 L0,9.01086443" id="Line-Copy"></path>
            </g>
            <rect id="Rectangle" fill="#222D33" x="313" y="165" width="96" height="14" rx="2"></rect>
            <rect id="Rectangle-Copy" fill="#E2E3DF" x="313" y="192" width="239" height="10" rx="2"></rect>
            <rect id="Rectangle-Copy-2" fill="#E2E3DF" x="313" y="213" width="239" height="10" rx="2"></rect>
            <rect id="Rectangle-Copy-3" fill="#E2E3DF" x="313" y="242" width="32" height="10" rx="2"></rect>
            <rect id="Rectangle-Copy-4" fill="#E2E3DF" x="494" y="242" width="34" height="10" rx="2"></rect>
            <rect id="Rectangle-Copy-5" fill="#222D33" x="535" y="242" width="34" height="10" rx="2"></rect>
            <circle id="Oval-Copy" fill="#FF9710" opacity="0.29930933" cx="440" cy="308" r="22"></circle>
            <circle id="Oval" fill="#FF9710" cx="440" cy="308" r="6"></circle>
            <g id="dots" transform="translate(15.000000, 8.000000)" fill="#E2E3DF">
                <path d="M8,4 C8,6.209 6.209,8 4,8 C1.791,8 0,6.209 0,4 C0,1.791 1.791,0 4,0 C6.209,0 8,1.791 8,4" id="Fill-6"></path>
                <path d="M24,4 C24,6.209 22.209,8 20,8 C17.791,8 16,6.209 16,4 C16,1.791 17.791,0 20,0 C22.209,0 24,1.791 24,4" id="Fill-8"></path>
                <path d="M40,4 C40,6.209 38.209,8 36,8 C33.791,8 32,6.209 32,4 C32,1.791 33.791,0 36,0 C38.209,0 40,1.791 40,4" id="Fill-10"></path>
            </g>
        </g>
        <g id="mobile" transform="translate(20.000000, 158.000000)">
            <g id="mobile_bg">
                <use fill="black" fill-opacity="1" filter="url(#filter-2)" xlink:href="#path-1"></use>
                <use fill="#222D33" fill-rule="evenodd" xlink:href="#path-1"></use>
            </g>
            <path d="M0,7 L0,6 C0,2.687 2.0769043,0 6,0 L184,0 C188.06543,0 190,2.687 190,6 L190,7 C190,3.687 187.313,1 184,1 L6,1 C2.687,1 0,3.687 0,7 Z" id="inner-shadow" fill="#FFFFFF" opacity="0.203804348"></path>
            <rect id="Rectangle-2" fill="#FEFFFB" x="11" y="13" width="168" height="261" rx="4"></rect>
            <rect id="Rectangle-3" fill="#222D33" x="28" y="28" width="78" height="14" rx="2"></rect>
            <rect id="Rectangle-3-Copy" fill="#E2E3DF" x="28" y="54" width="134" height="10" rx="2"></rect>
            <rect id="Rectangle-3-Copy-2" fill="#E2E3DF" x="28" y="73" width="69" height="10" rx="2"></rect>
            <rect id="Rectangle-3-Copy-4" fill="#E2E3DF" x="28" y="246" width="25" height="10" rx="2"></rect>
            <rect id="Rectangle-3-Copy-5" fill="#E2E3DF" x="90" y="246" width="33" height="10" rx="2"></rect>
            <rect id="Rectangle-3-Copy-6" fill="#222D33" x="129" y="246" width="33" height="10" rx="2"></rect>
            <rect id="Rectangle-3-Copy-3" fill="#E2E3DF" x="28" y="103" width="134" height="124"></rect>
            <g id="image-2" transform="translate(60.000000, 132.000000)" fill="#CBCCC8" fill-rule="nonzero">
                <path d="M9.85410197,60 L60.3112721,60 L46.3831684,29.8224421 L29.6,52.2 L18.0757105,43.5567829 L9.85410197,60 Z M28.4,43.8 L47.6168316,18.1775579 L69.6887279,66 L0.145898034,66 L15.9242895,34.4432171 L28.4,43.8 Z" id="Shape"></path>
                <path d="M23,24 C16.372583,24 11,18.627417 11,12 C11,5.372583 16.372583,0 23,0 C29.627417,0 35,5.372583 35,12 C35,18.627417 29.627417,24 23,24 Z M23,18 C26.3137085,18 29,15.3137085 29,12 C29,8.6862915 26.3137085,6 23,6 C19.6862915,6 17,8.6862915 17,12 C17,15.3137085 19.6862915,18 23,18 Z" id="Oval"></path>
            </g>
        </g>
        <g id="default" transform="translate(664.000000, 282.000000)" fill-rule="nonzero">
            <g id="Combined-Shape">
                <use fill="black" fill-opacity="1" filter="url(#filter-4)" xlink:href="#path-3"></use>
                <use fill="#FFFFFF" fill-rule="evenodd" xlink:href="#path-3"></use>
            </g>
            <polygon id="Shape" fill="#000000" points="15.502 32.018 11.814 33.566 5.614 18.818 9.296 17.268 15.502 32.018"></polygon>
            <polygon id="Shape" fill="#000000" points="2 4.814 2 27.19 7.938 21.458 8.794 21.18 18.33 21.18"></polygon>
        </g>
    </g>
</svg>