<?xml version="1.0" encoding="UTF-8"?>
<svg width="840px" height="480px" viewBox="0 0 840 480" version="1.1" xmlns="http://www.w3.org/2000/svg" xmlns:xlink="http://www.w3.org/1999/xlink">
    <!-- Generator: Sketch 48.2 (47327) - http://www.bohemiancoding.com/sketch -->
    <title>pull-out-intro-effect-featured</title>
    <desc>Created with Sketch.</desc>
    <defs>
        <linearGradient x1="50%" y1="2.42346939%" x2="50%" y2="100%" id="linearGradient-1">
            <stop stop-color="#2E313D" stop-opacity="0" offset="0%"></stop>
            <stop stop-color="#2E313D" offset="100%"></stop>
        </linearGradient>
        <path d="M6,0 L184,0 C187.313708,-6.08718376e-16 190,2.6862915 190,6 L190,322 L0,322 L0,6 C-4.05812251e-16,2.6862915 2.6862915,6.08718376e-16 6,0 Z" id="path-2"></path>
        <filter x="-18.9%" y="-9.9%" width="133.7%" height="119.9%" filterUnits="objectBoundingBox" id="filter-3">
            <feOffset dx="-4" dy="0" in="SourceAlpha" result="shadowOffsetOuter1"></feOffset>
            <feGaussianBlur stdDeviation="10" in="shadowOffsetOuter1" result="shadowBlurOuter1"></feGaussianBlur>
            <feColorMatrix values="0 0 0 0 0   0 0 0 0 0   0 0 0 0 0  0 0 0 0.128000453 0" type="matrix" in="shadowBlurOuter1"></feColorMatrix>
        </filter>
    </defs>
    <g id="Page-1" stroke="none" stroke-width="1" fill="none" fill-rule="evenodd">
        <g id="pull-out-intro-effect-featured">
            <polygon id="bg" fill="#D9DAD5" points="0 480 840 480 840 0 0 0"></polygon>
            <g id="desktop" transform="translate(20.000000, 26.000000)">
                <path d="M726,454 L0,454 L0,6 C0,2.687 2.687,0 6,0 L720,0 C723.313,0 726,2.687 726,6 L726,454 Z" id="container_bg" fill="#FFFFFF"></path>
                <polygon id="body" fill="#F0F1E7" points="0 24 726 24 726 454 1.13686838e-13 454"></polygon>
                <polygon id="body-copy-2" fill="#2E313D" points="0 80 726 80 726 218 1.13686838e-13 218"></polygon>
                <polygon id="body-copy-3" fill="#404351" points="65 112 661 112 661 218 65 218"></polygon>
                <polygon id="body-copy-4" fill="#FFFFFF" opacity="0.126019022" points="65 112 661 112 661 113 65 113"></polygon>
                <polygon id="body-copy-5" fill="url(#linearGradient-1)" points="0 80 726 80 726 218 1.13686838e-13 218"></polygon>
                <polygon id="body-copy" fill="#F35535" points="0 24 726 24 726 80 1.13686838e-13 80"></polygon>
                <rect id="Rectangle" fill="#DD8B5E" x="17" y="41" width="70" height="22"></rect>
                <rect id="Rectangle-Copy" fill="#E29879" x="87" y="41" width="22" height="22"></rect>
                <rect id="Rectangle-Copy-2" fill="#EDBF74" x="109" y="41" width="22" height="22"></rect>
                <rect id="Rectangle-2" fill="#F57E66" x="522" y="47" width="48" height="10" rx="1"></rect>
                <rect id="Rectangle-2-Copy" fill="#F57E66" x="590" y="47" width="48" height="10" rx="1"></rect>
                <rect id="Rectangle-2-Copy-2" fill="#F57E66" x="658" y="47" width="48" height="10" rx="1"></rect>
                <g id="dots" transform="translate(15.000000, 8.000000)" fill="#D9DAD5">
                    <path d="M8,4 C8,6.209 6.209,8 4,8 C1.791,8 0,6.209 0,4 C0,1.791 1.791,0 4,0 C6.209,0 8,1.791 8,4" id="Fill-6"></path>
                    <path d="M24,4 C24,6.209 22.209,8 20,8 C17.791,8 16,6.209 16,4 C16,1.791 17.791,0 20,0 C22.209,0 24,1.791 24,4" id="Fill-8"></path>
                    <path d="M40,4 C40,6.209 38.209,8 36,8 C33.791,8 32,6.209 32,4 C32,1.791 33.791,0 36,0 C38.209,0 40,1.791 40,4" id="Fill-10"></path>
                </g>
                <rect id="Rectangle-3" fill="#DBDCD0" x="206" y="269" width="247" height="12" rx="2"></rect>
                <rect id="Rectangle-3-Copy" fill="#DBDCD0" x="206" y="313" width="317" height="9" rx="1"></rect>
                <rect id="Rectangle-3-Copy-2" fill="#DBDCD0" x="206" y="336" width="317" height="9" rx="1"></rect>
                <rect id="Rectangle-3-Copy-3" fill="#DBDCD0" x="206" y="359" width="317" height="9" rx="1"></rect>
                <rect id="Rectangle-3-Copy-4" fill="#DBDCD0" x="206" y="382" width="234" height="9" rx="1"></rect>
            </g>
            <g id="mobile" transform="translate(630.000000, 158.000000)">
                <g id="mobile_bg">
                    <use fill="black" fill-opacity="1" filter="url(#filter-3)" xlink:href="#path-2"></use>
                    <use fill="#F0F1E7" fill-rule="evenodd" xlink:href="#path-2"></use>
                </g>
                <path d="M190,31 L0,31 L0,6 C-4.05812251e-16,2.6862915 2.6862915,6.08718376e-16 6,0 L184,0 C187.313708,-6.08718376e-16 190,2.6862915 190,6 L190,31 Z" id="Combined-Shape" fill="#F35535"></path>
                <rect id="Rectangle-4" fill="#2E313D" x="0" y="30" width="190" height="130"></rect>
                <rect id="Rectangle-5" fill="#DBDCD0" x="25" y="195" width="140" height="12" rx="2"></rect>
                <rect id="Rectangle-5-Copy" fill="#DBDCD0" x="25" y="231" width="140" height="9" rx="1"></rect>
                <rect id="Rectangle-5-Copy-3" fill="#DBDCD0" x="25" y="273" width="140" height="9" rx="1"></rect>
                <rect id="Rectangle-5-Copy-2" fill="#DBDCD0" x="25" y="252" width="140" height="9" rx="1"></rect>
                <rect id="Rectangle-5-Copy-4" fill="#DBDCD0" x="25" y="294" width="82" height="9" rx="1"></rect>
                <rect id="Rectangle-6" fill="#DD8B5E" x="14" y="9" width="46" height="14"></rect>
                <rect id="Rectangle-6-Copy" fill="#E29879" x="60" y="9" width="14" height="14"></rect>
                <rect id="Rectangle-6-Copy-2" fill="#EDBF74" x="74" y="9" width="14" height="14"></rect>
                <rect id="Rectangle-7" fill="#F57E66" x="159" y="14" width="20" height="3"></rect>
                <rect id="Rectangle-7-Copy-2" fill="#F57E66" x="159" y="20" width="20" height="3"></rect>
                <rect id="Rectangle-7-Copy" fill="#F57E66" x="159" y="8" width="20" height="3"></rect>
                <path d="M0,7 L0,6 C0,2.687 2.0769043,0 6,0 L184,0 C188.06543,0 190,2.687 190,6 L190,7 C190,3.687 187.313,1 184,1 L6,1 C2.687,1 0,3.687 0,7 Z" id="inner-shadow" fill="#FFFFFF" opacity="0.422554348"></path>
            </g>
        </g>
    </g>
</svg>