<?xml version="1.0" encoding="UTF-8"?>
<svg width="840px" height="480px" viewBox="0 0 840 480" version="1.1" xmlns="http://www.w3.org/2000/svg" xmlns:xlink="http://www.w3.org/1999/xlink">
    <!-- Generator: Sketch 49 (51002) - http://www.bohemiancoding.com/sketch -->
    <title>radial-svg-slider-featured</title>
    <desc>Created with Sketch.</desc>
    <defs>
        <circle id="path-1" cx="597" cy="238" r="40"></circle>
        <filter x="-56.2%" y="-56.2%" width="212.5%" height="212.5%" filterUnits="objectBoundingBox" id="filter-2">
            <feOffset dx="0" dy="0" in="SourceAlpha" result="shadowOffsetOuter1"></feOffset>
            <feGaussianBlur stdDeviation="15" in="shadowOffsetOuter1" result="shadowBlurOuter1"></feGaussianBlur>
            <feColorMatrix values="0 0 0 0 0.187665745   0 0 0 0 0.159484073   0 0 0 0 0.360278486  0 0 0 0.361101676 0" type="matrix" in="shadowBlurOuter1"></feColorMatrix>
        </filter>
        <path d="M190,322 L0,322 L0,6 C0,2.687 2.687,0 6,0 L184,0 C187.313,0 190,2.687 190,6 L190,322 Z" id="path-3"></path>
        <filter x="-14.7%" y="-9.9%" width="133.7%" height="119.9%" filterUnits="objectBoundingBox" id="filter-4">
            <feOffset dx="4" dy="0" in="SourceAlpha" result="shadowOffsetOuter1"></feOffset>
            <feGaussianBlur stdDeviation="10" in="shadowOffsetOuter1" result="shadowBlurOuter1"></feGaussianBlur>
            <feColorMatrix values="0 0 0 0 0   0 0 0 0 0   0 0 0 0 0  0 0 0 0.145153986 0" type="matrix" in="shadowBlurOuter1"></feColorMatrix>
        </filter>
        <polygon id="path-5" points="13.9684862 23.238 18.168 33.378 18.17 33.38 10.958 36.448 6.44921752 25.7669727 0 32.03 0 0 23.182 23.238"></polygon>
        <filter x="-133.7%" y="-79.6%" width="367.4%" height="270.1%" filterUnits="objectBoundingBox" id="filter-6">
            <feOffset dx="0" dy="2" in="SourceAlpha" result="shadowOffsetOuter1"></feOffset>
            <feGaussianBlur stdDeviation="10" in="shadowOffsetOuter1" result="shadowBlurOuter1"></feGaussianBlur>
            <feColorMatrix values="0 0 0 0 0   0 0 0 0 0   0 0 0 0 0  0 0 0 0.201681386 0" type="matrix" in="shadowBlurOuter1"></feColorMatrix>
        </filter>
    </defs>
    <g id="radial-svg-slider-featured" stroke="none" stroke-width="1" fill="none" fill-rule="evenodd">
        <polygon id="bg" fill="#06B4C3" points="0 480 840 480 840 0 0 0"></polygon>
        <g id="desktop" transform="translate(94.000000, 26.000000)">
            <path d="M726,454 L0,454 L0,6 C0,2.687 2.687,0 6,0 L720,0 C723.313,0 726,2.687 726,6 L726,454 Z" id="container_bg" fill="#FFFFFF"></path>
            <rect id="Rectangle-2" fill="#E7E7E7" x="0" y="24" width="726" height="430"></rect>
            <rect id="Rectangle" fill="#0A0B15" x="51" y="71" width="626" height="336"></rect>
            <g id="image" transform="translate(306.000000, 197.000000)" fill="#1A1C2B" fill-rule="nonzero">
                <polygon id="Shape" points="46.6953203 59.5473203 42.4526797 55.3046797 65.8788834 31.8784759 94.9930915 57.757772 91.0069085 62.242228 66.1211166 40.1215241"></polygon>
                <polygon id="Shape" points="4.99309152 71.242228 1.00690848 66.757772 29.9590911 41.0224986 57.4495518 64.4642525 53.5564482 69.0297475 30.0409089 48.9775014"></polygon>
                <path d="M6,6 L6,78 L90,78 L90,6 L6,6 Z M96,0 L96,84 L0,84 L0,0 L96,0 Z" id="Rectangle-path"></path>
                <path d="M43.5,36 C37.7010101,36 33,31.2989899 33,25.5 C33,19.7010101 37.7010101,15 43.5,15 C49.2989899,15 54,19.7010101 54,25.5 C54,31.2989899 49.2989899,36 43.5,36 Z M43.5,30 C45.9852814,30 48,27.9852814 48,25.5 C48,23.0147186 45.9852814,21 43.5,21 C41.0147186,21 39,23.0147186 39,25.5 C39,27.9852814 41.0147186,30 43.5,30 Z" id="Oval"></path>
            </g>
            <path d="M513.148211,71 L677,71 L677,407 L515.160041,407 C452.883983,376.51069 410,312.513391 410,238.5 C410,165.286323 451.962268,101.873459 513.148211,71 Z" id="Combined-Shape" fill="#2C274D" opacity="0.432065217"></path>
            <path d="M677,172.223821 L677,304.776179 C658.014385,327.525247 629.447572,342 597.5,342 C540.338528,342 494,295.661472 494,238.5 C494,181.338528 540.338528,135 597.5,135 C629.447572,135 658.014385,149.474753 677,172.223821 Z" id="Combined-Shape" fill="#6156A8" opacity="0.345108696"></path>
            <g id="dots" transform="translate(15.000000, 8.000000)" fill="#06B4C3">
                <path d="M8,4 C8,6.209 6.209,8 4,8 C1.791,8 0,6.209 0,4 C0,1.791 1.791,0 4,0 C6.209,0 8,1.791 8,4" id="Fill-6"></path>
                <path d="M24,4 C24,6.209 22.209,8 20,8 C17.791,8 16,6.209 16,4 C16,1.791 17.791,0 20,0 C22.209,0 24,1.791 24,4" id="Fill-8"></path>
                <path d="M40,4 C40,6.209 38.209,8 36,8 C33.791,8 32,6.209 32,4 C32,1.791 33.791,0 36,0 C38.209,0 40,1.791 40,4" id="Fill-10"></path>
            </g>
            <g id="Oval-Copy">
                <use fill="black" fill-opacity="1" filter="url(#filter-2)" xlink:href="#path-1"></use>
                <use fill="#6156A8" fill-rule="evenodd" xlink:href="#path-1"></use>
            </g>
            <g id="stre-right" transform="translate(590.000000, 217.000000)" stroke="#FFFFFF" stroke-linecap="square" stroke-width="3">
                <polyline id="Shape" points="0 0 14 21 0 42"></polyline>
            </g>
            <circle id="Oval-Copy-3" fill="#F3BA00" cx="131" cy="238" r="40"></circle>
            <g id="stre-right-copy" transform="translate(131.000000, 238.000000) rotate(-180.000000) translate(-131.000000, -238.000000) translate(124.000000, 217.000000)" stroke="#FFFFFF" stroke-linecap="square" stroke-width="3">
                <polyline id="Shape" points="0 0 14 21 0 42"></polyline>
            </g>
        </g>
        <g id="mobile" transform="translate(20.000000, 158.000000)">
            <g id="container_bg">
                <use fill="black" fill-opacity="1" filter="url(#filter-4)" xlink:href="#path-3"></use>
                <use fill="#FFFFFF" fill-rule="evenodd" xlink:href="#path-3"></use>
            </g>
            <rect id="Rectangle-3" fill="#E7E7E7" x="0" y="22" width="190" height="300"></rect>
            <rect id="Rectangle-3-Copy" fill="#0A0B15" x="0" y="22" width="190" height="150"></rect>
            <circle id="Oval" fill="#6156A8" cx="155" cy="97" r="21"></circle>
            <g id="stre-right" transform="translate(151.000000, 86.000000)" stroke="#FFFFFF" stroke-width="2">
                <polyline id="Shape" points="0 0 8 11 0 22"></polyline>
            </g>
            <circle id="Oval-Copy-2" fill="#F3BA00" cx="36" cy="97" r="21"></circle>
            <g id="stre-right-copy-2" transform="translate(36.000000, 97.000000) rotate(-180.000000) translate(-36.000000, -97.000000) translate(32.000000, 86.000000)" stroke="#FFFFFF" stroke-width="2">
                <polyline id="Shape" points="0 0 8 11 0 22"></polyline>
            </g>
            <rect id="Rectangle-4" fill="#ACACAC" x="18" y="193" width="96" height="14" rx="2"></rect>
            <rect id="Rectangle-4-Copy" fill="#D1D1D1" x="18" y="226" width="154" height="12" rx="2"></rect>
            <rect id="Rectangle-4-Copy-2" fill="#D1D1D1" x="18" y="248" width="154" height="12" rx="2"></rect>
            <rect id="Rectangle-4-Copy-3" fill="#D1D1D1" x="18" y="270" width="154" height="12" rx="2"></rect>
            <rect id="Rectangle-4-Copy-4" fill="#D1D1D1" x="18" y="292" width="96" height="12" rx="2"></rect>
        </g>
        <g id="default" transform="translate(703.000000, 276.000000)" fill-rule="nonzero">
            <g id="Combined-Shape">
                <use fill="black" fill-opacity="1" filter="url(#filter-6)" xlink:href="#path-5"></use>
                <use fill="#FFFFFF" fill-rule="evenodd" xlink:href="#path-5"></use>
            </g>
            <polygon id="Shape" fill="#000000" points="15.502 32.018 11.814 33.566 5.614 18.818 9.296 17.268 15.502 32.018"></polygon>
            <polygon id="Shape" fill="#000000" points="2 4.814 2 27.19 7.938 21.458 8.794 21.18 18.33 21.18"></polygon>
        </g>
    </g>
</svg>