<?xml version="1.0" encoding="UTF-8"?>
<svg width="840px" height="480px" viewBox="0 0 840 480" version="1.1" xmlns="http://www.w3.org/2000/svg" xmlns:xlink="http://www.w3.org/1999/xlink">
    <!-- Generator: Sketch 49 (51002) - http://www.bohemiancoding.com/sketch -->
    <title>reading-progress-indicator-featured</title>
    <desc>Created with Sketch.</desc>
    <defs>
        <polygon id="path-1" points="13.9684862 23.238 18.168 33.378 18.17 33.38 10.958 36.448 6.44921752 25.7669727 0 32.03 0 0 23.182 23.238"></polygon>
        <filter x="-133.7%" y="-79.6%" width="367.4%" height="270.1%" filterUnits="objectBoundingBox" id="filter-2">
            <feOffset dx="0" dy="2" in="SourceAlpha" result="shadowOffsetOuter1"></feOffset>
            <feGaussianBlur stdDeviation="10" in="shadowOffsetOuter1" result="shadowBlurOuter1"></feGaussianBlur>
            <feColorMatrix values="0 0 0 0 0   0 0 0 0 0   0 0 0 0 0  0 0 0 0.201681386 0" type="matrix" in="shadowBlurOuter1"></feColorMatrix>
        </filter>
    </defs>
    <g id="reading-progress-indicator-featured" stroke="none" stroke-width="1" fill="none" fill-rule="evenodd">
        <polygon id="bg" fill="#E3E8F0" points="0 480 840 480 840 0 0 0"></polygon>
        <g id="desktop" transform="translate(57.000000, 26.000000)">
            <path d="M726,454 L0,454 L0,6 C0,2.687 2.687,0 6,0 L720,0 C723.313,0 726,2.687 726,6 L726,454 Z" id="container_bg" fill="#FFFFFF"></path>
            <rect id="Rectangle" fill="#FEDE9A" x="38" y="68" width="426" height="220"></rect>
            <g id="image-2-copy" transform="translate(216.000000, 145.000000)" fill="#E0BE76" fill-rule="nonzero">
                <path d="M9.85410197,60 L60.3112721,60 L46.3831684,29.8224421 L29.6,52.2 L18.0757105,43.5567829 L9.85410197,60 Z M28.4,43.8 L47.6168316,18.1775579 L69.6887279,66 L0.145898034,66 L15.9242895,34.4432171 L28.4,43.8 Z" id="Shape"></path>
                <path d="M23,24 C16.372583,24 11,18.627417 11,12 C11,5.372583 16.372583,0 23,0 C29.627417,0 35,5.372583 35,12 C35,18.627417 29.627417,24 23,24 Z M23,18 C26.3137085,18 29,15.3137085 29,12 C29,8.6862915 26.3137085,6 23,6 C19.6862915,6 17,8.6862915 17,12 C17,15.3137085 19.6862915,18 23,18 Z" id="Oval"></path>
            </g>
            <rect id="Rectangle-Copy" fill="#F2F2F2" x="483" y="68" width="204" height="220"></rect>
            <rect id="Rectangle-2" fill="#55585E" x="38" y="314" width="362" height="20" rx="2"></rect>
            <rect id="Rectangle-2-Copy" fill="#D8D8D8" x="38" y="360" width="426" height="14" rx="2"></rect>
            <rect id="Rectangle-2-Copy-2" fill="#D8D8D8" x="38" y="390" width="426" height="14" rx="2"></rect>
            <rect id="Rectangle-2-Copy-3" fill="#D8D8D8" x="38" y="420" width="286" height="14" rx="2"></rect>
            <g id="dots" transform="translate(15.000000, 8.000000)" fill="#E3E8F0">
                <path d="M8,4 C8,6.209 6.209,8 4,8 C1.791,8 0,6.209 0,4 C0,1.791 1.791,0 4,0 C6.209,0 8,1.791 8,4" id="Fill-6"></path>
                <path d="M24,4 C24,6.209 22.209,8 20,8 C17.791,8 16,6.209 16,4 C16,1.791 17.791,0 20,0 C22.209,0 24,1.791 24,4" id="Fill-8"></path>
                <path d="M40,4 C40,6.209 38.209,8 36,8 C33.791,8 32,6.209 32,4 C32,1.791 33.791,0 36,0 C38.209,0 40,1.791 40,4" id="Fill-10"></path>
            </g>
            <circle id="Oval" fill="#D8D8D8" cx="514" cy="95" r="15"></circle>
            <circle id="Oval-Copy" stroke="#CFCFCF" stroke-width="2" fill="#FFFFFF" cx="514" cy="150" r="15"></circle>
            <path d="M499,150 C499,158.284271 505.715729,165 514,165 C522.284271,165 529,158.284271 529,150 C529,141.715729 522.284271,135 514,135" id="Oval-Copy-4" stroke="#2A76E8" stroke-width="2"></path>
            <rect id="Rectangle-3" fill="#D8D8D8" x="537" y="83" width="101" height="10" rx="2"></rect>
            <rect id="Rectangle-3-Copy-2" fill="#2A76E8" x="537" y="138" width="101" height="10" rx="2"></rect>
            <rect id="Rectangle-3-Copy" fill="#D8D8D8" x="537" y="100" width="58" height="9" rx="2"></rect>
            <rect id="Rectangle-3-Copy-3" fill="#D8D8D8" x="537" y="155" width="76" height="9" rx="2"></rect>
            <circle id="Oval-Copy-2" stroke="#CFCFCF" stroke-width="2" cx="514" cy="205" r="15"></circle>
            <circle id="Oval-Copy-3" stroke="#CFCFCF" stroke-width="2" cx="514" cy="260" r="15"></circle>
            <rect id="Rectangle-4" fill="#DADADA" x="499" y="122" width="173" height="2"></rect>
            <rect id="Rectangle-4-Copy" fill="#DADADA" x="499" y="177" width="173" height="2"></rect>
            <rect id="Rectangle-4-Copy-2" fill="#DADADA" x="499" y="232" width="173" height="2"></rect>
            <rect id="Rectangle-3-Copy-5" fill="#55585E" x="537" y="193" width="68" height="10" rx="2"></rect>
            <rect id="Rectangle-3-Copy-6" fill="#55585E" x="537" y="248" width="116" height="10" rx="2"></rect>
            <rect id="Rectangle-3-Copy-4" fill="#D8D8D8" x="537" y="210" width="84" height="9" rx="2"></rect>
            <rect id="Rectangle-3-Copy-7" fill="#D8D8D8" x="537" y="265" width="76" height="9" rx="2"></rect>
        </g>
        <g id="default" transform="translate(711.000000, 188.000000)" fill-rule="nonzero">
            <g id="Combined-Shape">
                <use fill="black" fill-opacity="1" filter="url(#filter-2)" xlink:href="#path-1"></use>
                <use fill="#FFFFFF" fill-rule="evenodd" xlink:href="#path-1"></use>
            </g>
            <polygon id="Shape" fill="#000000" points="15.502 32.018 11.814 33.566 5.614 18.818 9.296 17.268 15.502 32.018"></polygon>
            <polygon id="Shape" fill="#000000" points="2 4.814 2 27.19 7.938 21.458 8.794 21.18 18.33 21.18"></polygon>
        </g>
    </g>
</svg>