<?xml version="1.0" encoding="UTF-8"?>
<svg width="840px" height="480px" viewBox="0 0 840 480" version="1.1" xmlns="http://www.w3.org/2000/svg" xmlns:xlink="http://www.w3.org/1999/xlink">
    <!-- Generator: Sketch 48.2 (47327) - http://www.bohemiancoding.com/sketch -->
    <title>responsive-tabbed-navigation-featured</title>
    <desc>Created with Sketch.</desc>
    <defs>
        <path d="M6,0 L184,0 C187.313708,-6.08718376e-16 190,2.6862915 190,6 L190,322 L0,322 L0,6 C-4.05812251e-16,2.6862915 2.6862915,6.08718376e-16 6,0 Z" id="path-1"></path>
        <filter x="-14.7%" y="-9.9%" width="133.7%" height="119.9%" filterUnits="objectBoundingBox" id="filter-2">
            <feOffset dx="4" dy="0" in="SourceAlpha" result="shadowOffsetOuter1"></feOffset>
            <feGaussianBlur stdDeviation="10" in="shadowOffsetOuter1" result="shadowBlurOuter1"></feGaussianBlur>
            <feColorMatrix values="0 0 0 0 0   0 0 0 0 0   0 0 0 0 0  0 0 0 0.198086504 0" type="matrix" in="shadowBlurOuter1"></feColorMatrix>
        </filter>
        <polygon id="path-3" points="13.9684862 23.238 18.168 33.378 18.17 33.38 10.958 36.448 6.44921752 25.7669727 0 32.03 0 0 23.182 23.238"></polygon>
        <filter x="-133.7%" y="-79.6%" width="367.4%" height="270.1%" filterUnits="objectBoundingBox" id="filter-4">
            <feOffset dx="0" dy="2" in="SourceAlpha" result="shadowOffsetOuter1"></feOffset>
            <feGaussianBlur stdDeviation="10" in="shadowOffsetOuter1" result="shadowBlurOuter1"></feGaussianBlur>
            <feColorMatrix values="0 0 0 0 0   0 0 0 0 0   0 0 0 0 0  0 0 0 0.201681386 0" type="matrix" in="shadowBlurOuter1"></feColorMatrix>
        </filter>
    </defs>
    <g id="Page-1" stroke="none" stroke-width="1" fill="none" fill-rule="evenodd">
        <g id="responsive-tabbed-navigation-featured">
            <polygon id="bg" fill="#1F232F" points="0 480 840 480 840 0 0 0"></polygon>
            <g id="desktop" transform="translate(94.000000, 26.000000)">
                <path d="M726,454 L0,454 L0,6 C0,2.687 2.687,0 6,0 L720,0 C723.313,0 726,2.687 726,6 L726,454 Z" id="container_bg" fill="#28314F"></path>
                <g id="dots" transform="translate(15.000000, 8.000000)" fill="#1F232F">
                    <path d="M8,4 C8,6.209 6.209,8 4,8 C1.791,8 0,6.209 0,4 C0,1.791 1.791,0 4,0 C6.209,0 8,1.791 8,4" id="Fill-6"></path>
                    <path d="M24,4 C24,6.209 22.209,8 20,8 C17.791,8 16,6.209 16,4 C16,1.791 17.791,0 20,0 C22.209,0 24,1.791 24,4" id="Fill-8"></path>
                    <path d="M40,4 C40,6.209 38.209,8 36,8 C33.791,8 32,6.209 32,4 C32,1.791 33.791,0 36,0 C38.209,0 40,1.791 40,4" id="Fill-10"></path>
                </g>
                <g id="Group" transform="translate(139.000000, 106.000000)">
                    <rect id="Rectangle" fill="#FFFFFF" x="0" y="0" width="92" height="36"></rect>
                    <rect id="Rectangle-Copy" fill="#F05451" x="0" y="0" width="92" height="3"></rect>
                    <circle id="Oval" fill="#F05451" cx="27" cy="18" r="6"></circle>
                    <rect id="Rectangle-2" fill="#28314F" x="40" y="14" width="30" height="8" rx="1"></rect>
                </g>
                <g id="Group-Copy" transform="translate(231.000000, 106.000000)">
                    <rect id="Rectangle" fill="#F7F6ED" x="0" y="0" width="92" height="36"></rect>
                    <circle id="Oval" fill="#DEDDD3" cx="27" cy="18" r="6"></circle>
                    <rect id="Rectangle-2" fill="#DEDDD3" x="40" y="14" width="30" height="8" rx="1"></rect>
                </g>
                <g id="Group-Copy-2" transform="translate(323.000000, 106.000000)">
                    <rect id="Rectangle" fill="#EEEDE2" x="0" y="0" width="92" height="36"></rect>
                    <circle id="Oval" fill="#DEDDD3" cx="27" cy="18" r="6"></circle>
                    <rect id="Rectangle-2" fill="#DEDDD3" x="40" y="14" width="30" height="8" rx="1"></rect>
                </g>
                <g id="Group-Copy-3" transform="translate(415.000000, 106.000000)">
                    <rect id="Rectangle" fill="#F7F6ED" x="0" y="0" width="92" height="36"></rect>
                    <circle id="Oval" fill="#DEDDD3" cx="27" cy="18" r="6"></circle>
                    <rect id="Rectangle-2" fill="#DEDDD3" x="40" y="14" width="30" height="8" rx="1"></rect>
                </g>
                <rect id="Rectangle-3" fill="#FFFFFF" x="139" y="142" width="448" height="226"></rect>
                <rect id="Rectangle-4" fill="#D0D6E9" x="160" y="174" width="404" height="12" rx="2"></rect>
                <rect id="Rectangle-4-Copy-3" fill="#D0D6E9" x="160" y="269" width="404" height="12" rx="2"></rect>
                <rect id="Rectangle-4-Copy" fill="#D0D6E9" x="160" y="200" width="404" height="12" rx="2"></rect>
                <rect id="Rectangle-4-Copy-4" fill="#D0D6E9" x="160" y="295" width="308" height="12" rx="2"></rect>
                <rect id="Rectangle-4-Copy-2" fill="#D0D6E9" x="160" y="226" width="309" height="12" rx="2"></rect>
            </g>
            <g id="mobile" transform="translate(20.000000, 158.000000)">
                <g id="mobile_bg">
                    <use fill="black" fill-opacity="1" filter="url(#filter-2)" xlink:href="#path-1"></use>
                    <use fill="#28314F" fill-rule="evenodd" xlink:href="#path-1"></use>
                </g>
                <rect id="Rectangle-5" fill="#FFFFFF" x="12" y="42" width="45" height="38"></rect>
                <rect id="Rectangle-5-Copy-4" fill="#F05451" x="12" y="42" width="45" height="3"></rect>
                <rect id="Rectangle-5-Copy" fill="#F8F7EE" x="57" y="42" width="45" height="38"></rect>
                <circle id="Oval-2" fill="#F05451" cx="35" cy="56" r="6"></circle>
                <circle id="Oval-2-Copy" fill="#D8D8D8" cx="80" cy="56" r="6"></circle>
                <rect id="Rectangle-6" fill="#28314F" x="25" y="66" width="20" height="6" rx="1"></rect>
                <rect id="Rectangle-6-Copy" fill="#D8D8D8" x="70" y="66" width="20" height="6" rx="1"></rect>
                <rect id="Rectangle-5-Copy-2" fill="#F8F7EE" x="102" y="42" width="45" height="38"></rect>
                <circle id="Oval-2-Copy-2" fill="#D8D8D8" cx="125" cy="56" r="6"></circle>
                <rect id="Rectangle-6-Copy-2" fill="#D8D8D8" x="115" y="66" width="20" height="6" rx="1"></rect>
                <rect id="Rectangle-5-Copy-3" fill="#F8F7EE" x="147" y="42" width="31" height="38"></rect>
                <rect id="Rectangle-7" fill="#FFFFFF" x="12" y="79" width="166" height="224"></rect>
                <rect id="Rectangle-8" fill="#D0D6E9" x="24" y="103" width="142" height="10" rx="2"></rect>
                <rect id="Rectangle-8-Copy-5" fill="#D0D6E9" x="24" y="235" width="142" height="10" rx="2"></rect>
                <rect id="Rectangle-8-Copy-3" fill="#D0D6E9" x="24" y="181" width="142" height="10" rx="2"></rect>
                <rect id="Rectangle-8-Copy" fill="#D0D6E9" x="24" y="125" width="142" height="10" rx="2"></rect>
                <rect id="Rectangle-8-Copy-6" fill="#D0D6E9" x="24" y="257" width="142" height="10" rx="2"></rect>
                <rect id="Rectangle-8-Copy-4" fill="#D0D6E9" x="24" y="203" width="111" height="10" rx="2"></rect>
                <rect id="Rectangle-8-Copy-2" fill="#D0D6E9" x="24" y="147" width="111" height="10" rx="2"></rect>
                <rect id="Rectangle-8-Copy-7" fill="#D0D6E9" x="24" y="279" width="111" height="10" rx="2"></rect>
                <circle id="Oval-2-Copy-3" fill="#D8D8D8" cx="170" cy="56" r="6"></circle>
                <path d="M161,66 L178,66 L178,72 L161,72 C160.447715,72 160,71.5522847 160,71 L160,67 C160,66.4477153 160.447715,66 161,66 Z" id="Rectangle-6-Copy-3" fill="#D8D8D8"></path>
                <path d="M0,7 L0,6 C0,2.687 2.0769043,0 6,0 L184,0 C188.06543,0 190,2.687 190,6 L190,7 C190,3.687 187.313,1 184,1 L6,1 C2.687,1 0,3.687 0,7 Z" id="inner-shadow" fill="#FFFFFF" opacity="0.152060688"></path>
            </g>
            <g id="default" transform="translate(486.000000, 156.000000)" fill-rule="nonzero">
                <g id="Combined-Shape">
                    <use fill="black" fill-opacity="1" filter="url(#filter-4)" xlink:href="#path-3"></use>
                    <use fill="#FFFFFF" fill-rule="evenodd" xlink:href="#path-3"></use>
                </g>
                <polygon id="Shape" fill="#000000" points="15.502 32.018 11.814 33.566 5.614 18.818 9.296 17.268 15.502 32.018"></polygon>
                <polygon id="Shape" fill="#000000" points="2 4.814 2 27.19 7.938 21.458 8.794 21.18 18.33 21.18"></polygon>
            </g>
        </g>
    </g>
</svg>