<?xml version="1.0" encoding="UTF-8"?>
<svg width="840px" height="480px" viewBox="0 0 840 480" version="1.1" xmlns="http://www.w3.org/2000/svg" xmlns:xlink="http://www.w3.org/1999/xlink">
    <!-- Generator: Sketch 49 (51002) - http://www.bohemiancoding.com/sketch -->
    <title>secondary-sliding-navigation-featured</title>
    <desc>Created with Sketch.</desc>
    <defs>
        <path d="M6,0 L184,0 C187.313708,-6.08718376e-16 190,2.6862915 190,6 L190,322 L0,322 L0,6 C-4.05812251e-16,2.6862915 2.6862915,6.08718376e-16 6,0 Z" id="path-1"></path>
        <filter x="-14.7%" y="-9.9%" width="133.7%" height="119.9%" filterUnits="objectBoundingBox" id="filter-2">
            <feOffset dx="4" dy="0" in="SourceAlpha" result="shadowOffsetOuter1"></feOffset>
            <feGaussianBlur stdDeviation="10" in="shadowOffsetOuter1" result="shadowBlurOuter1"></feGaussianBlur>
            <feColorMatrix values="0 0 0 0 0   0 0 0 0 0   0 0 0 0 0  0 0 0 0.198086504 0" type="matrix" in="shadowBlurOuter1"></feColorMatrix>
        </filter>
        <polygon id="path-3" points="13.9684862 23.238 18.168 33.378 18.17 33.38 10.958 36.448 6.44921752 25.7669727 0 32.03 0 0 23.182 23.238"></polygon>
        <filter x="-133.7%" y="-79.6%" width="367.4%" height="270.1%" filterUnits="objectBoundingBox" id="filter-4">
            <feOffset dx="0" dy="2" in="SourceAlpha" result="shadowOffsetOuter1"></feOffset>
            <feGaussianBlur stdDeviation="10" in="shadowOffsetOuter1" result="shadowBlurOuter1"></feGaussianBlur>
            <feColorMatrix values="0 0 0 0 0   0 0 0 0 0   0 0 0 0 0  0 0 0 0.201681386 0" type="matrix" in="shadowBlurOuter1"></feColorMatrix>
        </filter>
    </defs>
    <g id="secondary-sliding-navigation-featured" stroke="none" stroke-width="1" fill="none" fill-rule="evenodd">
        <polygon id="bg" fill="#33414A" points="0 480 840 480 840 0 0 0"></polygon>
        <g id="desktop" transform="translate(94.000000, 26.000000)">
            <path d="M726,454 L0,454 L0,6 C0,2.687 2.687,0 6,0 L720,0 C723.313,0 726,2.687 726,6 L726,454 Z" id="container_bg" fill="#192227"></path>
            <polygon id="Combined-Shape" fill="#E5E8EA" points="0 24 726 24 726 454 0 454"></polygon>
            <polygon id="Combined-Shape-Copy" fill="#7E4D7E" points="0 24 726 24 726 104 0 104"></polygon>
            <rect id="Rectangle" fill="#D29D40" x="40" y="53" width="70" height="22"></rect>
            <rect id="Rectangle-Copy" fill="#D5D5D5" x="110" y="53" width="22" height="22"></rect>
            <rect id="Rectangle-Copy-2" fill="#F9F9F9" x="132" y="53" width="22" height="22"></rect>
            <rect id="Rectangle-2" fill="#A77BA7" x="317" y="58" width="56" height="12" rx="2"></rect>
            <rect id="Rectangle-2-Copy" fill="#A77BA7" x="399" y="58" width="56" height="12" rx="2"></rect>
            <rect id="Rectangle-2-Copy-2" fill="#A77BA7" x="481" y="58" width="56" height="12" rx="2"></rect>
            <rect id="Rectangle-2-Copy-3" fill="#FFFFFF" x="587" y="58" width="56" height="12" rx="2"></rect>
            <rect id="Rectangle-3" stroke="#A77BA7" stroke-width="2" x="564" y="44" width="124" height="40" rx="20"></rect>
            <g id="x" transform="translate(657.000000, 60.000000)" stroke="#FFFFFF" stroke-linecap="square" stroke-width="4">
                <path d="M0,0 L9.01086443,9.01086443" id="Line"></path>
                <path d="M9.01086443,0 L0,9.01086443" id="Line-Copy"></path>
            </g>
            <g id="dots" transform="translate(15.000000, 8.000000)" fill="#33414A">
                <path d="M8,4 C8,6.209 6.209,8 4,8 C1.791,8 0,6.209 0,4 C0,1.791 1.791,0 4,0 C6.209,0 8,1.791 8,4" id="Fill-6"></path>
                <path d="M24,4 C24,6.209 22.209,8 20,8 C17.791,8 16,6.209 16,4 C16,1.791 17.791,0 20,0 C22.209,0 24,1.791 24,4" id="Fill-8"></path>
                <path d="M40,4 C40,6.209 38.209,8 36,8 C33.791,8 32,6.209 32,4 C32,1.791 33.791,0 36,0 C38.209,0 40,1.791 40,4" id="Fill-10"></path>
            </g>
            <rect id="Rectangle-4" fill="#CED2D4" x="279" y="268" width="168" height="20" rx="3"></rect>
        </g>
        <g id="mobile" transform="translate(20.000000, 158.000000)">
            <g id="mobile_bg">
                <use fill="black" fill-opacity="1" filter="url(#filter-2)" xlink:href="#path-1"></use>
                <use fill="#192227" fill-rule="evenodd" xlink:href="#path-1"></use>
            </g>
            <path d="M44,0 L44,322 L0,322 L0,6 C-4.05812251e-16,2.6862915 2.6862915,6.08718376e-16 6,0 L44,0 Z" id="Combined-Shape" fill="#E5E8EA"></path>
            <path d="M44,50 L0,50 L0,6 C-4.05812251e-16,2.6862915 2.6862915,6.08718376e-16 6,0 L44,0 L44,50 Z" id="Combined-Shape" fill="#33414A"></path>
            <g id="x" transform="translate(17.000000, 20.000000)" stroke="#FFFFFF" stroke-linecap="square" stroke-width="4">
                <path d="M0,0 L9.01086443,9.01086443" id="Line"></path>
                <path d="M9.01086443,0 L0,9.01086443" id="Line-Copy"></path>
            </g>
            <rect id="Rectangle-5" fill="#33414A" x="67" y="20" width="55" height="12" rx="2"></rect>
            <rect id="Rectangle-5-Copy" fill="#33414A" x="67" y="60" width="71" height="12" rx="2"></rect>
            <rect id="Rectangle-5-Copy-2" fill="#33414A" x="67" y="100" width="35" height="12" rx="2"></rect>
            <rect id="Rectangle-5-Copy-3" fill="#33414A" x="67" y="140" width="89" height="12" rx="2"></rect>
            <rect id="Rectangle-5-Copy-4" fill="#FFFFFF" x="67" y="180" width="55" height="12" rx="2"></rect>
            <g id="bold-right-copy" transform="translate(169.000000, 186.000000) rotate(-360.000000) translate(-169.000000, -186.000000) translate(163.000000, 178.000000)" fill="#FFFFFF" fill-rule="nonzero">
                <polygon id="Shape" points="3.6 0 0.4 3.2 5.2 8 0.4 12.8 3.6 16 11.6 8"></polygon>
            </g>
            <rect id="Rectangle-5-Copy-5" fill="#33414A" x="67" y="220" width="71" height="12" rx="2"></rect>
            <path d="M0,7 L0,6 C0,2.687 2.0769043,0 6,0 L184,0 C188.06543,0 190,2.687 190,6 L190,7 C190,3.687 187.313,1 184,1 L6,1 C2.687,1 0,3.687 0,7 Z" id="inner-shadow" fill="#FFFFFF" opacity="0.202219203"></path>
        </g>
        <g id="default" transform="translate(767.000000, 97.000000)" fill-rule="nonzero">
            <g id="Combined-Shape">
                <use fill="black" fill-opacity="1" filter="url(#filter-4)" xlink:href="#path-3"></use>
                <use fill="#FFFFFF" fill-rule="evenodd" xlink:href="#path-3"></use>
            </g>
            <polygon id="Shape" fill="#000000" points="15.502 32.018 11.814 33.566 5.614 18.818 9.296 17.268 15.502 32.018"></polygon>
            <polygon id="Shape" fill="#000000" points="2 4.814 2 27.19 7.938 21.458 8.794 21.18 18.33 21.18"></polygon>
        </g>
    </g>
</svg>