<?xml version="1.0" encoding="UTF-8"?>
<svg width="840px" height="480px" viewBox="0 0 840 480" version="1.1" xmlns="http://www.w3.org/2000/svg" xmlns:xlink="http://www.w3.org/1999/xlink">
    <!-- Generator: Sketch 48.2 (47327) - http://www.bohemiancoding.com/sketch -->
    <title>secondary-expandable-navigation-featured</title>
    <desc>Created with Sketch.</desc>
    <defs>
        <path d="M6,0 L184,0 C187.313708,-6.08718376e-16 190,2.6862915 190,6 L190,322 L0,322 L0,6 C-4.05812251e-16,2.6862915 2.6862915,6.08718376e-16 6,0 Z" id="path-1"></path>
        <filter x="-14.7%" y="-9.9%" width="133.7%" height="119.9%" filterUnits="objectBoundingBox" id="filter-2">
            <feOffset dx="4" dy="0" in="SourceAlpha" result="shadowOffsetOuter1"></feOffset>
            <feGaussianBlur stdDeviation="10" in="shadowOffsetOuter1" result="shadowBlurOuter1"></feGaussianBlur>
            <feColorMatrix values="0 0 0 0 0   0 0 0 0 0   0 0 0 0 0  0 0 0 0.198086504 0" type="matrix" in="shadowBlurOuter1"></feColorMatrix>
        </filter>
        <polygon id="path-3" points="13.9684862 23.238 18.168 33.378 18.17 33.38 10.958 36.448 6.44921752 25.7669727 0 32.03 0 0 23.182 23.238"></polygon>
        <filter x="-133.7%" y="-79.6%" width="367.4%" height="270.1%" filterUnits="objectBoundingBox" id="filter-4">
            <feOffset dx="0" dy="2" in="SourceAlpha" result="shadowOffsetOuter1"></feOffset>
            <feGaussianBlur stdDeviation="10" in="shadowOffsetOuter1" result="shadowBlurOuter1"></feGaussianBlur>
            <feColorMatrix values="0 0 0 0 0   0 0 0 0 0   0 0 0 0 0  0 0 0 0.201681386 0" type="matrix" in="shadowBlurOuter1"></feColorMatrix>
        </filter>
    </defs>
    <g id="Page-1" stroke="none" stroke-width="1" fill="none" fill-rule="evenodd">
        <g id="secondary-expandable-navigation-featured">
            <polygon id="bg" fill="#454C4D" points="0 480 840 480 840 0 0 0"></polygon>
            <g id="desktop" transform="translate(94.000000, 26.000000)">
                <path d="M726,454 L0,454 L0,6 C0,2.687 2.687,0 6,0 L720,0 C723.313,0 726,2.687 726,6 L726,454 Z" id="container_bg" fill="#161D1E"></path>
                <polygon id="body" fill="#F5F4E8" points="0 24 726 24 726 454 1.13686838e-13 454"></polygon>
                <polygon id="body-copy" fill="#4D6361" points="0 24 726 24 726 76 1.13686838e-13 76"></polygon>
                <rect id="Rectangle" fill="#FFFFFF" x="17" y="44" width="56" height="12" rx="2"></rect>
                <rect id="Rectangle-Copy" fill="#6C807E" x="342" y="44" width="56" height="12" rx="2"></rect>
                <rect id="Rectangle-Copy-2" fill="#6C807E" x="414" y="44" width="56" height="12" rx="2"></rect>
                <rect id="Rectangle-2" fill="#63807D" x="486" y="24" width="52" height="52"></rect>
                <rect id="Rectangle-3" fill="#FFFFFF" x="498" y="48" width="28" height="4"></rect>
                <rect id="Rectangle-3-Copy" fill="#FFFFFF" x="498" y="40" width="28" height="4"></rect>
                <rect id="Rectangle-3-Copy-2" fill="#FFFFFF" x="498" y="56" width="28" height="4"></rect>
                <polygon id="body-copy-2" fill="#242E30" points="538 24 726 24 726 454 538 454"></polygon>
                <rect id="Rectangle-Copy-3" fill="#394648" x="562" y="44" width="92" height="12" rx="2"></rect>
                <rect id="Rectangle-Copy-4" fill="#394648" x="562" y="76" width="70" height="12" rx="2"></rect>
                <rect id="Rectangle-Copy-5" fill="#394648" x="562" y="108" width="82" height="12" rx="2"></rect>
                <rect id="Rectangle-Copy-6" fill="#394648" x="562" y="140" width="70" height="12" rx="2"></rect>
                <rect id="Rectangle-Copy-7" fill="#394648" x="562" y="172" width="83" height="12" rx="2"></rect>
                <rect id="Rectangle-Copy-8" fill="#394648" x="562" y="204" width="107" height="12" rx="2"></rect>
                <rect id="Rectangle-Copy-9" fill="#394648" x="562" y="236" width="82" height="12" rx="2"></rect>
                <rect id="Rectangle-Copy-10" fill="#394648" x="562" y="268" width="92" height="12" rx="2"></rect>
                <g id="dots" transform="translate(15.000000, 8.000000)" fill="#394648">
                    <path d="M8,4 C8,6.209 6.209,8 4,8 C1.791,8 0,6.209 0,4 C0,1.791 1.791,0 4,0 C6.209,0 8,1.791 8,4" id="Fill-6"></path>
                    <path d="M24,4 C24,6.209 22.209,8 20,8 C17.791,8 16,6.209 16,4 C16,1.791 17.791,0 20,0 C22.209,0 24,1.791 24,4" id="Fill-8"></path>
                    <path d="M40,4 C40,6.209 38.209,8 36,8 C33.791,8 32,6.209 32,4 C32,1.791 33.791,0 36,0 C38.209,0 40,1.791 40,4" id="Fill-10"></path>
                </g>
            </g>
            <g id="mobile" transform="translate(20.000000, 158.000000)">
                <g id="mobile_bg">
                    <use fill="black" fill-opacity="1" filter="url(#filter-2)" xlink:href="#path-1"></use>
                    <use fill="#242E30" fill-rule="evenodd" xlink:href="#path-1"></use>
                </g>
                <path d="M44,0 L44,322 L0,322 L0,7 C-4.05812251e-16,3.6862915 3.6862915,6.08718376e-16 7,0 L44,0 Z" id="Combined-Shape" fill="#F5F4E8"></path>
                <rect id="Rectangle-Copy-3" fill="#394648" x="63" y="19" width="92" height="12" rx="2"></rect>
                <rect id="Rectangle-Copy-4" fill="#394648" x="63" y="51" width="70" height="12" rx="2"></rect>
                <rect id="Rectangle-Copy-5" fill="#394648" x="63" y="83" width="82" height="12" rx="2"></rect>
                <rect id="Rectangle-Copy-6" fill="#394648" x="63" y="115" width="70" height="12" rx="2"></rect>
                <rect id="Rectangle-Copy-7" fill="#394648" x="63" y="147" width="83" height="12" rx="2"></rect>
                <rect id="Rectangle-Copy-8" fill="#394648" x="63" y="179" width="107" height="12" rx="2"></rect>
                <rect id="Rectangle-Copy-9" fill="#394648" x="63" y="211" width="82" height="12" rx="2"></rect>
                <rect id="Rectangle-Copy-10" fill="#394648" x="63" y="243" width="92" height="12" rx="2"></rect>
                <path d="M44,44 L0,44 L0,6 C-4.05812251e-16,2.6862915 2.6862915,6.08718376e-16 6,0 L44,0 L44,44 Z" id="Combined-Shape" fill="#63807D"></path>
                <rect id="Rectangle-3" fill="#FFFFFF" x="8" y="20" width="28" height="4"></rect>
                <rect id="Rectangle-3-Copy" fill="#FFFFFF" x="8" y="12" width="28" height="4"></rect>
                <rect id="Rectangle-3-Copy-2" fill="#FFFFFF" x="8" y="28" width="28" height="4"></rect>
            </g>
            <g id="default" transform="translate(623.000000, 91.000000)" fill-rule="nonzero">
                <g id="Combined-Shape">
                    <use fill="black" fill-opacity="1" filter="url(#filter-4)" xlink:href="#path-3"></use>
                    <use fill="#FFFFFF" fill-rule="evenodd" xlink:href="#path-3"></use>
                </g>
                <polygon id="Shape" fill="#000000" points="15.502 32.018 11.814 33.566 5.614 18.818 9.296 17.268 15.502 32.018"></polygon>
                <polygon id="Shape" fill="#000000" points="2 4.814 2 27.19 7.938 21.458 8.794 21.18 18.33 21.18"></polygon>
            </g>
        </g>
    </g>
</svg>