<?xml version="1.0" encoding="UTF-8"?>
<svg width="840px" height="480px" viewBox="0 0 840 480" version="1.1" xmlns="http://www.w3.org/2000/svg" xmlns:xlink="http://www.w3.org/1999/xlink">
    <!-- Generator: Sketch 48.2 (47327) - http://www.bohemiancoding.com/sketch -->
    <title>slide-in-panel-featured</title>
    <desc>Created with Sketch.</desc>
    <defs>
        <path d="M6,0 L183,0 C186.865993,-7.10171439e-16 190,3.13400675 190,7 L190,322 L0,322 L0,6 C-4.05812251e-16,2.6862915 2.6862915,6.08718376e-16 6,0 Z" id="path-1"></path>
        <filter x="-14.7%" y="-9.9%" width="133.7%" height="119.9%" filterUnits="objectBoundingBox" id="filter-2">
            <feOffset dx="4" dy="0" in="SourceAlpha" result="shadowOffsetOuter1"></feOffset>
            <feGaussianBlur stdDeviation="10" in="shadowOffsetOuter1" result="shadowBlurOuter1"></feGaussianBlur>
            <feColorMatrix values="0 0 0 0 0   0 0 0 0 0   0 0 0 0 0  0 0 0 0.198086504 0" type="matrix" in="shadowBlurOuter1"></feColorMatrix>
        </filter>
        <polygon id="path-3" points="13.9684862 23.238 18.168 33.378 18.17 33.38 10.958 36.448 6.44921752 25.7669727 0 32.03 0 0 23.182 23.238"></polygon>
        <filter x="-133.7%" y="-79.6%" width="367.4%" height="270.1%" filterUnits="objectBoundingBox" id="filter-4">
            <feOffset dx="0" dy="2" in="SourceAlpha" result="shadowOffsetOuter1"></feOffset>
            <feGaussianBlur stdDeviation="10" in="shadowOffsetOuter1" result="shadowBlurOuter1"></feGaussianBlur>
            <feColorMatrix values="0 0 0 0 0   0 0 0 0 0   0 0 0 0 0  0 0 0 0.201681386 0" type="matrix" in="shadowBlurOuter1"></feColorMatrix>
        </filter>
    </defs>
    <g id="Page-1" stroke="none" stroke-width="1" fill="none" fill-rule="evenodd">
        <g id="slide-in-panel-featured">
            <polygon id="bg" fill="#424F5D" points="0 480 840 480 840 0 0 0"></polygon>
            <g id="desktop" transform="translate(94.000000, 26.000000)">
                <path d="M726,454 L0,454 L0,6 C0,2.687 2.687,0 6,0 L720,0 C723.313,0 726,2.687 726,6 L726,454 Z" id="container_bg" fill="#171B20"></path>
                <path d="M362,454 L362,0 L720,0 C723.313,0 726,2.687 726,6 L726,454 L362,454 Z" id="Combined-Shape" fill="#DBE2E9"></path>
                <rect id="Rectangle-2" fill="#B7C1CB" x="388" y="75" width="312" height="12" rx="2"></rect>
                <rect id="Rectangle-2-Copy-5" fill="#B7C1CB" x="388" y="270" width="312" height="12" rx="2"></rect>
                <rect id="Rectangle-2-Copy" fill="#B7C1CB" x="388" y="109" width="293" height="12" rx="2"></rect>
                <rect id="Rectangle-2-Copy-6" fill="#B7C1CB" x="388" y="304" width="293" height="12" rx="2"></rect>
                <rect id="Rectangle-2-Copy-2" fill="#B7C1CB" x="388" y="143" width="312" height="12" rx="2"></rect>
                <rect id="Rectangle-2-Copy-7" fill="#B7C1CB" x="388" y="338" width="312" height="12" rx="2"></rect>
                <rect id="Rectangle-2-Copy-3" fill="#B7C1CB" x="388" y="177" width="312" height="12" rx="2"></rect>
                <rect id="Rectangle-2-Copy-8" fill="#B7C1CB" x="388" y="372" width="312" height="12" rx="2"></rect>
                <rect id="Rectangle-2-Copy-4" fill="#B7C1CB" x="388" y="211" width="178" height="12" rx="2"></rect>
                <rect id="Rectangle-2-Copy-9" fill="#B7C1CB" x="388" y="406" width="178" height="12" rx="2"></rect>
                <path d="M362,51 L362,0 L720,0 C723.313,0 726,2.687 726,6 L726,51 L362,51 Z" id="Combined-Shape" fill="#FFFFFF"></path>
                <g id="x" transform="translate(690.000000, 20.000000)" stroke="#424F5D" stroke-linecap="square" stroke-width="4">
                    <path d="M0,0 L9.01086443,9.01086443" id="Line"></path>
                    <path d="M9.01086443,0 L0,9.01086443" id="Line-Copy"></path>
                </g>
                <rect id="Rectangle" fill="#88BC17" x="389" y="19" width="85" height="14" rx="2"></rect>
                <g id="dots" transform="translate(15.000000, 8.000000)" fill="#424F5D">
                    <path d="M8,4 C8,6.209 6.209,8 4,8 C1.791,8 0,6.209 0,4 C0,1.791 1.791,0 4,0 C6.209,0 8,1.791 8,4" id="Fill-6"></path>
                    <path d="M24,4 C24,6.209 22.209,8 20,8 C17.791,8 16,6.209 16,4 C16,1.791 17.791,0 20,0 C22.209,0 24,1.791 24,4" id="Fill-8"></path>
                    <path d="M40,4 C40,6.209 38.209,8 36,8 C33.791,8 32,6.209 32,4 C32,1.791 33.791,0 36,0 C38.209,0 40,1.791 40,4" id="Fill-10"></path>
                </g>
                <path d="M278,191 L362,191 L362,205 L278,205 C276.895431,205 276,204.104569 276,203 L276,193 C276,191.895431 276.895431,191 278,191 Z" id="Rectangle-3" fill="#20252A"></path>
                <path d="M328,237 L362,237 L362,273 L328,273 C318.058875,273 310,264.941125 310,255 L310,255 C310,245.058875 318.058875,237 328,237 Z" id="Rectangle-4" fill="#2E4008"></path>
                <path d="M338,252 L362,252 L362,258 L338,258 C337.447715,258 337,257.552285 337,257 L337,253 C337,252.447715 337.447715,252 338,252 Z" id="Rectangle-5" fill="#575757"></path>
            </g>
            <g id="mobile" transform="translate(20.000000, 158.000000)">
                <g id="mobile_bg">
                    <use fill="black" fill-opacity="1" filter="url(#filter-2)" xlink:href="#path-1"></use>
                    <use fill="#FFFFFF" fill-rule="evenodd" xlink:href="#path-1"></use>
                </g>
                <polygon id="Combined-Shape" fill="#DBE2E9" points="190 42 190 322 0 322 0 42"></polygon>
                <rect id="Rectangle-6" fill="#88BC17" x="15" y="15" width="62" height="12" rx="2"></rect>
                <g id="x" transform="translate(133.000000, 15.000000)" stroke="#424F5D" stroke-linecap="square" stroke-width="4">
                    <path d="M0,0 L9.01086443,9.01086443" id="Line"></path>
                    <path d="M9.01086443,0 L0,9.01086443" id="Line-Copy"></path>
                </g>
                <rect id="Rectangle-6-Copy" fill="#B7C1CB" x="15" y="58" width="132" height="12" rx="2"></rect>
                <rect id="Rectangle-6-Copy-6" fill="#B7C1CB" x="15" y="252" width="132" height="12" rx="2"></rect>
                <rect id="Rectangle-6-Copy-2" fill="#B7C1CB" x="15" y="90" width="123" height="12" rx="2"></rect>
                <rect id="Rectangle-6-Copy-7" fill="#B7C1CB" x="15" y="284" width="123" height="12" rx="2"></rect>
                <rect id="Rectangle-6-Copy-3" fill="#B7C1CB" x="15" y="122" width="132" height="12" rx="2"></rect>
                <path d="M147,322 L15,322 L15,318 C15,316.895431 15.8954305,316 17,316 L145,316 C146.104569,316 147,316.895431 147,318 L147,322 Z" id="Combined-Shape" fill="#B7C1CB"></path>
                <rect id="Rectangle-6-Copy-4" fill="#B7C1CB" x="15" y="154" width="132" height="12" rx="2"></rect>
                <rect id="Rectangle-6-Copy-5" fill="#B7C1CB" x="15" y="186" width="74" height="12" rx="2"></rect>
                <path d="M161,0 L184,0 C187.313708,-6.08718376e-16 190,2.6862915 190,6 L190,322 L161,322 L161,0 Z" id="Combined-Shape" fill="#171B20"></path>
                <path d="M0,7 L0,6 C0,2.687 2.0769043,0 6,0 L184,0 C188.06543,0 190,2.687 190,6 L190,7 C190,3.687 187.313,1 184,1 L6,1 C2.687,1 0,3.687 0,7 Z" id="inner-shadow" fill="#FFFFFF" opacity="0.129076087"></path>
            </g>
            <g id="default" transform="translate(808.000000, 61.000000)" fill-rule="nonzero">
                <g id="Combined-Shape">
                    <use fill="black" fill-opacity="1" filter="url(#filter-4)" xlink:href="#path-3"></use>
                    <use fill="#FFFFFF" fill-rule="evenodd" xlink:href="#path-3"></use>
                </g>
                <polygon id="Shape" fill="#000000" points="15.502 32.018 11.814 33.566 5.614 18.818 9.296 17.268 15.502 32.018"></polygon>
                <polygon id="Shape" fill="#000000" points="2 4.814 2 27.19 7.938 21.458 8.794 21.18 18.33 21.18"></polygon>
            </g>
        </g>
    </g>
</svg>