<?xml version="1.0" encoding="UTF-8"?>
<svg width="840px" height="480px" viewBox="0 0 840 480" version="1.1" xmlns="http://www.w3.org/2000/svg" xmlns:xlink="http://www.w3.org/1999/xlink">
    <!-- Generator: Sketch 49 (51002) - http://www.bohemiancoding.com/sketch -->
    <title>sliding-panels-template-featured</title>
    <desc>Created with Sketch.</desc>
    <defs>
        <path d="M6,0 L184,0 C187.313708,-6.08718376e-16 190,2.6862915 190,6 L190,322 L0,322 L0,6 C-4.05812251e-16,2.6862915 2.6862915,6.08718376e-16 6,0 Z" id="path-1"></path>
        <filter x="-14.7%" y="-9.9%" width="133.7%" height="119.9%" filterUnits="objectBoundingBox" id="filter-2">
            <feOffset dx="4" dy="0" in="SourceAlpha" result="shadowOffsetOuter1"></feOffset>
            <feGaussianBlur stdDeviation="10" in="shadowOffsetOuter1" result="shadowBlurOuter1"></feGaussianBlur>
            <feColorMatrix values="0 0 0 0 0   0 0 0 0 0   0 0 0 0 0  0 0 0 0.198086504 0" type="matrix" in="shadowBlurOuter1"></feColorMatrix>
        </filter>
        <polygon id="path-3" points="13.9684862 23.238 18.168 33.378 18.17 33.38 10.958 36.448 6.44921752 25.7669727 0 32.03 0 0 23.182 23.238"></polygon>
        <filter x="-133.7%" y="-79.6%" width="367.4%" height="270.1%" filterUnits="objectBoundingBox" id="filter-4">
            <feOffset dx="0" dy="2" in="SourceAlpha" result="shadowOffsetOuter1"></feOffset>
            <feGaussianBlur stdDeviation="10" in="shadowOffsetOuter1" result="shadowBlurOuter1"></feGaussianBlur>
            <feColorMatrix values="0 0 0 0 0   0 0 0 0 0   0 0 0 0 0  0 0 0 0.201681386 0" type="matrix" in="shadowBlurOuter1"></feColorMatrix>
        </filter>
    </defs>
    <g id="sliding-panels-template-featured" stroke="none" stroke-width="1" fill="none" fill-rule="evenodd">
        <polygon id="bg" fill="#D5D5D2" points="0 480 840 480 840 0 0 0"></polygon>
        <g id="desktop" transform="translate(94.000000, 26.000000)">
            <path d="M726,454 L0,454 L0,6 C0,2.687 2.687,0 6,0 L720,0 C723.313,0 726,2.687 726,6 L726,454 Z" id="container_bg" fill="#252322"></path>
            <rect id="Rectangle" fill="#5B927D" x="0" y="24" width="182" height="370"></rect>
            <rect id="Rectangle-Copy" fill="#A8AE7E" x="182" y="24" width="182" height="316"></rect>
            <rect id="Rectangle-Copy-2" fill="#E7D5A4" x="364" y="24" width="182" height="272"></rect>
            <rect id="Rectangle-3" fill="#FFFFFF" opacity="0.358186141" x="222" y="134" width="102" height="10" rx="2"></rect>
            <rect id="Rectangle-3-Copy" fill="#FFFFFF" opacity="0.358186141" x="404" y="91" width="102" height="10" rx="2"></rect>
            <rect id="Rectangle-2" fill="#FFFFFF" x="239" y="105" width="68" height="15" rx="2"></rect>
            <rect id="Rectangle-2-Copy" fill="#FFFFFF" x="421" y="62" width="68" height="15" rx="2"></rect>
            <rect id="Rectangle-Copy-3" fill="#835531" x="546" y="24" width="180" height="390"></rect>
            <rect id="Rectangle-3-Copy-2" fill="#FFFFFF" opacity="0.358186141" x="585" y="208" width="102" height="10" rx="2"></rect>
            <rect id="Rectangle-3-Copy-3" fill="#FFFFFF" opacity="0.358186141" x="40" y="185" width="102" height="10" rx="2"></rect>
            <rect id="Rectangle-2-Copy-2" fill="#FFFFFF" x="602" y="179" width="68" height="15" rx="2"></rect>
            <rect id="Rectangle-2-Copy-3" fill="#FFFFFF" x="57" y="156" width="68" height="15" rx="2"></rect>
            <g id="dots" transform="translate(15.000000, 8.000000)" fill="#D5D5D2">
                <path d="M8,4 C8,6.209 6.209,8 4,8 C1.791,8 0,6.209 0,4 C0,1.791 1.791,0 4,0 C6.209,0 8,1.791 8,4" id="Fill-6"></path>
                <path d="M24,4 C24,6.209 22.209,8 20,8 C17.791,8 16,6.209 16,4 C16,1.791 17.791,0 20,0 C22.209,0 24,1.791 24,4" id="Fill-8"></path>
                <path d="M40,4 C40,6.209 38.209,8 36,8 C33.791,8 32,6.209 32,4 C32,1.791 33.791,0 36,0 C38.209,0 40,1.791 40,4" id="Fill-10"></path>
            </g>
            <circle id="Oval" fill="#2E2823" cx="687" cy="62" r="26"></circle>
            <rect id="Rectangle-4" fill="#FFFFFF" x="675" y="60" width="24" height="4"></rect>
            <rect id="Rectangle-4-Copy" fill="#FFFFFF" x="675" y="52" width="24" height="4"></rect>
            <rect id="Rectangle-4-Copy-2" fill="#FFFFFF" x="675" y="68" width="24" height="4"></rect>
        </g>
        <g id="mobile" transform="translate(20.000000, 158.000000)">
            <g id="mobile_bg">
                <use fill="black" fill-opacity="1" filter="url(#filter-2)" xlink:href="#path-1"></use>
                <use fill="#A8AE7E" fill-rule="evenodd" xlink:href="#path-1"></use>
            </g>
            <circle id="Oval-2" fill="#32312B" cx="157" cy="32" r="19"></circle>
            <g id="x" transform="translate(152.000000, 27.000000)" stroke="#FFFFFF" stroke-linecap="square" stroke-width="4">
                <path d="M0,0 L9.01086443,9.01086443" id="Line"></path>
                <path d="M9.01086443,0 L0,9.01086443" id="Line-Copy"></path>
            </g>
            <g id="image-2" transform="translate(60.000000, 128.000000)" fill="#959B6C" fill-rule="nonzero">
                <path d="M9.85410197,60 L60.3112721,60 L46.3831684,29.8224421 L29.6,52.2 L18.0757105,43.5567829 L9.85410197,60 Z M28.4,43.8 L47.6168316,18.1775579 L69.6887279,66 L0.145898034,66 L15.9242895,34.4432171 L28.4,43.8 Z" id="Shape"></path>
                <path d="M23,24 C16.372583,24 11,18.627417 11,12 C11,5.372583 16.372583,0 23,0 C29.627417,0 35,5.372583 35,12 C35,18.627417 29.627417,24 23,24 Z M23,18 C26.3137085,18 29,15.3137085 29,12 C29,8.6862915 26.3137085,6 23,6 C19.6862915,6 17,8.6862915 17,12 C17,15.3137085 19.6862915,18 23,18 Z" id="Oval"></path>
            </g>
            <path d="M0,7 L0,6 C0,2.687 2.0769043,0 6,0 L184,0 C188.06543,0 190,2.687 190,6 L190,7 C190,3.687 187.313,1 184,1 L6,1 C2.687,1 0,3.687 0,7 Z" id="inner-shadow" fill="#FFFFFF" opacity="0.557065217"></path>
        </g>
        <g id="default" transform="translate(782.000000, 105.000000)" fill-rule="nonzero">
            <g id="Combined-Shape">
                <use fill="black" fill-opacity="1" filter="url(#filter-4)" xlink:href="#path-3"></use>
                <use fill="#FFFFFF" fill-rule="evenodd" xlink:href="#path-3"></use>
            </g>
            <polygon id="Shape" fill="#000000" points="15.502 32.018 11.814 33.566 5.614 18.818 9.296 17.268 15.502 32.018"></polygon>
            <polygon id="Shape" fill="#000000" points="2 4.814 2 27.19 7.938 21.458 8.794 21.18 18.33 21.18"></polygon>
        </g>
    </g>
</svg>