<?xml version="1.0" encoding="UTF-8"?>
<svg width="840px" height="480px" viewBox="0 0 840 480" version="1.1" xmlns="http://www.w3.org/2000/svg" xmlns:xlink="http://www.w3.org/1999/xlink">
    <!-- Generator: Sketch 48.2 (47327) - http://www.bohemiancoding.com/sketch -->
    <title>smart-fixed-navigation-featured</title>
    <desc>Created with Sketch.</desc>
    <defs>
        <path d="M6,0 L184,0 C187.313708,-6.08718376e-16 190,2.6862915 190,6 L190,322 L0,322 L0,6 C-4.05812251e-16,2.6862915 2.6862915,6.08718376e-16 6,0 Z" id="path-1"></path>
        <filter x="-14.7%" y="-9.9%" width="133.7%" height="119.9%" filterUnits="objectBoundingBox" id="filter-2">
            <feOffset dx="4" dy="0" in="SourceAlpha" result="shadowOffsetOuter1"></feOffset>
            <feGaussianBlur stdDeviation="10" in="shadowOffsetOuter1" result="shadowBlurOuter1"></feGaussianBlur>
            <feColorMatrix values="0 0 0 0 0   0 0 0 0 0   0 0 0 0 0  0 0 0 0.198086504 0" type="matrix" in="shadowBlurOuter1"></feColorMatrix>
        </filter>
        <polygon id="path-3" points="13.9684862 23.238 18.168 33.378 18.17 33.38 10.958 36.448 6.44921752 25.7669727 0 32.03 0 0 23.182 23.238"></polygon>
        <filter x="-133.7%" y="-79.6%" width="367.4%" height="270.1%" filterUnits="objectBoundingBox" id="filter-4">
            <feOffset dx="0" dy="2" in="SourceAlpha" result="shadowOffsetOuter1"></feOffset>
            <feGaussianBlur stdDeviation="10" in="shadowOffsetOuter1" result="shadowBlurOuter1"></feGaussianBlur>
            <feColorMatrix values="0 0 0 0 0   0 0 0 0 0   0 0 0 0 0  0 0 0 0.201681386 0" type="matrix" in="shadowBlurOuter1"></feColorMatrix>
        </filter>
    </defs>
    <g id="Page-1" stroke="none" stroke-width="1" fill="none" fill-rule="evenodd">
        <g id="smart-fixed-navigation-featured">
            <polygon id="bg" fill="#DCE7F2" points="0 480 840 480 840 0 0 0"></polygon>
            <g id="desktop" transform="translate(94.000000, 26.000000)">
                <path d="M726,454 L0,454 L0,6 C0,2.687 2.687,0 6,0 L720,0 C723.313,0 726,2.687 726,6 L726,454 Z" id="container_bg" fill="#253648"></path>
                <polygon id="body" fill="#2B3E52" points="0 24 726 24 726 454 1.13686838e-13 454"></polygon>
                <rect id="Rectangle" fill="#34485E" x="177" y="88" width="384" height="12" rx="2"></rect>
                <rect id="Rectangle-Copy" fill="#34485E" x="177" y="126" width="334" height="12" rx="2"></rect>
                <rect id="Rectangle-Copy-2" fill="#34485E" x="177" y="164" width="384" height="12" rx="2"></rect>
                <rect id="Rectangle-Copy-3" fill="#34485E" x="177" y="202" width="259" height="12" rx="2"></rect>
                <rect id="Rectangle-Copy-4" fill="#34485E" x="177" y="240" width="384" height="12" rx="2"></rect>
                <rect id="Rectangle-Copy-6" fill="#34485E" x="177" y="316" width="384" height="12" rx="2"></rect>
                <rect id="Rectangle-Copy-7" fill="#34485E" x="177" y="354" width="258" height="12" rx="2"></rect>
                <rect id="Rectangle-Copy-8" fill="#34485E" x="177" y="392" width="384" height="12" rx="2"></rect>
                <rect id="Rectangle-Copy-9" fill="#34485E" x="177" y="430" width="280" height="12" rx="2"></rect>
                <rect id="Rectangle-2" fill="#FFFFFF" x="482" y="214" width="220" height="220" rx="4"></rect>
                <rect id="Rectangle-3" fill="#E84A64" x="509" y="254" width="90" height="12" rx="2"></rect>
                <rect id="Rectangle-3-Copy" fill="#E84A64" x="509" y="286" width="69" height="12" rx="2"></rect>
                <rect id="Rectangle-3-Copy-2" fill="#E84A64" x="509" y="318" width="110" height="12" rx="2"></rect>
                <rect id="Rectangle-3-Copy-3" fill="#E84A64" x="509" y="350" width="85" height="12" rx="2"></rect>
                <rect id="Rectangle-3-Copy-4" fill="#E84A64" x="509" y="382" width="54" height="12" rx="2"></rect>
                <g id="simple-remove" transform="translate(669.000000, 397.000000)" stroke="#E84A64" stroke-linecap="square" stroke-width="4">
                    <path d="M14,0 L0,14" id="Shape"></path>
                    <path d="M14,14 L0,0" id="Shape"></path>
                </g>
                <g id="dots" transform="translate(15.000000, 8.000000)" fill="#34485E">
                    <path d="M8,4 C8,6.209 6.209,8 4,8 C1.791,8 0,6.209 0,4 C0,1.791 1.791,0 4,0 C6.209,0 8,1.791 8,4" id="Fill-6"></path>
                    <path d="M24,4 C24,6.209 22.209,8 20,8 C17.791,8 16,6.209 16,4 C16,1.791 17.791,0 20,0 C22.209,0 24,1.791 24,4" id="Fill-8"></path>
                    <path d="M40,4 C40,6.209 38.209,8 36,8 C33.791,8 32,6.209 32,4 C32,1.791 33.791,0 36,0 C38.209,0 40,1.791 40,4" id="Fill-10"></path>
                </g>
            </g>
            <g id="mobile" transform="translate(20.000000, 158.000000)">
                <g id="mobile_bg">
                    <use fill="black" fill-opacity="1" filter="url(#filter-2)" xlink:href="#path-1"></use>
                    <use fill="#2B3E52" fill-rule="evenodd" xlink:href="#path-1"></use>
                </g>
                <rect id="Rectangle-4" fill="#34485E" x="20" y="38" width="150" height="12" rx="2"></rect>
                <rect id="Rectangle-4-Copy-5" fill="#34485E" x="20" y="183" width="150" height="12" rx="2"></rect>
                <rect id="Rectangle-4-Copy" fill="#34485E" x="20" y="64" width="150" height="12" rx="2"></rect>
                <rect id="Rectangle-4-Copy-6" fill="#34485E" x="20" y="209" width="150" height="12" rx="2"></rect>
                <rect id="Rectangle-4-Copy-2" fill="#34485E" x="20" y="90" width="150" height="12" rx="2"></rect>
                <rect id="Rectangle-4-Copy-7" fill="#34485E" x="20" y="235" width="150" height="12" rx="2"></rect>
                <rect id="Rectangle-4-Copy-3" fill="#34485E" x="20" y="116" width="150" height="12" rx="2"></rect>
                <rect id="Rectangle-4-Copy-8" fill="#34485E" x="20" y="261" width="94" height="12" rx="2"></rect>
                <rect id="Rectangle-4-Copy-4" fill="#34485E" x="20" y="142" width="111" height="12" rx="2"></rect>
                <rect id="Rectangle-4-Copy-9" fill="#34485E" x="20" y="287" width="55" height="12" rx="2"></rect>
                <path d="M0,7 L0,6 C0,2.687 2.0769043,0 6,0 L184,0 C188.06543,0 190,2.687 190,6 L190,7 C190,3.687 187.313,1 184,1 L6,1 C2.687,1 0,3.687 0,7 Z" id="inner-shadow" fill="#FFFFFF" opacity="0.145720109"></path>
                <rect id="Rectangle-5" fill="#FFFFFF" x="133" y="269" width="38" height="38" rx="3"></rect>
                <rect id="Rectangle-6" fill="#E84A64" x="142" y="286" width="20" height="4"></rect>
                <rect id="Rectangle-6-Copy-2" fill="#E84A64" x="142" y="294" width="20" height="4"></rect>
                <rect id="Rectangle-6-Copy" fill="#E84A64" x="142" y="278" width="20" height="4"></rect>
            </g>
            <g id="default" transform="translate(786.000000, 430.000000)" fill-rule="nonzero">
                <g id="Combined-Shape">
                    <use fill="black" fill-opacity="1" filter="url(#filter-4)" xlink:href="#path-3"></use>
                    <use fill="#FFFFFF" fill-rule="evenodd" xlink:href="#path-3"></use>
                </g>
                <polygon id="Shape" fill="#000000" points="15.502 32.018 11.814 33.566 5.614 18.818 9.296 17.268 15.502 32.018"></polygon>
                <polygon id="Shape" fill="#000000" points="2 4.814 2 27.19 7.938 21.458 8.794 21.18 18.33 21.18"></polygon>
            </g>
        </g>
    </g>
</svg>