<?xml version="1.0" encoding="UTF-8"?>
<svg width="840px" height="480px" viewBox="0 0 840 480" version="1.1" xmlns="http://www.w3.org/2000/svg" xmlns:xlink="http://www.w3.org/1999/xlink">
    <!-- Generator: Sketch 48.2 (47327) - http://www.bohemiancoding.com/sketch -->
    <title>style-guide-featured</title>
    <desc>Created with Sketch.</desc>
    <defs>
        <path d="M6,0 L184,0 C187.313708,-6.08718376e-16 190,2.6862915 190,6 L190,322 L0,322 L0,6 C-4.05812251e-16,2.6862915 2.6862915,6.08718376e-16 6,0 Z" id="path-1"></path>
        <filter x="-14.7%" y="-9.9%" width="133.7%" height="119.9%" filterUnits="objectBoundingBox" id="filter-2">
            <feOffset dx="4" dy="0" in="SourceAlpha" result="shadowOffsetOuter1"></feOffset>
            <feGaussianBlur stdDeviation="10" in="shadowOffsetOuter1" result="shadowBlurOuter1"></feGaussianBlur>
            <feColorMatrix values="0 0 0 0 0   0 0 0 0 0   0 0 0 0 0  0 0 0 0.198086504 0" type="matrix" in="shadowBlurOuter1"></feColorMatrix>
        </filter>
        <polygon id="path-3" points="13.9684862 23.238 18.168 33.378 18.17 33.38 10.958 36.448 6.44921752 25.7669727 0 32.03 0 0 23.182 23.238"></polygon>
        <filter x="-133.7%" y="-79.6%" width="367.4%" height="270.1%" filterUnits="objectBoundingBox" id="filter-4">
            <feOffset dx="0" dy="2" in="SourceAlpha" result="shadowOffsetOuter1"></feOffset>
            <feGaussianBlur stdDeviation="10" in="shadowOffsetOuter1" result="shadowBlurOuter1"></feGaussianBlur>
            <feColorMatrix values="0 0 0 0 0   0 0 0 0 0   0 0 0 0 0  0 0 0 0.201681386 0" type="matrix" in="shadowBlurOuter1"></feColorMatrix>
        </filter>
    </defs>
    <g id="Page-1" stroke="none" stroke-width="1" fill="none" fill-rule="evenodd">
        <g id="style-guide-featured">
            <polygon id="bg" fill="#E6E6E6" points="0 480 840 480 840 0 0 0"></polygon>
            <g id="desktop" transform="translate(94.000000, 26.000000)">
                <path d="M726,454 L0,454 L0,6 C0,2.687 2.687,0 6,0 L720,0 C723.313,0 726,2.687 726,6 L726,454 Z" id="container_bg" fill="#19191A"></path>
                <polygon id="body" fill="#FFFFFF" points="0 77 726 77 726 454 1.13686838e-13 454"></polygon>
                <g id="Group" transform="translate(43.000000, 166.000000)">
                    <rect id="Rectangle-2" fill="#5D8CE7" x="0" y="0" width="160" height="160"></rect>
                    <rect id="Rectangle-2-Copy" fill="#5683DA" x="0" y="124" width="160" height="36"></rect>
                    <rect id="Rectangle-2-Copy-2" fill="#739BEB" x="0" y="124" width="80" height="36"></rect>
                </g>
                <rect id="Rectangle-3" fill="#E6E6E6" x="248" y="347" width="70" height="15" rx="2"></rect>
                <rect id="Rectangle-3-Copy-3" fill="#E6E6E6" x="88" y="347" width="70" height="15" rx="2"></rect>
                <rect id="Rectangle-3-Copy" fill="#E6E6E6" x="408" y="347" width="70" height="15" rx="2"></rect>
                <rect id="Rectangle-3-Copy-2" fill="#E6E6E6" x="568" y="347" width="70" height="15" rx="2"></rect>
                <g id="Group-Copy" transform="translate(203.000000, 166.000000)">
                    <rect id="Rectangle-2" fill="#19191A" x="0" y="0" width="160" height="160"></rect>
                    <rect id="Rectangle-2-Copy" fill="#0C0C0D" x="0" y="124" width="160" height="36"></rect>
                    <rect id="Rectangle-2-Copy-2" fill="#272728" x="0" y="124" width="80" height="36"></rect>
                </g>
                <g id="Group-Copy-2" transform="translate(363.000000, 166.000000)">
                    <rect id="Rectangle-2" fill="#E6645C" x="0" y="0" width="160" height="160"></rect>
                    <rect id="Rectangle-2-Copy" fill="#D65B54" x="0" y="124" width="160" height="36"></rect>
                    <rect id="Rectangle-2-Copy-2" fill="#EC7770" x="0" y="124" width="80" height="36"></rect>
                </g>
                <g id="Group-Copy-3" transform="translate(523.000000, 166.000000)">
                    <rect id="Rectangle-2" fill="#E6E6E6" x="0" y="0" width="160" height="160"></rect>
                    <rect id="Rectangle-2-Copy" fill="#DADADA" x="0" y="124" width="160" height="36"></rect>
                    <rect id="Rectangle-2-Copy-2" fill="#F2F2F2" x="0" y="124" width="80" height="36"></rect>
                </g>
                <rect id="Rectangle" fill="#5D8CE7" x="33" y="34" width="70" height="22"></rect>
                <rect id="Rectangle-Copy" fill="#739BEB" x="103" y="34" width="22" height="22"></rect>
                <rect id="Rectangle-Copy-2" fill="#C2D3EF" x="125" y="34" width="22" height="22"></rect>
                <g id="dots" transform="translate(15.000000, 8.000000)" fill="#353536">
                    <path d="M8,4 C8,6.209 6.209,8 4,8 C1.791,8 0,6.209 0,4 C0,1.791 1.791,0 4,0 C6.209,0 8,1.791 8,4" id="Fill-6"></path>
                    <path d="M24,4 C24,6.209 22.209,8 20,8 C17.791,8 16,6.209 16,4 C16,1.791 17.791,0 20,0 C22.209,0 24,1.791 24,4" id="Fill-8"></path>
                    <path d="M40,4 C40,6.209 38.209,8 36,8 C33.791,8 32,6.209 32,4 C32,1.791 33.791,0 36,0 C38.209,0 40,1.791 40,4" id="Fill-10"></path>
                </g>
                <rect id="Rectangle-4" fill="#353536" x="407" y="39" width="54" height="12" rx="2"></rect>
                <rect id="Rectangle-4-Copy" fill="#353536" x="485" y="39" width="54" height="12" rx="2"></rect>
                <rect id="Rectangle-4-Copy-2" fill="#353536" x="563" y="39" width="54" height="12" rx="2"></rect>
                <rect id="Rectangle-4-Copy-3" fill="#353536" x="641" y="39" width="54" height="12" rx="2"></rect>
            </g>
            <g id="mobile" transform="translate(20.000000, 158.000000)">
                <g id="mobile_bg">
                    <use fill="black" fill-opacity="1" filter="url(#filter-2)" xlink:href="#path-1"></use>
                    <use fill="#19191A" fill-rule="evenodd" xlink:href="#path-1"></use>
                </g>
                <polygon id="Combined-Shape" fill="#FFFFFF" points="190 47 190 322 0 322 0 47"></polygon>
                <rect id="Rectangle-5" fill="#5D8CE7" x="15" y="16" width="50" height="16"></rect>
                <rect id="Rectangle-5-Copy" fill="#739BEB" x="65" y="16" width="16" height="16"></rect>
                <rect id="Rectangle-5-Copy-2" fill="#C2D3EF" x="81" y="16" width="16" height="16"></rect>
                <rect id="Rectangle-6" fill="#5D8CE7" x="15" y="63" width="160" height="160"></rect>
                <rect id="Rectangle-6-Copy-3" fill="#19191A" x="15" y="288" width="160" height="34"></rect>
                <rect id="Rectangle-6-Copy" fill="#5683DA" x="15" y="187" width="160" height="36"></rect>
                <rect id="Rectangle-6-Copy-2" fill="#739BEB" x="15" y="187" width="80" height="36"></rect>
                <rect id="Rectangle-7" fill="#E6E6E6" x="61" y="239" width="68" height="14" rx="2"></rect>
            </g>
            <g id="default" transform="translate(711.000000, 376.000000)" fill-rule="nonzero">
                <g id="Combined-Shape">
                    <use fill="black" fill-opacity="1" filter="url(#filter-4)" xlink:href="#path-3"></use>
                    <use fill="#FFFFFF" fill-rule="evenodd" xlink:href="#path-3"></use>
                </g>
                <polygon id="Shape" fill="#000000" points="15.502 32.018 11.814 33.566 5.614 18.818 9.296 17.268 15.502 32.018"></polygon>
                <polygon id="Shape" fill="#000000" points="2 4.814 2 27.19 7.938 21.458 8.794 21.18 18.33 21.18"></polygon>
            </g>
        </g>
    </g>
</svg>