<?xml version="1.0" encoding="UTF-8"?>
<svg width="840px" height="480px" viewBox="0 0 840 480" version="1.1" xmlns="http://www.w3.org/2000/svg" xmlns:xlink="http://www.w3.org/1999/xlink">
    <!-- Generator: Sketch 49 (51002) - http://www.bohemiancoding.com/sketch -->
    <title>svg-modal-window-featured</title>
    <desc>Created with Sketch.</desc>
    <defs>
        <path d="M6,0 L184,0 C187.313708,-6.08718376e-16 190,2.6862915 190,6 L190,322 L0,322 L0,6 C-4.05812251e-16,2.6862915 2.6862915,6.08718376e-16 6,0 Z" id="path-1"></path>
        <filter x="-14.7%" y="-9.9%" width="133.7%" height="119.9%" filterUnits="objectBoundingBox" id="filter-2">
            <feOffset dx="4" dy="0" in="SourceAlpha" result="shadowOffsetOuter1"></feOffset>
            <feGaussianBlur stdDeviation="10" in="shadowOffsetOuter1" result="shadowBlurOuter1"></feGaussianBlur>
            <feColorMatrix values="0 0 0 0 0   0 0 0 0 0   0 0 0 0 0  0 0 0 0.198086504 0" type="matrix" in="shadowBlurOuter1"></feColorMatrix>
        </filter>
        <polygon id="path-3" points="13.9684862 23.238 18.168 33.378 18.17 33.38 10.958 36.448 6.44921752 25.7669727 0 32.03 0 0 23.182 23.238"></polygon>
        <filter x="-133.7%" y="-79.6%" width="367.4%" height="270.1%" filterUnits="objectBoundingBox" id="filter-4">
            <feOffset dx="0" dy="2" in="SourceAlpha" result="shadowOffsetOuter1"></feOffset>
            <feGaussianBlur stdDeviation="10" in="shadowOffsetOuter1" result="shadowBlurOuter1"></feGaussianBlur>
            <feColorMatrix values="0 0 0 0 0   0 0 0 0 0   0 0 0 0 0  0 0 0 0.201681386 0" type="matrix" in="shadowBlurOuter1"></feColorMatrix>
        </filter>
    </defs>
    <g id="svg-modal-window-featured" stroke="none" stroke-width="1" fill="none" fill-rule="evenodd">
        <polygon id="bg" fill="#DAB433" points="0 480 840 480 840 0 0 0"></polygon>
        <g id="desktop" transform="translate(94.000000, 26.000000)">
            <path d="M726,454 L0,454 L0,6 C0,2.687 2.687,0 6,0 L720,0 C723.313,0 726,2.687 726,6 L726,454 Z" id="container_bg" fill="#10273C"></path>
            <polygon id="Combined-Shape" fill="#1F4C74" points="0 25 726 25 726 454 0 454"></polygon>
            <g id="dots" transform="translate(15.000000, 8.000000)" fill="#1F4C74">
                <path d="M8,4 C8,6.209 6.209,8 4,8 C1.791,8 0,6.209 0,4 C0,1.791 1.791,0 4,0 C6.209,0 8,1.791 8,4" id="Fill-6"></path>
                <path d="M24,4 C24,6.209 22.209,8 20,8 C17.791,8 16,6.209 16,4 C16,1.791 17.791,0 20,0 C22.209,0 24,1.791 24,4" id="Fill-8"></path>
                <path d="M40,4 C40,6.209 38.209,8 36,8 C33.791,8 32,6.209 32,4 C32,1.791 33.791,0 36,0 C38.209,0 40,1.791 40,4" id="Fill-10"></path>
            </g>
            <circle id="Oval" fill="#10273C" opacity="0.496603261" cx="685" cy="65" r="21"></circle>
            <g id="x" transform="translate(680.000000, 60.000000)" stroke="#FFFFFF" stroke-linecap="square" stroke-width="4">
                <path d="M0,0 L9.01086443,9.01086443" id="Line"></path>
                <path d="M9.01086443,0 L0,9.01086443" id="Line-Copy"></path>
            </g>
            <rect id="Rectangle-2" fill="#496D8D" x="196" y="217" width="190" height="12" rx="2"></rect>
            <rect id="Rectangle-2-Copy-5" fill="#496D8D" x="196" y="408" width="111" height="12" rx="2"></rect>
            <rect id="Rectangle-2-Copy" fill="#496D8D" x="196" y="185" width="334" height="12" rx="2"></rect>
            <rect id="Rectangle-2-Copy-6" fill="#496D8D" x="196" y="376" width="334" height="12" rx="2"></rect>
            <rect id="Rectangle-2-Copy-2" fill="#496D8D" x="196" y="153" width="334" height="12" rx="2"></rect>
            <rect id="Rectangle-2-Copy-7" fill="#496D8D" x="196" y="344" width="334" height="12" rx="2"></rect>
            <rect id="Rectangle-2-Copy-3" fill="#496D8D" x="196" y="121" width="316" height="12" rx="2"></rect>
            <rect id="Rectangle-2-Copy-8" fill="#496D8D" x="196" y="312" width="316" height="12" rx="2"></rect>
            <rect id="Rectangle-2-Copy-4" fill="#496D8D" x="196" y="89" width="334" height="12" rx="2"></rect>
            <rect id="Rectangle-2-Copy-9" fill="#496D8D" x="196" y="280" width="334" height="12" rx="2"></rect>
            <polygon id="Combined-Shape" fill="#FFFFFF" points="726 199.326167 726 321.652486 522.202701 454 333.836687 454"></polygon>
            <polygon id="Combined-Shape" fill="#FFFFFF" points="248.276566 25 416.755993 25 0 295.644506 5.68434189e-14 186.232687"></polygon>
        </g>
        <g id="mobile" transform="translate(20.000000, 158.000000)">
            <g id="mobile_bg">
                <use fill="black" fill-opacity="1" filter="url(#filter-2)" xlink:href="#path-1"></use>
                <use fill="#1F4C74" fill-rule="evenodd" xlink:href="#path-1"></use>
            </g>
            <rect id="Rectangle-2-Copy" fill="#496D8D" x="21" y="146" width="147" height="12" rx="2"></rect>
            <rect id="Rectangle-2-Copy-13" fill="#496D8D" x="21" y="179" width="84" height="12" rx="2"></rect>
            <rect id="Rectangle-2-Copy-10" fill="#496D8D" x="21" y="113" width="147" height="12" rx="2"></rect>
            <rect id="Rectangle-2-Copy-14" fill="#496D8D" x="21" y="298" width="85" height="12" rx="2"></rect>
            <rect id="Rectangle-2-Copy-11" fill="#496D8D" x="21" y="80" width="139" height="12" rx="2"></rect>
            <rect id="Rectangle-2-Copy-15" fill="#496D8D" x="21" y="265" width="139" height="12" rx="2"></rect>
            <rect id="Rectangle-2-Copy-12" fill="#496D8D" x="21" y="47" width="147" height="12" rx="2"></rect>
            <rect id="Rectangle-2-Copy-16" fill="#496D8D" x="21" y="232" width="147" height="12" rx="2"></rect>
            <polygon id="Combined-Shape" fill="#FFFFFF" points="190 197.749154 190 267.892061 106.68108 322 0 322 0 321.136596"></polygon>
            <path d="M81.2400773,7.10542736e-15 L184,7.10542736e-15 C185.309688,6.86484152e-15 186.521368,0.419624119 187.507926,1.1317591 L0,122.90083 L0,52.7579231 L81.2400773,7.10542736e-15 Z" id="Combined-Shape" fill="#FFFFFF"></path>
        </g>
        <g id="default" transform="translate(780.000000, 104.000000)" fill-rule="nonzero">
            <g id="Combined-Shape">
                <use fill="black" fill-opacity="1" filter="url(#filter-4)" xlink:href="#path-3"></use>
                <use fill="#FFFFFF" fill-rule="evenodd" xlink:href="#path-3"></use>
            </g>
            <polygon id="Shape" fill="#000000" points="15.502 32.018 11.814 33.566 5.614 18.818 9.296 17.268 15.502 32.018"></polygon>
            <polygon id="Shape" fill="#000000" points="2 4.814 2 27.19 7.938 21.458 8.794 21.18 18.33 21.18"></polygon>
        </g>
    </g>
</svg>