<?xml version="1.0" encoding="UTF-8"?>
<svg width="840px" height="480px" viewBox="0 0 840 480" version="1.1" xmlns="http://www.w3.org/2000/svg" xmlns:xlink="http://www.w3.org/1999/xlink">
    <!-- Generator: Sketch 48.2 (47327) - http://www.bohemiancoding.com/sketch -->
    <title>vertical-fixed-navigation-featured</title>
    <desc>Created with Sketch.</desc>
    <defs>
        <path d="M6,0 L184,0 C187.313708,-6.08718376e-16 190,2.6862915 190,6 L190,322 L0,322 L0,6 C-4.05812251e-16,2.6862915 2.6862915,6.08718376e-16 6,0 Z" id="path-1"></path>
        <filter x="-14.7%" y="-9.9%" width="133.7%" height="119.9%" filterUnits="objectBoundingBox" id="filter-2">
            <feOffset dx="4" dy="0" in="SourceAlpha" result="shadowOffsetOuter1"></feOffset>
            <feGaussianBlur stdDeviation="10" in="shadowOffsetOuter1" result="shadowBlurOuter1"></feGaussianBlur>
            <feColorMatrix values="0 0 0 0 0   0 0 0 0 0   0 0 0 0 0  0 0 0 0.198086504 0" type="matrix" in="shadowBlurOuter1"></feColorMatrix>
        </filter>
        <polygon id="path-3" points="13.9684862 23.238 18.168 33.378 18.17 33.38 10.958 36.448 6.44921752 25.7669727 0 32.03 0 0 23.182 23.238"></polygon>
        <filter x="-133.7%" y="-79.6%" width="367.4%" height="270.1%" filterUnits="objectBoundingBox" id="filter-4">
            <feOffset dx="0" dy="2" in="SourceAlpha" result="shadowOffsetOuter1"></feOffset>
            <feGaussianBlur stdDeviation="10" in="shadowOffsetOuter1" result="shadowBlurOuter1"></feGaussianBlur>
            <feColorMatrix values="0 0 0 0 0   0 0 0 0 0   0 0 0 0 0  0 0 0 0.201681386 0" type="matrix" in="shadowBlurOuter1"></feColorMatrix>
        </filter>
    </defs>
    <g id="Page-1" stroke="none" stroke-width="1" fill="none" fill-rule="evenodd">
        <g id="vertical-fixed-navigation-featured">
            <polygon id="bg" fill="#ECD0C3" points="0 480 840 480 840 0 0 0"></polygon>
            <g id="desktop" transform="translate(94.000000, 26.000000)">
                <path d="M726,454 L0,454 L0,6 C0,2.687 2.687,0 6,0 L720,0 C723.313,0 726,2.687 726,6 L726,454 Z" id="container_bg" fill="#3E3947"></path>
                <polygon id="body" fill="#755360" points="0 292 726 292 726 454 1.13686838e-13 454"></polygon>
                <g id="dots" transform="translate(15.000000, 8.000000)" fill="#755360">
                    <path d="M8,4 C8,6.209 6.209,8 4,8 C1.791,8 0,6.209 0,4 C0,1.791 1.791,0 4,0 C6.209,0 8,1.791 8,4" id="Fill-6"></path>
                    <path d="M24,4 C24,6.209 22.209,8 20,8 C17.791,8 16,6.209 16,4 C16,1.791 17.791,0 20,0 C22.209,0 24,1.791 24,4" id="Fill-8"></path>
                    <path d="M40,4 C40,6.209 38.209,8 36,8 C33.791,8 32,6.209 32,4 C32,1.791 33.791,0 36,0 C38.209,0 40,1.791 40,4" id="Fill-10"></path>
                </g>
                <rect id="Rectangle" fill="#4E4858" x="268" y="143" width="191" height="15" rx="3"></rect>
                <circle id="Oval" fill="#DA8681" cx="703" cy="183" r="4"></circle>
                <circle id="Oval-Copy" fill="#DA8681" cx="703" cy="205" r="4"></circle>
                <circle id="Oval-Copy-2" fill="#FFFFFF" cx="703" cy="227" r="5"></circle>
                <circle id="Oval-Copy-3" fill="#DA8681" cx="703" cy="249" r="4"></circle>
                <circle id="Oval-Copy-4" fill="#DA8681" cx="703" cy="271" r="4"></circle>
                <rect id="Rectangle-2" fill="#FFFFFF" x="639" y="223" width="43" height="8" rx="2"></rect>
                <rect id="Rectangle-3" fill="#7F5D6A" x="168" y="376" width="390" height="12" rx="2"></rect>
                <rect id="Rectangle-3-Copy" fill="#7F5D6A" x="196" y="402" width="335" height="12" rx="2"></rect>
                <rect id="Rectangle-3-Copy-2" fill="#7F5D6A" x="162" y="428" width="404" height="12" rx="2"></rect>
            </g>
            <g id="mobile" transform="translate(20.000000, 158.000000)">
                <g id="mobile_bg">
                    <use fill="black" fill-opacity="1" filter="url(#filter-2)" xlink:href="#path-1"></use>
                    <use fill="#3E3947" fill-rule="evenodd" xlink:href="#path-1"></use>
                </g>
                <rect id="Rectangle-4" fill="#4E4858" x="35" y="154" width="120" height="14" rx="2"></rect>
                <path d="M0,7 L0,6 C0,2.687 2.0769043,0 6,0 L184,0 C188.06543,0 190,2.687 190,6 L190,7 C190,3.687 187.313,1 184,1 L6,1 C2.687,1 0,3.687 0,7 Z" id="inner-shadow" fill="#FFFFFF" opacity="0.199615036"></path>
                <rect id="Rectangle-5" fill="#FFFFFF" x="136" y="270" width="36" height="36" rx="3"></rect>
                <circle id="Oval-2" fill="#3D3846" cx="154" cy="288" r="2"></circle>
                <circle id="Oval-2-Copy" fill="#3D3846" cx="154" cy="280" r="2"></circle>
                <circle id="Oval-2-Copy-2" fill="#3D3846" cx="154" cy="296" r="2"></circle>
            </g>
            <g id="default" transform="translate(750.000000, 253.000000)" fill-rule="nonzero">
                <g id="Combined-Shape">
                    <use fill="black" fill-opacity="1" filter="url(#filter-4)" xlink:href="#path-3"></use>
                    <use fill="#FFFFFF" fill-rule="evenodd" xlink:href="#path-3"></use>
                </g>
                <polygon id="Shape" fill="#000000" points="15.502 32.018 11.814 33.566 5.614 18.818 9.296 17.268 15.502 32.018"></polygon>
                <polygon id="Shape" fill="#000000" points="2 4.814 2 27.19 7.938 21.458 8.794 21.18 18.33 21.18"></polygon>
            </g>
        </g>
    </g>
</svg>